<svg xmlns="http://www.w3.org/2000/svg" width="147.748" height="147.748" viewBox="0 0 147.748 147.748">
  <path id="패스_329" data-name="패스 329" d="M1376.15,1377.974l12.958,23.923a20.2,20.2,0,0,0,8.144,8.144L1421.175,1423a20.206,20.206,0,0,1,0,35.534l-23.923,12.958a20.206,20.206,0,0,0-8.144,8.144l-12.958,23.923a20.206,20.206,0,0,1-35.534,0l-12.958-23.923a20.207,20.207,0,0,0-8.144-8.144l-23.923-12.958a20.206,20.206,0,0,1,0-35.534l23.923-12.958a20.206,20.206,0,0,0,8.144-8.144l12.958-23.923A20.206,20.206,0,0,1,1376.15,1377.974Z" transform="translate(-1284.509 -1366.891)" fill="#21284f" stroke="#707070" stroke-width="1"/>
</svg>
