<svg xmlns="http://www.w3.org/2000/svg" width="148.158" height="148.158" viewBox="0 0 148.158 148.158">
  <g id="그룹_558" data-name="그룹 558" transform="translate(0.705 0.705)">
    <path id="패스_903" data-name="패스 903" d="M1233.343,726.265a126.551,126.551,0,0,0,12.479-24.842c13.721-38.119-6.058-57.9-44.177-44.178a126.629,126.629,0,0,0-24.842,12.48,126.621,126.621,0,0,0-24.842-12.48c-38.119-13.72-57.9,6.059-44.177,44.178a126.558,126.558,0,0,0,12.479,24.842,126.563,126.563,0,0,0-12.479,24.842c-13.721,38.119,6.058,57.9,44.177,44.177a126.576,126.576,0,0,0,24.842-12.479,126.584,126.584,0,0,0,24.842,12.479c38.119,13.72,57.9-6.058,44.177-44.177A126.556,126.556,0,0,0,1233.343,726.265Z" transform="translate(-1103.429 -652.89)" fill="#f8f3ea" stroke="#a4a4a4" stroke-width="1"/>
  </g>
</svg>
