<svg id="그룹_83" data-name="그룹 83" xmlns="http://www.w3.org/2000/svg" width="326.751" height="138.909" viewBox="0 0 326.751 138.909">
  <path id="패스_7" data-name="패스 7" d="M250.989,141.555l-.008.046c-.078,0-.152-.019-.227-.019s-.157.016-.238.019l-.011-.046C250.667,141.557,250.83,141.555,250.989,141.555Zm-15.758-22.683c-.024.4-.049.847-.062,1.354-.306-.36-.609-.72-.91-1.086a6.107,6.107,0,0,1-1.741-3.882,2.281,2.281,0,0,1,.065-.644c.062-.022.144-.046.211-.065a3.456,3.456,0,0,1,2.163.265c.081.525.173,1.343.249,2.041A9.853,9.853,0,0,1,235.231,118.871Zm31.175,1.362c-.033-.644-.081-1.213-.127-1.724a7.415,7.415,0,0,1-.008-2.122c.078-.517.179-1.191.265-1.559a2.324,2.324,0,0,1,1.689-.517,1.82,1.82,0,0,1,.707,1.172A10.912,10.912,0,0,1,266.406,120.233Zm-22.626,76.1-.233.138A26.2,26.2,0,0,0,238.2,200.4,19.727,19.727,0,0,1,243.78,196.331Zm-4.369,35.52a17.239,17.239,0,0,1-5.6-8.841,28.509,28.509,0,0,0,12.466,11.235c.582.257,1.145.485,1.7.69A15.135,15.135,0,0,1,239.411,231.851ZM539.442,131.416a2.866,2.866,0,0,1,.736.068,2.9,2.9,0,0,1,.471,1.034c.076.246.233.769.36,1.27a14.1,14.1,0,0,0-1.892-2.363Q539.3,131.416,539.442,131.416Zm-22.913.222c.13.374.279.95.411,1.516a14.011,14.011,0,0,0-1.557-1.819A2.458,2.458,0,0,1,516.529,131.638Zm-96.176,91.309a9.365,9.365,0,0,1,1.5-.6,9.111,9.111,0,0,0,5.834-5.455,9.125,9.125,0,0,0,3.679,4.922,2.963,2.963,0,0,1,.282.206c.054.165.135.311.2.471a10.829,10.829,0,0,1-6.115,1.589A12.027,12.027,0,0,1,420.353,222.947Zm28.95-1.129a9.124,9.124,0,0,0,3.679-4.922,9.111,9.111,0,0,0,5.834,5.455,9.372,9.372,0,0,1,1.5.6,12.028,12.028,0,0,1-5.379,1.137,10.883,10.883,0,0,1-6.115-1.584c.062-.16.143-.309.2-.476A3.4,3.4,0,0,1,449.3,221.818Zm-17.653-15.46a2.976,2.976,0,0,1-.282.206,9.126,9.126,0,0,0-3.476,4.3,9.13,9.13,0,0,0-6.037-5.991,9.239,9.239,0,0,1-1.5-.593,11.968,11.968,0,0,1,5.376-1.137c3.611,0,5.812,1.237,6.478,1.871A9.372,9.372,0,0,0,431.65,206.358Zm28.669-2.079a9.385,9.385,0,0,1-1.5.593,9.135,9.135,0,0,0-6.037,5.991,9.127,9.127,0,0,0-3.476-4.3,3.009,3.009,0,0,1-.282-.206,9.142,9.142,0,0,0-.558-1.34c.7-.658,2.9-1.876,6.475-1.876A11.99,11.99,0,0,1,460.318,204.279Zm-55.7-34.454a2.81,2.81,0,0,1,.6.739c.214.338.409.69.609,1.04.122.214.249.441.384.674a6.327,6.327,0,0,1-1.218-1.2,2.484,2.484,0,0,1-.382-1.24Zm-24.253-38.355a4.287,4.287,0,0,1,.4,1.04c.054.2.1.409.152.62a11.728,11.728,0,0,0-1.443-1.716A4.141,4.141,0,0,1,380.363,131.471Zm-35.742,80.161c.222-1.094.393-2.206.52-3.327.165-.108.33-.206.493-.317l1.151.663-1.148-.663q.65-.439,1.286-.915a40.091,40.091,0,0,1,8.519,4.08,6.728,6.728,0,0,1-.744,2.066h0a6.82,6.82,0,0,1-9.313,2.5,6.792,6.792,0,0,1-1.73-1.473A9.154,9.154,0,0,0,344.621,211.631Zm-11.2,7.036a9.1,9.1,0,0,0,6.976-1.053,11.56,11.56,0,0,0,6.9,3.56,34.414,34.414,0,0,1-11.14,2.233c-6.47,0-11.938-4.164-12.011-9.115A28.941,28.941,0,0,0,333.421,218.667Zm23.2-87.129a7.549,7.549,0,0,1,.761,2.531A14.984,14.984,0,0,0,355.1,131.5,5.508,5.508,0,0,1,356.621,131.538ZM279.639,234.125l0,.079a7.5,7.5,0,0,1-2.028-.049c-.011-.731,0-1.462,0-2.193l.011-1.616a9.1,9.1,0,0,0-1.817-5.466,12.033,12.033,0,0,0-1.857-6.505c1.776.043,3.579.114,5.4.217a9.265,9.265,0,0,1,.265,1.825h0C279.712,224.753,279.72,229.363,279.639,234.125Zm22.374-19.933c0-3.814,2.352-7.794,6.527-11.248a24.95,24.95,0,0,0,0,22.494C304.366,221.983,302.013,218,302.013,214.192Zm72.527,9.139a17.387,17.387,0,0,0-.054-18.341c2.786,2.932,4.318,6.121,4.318,9.2C378.8,217.251,377.29,220.416,374.54,223.332Zm137.471,11.34c-4.478-.29-9.291-1.532-9.74-12.672-.005-.187-.014-.371-.019-.55a12.874,12.874,0,0,0,11.321,10.328q1.738.167,3.487.249C515.855,234.918,514.566,234.834,512.011,234.672Zm-9.372-21.809a16.493,16.493,0,0,1,.823-2.924c1.733-4.453,3.79-5.038,4.67-5.29a17.92,17.92,0,0,1,4.627-.8c-.138.03-.276.062-.414.095A13.331,13.331,0,0,0,502.639,212.863Zm35.823,21.771a5.916,5.916,0,0,1-.122-.79c-.016-.195-.014-.4-.019-.593a19.675,19.675,0,0,0-.279-3.289,11.608,11.608,0,0,0-1.608-4.055,15.146,15.146,0,0,0,2.252-8.438,15,15,0,0,0-1.762-6.9,9.139,9.139,0,0,0,1.045-3.665c.024-.36.054-.712.081-1.056.078-.934.168-1.992.173-3.156.011-2.58.005-5.162,0-7.742-.008-4.321-.016-8.79.051-13.146a6.444,6.444,0,0,1,.092-1.086,4.766,4.766,0,0,1,1.256-.157,12.779,12.779,0,0,1,.238,2.488c.054,5.187.046,10.487.038,15.615-.011,6.216-.022,12.645.078,19A143.86,143.86,0,0,0,541.3,233.7c.032.246.051.46.062.644A14.775,14.775,0,0,1,538.462,234.634Z" transform="translate(-223.612 -105.24)" fill="#f8f3ea"/>
  <g id="그룹_1" data-name="그룹 1" transform="translate(0 0)">
    <ellipse id="타원_1" data-name="타원 1" cx="36.373" cy="28.474" rx="36.373" ry="28.474" transform="translate(180.275 79.847)" fill="#3d342e"/>
    <ellipse id="타원_2" data-name="타원 2" cx="36.373" cy="28.474" rx="36.373" ry="28.474" transform="translate(182.041 80.426)" fill="#fb9fbc"/>
    <path id="패스_8" data-name="패스 8" d="M233.692,142.859c1.521-7.085-2.106-12.179-6.524-16.993-2.775-3.024-5.569-6.037-8.181-9.2a15.234,15.234,0,0,1-3.825-9.5,9.861,9.861,0,0,1,2.572-7.15,9.38,9.38,0,0,1,4.291-2.507c4.45-1.289,10.149.357,12.539,4.172,1,1.589,1.17,3.159,1.473,5.891.379,3.4-.314,4.02.227,7.81a23.36,23.36,0,0,0,1.508,5.29,5.136,5.136,0,0,0,1.21,2.147,4.879,4.879,0,0,0,3.389,1.3,5.043,5.043,0,0,0,3.663-1.283,5.548,5.548,0,0,0,1.253-2.128,18.919,18.919,0,0,0,1.475-4.667c.744-4.307-.379-5.414.2-9.285a11.935,11.935,0,0,1,1.638-5.236c2.374-3.541,8.343-6.134,13.36-3.671A10.688,10.688,0,0,1,269.68,108.5c-.666,4.036-2.761,7.277-5.387,10.282-3.462,3.961-6.925,7.924-10.271,11.982a11.343,11.343,0,0,0-2.748,8.395,96.108,96.108,0,0,1,.027,9.635,8.437,8.437,0,0,1-8.684,8.647,8.592,8.592,0,0,1-8.917-8.693C233.64,146.787,233.692,144.822,233.692,142.859Z" transform="translate(-215.159 -96.874)" fill="#0a1956"/>
    <path id="패스_9" data-name="패스 9" d="M350.381,156.145c.087-1.272.23-2.45.233-3.628.03-6.987-.049-13.974.054-20.961.079-5.265,2.3-8.441,6.432-9.643,5.254-1.532,10.271-.041,12.166,4.142a17.51,17.51,0,0,1,1.234,6.787c.122,11.505-.065,23.016.116,34.521a134.826,134.826,0,0,0,1.245,14.984c.693,5.384-1.088,9.172-5.72,10.412a24.04,24.04,0,0,1-7.407.78c-4.586-.241-7.477-3.722-7.967-9.053-.092-1.021-.005-2.074-.187-3.067a6.1,6.1,0,0,0-.882-1.67c-.455.5-1.167.915-1.329,1.524-2.469,9.22-6.976,12.859-15.4,12.315-11.467-.742-17.718-8.054-18.254-21.394-.214-5.357-.168-10.661,1.8-15.718,2.141-5.5,5.533-9.283,10.663-10.745,5.8-1.654,11.646-1.976,16.733,2.144C346.359,149.849,348.037,153.067,350.381,156.145Zm-8.557,5.723a56.8,56.8,0,0,0-5.815.8c-2.155.514-3.389,2.236-3.462,4.794-.076,2.726,1.21,4.83,3.454,5.046a60.413,60.413,0,0,0,11.6,0c2.231-.217,3.53-2.279,3.476-5.027-.051-2.591-1.3-4.28-3.435-4.808A52.9,52.9,0,0,0,341.824,161.868Z" transform="translate(-45.342 -55.133)" fill="#0a1956"/>
    <path id="패스_10" data-name="패스 10" d="M227.735,113.688a8.86,8.86,0,0,1-3.931,4.989,8.86,8.86,0,0,1,3.931,4.989,8.871,8.871,0,0,1,3.931-4.989A8.872,8.872,0,0,1,227.735,113.688Z" transform="translate(-200.401 -68.172)" fill="#fb9fbc"/>
    <path id="패스_11" data-name="패스 11" d="M322.363,115.189c-.874,3.59-2.217,9.486-3.763,15.325-1.662,6.283-3.462,12.534-5.32,18.763a30.681,30.681,0,0,1-2.29,5.409c-5.763,11.013-22.1,12.713-29.532,3.105-2.477-3.2-3.078-8.194-1.121-11.34a8.9,8.9,0,0,1,8.758-4.572,9.732,9.732,0,0,1,7.531,4.962c.994,1.578,1.779,3.381,3.092,4.629a4.248,4.248,0,0,0,3.565.639c.674-.2,1.386-1.884,1.27-2.8a25.089,25.089,0,0,0-1.673-6.143,2.958,2.958,0,0,0-2.271-1.308,14.189,14.189,0,0,1-13.092-8.287c-3.159-6.383-5.948-12.959-8.633-19.556a7.427,7.427,0,0,1,2.845-9c3.3-2.347,7.006-2.75,9.643-.439a17.658,17.658,0,0,1,3.917,5.6c2.407,4.97,4.513,10.084,6.825,15.1a12.626,12.626,0,0,0,2,2.815c1.31,1.524,2.9,2.063,4.737.907,2-1.253,2.057-3.138,1.123-4.919-1.026-1.96-2.472-3.7-3.687-5.563-1.592-2.445-2.729-5.035-2.106-8.056,1.021-4.946,5.406-7.861,10.883-7.258C319.645,103.708,322.542,107.479,322.363,115.189Z" transform="translate(-107.325 -86.362)" fill="#0a1956"/>
    <path id="패스_12" data-name="패스 12" d="M320.816,136.046c-.641,1.118-1.042,1.513-1.091,1.952-.544,4.7-3.3,7.38-7.745,8.43a11.821,11.821,0,0,1-11.316-3.219,13.938,13.938,0,0,1-4.407-9.778c-.33-7.569-.517-15.157-.36-22.732.1-4.913,3.395-7.607,8.257-7.564,4.846.043,8.029,3.008,8.189,8.035.171,5.439-.005,10.885.068,16.327a12.506,12.506,0,0,0,.663,4.174c.75,2,2.5,2.694,4.559,2.507a3.408,3.408,0,0,0,3.324-3.552c.206-5.076.246-10.16.376-15.238a46.992,46.992,0,0,1,.271-5.6c.593-4.036,3.647-6.554,7.8-6.641a7.187,7.187,0,0,1,7.661,6.343,41.933,41.933,0,0,1,.347,6.928c-.073,7.843,0,15.7-.441,23.525-.26,4.618-3.151,6.914-7.334,6.863a7.918,7.918,0,0,1-7.956-6.884C321.5,138.853,321.211,137.806,320.816,136.046Z" transform="translate(-77.426 -86.187)" fill="#0a1956"/>
    <path id="패스_13" data-name="패스 13" d="M259.777,136.779a5.017,5.017,0,0,0-.563,1.088c-2.009,8.208-9.862,11.411-17.085,6.919A12.47,12.47,0,0,1,236,134.892c-.541-8.086-.745-16.218-.6-24.321.089-4.911,3.549-7.583,8.37-7.434s7.84,2.962,8.016,7.9c.184,5.257.051,10.528.065,15.793a19.987,19.987,0,0,0,.092,2.672c.42,3.1,2.182,4.8,4.808,4.721,2.423-.073,3.82-1.489,3.941-4.789.214-5.883.1-11.776.211-17.664.095-5.068,2.409-7.778,7.087-8.517,4.207-.666,8.008,1.89,8.514,6.11a78.477,78.477,0,0,1,.333,9.876c-.046,6.955-.014,13.917-.384,20.856-.233,4.326-3.121,6.681-7.22,6.7a7.931,7.931,0,0,1-8.04-6.781c-.17-1.083-.417-2.152-.631-3.23Z" transform="translate(-180.685 -86.192)" fill="#0a1956"/>
    <ellipse id="타원_3" data-name="타원 3" cx="47.465" cy="30.008" rx="47.465" ry="30.008" transform="translate(69.396 78.892)" fill="#0a1956"/>
    <path id="패스_14" data-name="패스 14" d="M270.808,160.641c-12.266-3.105-24.24-22.125-22.372-35.637.568-4.112,2.677-5.084,5.837-3.6C265.583,126.691,273.767,146.091,270.808,160.641Z" transform="translate(-158.681 -56.118)" fill="#f8f3ea"/>
    <path id="패스_15" data-name="패스 15" d="M256.916,153.049c9.735-2.426,19.129-17.678,17.55-28.576-.479-3.316-2.163-4.115-4.667-2.943C260.838,125.724,254.463,141.3,256.916,153.049Z" transform="translate(-144.778 -55.653)" fill="#f8f3ea"/>
    <path id="패스_16" data-name="패스 16" d="M270.079,166.988c-11.668,0-21.124-8.205-21.124-18.327s9.456-18.33,21.124-18.33,31.79,8.205,31.79,18.33S281.747,166.988,270.079,166.988Z" transform="translate(-157.465 -39.76)" fill="#f8f3ea"/>
    <circle id="타원_4" data-name="타원 4" cx="2.316" cy="2.316" r="2.316" transform="translate(122.917 102.208)" fill="#fb9fbc"/>
    <path id="패스_17" data-name="패스 17" d="M316.671,120.65a41.134,41.134,0,0,0-1.113-9.529c-1.573-5.956-5.8-8.514-11.911-7.769a12.533,12.533,0,0,0-2.729.644,8.246,8.246,0,0,0-3.354,1.984l-.038.038c-.184.168-.365.349-.541.539-.033.038-.068.073-.1.111-.133.149-.263.3-.39.46-.024.032-.046.068-.07.1-.1.127-.187.257-.279.39-.062.089-.127.181-.184.273-.111.168-.214.344-.314.52l-.07.13a10.657,10.657,0,0,0-.636,1.391,10.325,10.325,0,0,0-.336,1.012c-.051.211-.1.409-.138.6-.019.076-.035.149-.052.225-.206.937-.3,1.524-.3,1.524-.214,1.348-.265,2.393-.809,2.577a.533.533,0,0,1-.349-.005.569.569,0,0,1-.3-.439c-.793-7.694-3.99-12.91-12.634-12.044a9.21,9.21,0,0,0-6.226,2.829v-.019a8.766,8.766,0,0,0-1.757,2.485,8.474,8.474,0,0,0-.612,1.773,34.513,34.513,0,0,0-.514,4.315.9.9,0,0,1-.287.707.589.589,0,0,1-.522.065c-.4-.157-.447-.866-.52-1.876-.116-1.6-.176-2.4-.184-2.485a11.712,11.712,0,0,0-.614-2.975,9.228,9.228,0,0,0-1.167-2.19l0,.008c-1.8-2.558-4.892-3.484-8.66-2.382-3.189.937-5.271,3.755-5.317,7.815-.1,9.1-.06,18.2-.011,27.3a8.424,8.424,0,0,0,.693,3.36,8.173,8.173,0,0,0,8.4,4.448c3.863-.69,6.178-2.829,6.459-6.741.322-4.44.146-8.915.246-13.371.041-1.868-.111-3.858.49-5.558a4.453,4.453,0,0,1,3.027-2.645c1.064-.06,2.591,1.262,3.219,2.369.65,1.142.593,2.756.615,4.166.07,4.461.016,8.923.046,13.384.019,2.7.744,5.138,3.1,6.762a8.172,8.172,0,0,0,8.844.744c2.851-1.443,4.015-3.928,4.039-7.02.043-5.084-.043-10.173.122-15.255.125-3.733,1.521-5.428,3.917-5.352,2.315.073,3.378,1.622,3.638,5.328.057.8.062,1.6.065,2.407.013,4.015-.043,8.032.057,12.044a11.612,11.612,0,0,0,.72,4.161,8.088,8.088,0,0,0,8.311,4.6c4.145-.693,6.741-2.959,6.925-6.944C316.852,133.322,316.814,126.979,316.671,120.65Z" transform="translate(-149.581 -86.113)" fill="#0a1956"/>
    <path id="패스_18" data-name="패스 18" d="M237.816,133.391" transform="translate(-176.481 -34.536)" fill="#fff"/>
    <path id="패스_19" data-name="패스 19" d="M233.01,133.222l2.407,1.316A20.421,20.421,0,0,0,233.01,133.222Z" transform="translate(-184.685 -34.824)" fill="#fff"/>
    <path id="패스_20" data-name="패스 20" d="M280.325,162.238a20.685,20.685,0,0,0-.793-4.859c-.839-3.108-2.872-5.525-6.18-5.747a165.71,165.71,0,0,0-17.7-.273c-.049,0-.1-.005-.146-.005-4.039,0-7.312,2.428-7.312,5.425,0,2.066,1.557,3.863,3.85,4.778a31.931,31.931,0,0,1,2.943,1.378,22.072,22.072,0,0,1,2,1.294c.138.125,1.589,1.492,1.229,2.945-.29,1.164-1.567,1.676-2.642,2.09a9.3,9.3,0,0,1-2.983.6l-.008.005c-.106,0-.211.011-.317.011h0c-.563.013-1.178-.011-1.849-.062-.217-.014-.428-.035-.642-.054l-.057-.005c-.092-.008-.173-.019-.263-.027-.447-.043-.891-.084-1.326-.149a20.827,20.827,0,0,1-6.522-1.673,13.706,13.706,0,0,1-2.509-1.437c-4-2.42-6.532-5.918-6.532-9.819,0-4.12,2.807-7.8,7.206-10.228a12.419,12.419,0,0,1,2.572-1.188,27.256,27.256,0,0,1,9.924-1.814,26.8,26.8,0,0,1,11.04,2.274c1.172.106,2.344.2,3.519.268,4.48.257,7.391-1.952,8.657-5.934,1.332-4.193.173-7.526-3.752-9.849a22.189,22.189,0,0,0-6.094-2.585,54.966,54.966,0,0,0-28.049.244c-7.788,2.225-14.064,6.494-18.262,13.506-3.576,5.972-4.529,12.4-3.947,19.066,1.44,16.524,12.6,28.073,31.035,25.282,6.67-1.01,10.552-4.737,11.624-11.124a14.217,14.217,0,0,1,.82-2.347l1.229.138c0,1.635-.043,3.273.011,4.905.133,4.015,1.63,6.367,5.436,7.434a17.649,17.649,0,0,0,7.071.536c5.36-.788,7.656-3.609,7.745-8.944C280.433,171.607,280.433,166.918,280.325,162.238Z" transform="translate(-215.051 -47.329)" fill="#0a1956"/>
    <path id="패스_21" data-name="패스 21" d="M263.013,146.44c-6.865-1.865-13.741-12.61-12.851-20.133.273-2.29,1.437-2.81,3.213-1.949C259.732,127.43,264.5,138.348,263.013,146.44Z" transform="translate(-155.537 -50.625)" fill="#fb9fbc"/>
    <path id="패스_22" data-name="패스 22" d="M310.689,104.423a8.88,8.88,0,0,1-3.931,4.989,8.871,8.871,0,0,1,3.931,4.989,8.855,8.855,0,0,1,3.928-4.989A8.864,8.864,0,0,1,310.689,104.423Z" transform="translate(-58.788 -83.988)" fill="#fb9fbc"/>
    <path id="패스_23" data-name="패스 23" d="M375.433,115.58a18,18,0,0,0-.937-4.71c-1.662-5.517-5.783-8.135-11.638-7.5a10.47,10.47,0,0,0-9.794,9.962c-.065.8-.241,1.589-.368,2.385l-.793.13c-1.191-3.879-1.183-8.454-5.122-10.82a11.512,11.512,0,0,0-12.223-.154c-4.166,2.358-4.247,6.8-4.851,10.94l-.969-.062c-.2-1.884-.328-3.779-.62-5.65-.891-5.7-5.585-8.406-10.858-6.17-3.6,1.527-4.691,4.681-4.705,8.3-.032,8.655-.054,17.312.033,25.967a10.187,10.187,0,0,0,.969,4.361c1.662,3.27,5.07,4.478,9.486,3.682,2.623-.471,4.8-2.75,5.081-6.153.33-4,.211-8.043.3-12.066v-6.218a7.152,7.152,0,0,1,.455-1.329,2.891,2.891,0,0,1,1.833-2.2,2.649,2.649,0,0,1,1.505-.4c1.57.092,2.964,1.654,3.489,3.925v1.337c.038.577.041,1.164.052,1.719.078,4.64-.06,9.285.089,13.92a7.912,7.912,0,0,0,8.078,7.948c4.5.024,7.742-3.232,7.848-8.07.1-4.459-.024-8.923.07-13.384a21.073,21.073,0,0,1,.187-2.856v-.615c.566-2.431,2.117-4.025,3.793-3.925,1.57.092,2.962,1.654,3.49,3.925v.078a18.2,18.2,0,0,1,.2,3.468c.059,4.1-.054,8.211.065,12.312a12.611,12.611,0,0,0,.866,4.667,8.022,8.022,0,0,0,8.492,4.212c4.166-.861,6.654-3.189,6.714-7.155C375.772,131.454,375.6,123.514,375.433,115.58Z" transform="translate(-48.94 -86.16)" fill="#0a1956"/>
    <path id="패스_24" data-name="패스 24" d="M325.121,125.8c-26.216,0-47.467,13.436-47.467,30.009S298.9,185.82,325.121,185.82s47.464-13.435,47.464-30.009S351.334,125.8,325.121,125.8Zm30.163,39.321c0,5.671-6.976,10.268-15.58,10.268-6.687,0-12.374-2.78-14.583-6.678-2.212,3.9-7.9,6.678-14.583,6.678-8.606,0-15.582-4.6-15.582-10.268,0-4.131,3.711-7.683,9.047-9.313-5.336-1.63-9.047-5.181-9.047-9.313,0-5.671,6.976-10.268,15.582-10.268,6.687,0,12.372,2.78,14.583,6.678,2.209-3.9,7.9-6.678,14.583-6.678,8.6,0,15.58,4.6,15.58,10.268,0,4.131-3.709,7.683-9.047,9.313C351.575,157.441,355.284,160.993,355.284,165.124Z" transform="translate(-108.472 -47.49)" fill="#0a1956"/>
    <path id="패스_25" data-name="패스 25" d="M297.667,135.259a8.881,8.881,0,0,1-3.931,4.989,8.871,8.871,0,0,1,3.931,4.989,8.866,8.866,0,0,1,3.928-4.989A8.875,8.875,0,0,1,297.667,135.259Z" transform="translate(-81.018 -31.347)" fill="#0a1956"/>
  </g>
</svg>
