<svg xmlns="http://www.w3.org/2000/svg" width="136.104" height="131.173" viewBox="0 0 136.104 131.173">
  <g id="그룹_728" data-name="그룹 728" transform="translate(11276 -4360)">
    <g id="그룹_726" data-name="그룹 726" transform="translate(-11276 4360)">
      <path id="패스_26" data-name="패스 26" d="M157.633,483.9a37.111,37.111,0,0,0,10.443-27.119c-.761-20.89-18.888-37.187-40.489-36.4a39.676,39.676,0,0,0-27.529,12.379A39.688,39.688,0,0,0,71.7,422.416c-21.6.785-38.5,18.357-37.737,39.247a37.093,37.093,0,0,0,11.966,25.9A37.144,37.144,0,0,0,35.081,515.1c.761,20.89,18.887,37.187,40.489,36.4A39.671,39.671,0,0,0,103.5,538.693a39.664,39.664,0,0,0,28.785,10.743c21.6-.786,38.5-18.357,37.735-39.247A37.1,37.1,0,0,0,157.633,483.9ZM101.6,486.6c-.087-.082-.177-.163-.264-.246q.327-.329.645-.667c.084.078.168.157.254.233C102.023,486.141,101.811,486.367,101.6,486.6Z" transform="translate(-33.939 -420.355)" fill="#63b79c"/>
    </g>
    <g id="그룹_727" data-name="그룹 727" transform="translate(-11244.939 4379.811)">
      <path id="패스_14" data-name="패스 14" d="M278.683,174.562c-16.547-4.189-32.7-29.846-30.18-48.073.767-5.547,3.612-6.858,7.874-4.861C271.635,128.765,282.675,154.934,278.683,174.562Z" transform="translate(-248.242 -120.749)" fill="#f8f3ea"/>
      <path id="패스_15" data-name="패스 15" d="M257.1,164.226c13.132-3.272,25.8-23.846,23.675-38.549-.646-4.473-2.918-5.551-6.3-3.97C262.392,127.365,253.792,148.381,257.1,164.226Z" transform="translate(-226.641 -120.027)" fill="#f8f3ea"/>
      <path id="패스_16" data-name="패스 16" d="M277.451,179.78c-15.74,0-28.5-11.069-28.5-24.723s12.756-24.727,28.5-24.727,42.885,11.069,42.885,24.727S293.191,179.78,277.451,179.78Z" transform="translate(-246.349 -95.339)" fill="#f8f3ea"/>
      <ellipse id="타원_4" data-name="타원 4" cx="3.125" cy="3.125" rx="3.125" ry="3.125" transform="translate(45.001 50.69)" fill="#fb9fbc"/>
      <path id="패스_21" data-name="패스 21" d="M267.525,154.282c-9.261-2.516-18.537-17.01-17.336-27.159.369-3.089,1.939-3.791,4.335-2.629C263.1,128.639,269.534,143.367,267.525,154.282Z" transform="translate(-243.356 -112.217)" fill="#fb9fbc"/>
    </g>
  </g>
</svg>
