<svg xmlns="http://www.w3.org/2000/svg" width="123.724" height="126.44" viewBox="0 0 123.724 126.44">
  <g id="그룹_778" data-name="그룹 778" transform="translate(-1065.504 -6095.58)">
    <path id="패스_896" data-name="패스 896" d="M-2691.565-2078.736a35.012,35.012,0,0,0,13.178-27.3c0-19.563-16.266-35.422-36.331-35.422a36.705,36.705,0,0,0-25.031,9.749,36.707,36.707,0,0,0-25.031-9.749c-20.065,0-36.331,15.859-36.331,35.422a35.013,35.013,0,0,0,13.178,27.3,35.012,35.012,0,0,0-13.178,27.3c0,19.563,16.266,35.422,36.331,35.422a36.706,36.706,0,0,0,25.031-9.749,36.7,36.7,0,0,0,25.031,9.749c20.065,0,36.331-15.859,36.331-35.422A35.011,35.011,0,0,0-2691.565-2078.736Z" transform="translate(3867.115 8237.536)" fill="#53f9ff" stroke="#707070" stroke-width="1"/>
    <text id="_53F9FF" data-name="#53F9FF" transform="translate(1092.469 6162.087)" fill="#343434" font-size="15" font-family="NanumBarunGothicBold, NanumBarunGothic"><tspan x="0" y="0">#53F9FF</tspan></text>
  </g>
</svg>
