<svg id="Layer_1" data-name="Layer 1" xmlns="http://www.w3.org/2000/svg" xmlns:xlink="http://www.w3.org/1999/xlink" viewBox="0 0 287.9 286.9"><defs><clipPath id="clip-path" transform="translate(-252.3 -143.7)"><path d="M482.2,183c.4-1.1,1.1-2.1,2.2-2a1.5,1.5,0,0,1-1-2.1,2.5,2.5,0,0,1,2.3-1.3,3.2,3.2,0,0,1,.5-3.1,3.5,3.5,0,0,1,2.9-1.2,1.5,1.5,0,0,1,1-2,1.8,1.8,0,0,1,2.2,1,2.4,2.4,0,0,1,2.1-1.4,2.2,2.2,0,0,1,2.1,1.3,2.8,2.8,0,0,1,4-.9c-.4-.3,3-3.8,4.8-2.1a3.8,3.8,0,0,1,4.3-2.8c0-.7.9-1.1,1.6-.9a7.8,7.8,0,0,0,2.1.4h.6c.5.1.7.6.8,1a3.4,3.4,0,0,1-.4,2.4,6.7,6.7,0,0,1,1.4-1.9,1.7,1.7,0,0,1,2.2,0,2.7,2.7,0,0,1,.7.8c.3.4.8.6,1.1,1a1.1,1.1,0,0,1,.1,1.3,1.7,1.7,0,0,1,1.9,1,1.7,1.7,0,0,1-.3,2.1,2.3,2.3,0,0,1,1.5,2,2.2,2.2,0,0,1-1.2,2.1c.8-.4.4,4.5.4,4.8s.4,5.3-.9,4.8c.5.2.4,1,.1,1.4s-.9.7-1.1,1.2a1.9,1.9,0,0,0-.1.8,2.4,2.4,0,0,1-2.3,2,2.4,2.4,0,0,1-.4,2.4,6.4,6.4,0,0,1-2.2,1.4,1.8,1.8,0,0,1-.5,2.5,3.2,3.2,0,0,1-2.7.2,1.5,1.5,0,0,1-2,1.6,1.4,1.4,0,0,1,.8,2.1,2.1,2.1,0,0,1-2.3.8,1.6,1.6,0,0,1,.8,1.7,1.8,1.8,0,0,1-1.4,1.1,2.6,2.6,0,0,1-.1,3.3c-1.1.9-2.2.2-3.3.2a1.8,1.8,0,0,1,1.5,1.4,5.4,5.4,0,0,1,0,2.2,1.9,1.9,0,0,1-.3,1,1.6,1.6,0,0,1-1.6.7,2.8,2.8,0,0,1-1.7-.9,2.3,2.3,0,0,1-3.7,1.2,2.3,2.3,0,0,1-2.5.7,2.3,2.3,0,0,1-1.6-1.9,3.1,3.1,0,0,1-1.9,1.3,1.6,1.6,0,0,1-1.9-1.1,2.7,2.7,0,0,1-1.9,1.8,1.7,1.7,0,0,1-2.1-1.2,1.9,1.9,0,0,1-2.3,1.3,1.8,1.8,0,0,1-1.2-2.4c-.9.3-1.8-.7-1.9-1.7a6,6,0,0,1,1-2.7c-1.5-.6-3-1.5-2.8-3.4a4.2,4.2,0,0,1,1.6-2.7c.6-.5,1.4-.5,1.4-1.3s-.9-.7-.7-1.3,1.7-.7,2.2-.5A1.6,1.6,0,0,1,483,199a1.6,1.6,0,0,1,1.1-1.5,2.7,2.7,0,0,1-1.4-2,2.3,2.3,0,0,1,1-2.1,2.3,2.3,0,0,1-1.2-1.8,2.4,2.4,0,0,1,.9-2.1,2.5,2.5,0,0,1-1.1-1.8,15.2,15.2,0,0,1,.3-2.1C481.2,185.4,481.9,183.9,482.2,183Z" fill="#00834b"/></clipPath></defs><title>clova</title><path d="M349.3,328.9l-33.7,37.4c-5.2-4.6-12.1-5.9-17.1-3.3a13.3,13.3,0,0,0-5.6,6.4c-1.8,4.9.3,9.4,1.3,11.5s5.2,6.1,12.8,12.6c5.5,4.6,8.6,6.9,13.1,8.8a32.7,32.7,0,0,0,4.7,1.6,12.5,12.5,0,0,0,5-.2c9-2,13.6-12.8,15.4-16.8,4.6-10,12.9-23.8,29.1-44.1l-22-16.2Z" transform="translate(-252.3 -143.7)" fill="#51bc99" stroke="#292447" stroke-miterlimit="10" stroke-width="12.19"/><path d="M441,345.7q7.5,24,15.2,48c6.7-2,13.4-.4,16.9,4.1a12.8,12.8,0,0,1,2.4,8.1c-.4,5.2-4.1,8.4-5.9,9.9s-7.2,3.5-16.9,6.2c-6.9,1.9-10.7,2.7-15.5,2.6a43.8,43.8,0,0,1-5-.5,13.8,13.8,0,0,1-4.4-2.2c-7.4-5.6-7.1-17.3-7.1-21.8,0-10.9-1.9-26.9-8.2-52.1l26.8-5.6Z" transform="translate(-252.3 -143.7)" fill="#51bc99" stroke="#292447" stroke-miterlimit="10" stroke-width="12.19"/><path d="M476.8,292c25.1-21.9,20-55.7,1.6-68.1-16.3-11-47.1-7.9-65.1,13.6-6-27.4-31.8-44.4-51.3-42.3-22,2.5-42.3,30-30.3,61.1-31.1,17.2-35.6,54.5-16,75.8,15.9,17.2,46.5,23,71.6,10.8,16.6,22.5,46.4,31.6,68.5,23.7C483,356.8,496.4,321.8,476.8,292Z" transform="translate(-252.3 -143.7)" fill="#51bc99" stroke="#292447" stroke-linecap="round" stroke-linejoin="round" stroke-width="12.19"/><polyline points="188.6 141 166.3 132.1 190 123.5" fill="none" stroke="#292447" stroke-linecap="round" stroke-linejoin="round" stroke-width="8.86"/><path d="M384.9,269.1l8.9-4.7c.4-6.8-1.8-12.2-5.7-13.2s-10.7,5.1-12.9,14.1,0,17.3,4.9,18.5,7.7-2.3,10.4-7.6Z" transform="translate(-252.3 -143.7)" fill="#292447"/><circle cx="145.7" cy="144.5" r="5.1" fill="#292447"/><line x1="107.9" y1="78.7" x2="120.8" y2="100.7" fill="none" stroke="#29775b" stroke-linecap="round" stroke-miterlimit="10" stroke-width="8.49"/><line x1="184.4" y1="179.7" x2="197.3" y2="201.8" fill="none" stroke="#29775b" stroke-linecap="round" stroke-miterlimit="10" stroke-width="8.49"/><line x1="101" y1="159.2" x2="79.3" y2="172.7" fill="none" stroke="#29775b" stroke-linecap="round" stroke-miterlimit="10" stroke-width="8.49"/><line x1="213.4" y1="99.5" x2="191.7" y2="113" fill="none" stroke="#29775b" stroke-linecap="round" stroke-miterlimit="10" stroke-width="8.49"/><path d="M395.5,313a11.5,11.5,0,0,0,10.9,7.9c6.8.1,14.7-4.4,19.4-11.2" transform="translate(-252.3 -143.7)" fill="none" stroke="#292447" stroke-linecap="round" stroke-linejoin="round" stroke-width="8.86"/><path d="M412.5,315.8c-5.4-2.8-5.3-17.7,1.1-20.6s14.4,2.9,14.9,9.4S417.4,318.5,412.5,315.8Z" transform="translate(-252.3 -143.7)" fill="#dd78af" stroke="#292447" stroke-linecap="round" stroke-linejoin="round" stroke-width="8.86"/><path d="M308.3,331a4.4,4.4,0,0,1-4.5-4v-.2c-1.6-19.9-5.5-53.4-8.7-58.5l-1.5-1.7-2.5-2.3c-2.9-2.4-6.1-5.1-7.7-9.7a27.3,27.3,0,0,1-1.5-5.6v-.2c-1.7-13.2,5.5-25.7,12.8-27.6h2.2c7.6,0,17.7,9.2,20,22.5h.1a37.9,37.9,0,0,1,.2,5.8c-.2,5.1-2.5,8.8-4.5,12.1l-1.4,2.2a27.2,27.2,0,0,0-1.2,2.5c-2,5.8,4.6,38.8,9.2,58.2,0,.1,0,.2.1.2a4.7,4.7,0,0,1-.8,3.6c-1.2,1.6-3.1,1.8-4.7,2h-1l-1.2.2-1,.2A19.7,19.7,0,0,1,308.3,331Z" transform="translate(-252.3 -143.7)" fill="#95a0a5"/><path d="M296.9,223.5c6.2,0,15.4,8.5,17.5,20.4a32.9,32.9,0,0,1,.2,5.4c-.2,5.5-3.4,9.3-5.5,13.1a13.5,13.5,0,0,0-1.4,3c-3,8.7,9.1,59.6,9.1,59.6.4,2.5-1.7,2.4-4.3,2.8l-1.2.2a19.2,19.2,0,0,1-3,.4c-1,0-1.7-.4-1.9-1.8s-4.3-52.2-9.1-59.7a20,20,0,0,0-1.9-2.2c-3.1-3.1-7.7-5.6-9.6-11a28.3,28.3,0,0,1-1.4-5.2c-1.5-12.2,5.1-23.2,11-24.8h1.5m0-5.1h-1.7l-.9.2h-.2c-8.5,2.3-16.6,15.7-14.8,30.4v.3a42.1,42.1,0,0,0,1.6,6.1c1.9,5.2,5.5,8.3,8.5,10.8a16,16,0,0,1,2.3,2.1h.1a5.8,5.8,0,0,1,1.1,1.3c2.6,4.1,6.3,33,8.3,57.3,0,.2.1.3.1.4a6.9,6.9,0,0,0,7,6.2,13.5,13.5,0,0,0,2.9-.4h.9l1.2-.2h.9c1.8-.3,4.6-.6,6.5-3a7.3,7.3,0,0,0,1.2-5.6.8.8,0,0,0-.1-.4c0-.1-3-12.7-5.6-26.1-4.8-25.3-3.8-30.2-3.6-30.7a9.2,9.2,0,0,1,1-2,22.5,22.5,0,0,1,1.2-2.1c2.2-3.4,4.8-7.6,5-13.4a34,34,0,0,0-.3-6.3V243c-2.4-13.1-12.9-24.6-22.6-24.6Z" transform="translate(-252.3 -143.7)" fill="#475770"/><g opacity="0.5"><path d="M296.1,260.7a1.1,1.1,0,0,1-.8-.2c-.4-.2-9.6-5.6-8.9-16.5.4-7.3,5.4-13.5,5.6-13.8a1.3,1.3,0,0,1,1.8-.2,1.4,1.4,0,0,1,.2,1.8c-.1.1-4.7,5.9-5.1,12.4-.5,9.2,7.3,13.9,7.6,14.1a1.3,1.3,0,0,1,.5,1.8A1.5,1.5,0,0,1,296.1,260.7Z" transform="translate(-252.3 -143.7)" fill="#e3f8ff"/></g><g opacity="0.5"><path d="M297.3,228.2A1.5,1.5,0,0,1,296,230a1.7,1.7,0,0,1-1.8-1.3,1.6,1.6,0,0,1,1.4-1.8A1.4,1.4,0,0,1,297.3,228.2Z" transform="translate(-252.3 -143.7)" fill="#e3f8ff"/></g><path d="M473.7,357.8a7.7,7.7,0,0,1-3.7-1.4l-.8-.5-1.2-.7-.8-.4c-1.5-.8-3-1.7-3.4-3.3a4.2,4.2,0,0,1,.5-3.2c0-.1,0-.1.1-.1,11.8-17.5,29.6-45.9,30.3-52.1a20.9,20.9,0,0,0-.1-2.4c-.1-1.1-.4-2.2-.6-3.4s-.6-3.4-.8-5.2a24.3,24.3,0,0,1,.2-4.7l.3-.7,9.3-14.5,6.6-10.4a3.2,3.2,0,0,1,2.8-1.5,2.9,2.9,0,0,1,1.6.4l2.5,1.5a2,2,0,0,1,1.1,1.7h.3a1.9,1.9,0,0,1,1,.3l2.9,1.7a2,2,0,0,1,.7,2.7l-12.1,21,.7.3,12.1-20.9a2.2,2.2,0,0,1,1.8-1l1,.3,2.8,1.6a1.6,1.6,0,0,1,.9,1.1,1.7,1.7,0,0,1,1-.3,1.9,1.9,0,0,1,1,.3l2.5,1.5a3.2,3.2,0,0,1,1.2,4.4l-13.6,26.1a1.5,1.5,0,0,1-.4.6,18.9,18.9,0,0,1-3.9,2.6,40.1,40.1,0,0,1-5.4,2.1l-2.5.9-2.6,1.3c-5.4,3.5-20.8,33.1-29.9,52.1v.2a3.8,3.8,0,0,1-3.4,2.1Z" transform="translate(-252.3 -143.7)" fill="#95a0a5"/><path d="M512.4,255.3l.6.2,2.5,1.4-2.6,4.7L502.2,280l2.6,1.5,13.1-22.6,2.9,1.6-13.1,22.7,4.1,2.4L525,262.9l2.8,1.7-13.1,22.7,2.6,1.5L528,270.2l2.7-4.5,2.5,1.4a1.3,1.3,0,0,1,.5,1.7L528,279.6,520,295a15.6,15.6,0,0,1-3.4,2.3c-2.6,1.3-5.3,2-7.7,3a13.8,13.8,0,0,0-3,1.4c-7.9,5-30.6,52.9-30.6,52.9s-1,1.2-1.6,1.2-2.1-.9-3.5-1.7l-1.1-.6c-2.3-1.3-4.3-2-3-4.2,0,0,29.6-44,30.6-52.9a15.1,15.1,0,0,0-.1-3c-.3-2.6-1.1-5.4-1.3-8.5a18.9,18.9,0,0,1,.1-4.1l9.3-14.6,6.6-10.3a1.4,1.4,0,0,1,1.1-.6m0-4.1h0a5.2,5.2,0,0,0-4.5,2.6l-6.6,10.3L492,278.6a4.7,4.7,0,0,0-.6,1.5,22,22,0,0,0-.2,5.2,43.7,43.7,0,0,0,.8,5.4c.2,1.1.5,2.2.6,3.2h0a6.6,6.6,0,0,1,0,2c-.5,5-15.6,29.9-29.9,51.1l-.2.3a6.1,6.1,0,0,0-.7,4.7c.7,2.5,2.8,3.7,4.4,4.5l.8.5,1.1.6.8.5c1.4.8,2.9,1.8,4.8,1.8a5.8,5.8,0,0,0,5.1-3.2l.2-.3c0-.1,5.7-12.1,12.2-24.5,12.2-23,16.2-26.3,16.9-26.8l2.3-1.1,2.4-.8a41.5,41.5,0,0,0,5.6-2.3,20,20,0,0,0,4.3-2.8,4.7,4.7,0,0,0,.9-1.2l8-15.4,5.6-10.7a5.4,5.4,0,0,0-2-7.2l-2.5-1.4a3.6,3.6,0,0,0-2-.6h-.1l-.7-.5-2.9-1.7a3.9,3.9,0,0,0-2-.5h-.5a3.5,3.5,0,0,0-1.7-1.9l-2.9-1.7-.8-.3a4.6,4.6,0,0,0-1.5-1.6L515,252a5,5,0,0,0-2.6-.8Z" transform="translate(-252.3 -143.7)" fill="#475770"/><path d="M538.7,218.2l-3.4,3.1a110.5,110.5,0,0,0-15.6-14.5,68.5,68.5,0,0,0-10.7-7.1l2.3-3.9a67.9,67.9,0,0,1,11.2,7.4A112.6,112.6,0,0,1,538.7,218.2Z" transform="translate(-252.3 -143.7)" fill="#00834b"/><path d="M537.2,219.8l-2.9,3.6a111.2,111.2,0,0,0-17.7-11.8,74,74,0,0,0-11.7-5.3l1.6-4.2a68.6,68.6,0,0,1,12.3,5.5A122,122,0,0,1,537.2,219.8Z" transform="translate(-252.3 -143.7)" fill="#00834b"/><path d="M536.9,220.2l3.3-3.3a106.2,106.2,0,0,1-13.7-16.2,63.8,63.8,0,0,1-6.6-11.1l-4.1,2.1a69.7,69.7,0,0,0,6.9,11.6A127.3,127.3,0,0,0,536.9,220.2Z" transform="translate(-252.3 -143.7)" fill="#00834b"/><path d="M537.5,219.3l-3.4,3.1a110.5,110.5,0,0,0-15.6-14.5,68.5,68.5,0,0,0-10.7-7.1l2.3-4a75.4,75.4,0,0,1,11.2,7.5A112.6,112.6,0,0,1,537.5,219.3Z" transform="translate(-252.3 -143.7)" fill="#41a359"/><path d="M535,222.3l3.2-3.3a117.9,117.9,0,0,1-13.7-16.2,63.8,63.8,0,0,1-6.6-11.1l-4,2.1a69.3,69.3,0,0,0,6.8,11.6A121.1,121.1,0,0,0,535,222.3Z" transform="translate(-252.3 -143.7)" fill="#41a359"/><path d="M536.2,221.1l-2.9,3.6a108.9,108.9,0,0,0-17.7-11.8,65.3,65.3,0,0,0-11.7-5.3l1.6-4.3a71.6,71.6,0,0,1,12.2,5.5A126.3,126.3,0,0,1,536.2,221.1Z" transform="translate(-252.3 -143.7)" fill="#41a359"/><path d="M482.2,183c.4-1.1,1.1-2.1,2.2-2a1.5,1.5,0,0,1-1-2.1,2.5,2.5,0,0,1,2.3-1.3,3.2,3.2,0,0,1,.5-3.1,3.5,3.5,0,0,1,2.9-1.2,1.5,1.5,0,0,1,1-2,1.8,1.8,0,0,1,2.2,1,2.4,2.4,0,0,1,2.1-1.4,2.2,2.2,0,0,1,2.1,1.3,2.8,2.8,0,0,1,4-.9c-.4-.3,3-3.8,4.8-2.1a3.8,3.8,0,0,1,4.3-2.8c0-.7.9-1.1,1.6-.9a7.8,7.8,0,0,0,2.1.4h.6c.5.1.7.6.8,1a3.4,3.4,0,0,1-.4,2.4,6.7,6.7,0,0,1,1.4-1.9,1.7,1.7,0,0,1,2.2,0,2.7,2.7,0,0,1,.7.8c.3.4.8.6,1.1,1a1.1,1.1,0,0,1,.1,1.3,1.7,1.7,0,0,1,1.9,1,1.7,1.7,0,0,1-.3,2.1,2.3,2.3,0,0,1,1.5,2,2.2,2.2,0,0,1-1.2,2.1c.8-.4.4,4.5.4,4.8s.4,5.3-.9,4.8c.5.2.4,1,.1,1.4s-.9.7-1.1,1.2a1.9,1.9,0,0,0-.1.8,2.4,2.4,0,0,1-2.3,2,2.4,2.4,0,0,1-.4,2.4,6.4,6.4,0,0,1-2.2,1.4,1.8,1.8,0,0,1-.5,2.5,3.2,3.2,0,0,1-2.7.2,1.5,1.5,0,0,1-2,1.6,1.4,1.4,0,0,1,.8,2.1,2.1,2.1,0,0,1-2.3.8,1.6,1.6,0,0,1,.8,1.7,1.8,1.8,0,0,1-1.4,1.1,2.6,2.6,0,0,1-.1,3.3c-1.1.9-2.2.2-3.3.2a1.8,1.8,0,0,1,1.5,1.4,5.4,5.4,0,0,1,0,2.2,1.9,1.9,0,0,1-.3,1,1.6,1.6,0,0,1-1.6.7,2.8,2.8,0,0,1-1.7-.9,2.3,2.3,0,0,1-3.7,1.2,2.3,2.3,0,0,1-2.5.7,2.3,2.3,0,0,1-1.6-1.9,3.1,3.1,0,0,1-1.9,1.3,1.6,1.6,0,0,1-1.9-1.1,2.7,2.7,0,0,1-1.9,1.8,1.7,1.7,0,0,1-2.1-1.2,1.9,1.9,0,0,1-2.3,1.3,1.8,1.8,0,0,1-1.2-2.4c-.9.3-1.8-.7-1.9-1.7a6,6,0,0,1,1-2.7c-1.5-.6-3-1.5-2.8-3.4a4.2,4.2,0,0,1,1.6-2.7c.6-.5,1.4-.5,1.4-1.3s-.9-.7-.7-1.3,1.7-.7,2.2-.5A1.6,1.6,0,0,1,483,199a1.6,1.6,0,0,1,1.1-1.5,2.7,2.7,0,0,1-1.4-2,2.3,2.3,0,0,1,1-2.1,2.3,2.3,0,0,1-1.2-1.8,2.4,2.4,0,0,1,.9-2.1,2.5,2.5,0,0,1-1.1-1.8,15.2,15.2,0,0,1,.3-2.1C481.2,185.4,481.9,183.9,482.2,183Z" transform="translate(-252.3 -143.7)" fill="#00834b"/><g clip-path="url(#clip-path)"><path d="M494.9,201.9a3.8,3.8,0,0,1-4.3,2.9c.1.7-.9,1.1-1.5.9a7.8,7.8,0,0,0-2.1-.4h-.6a1.3,1.3,0,0,1-.9-1.1,3.7,3.7,0,0,1,.4-2.3,6.7,6.7,0,0,1-1.4,1.9,1.8,1.8,0,0,1-2.2.1l-.7-.9-1.1-.9a1.1,1.1,0,0,1-.1-1.3,1.9,1.9,0,0,1-2-.9,2,2,0,0,1,.3-2.2,2,2,0,0,1-1.5-1.9,2,2,0,0,1,1.2-2.1c-.9.4-.5-4.5-.5-4.9s-.6-5.3.8-4.8c-.5-.2-.5-1-.1-1.4s.8-.7,1-1.2a2.5,2.5,0,0,1,.1-.8,2.5,2.5,0,0,1,2.3-2.1,2.1,2.1,0,0,1,.3-2.4,8.3,8.3,0,0,1,2.2-1.4,1.7,1.7,0,0,1,.4-2.5,3.6,3.6,0,0,1,2.7-.3,1.4,1.4,0,0,1,1.9-1.6,1.5,1.5,0,0,1-.8-2.1,2.4,2.4,0,0,1,2.3-.9,1.4,1.4,0,0,1-.8-1.6,1.5,1.5,0,0,1,1.4-1.1,2.6,2.6,0,0,1,0-3.4c1.1-.9,2.1-.2,3.3-.2a1.9,1.9,0,0,1-1.6-1.4,5.4,5.4,0,0,1,0-2.2,1.9,1.9,0,0,1,.3-1,1.6,1.6,0,0,1,1.6-.7,3,3,0,0,1,1.7.8,2.4,2.4,0,0,1,3.7-1.3,2.2,2.2,0,0,1,2.4-.7c1,.2,1.5,1.3,2.1,2.1a1.6,1.6,0,0,1,1.5-1.2,1.7,1.7,0,0,1,1.6,1.2,1.6,1.6,0,0,1,2.3-.6,3.4,3.4,0,0,1,1.3,2.3,2.4,2.4,0,0,1,2.6-.8,2.3,2.3,0,0,1,1.3,2.4,2,2,0,0,1,1.9,1.1,2,2,0,0,1-.1,2.2,2.7,2.7,0,0,1,1,3.6c1.6,1.1.9,1.9-.3,3a4,4,0,0,1,.8,3.9,1.9,1.9,0,0,0-.2.7c0,.7.7,1.3.6,2s-.4.7-.5,1.1a2,2,0,0,0,.1,1.1,3.6,3.6,0,0,1-.1,2.3,2.1,2.1,0,0,1-1.7,1.3,2.3,2.3,0,0,1,.9,2.3,2.4,2.4,0,0,1-1.7,1.8,2.1,2.1,0,0,1,.7,2.1c-.2.6-1,1-1.4,1.5a6.4,6.4,0,0,0-1.1,2.7,5.4,5.4,0,0,1-5,3.6,2.6,2.6,0,0,1-3.6,2,4,4,0,0,1-2.9,1.4,9.3,9.3,0,0,1-3.3-.4C499.1,200.8,496.8,203.6,494.9,201.9Z" transform="translate(-252.3 -143.7)" fill="#41a359"/></g><circle cx="61.2" cy="21.9" r="21.9" fill="#f15b38"/><path d="M331.4,166a1.8,1.8,0,0,1,.4,1.3c.1,4.7-3,8.9-6.8,11.6-1.5,1.1-3.4,2.1-5.1,1.2s-2.6-4.1-3.1-6-1.1-4.8-1.6-7.1,1.5-2,3.2-2S329.4,162.9,331.4,166Z" transform="translate(-252.3 -143.7)" fill="#e64437"/><path d="M318.1,170.7c-1.8-1.7-2.7-3.7-2-4.5s2.8-.1,4.6,1.6,2.7,3.7,2,4.5S319.9,172.3,318.1,170.7Z" transform="translate(-252.3 -143.7)" fill="#f15b38"/><path d="M305.2,180.9a1.8,1.8,0,0,1-1.4-.2c-4.3-1.7-6.9-6.3-7.9-10.9-.3-1.8-.4-4,1-5.1s4.9-.7,6.9-.4,4.7.9,7.1,1.5,1.2,2.1.5,3.6S308.8,180.4,305.2,180.9Z" transform="translate(-252.3 -143.7)" fill="#e64437"/><path d="M306.3,166.9c2.3-1,4.5-1,4.9,0s-1.1,2.6-3.3,3.5-4.5,1-4.9,0S304.1,167.8,306.3,166.9Z" transform="translate(-252.3 -143.7)" fill="#f15b38"/><path d="M305.4,150.1a2.6,2.6,0,0,1,1-1.1c4-2.5,9.2-1.9,13.5-.1,1.6.8,3.5,2,3.6,3.8s-2.2,4.4-3.7,5.8-3.4,3.4-5.3,5-2.4-.3-3.2-1.7S303.8,153.3,305.4,150.1Z" transform="translate(-252.3 -143.7)" fill="#e64437"/><path d="M316.3,159.1c-.6,2.4-1.8,4.2-2.9,4s-1.5-2.4-.9-4.8,1.8-4.2,2.8-3.9S316.8,156.7,316.3,159.1Z" transform="translate(-252.3 -143.7)" fill="#f15b38"/><path d="M268.4,302.2c0,1.1-.1,2.2.6,3a2.9,2.9,0,0,0,2.4.4,10.1,10.1,0,0,1,2.5-.4c5.2.1.9,5.8.7,8-.3,3.7,5.7,5.1,6.1,8.7s-3.4,5.6-2.3,8.4,3.5,2.6,3.8,4.6-.6,2.5-1.4,3.6a25.3,25.3,0,0,0-4.6,12.4c-2.2-2.8-5.6-4.1-8.8-5.6s-5.1-3.6-7.4-6-2.2-3.5-1-5,2.5-1.7,2.4-3a2.3,2.3,0,0,0-.8-1.4c-1.9-2-4.5-3.5-5.7-6.1a2.9,2.9,0,0,1,0-2.7c.8-1,2.4-.9,3.4-1.6a3,3,0,0,0,1-2.7c-.3-3.1-3.3-4-5.3-5.9s-2.3-6.6,1.9-6.1h1.7a2.2,2.2,0,0,0,1.6-.4,1.7,1.7,0,0,0,.6-1.1,11.5,11.5,0,0,0-.2-3.2,3.1,3.1,0,0,1,1.5-3.7c3.9-2.2,7.2,2.1,7.3,5.6Z" transform="translate(-252.3 -143.7)" fill="#569743"/><path d="M263.2,298.9a36.8,36.8,0,0,0,1.7,7.3l2,7.3,3.9,14.5c1.3,4.8,2.6,9.7,3.8,14.6s2.3,9.7,3.2,14.7h-.3l-4-14.6-3.9-14.5c-1.2-4.8-2.5-9.7-3.6-14.6-.6-2.4-1.2-4.9-1.7-7.3l-.7-3.7A12.3,12.3,0,0,1,263.2,298.9Z" transform="translate(-252.3 -143.7)" fill="#6da648"/><path d="M494.6,364.7a8.1,8.1,0,0,0-1.5,5.2c.1.9,1.6,5.5-.3,6,1.3-.3,2.3-.5,3,.6a24.3,24.3,0,0,1,1.6,3.7c2.2,4.4,8.8,6.8,13.5,6.4a37.2,37.2,0,0,0,24.6-12.5c.9-1.2,1.9-2.5,1.7-4a5.3,5.3,0,0,0-1.3-2.3,30.4,30.4,0,0,0-34.4-8.2A15.3,15.3,0,0,0,494.6,364.7Z" transform="translate(-252.3 -143.7)" fill="#6ba743"/><path d="M535.1,370.6a58,58,0,0,0-12.5-.7,87.7,87.7,0,0,0-12.4,1.6c-4.1.8-8.1,1.8-12.2,3l-5.9,1.9-3,1-3,1a118.4,118.4,0,0,1,11.7-4.6c4-1.3,8.1-2.4,12.2-3.3a76.9,76.9,0,0,1,12.6-1.3A43.6,43.6,0,0,1,535.1,370.6Z" transform="translate(-252.3 -143.7)" fill="#48733d"/></svg>