<svg id="Layer_1" data-name="Layer 1" xmlns="http://www.w3.org/2000/svg" viewBox="0 0 303.3 322.9"><title>dog</title><path d="M473,363.1a34.2,34.2,0,0,0,24.1,2.9c15-3.7,21.5-16.3,22.4-18.2a25.2,25.2,0,0,1,.6,28.1A24.9,24.9,0,0,1,496.5,387a86.1,86.1,0,0,1-22.5-8.2c-13-7.1-25.5-18.4-23.9-21.2S455.5,356.2,473,363.1Z" transform="translate(-269.3 -149.9)" fill="#e0aa85" stroke="#292447" stroke-linecap="round" stroke-miterlimit="10" stroke-width="7.51"/><path d="M543.7,415.6c1-9.1-1.6-24.6-11.8-27.5s-17.7,6-18.6,6.9l-30.7-16.4c-4.6-11.6-5.5-20.7-5.4-27.1,0,0,.2-16-2-25.8-.4-1.5-.7-2.9-.7-2.9-.7-2.3-1.3-3.9-1.9-5.7-2.5-8-4.6-20.2-1.8-38.1l-69.9-5.2a34.3,34.3,0,0,1-9.9,12.8,33.8,33.8,0,0,1-14.3,6.8,156.8,156.8,0,0,1-16,.4c-8.8-.2-13.2-.4-17.2-2.8s-3.7-3.5-7.4-5.1a20.7,20.7,0,0,0-11.7-1.1c-.5.1-10.6,2.4-14.4,12-.6,1.3-3,7.5-.1,13.7,1.9,3.8,4.9,5.7,7.4,7.2s8.8,5.5,16.6,3.4a18.7,18.7,0,0,0,5.9-3,30.6,30.6,0,0,0,7.2,5.7,29.5,29.5,0,0,0,15.9,3.5,89.7,89.7,0,0,0,13.6-1.3,86.6,86.6,0,0,0,11.5-3,207.3,207.3,0,0,0,0,28.6,128.8,128.8,0,0,0,1.6,14.9c1.7,7.6,3.3,15.1,5,22.7l3.8,8.2-29.1,25.3c-1.1-.6-11.2-6.6-18.9-2.3s-7.8,19.8-4.9,28c4.1,11.4,14,16.6,16.7,17.9A30.7,30.7,0,0,0,372,469c5.9.5,17.4-.3,46.7-27.4,12.3-11.5,24.6-24.7,28.1-28.6,6.3,4,13.7,8.7,21.1,12.9,36.3,20.9,48.2,19,54,17a32.5,32.5,0,0,0,9.3-5C533.7,435.9,542.4,428.2,543.7,415.6Z" transform="translate(-269.3 -149.9)" fill="#f8f3ea" stroke="#292447" stroke-linecap="round" stroke-linejoin="round" stroke-width="7.51"/><path d="M334.7,276.3" transform="translate(-269.3 -149.9)" fill="#f8f3ea" stroke="#f37" stroke-miterlimit="10" stroke-width="1.88"/><path d="M447.6,370.7" transform="translate(-269.3 -149.9)" fill="#f8f3ea" stroke="#f37" stroke-miterlimit="10" stroke-width="1.88"/><ellipse cx="361.8" cy="446.8" rx="9.9" ry="15.8" transform="translate(-437.3 73.6) rotate(-28.2)" fill="#896954"/><path d="M390.1,169.9s-12.3-22.6-32.2-14.5c-22.4,9.2-35.2,38.5-40.9,54-7.1,19.4-6.2,31.1-5.6,35.6s1.7,13.2,7.4,19.1c7.7,8.2,18.1,5.1,19.9,4.6,6.2-2.9,17-9,27.7-21.8,13.9-16.7,19.8-35.3,22.1-43.8" transform="translate(-269.3 -149.9)" fill="#e0aa85" stroke="#292447" stroke-linecap="round" stroke-miterlimit="10" stroke-width="7.51"/><ellipse cx="155.6" cy="82.7" rx="79.1" ry="71.3" fill="#f8f3ea" stroke="#292447" stroke-linecap="round" stroke-linejoin="round" stroke-width="7.51"/><ellipse cx="181.3" cy="68.4" rx="44.4" ry="46.3" fill="#e0aa85"/><ellipse cx="180.3" cy="69.5" rx="44.4" ry="46.3" fill="#e0aa85"/><path d="M466.2,175s18.2-18.1,38.2-7.4c22.4,12.1,30.1,40.5,33,55.4,3.6,18.6.2,28.9-1.4,32.8s-4.7,11.5-12.1,15.8c-10.2,5.9-20.8,1.4-22.6.6a80.7,80.7,0,0,1-25.6-24.3c-11.6-17.3-14.1-35-14.8-43" transform="translate(-269.3 -149.9)" fill="#e0aa85" stroke="#292447" stroke-linecap="round" stroke-miterlimit="10" stroke-width="7.51"/><path d="M364.5,244.4a27.2,27.2,0,0,1,1.3-9.7,22.8,22.8,0,0,1,3.1-6.8,17,17,0,0,1,4.3-4.6,18.1,18.1,0,0,1,6.1-2.9,23.3,23.3,0,0,0-6.9,9.5c-3.2,7.9-2.5,18.9,3.8,24a14.1,14.1,0,0,0,6.5,2.9,14.4,14.4,0,0,0,9.5-2.1,14.8,14.8,0,0,0,6.2-8.6l-8.5-4.1,9.7-2.4a23.1,23.1,0,0,0-2.4-13.9,16.9,16.9,0,0,0-6.4-6.9,15.5,15.5,0,0,0-6.4-2.1,18.6,18.6,0,0,0-15.2,5.5c-7.7,7.9-4.6,22.2-4.7,22.2" transform="translate(-269.3 -149.9)" fill="#292447"/><path d="M412,260.5c0,2.3-2.8,4.2-6.1,4.2s-6.1-1.9-6.1-4.2,2.7-4.3,6.1-4.3,6.1,1.9,6.1,4.3" transform="translate(-269.3 -149.9)" fill="#292447"/><path d="M379.4,227.2l2.3,4.5,5,.8-3.6,3.5c1.3,2.4,2.7,4.7,4.1,7l-7.8-4.3-3.9,1.2.3-3.9-3.7-3.5,5-.8Z" transform="translate(-269.3 -149.9)" fill="#f8f3ea"/><path d="M408.2,273.4c3.2,6.1,9.9,8,15,4.3s6.7-11.6,4-17.9c.1,1,.5,7.5-3.2,12.1S413.7,277.3,408.2,273.4Z" transform="translate(-269.3 -149.9)" fill="#292447"/><ellipse cx="102.8" cy="114.8" rx="9.9" ry="4.2" fill="#fbd"/><ellipse cx="354.3" cy="427.5" rx="2" ry="2.7" transform="translate(-357.3 -58.1) rotate(-13.2)" fill="#896954"/><ellipse cx="349.9" cy="430.3" rx="1.7" ry="2.2" transform="translate(-471.3 225.2) rotate(-45.2)" fill="#896954"/><ellipse cx="360.5" cy="427.4" rx="2.9" ry="2" transform="translate(-422.3 498.6) rotate(-73.2)" fill="#896954"/><ellipse cx="525.2" cy="419.2" rx="16.4" ry="10.6" transform="translate(-320.1 615.3) rotate(-69.6)" fill="#896954"/><ellipse cx="530" cy="398.1" rx="2.5" ry="1.9" transform="translate(-251.6 668.8) rotate(-76.3)" fill="#896954"/><ellipse cx="523.9" cy="398.1" rx="1.5" ry="2.1" transform="translate(-382 81.9) rotate(-22.6)" fill="#896954"/><ellipse cx="535.3" cy="399.9" rx="2.7" ry="1.9" transform="translate(-249.3 675.3) rotate(-76.3)" fill="#896954"/><ellipse cx="327.5" cy="303.1" rx="17" ry="16.8" transform="translate(-326.8 378.8) rotate(-73.2)" fill="#e0aa85"/><path d="M454.5,238c1.8-2.3,1.9-3.7,1.6-4.7-1.5-4.1-14.9-5.2-24.4.2A28.1,28.1,0,0,0,421,245.3l.3-.2-.3.3a30.3,30.3,0,0,1,17.1-1.4,28,28,0,0,1,12.9,6.7c2.4-1.4,3.1-2.7,3.2-3.7.4-4.2-10-9.9-19.8-8.4a19,19,0,0,0-6.6,2.1,33.6,33.6,0,0,1,10.3-3.6A34.6,34.6,0,0,1,454.5,238Z" transform="translate(-269.3 -149.9)" fill="#292447"/><path d="M477.1,345.8c-.3-3.6-.7-7.2-1.1-10.9s-.5-5.7-.8-8.6a70.6,70.6,0,0,0,11.8.7,87,87,0,0,0,13.6-1.2,29.7,29.7,0,0,0,14.9-6.6,27.1,27.1,0,0,0,6-6.9,20.8,20.8,0,0,0,6.4,1.8c8,.6,13.9-4.8,15.6-6.5s4.8-4.4,5.9-8.5c1.7-6.6-1.9-12.2-2.7-13.5-5.5-8.7-16-9-16.4-9A20.5,20.5,0,0,0,519,280c-3.4,2.2-3.2,3.7-6.2,6.4s-7.9,4.1-16.4,6a133.1,133.1,0,0,1-15.8,2.7l-6.3.5-2.9.2h-1.5l-6.3.5" transform="translate(-269.3 -149.9)" fill="#f8f3ea" stroke="#292447" stroke-linecap="round" stroke-linejoin="round" stroke-width="7.51"/><path d="M468.2,307.1c-.8-.1-10.1,5-9.4,5.4s5,22.6,5.4,21.7,11.2-15.4,11-15.9S468.2,307.1,468.2,307.1Z" transform="translate(-269.3 -149.9)" fill="#f8f3ea"/><ellipse cx="260.7" cy="145.4" rx="16.6" ry="15.7" fill="#e0aa85"/><path d="M480.8,381" transform="translate(-269.3 -149.9)" fill="#f8f3ea"/><path d="M469.3,322.9l2.8.2-.5,1.7a3.4,3.4,0,0,1-.1.9,6.5,6.5,0,0,1-.5,1.8c-.6.6-2.1,0-2.4-.1Z" transform="translate(-269.3 -149.9)" fill="#f8f3ea"/><path d="M303,325.5a2.5,2.5,0,0,1-2.1-1.2l-6.7-11.1a2.4,2.4,0,0,1-.2-1.9,2.3,2.3,0,0,1,1.1-1.5l9.4-5.7a4.7,4.7,0,0,1,2-2.4L334,285.1a4.6,4.6,0,0,1,2.3-.6h.7l9.5-5.7a2.8,2.8,0,0,1,1.3-.4,2.6,2.6,0,0,1,2.1,1.3l6.7,11a2.5,2.5,0,0,1,.2,1.9,2.1,2.1,0,0,1-1.1,1.5l-9.2,5.6a4.4,4.4,0,0,1-2,2.8L317,319.2a4.6,4.6,0,0,1-2.3.6l-1.2-.2-9.2,5.5A2,2,0,0,1,303,325.5Z" transform="translate(-269.3 -149.9)" fill="#6cbdff"/><path d="M347.8,281l6.6,11.1-10.3,6.2a2.2,2.2,0,0,1-.9,2.2L315.7,317a1.9,1.9,0,0,1-1,.3,2.4,2.4,0,0,1-1.4-.5L303,323l-6.6-11,10.4-6.3a2.1,2.1,0,0,1,1-1.9l27.5-16.5a1.7,1.7,0,0,1,1-.3,1.9,1.9,0,0,1,1,.3l10.5-6.3m0-5a5,5,0,0,0-2.6.8l-8.7,5.2h-.2a7.5,7.5,0,0,0-3.6,1l-27.5,16.6a6.1,6.1,0,0,0-2.7,2.8l-8.7,5.3a5.2,5.2,0,0,0-2.3,3,5,5,0,0,0,.6,3.8l6.6,11.1A5.2,5.2,0,0,0,303,328a4.8,4.8,0,0,0,2.6-.7l8.4-5h.7a7.8,7.8,0,0,0,3.6-1l27.5-16.5a6.7,6.7,0,0,0,2.8-3.4l8.4-5a5.6,5.6,0,0,0,2.3-3.1,5.1,5.1,0,0,0-.6-3.8l-6.6-11a5.1,5.1,0,0,0-4.3-2.5Z" transform="translate(-269.3 -149.9)" fill="#607dc4"/><path d="M361.5,308.4a8.2,8.2,0,0,1-7-4l-17.4-29a7.9,7.9,0,0,1-1-6.2,8.6,8.6,0,0,1,3.8-5l.6-.3a7.9,7.9,0,0,1,4.2-1.2l1.8.2a8.4,8.4,0,0,1,3.6-4.9l.7-.3a7.6,7.6,0,0,1,4.2-1.2,8.4,8.4,0,0,1,7,3.9l4.3,7.2h1a5.5,5.5,0,0,1,4.5,2.7l3.6,6a5.4,5.4,0,0,1-.2,6.1h-.1l4.3,7.2a7.7,7.7,0,0,1,.9,6.1,8,8,0,0,1-3.7,5.1l-.6.3a7.9,7.9,0,0,1-4.2,1.2h0L370,302a7.7,7.7,0,0,1-3.7,4.8l-.6.4A7.9,7.9,0,0,1,361.5,308.4Z" transform="translate(-269.3 -149.9)" fill="#6cbdff"/><path d="M355,259a5.6,5.6,0,0,1,4.8,2.7l5.3,8.9.6-.3,1.2-.3h.4a2.9,2.9,0,0,1,2.3,1.5l3.6,6a2.7,2.7,0,0,1,.1,3.1l-.9,1-.4.3,5.3,8.9a5.6,5.6,0,0,1-2,7.7l-.6.4a6,6,0,0,1-2.9.8,5.8,5.8,0,0,1-4.5-2.2,5.7,5.7,0,0,1-2.3,7.2l-.6.4a6,6,0,0,1-2.9.8,5.6,5.6,0,0,1-4.8-2.7l-17.5-29.1a5.6,5.6,0,0,1,2-7.7l.6-.4a6,6,0,0,1,2.9-.8,5.8,5.8,0,0,1,4.5,2.2,5.6,5.6,0,0,1,2.2-7.2l.6-.4a6.7,6.7,0,0,1,3-.8m0-5h0a10.3,10.3,0,0,0-5.5,1.5l-.6.4a10.3,10.3,0,0,0-4,4.3h-.2a10.8,10.8,0,0,0-5.5,1.5l-.6.4a10.6,10.6,0,0,0-4.9,6.5,10.4,10.4,0,0,0,1.2,8.1l17.5,29a10.7,10.7,0,0,0,9.1,5.2,10,10,0,0,0,5.5-1.6l.6-.3a11,11,0,0,0,4-4.3h.2a10.8,10.8,0,0,0,5.5-1.5l.6-.4a11,11,0,0,0,4.9-6.5,10.9,10.9,0,0,0-1.2-8.1l-3.5-5.9a8.2,8.2,0,0,0-.6-7.4l-3.6-5.9a7.8,7.8,0,0,0-6.3-4l-3.5-5.8A10.7,10.7,0,0,0,355,254Z" transform="translate(-269.3 -149.9)" fill="#607dc4"/><path d="M297.4,346.9a8.2,8.2,0,0,1-7-3.9l-4.3-7.2h-1a5.4,5.4,0,0,1-4.5-2.8l-3.6-6c-1.2-2-1.2-4.5.2-6h.1l-4.4-7.1a8.4,8.4,0,0,1-.9-6.2,8.3,8.3,0,0,1,3.8-5l.6-.4a8.5,8.5,0,0,1,4.2-1.1h1.8a8.2,8.2,0,0,1,3.6-4.8l.6-.4a9.2,9.2,0,0,1,4.3-1.1,8.1,8.1,0,0,1,6.9,3.9l17.5,29a8.1,8.1,0,0,1-2.8,11.2l-.6.4a8.1,8.1,0,0,1-4.2,1.2h0l-1.8-.2a8,8,0,0,1-3.7,4.8l-.6.4A8.8,8.8,0,0,1,297.4,346.9Z" transform="translate(-269.3 -149.9)" fill="#6cbdff"/><path d="M290.9,297.6a5.4,5.4,0,0,1,4.8,2.7l17.5,29a5.7,5.7,0,0,1-2,7.8l-.6.3a5.2,5.2,0,0,1-2.9.9,5.8,5.8,0,0,1-4.5-2.2,5.7,5.7,0,0,1-2.3,7.2l-.6.3a5.1,5.1,0,0,1-2.9.8,5.7,5.7,0,0,1-4.9-2.7l-5.3-8.8-.5.2-1.2.3h-.4a2.9,2.9,0,0,1-2.4-1.6l-3.5-5.9a2.7,2.7,0,0,1-.1-3.1l.8-1,.5-.4-5.3-8.8a5.8,5.8,0,0,1,1.9-7.8l.7-.3a5.1,5.1,0,0,1,2.9-.8,5.7,5.7,0,0,1,4.5,2.1,5.5,5.5,0,0,1,2.2-7.1l.6-.4a5.6,5.6,0,0,1,3-.8m0-5a10.3,10.3,0,0,0-5.5,1.5l-.7.4a10.4,10.4,0,0,0-4,4.3h-.1a10.6,10.6,0,0,0-5.5,1.5l-.6.4a10.1,10.1,0,0,0-4.9,6.5,10.5,10.5,0,0,0,1.2,8.1l3.5,5.8a7.9,7.9,0,0,0,.6,7.4l3.6,6a8,8,0,0,0,6.3,4l3.5,5.8a10.6,10.6,0,0,0,9.1,5.1,10.8,10.8,0,0,0,5.5-1.5l.6-.4a10.1,10.1,0,0,0,4-4.2h.2a11,11,0,0,0,5.5-1.6l.6-.3a10.8,10.8,0,0,0,3.7-14.7l-17.5-29a10.6,10.6,0,0,0-9.1-5.1Z" transform="translate(-269.3 -149.9)" fill="#607dc4"/><path d="M451,218.1a362.5,362.5,0,0,0-58.2-4.7,349.9,349.9,0,0,0-46.1,3.2,3.1,3.1,0,0,1-2.3-1,3.3,3.3,0,0,1-1-2.3c.5-3.2,1.1-6.5,1.6-9.7a14.7,14.7,0,0,1,.8-6.8,16.2,16.2,0,0,1,2.5-4.5,13.9,13.9,0,0,1,4.7-3.8,18.2,18.2,0,0,1,10-1.6c9.4.9,10.6-2.4,40.1-1,36.4,1.8,43.8,7.2,52.4,8.2a9,9,0,0,1,4.6,1.8,8.4,8.4,0,0,1,2,2.5c1.4,7.6,2.7,15.1,4,22.7a30.7,30.7,0,0,1-6-.1A26.3,26.3,0,0,1,451,218.1Z" transform="translate(-269.3 -149.9)" fill="#6eff97" stroke="#52aa82" stroke-linecap="round" stroke-linejoin="round" stroke-width="5"/><path d="M521.5,327.1l-.9-.2c-17.1-6.3-20-20.8-20.1-21.4a2.3,2.3,0,0,1,.8-2.2l25.3-24a2.5,2.5,0,0,1,1.7-.6h0c5.5,0,5.7-5,5.8-5.5a2.9,2.9,0,0,1,.7-1.8l4.3-4a8.2,8.2,0,0,1,4.4-1.6h.3l9.3.5h.1a4.6,4.6,0,0,1,.9-1.5,3.2,3.2,0,0,1,2.3-.9h.2a3,3,0,0,1,1.5-.5,2.3,2.3,0,0,1,1.8.8l5.6,5.9a2.4,2.4,0,0,1,.7,1.8,2.3,2.3,0,0,1-.8,1.7,3.5,3.5,0,0,1-1,2.1,3.3,3.3,0,0,1-1.3.7v.3l-.2,9.3c0,.1,0,.2-.1.2a7.9,7.9,0,0,1-1.8,4.4l-4.2,4a3.6,3.6,0,0,1-1.7.7c-1,0-5.7.3-5.9,5.4a2.5,2.5,0,0,1-.8,1.7l-25.2,24A2.8,2.8,0,0,1,521.5,327.1Z" transform="translate(-269.3 -149.9)" fill="#92f5ff"/><path d="M558.1,265.9l5.6,5.9-1,.9h0a.8.8,0,0,1,0,1.1l-.5.2a.9.9,0,0,1-.6-.3,5.3,5.3,0,0,0-1,2.8l-.2,9.3s-.3,2.1-1.1,2.8l-4.3,4.1s-7.9,0-8.3,7.8l-25.2,24c-16-5.9-18.5-19.5-18.5-19.5l25.3-23.9h0c8.1,0,8.3-8,8.3-8l4.2-4a6.8,6.8,0,0,1,2.9-.9l9.3.5h.2a4.9,4.9,0,0,0,2.8-.9l-.2-.2a.8.8,0,0,1,0-1.1l.6-.2a.5.5,0,0,1,.5.3l.2.2,1-1m0-5a5,5,0,0,0-2.1.5,6,6,0,0,0-3.6,1.6l-.7.8-7.7-.5h-.7a10.1,10.1,0,0,0-5.9,2.3l-4.3,4a4.7,4.7,0,0,0-1.5,3.5c-.2,3.1-2.4,3.1-3.3,3.1a4.8,4.8,0,0,0-3.4,1.3l-25.4,23.9a5.2,5.2,0,0,0-1.4,4.6c.1.7,3.2,16.4,21.6,23.3a5.7,5.7,0,0,0,1.8.3,4.9,4.9,0,0,0,3.4-1.4l25.2-24a5,5,0,0,0,1.6-3.4c.1-1.9,1.2-2.9,3.4-3h.1a4.5,4.5,0,0,0,3.3-1.4l4.2-4a9.8,9.8,0,0,0,2.6-5.8c0-.2.1-.4.1-.6l.2-8,.5-.5a6.2,6.2,0,0,0,1.7-2.8,5.5,5.5,0,0,0,.9-2.8,5,5,0,0,0-1.4-3.5l-5.5-5.9a5.2,5.2,0,0,0-3.7-1.6Z" transform="translate(-269.3 -149.9)" fill="#3f96d1"/><path d="M533.8,312.9l12.7-12.1-4.8-4.3c-3.7-3.6-6.2-6.4-9.8-10.4l-3.8-4.8-12.8,12.1h-.1c6.1,13.4,18.6,19.7,18.6,19.7Z" transform="translate(-269.3 -149.9)" fill="#ffb533"/><polygon points="265.1 143.2 268.4 146.7 262.3 146.5 264.1 150.8 254.4 149.9 260 147.9 258 144.7 265.1 143.2" fill="#fff"/><path d="M563.9,275.1a4.8,4.8,0,0,1-3.2-1.3l-4.9-5.2a4.5,4.5,0,0,1,.2-6.2l1.8-1.7a4.4,4.4,0,0,1,3-1.2,4.6,4.6,0,0,1,3.2,1.3l4.9,5.2a4.3,4.3,0,0,1-.2,6.2l-1.8,1.7A4.2,4.2,0,0,1,563.9,275.1Z" transform="translate(-269.3 -149.9)" fill="#3b455a"/><path d="M560.8,262a2,2,0,0,1,1.4.6l4.9,5.1a1.9,1.9,0,0,1-.1,2.7l-1.8,1.7a1.7,1.7,0,0,1-1.3.5,1.6,1.6,0,0,1-1.3-.6l-5-5.1a2,2,0,0,1,.1-2.7l1.9-1.7a1.8,1.8,0,0,1,1.2-.5m0-5a7,7,0,0,0-4.7,1.9l-1.8,1.7a6.9,6.9,0,0,0-2.2,4.8,7.3,7.3,0,0,0,1.9,4.9l4.9,5.2a7.1,7.1,0,0,0,5,2.1,6.4,6.4,0,0,0,4.7-1.9l1.9-1.7a6.8,6.8,0,0,0,2.1-4.8,6.5,6.5,0,0,0-1.9-4.9l-4.9-5.2a7.1,7.1,0,0,0-5-2.1Z" transform="translate(-269.3 -149.9)" fill="#3f96d1"/><g opacity="0.3"><path d="M554.9,292.9h.1l-18.5-19.5h-.1s-.2,7.9-8.2,7.9h-.1l7.7,8.9,1.6,1.7,9.1,8.8h.1C547,292.9,554.9,292.9,554.9,292.9Z" transform="translate(-269.3 -149.9)" fill="#00847d"/></g><polygon points="264.6 163.1 264.6 163.1 264.6 163.1 264.6 163.1" fill="#a4a6a9"/></svg>