<svg id="Layer_1" data-name="Layer 1" xmlns="http://www.w3.org/2000/svg" viewBox="0 0 439 367.5"><title>rabbit</title><path d="M662.8,432.8c-.8,17.3-162.3,20.9-199.8,21.7-19.5.4-234.3,5.2-235.6-14.9-1.1-15.3,120.2-46.9,247.4-43.6C567.9,398.4,663.3,419.5,662.8,432.8Z" transform="translate(-223.8 -88.6)" fill="#a1e2bd"/><path d="M527.7,417.4c0,17.2-48,31-107.3,31S223.6,470.8,223.8,439c.2-38.5,137.4-52.6,196.6-52.6S527.7,400.3,527.7,417.4Z" transform="translate(-223.8 -88.6)" fill="#86dbb4"/><ellipse cx="316.4" cy="328" rx="76.6" ry="12.1" fill="#56bf8d"/><path d="M269.6,403.6c8.1-1.4,20.8-3.4,36.4-5.6,22.7-3.2,72.1-9.8,128.7-4.5,16.8,1.5,36.4,4.3,39.3,15.3,1.4,5.2-1.4,10.6-2.1,12-6,11.6-20.7,13.6-27.9,14.5-51.2,5.9-98.4-4.3-153.3-4.9-14.9-.1-33.9.4-35.9-7.2C253.3,417.4,262.2,409.3,269.6,403.6Z" transform="translate(-223.8 -88.6)" fill="#c97d7d"/><path d="M294.4,379.7c8.9-2.2,16.6,1,18.7,1.9,5.6,2.5,5.8,4.7,18.3,16.5,8.1,7.6,10.6,9.1,10.1,11.1s-1.4,3-22.6,3.9c-13.3.5-20.7-.1-34.9-1.5-9.8-.9-11.3-1.4-12.2-2.9C267.8,402.4,278.7,383.6,294.4,379.7Z" transform="translate(-223.8 -88.6)" fill="#b75656"/><path d="M359.7,383.4a117.2,117.2,0,0,1-6.2-37.2c0-10.1,1.1-22.8,2.4-22.9s3.5,43.4,6.4,43.4,1-28.8,4.4-29.1,5.3,8.7,5.7,18c.6,13.3-4.9,23.2-3.5,23.9s8-11.4,9.6-10.6-1.9,9.4-6.2,20.9c-2.2,5.9-3,7.8-4.4,7.9C364.7,398,361.6,388.9,359.7,383.4Z" transform="translate(-223.8 -88.6)" fill="#43d697"/><path d="M365.1,392.8c-1,.1-2.4.3-2.9,1.2s.5,3,2.9,6.8,2.6,3.4,3.1,3.4,2.4-1.9,3.4-3.6,1.9-3.5,1.3-4.9-1.7-1.6-4.1-2.3A7.6,7.6,0,0,0,365.1,392.8Z" transform="translate(-223.8 -88.6)" fill="#43d697"/><path d="M364.6,421.2c.1,1.2-3.2,2.3-7.3,2.4s-7.4-.8-7.5-1.9,3.3-2.3,7.4-2.4S364.6,420,364.6,421.2Z" transform="translate(-223.8 -88.6)" fill="#7f4814"/><ellipse cx="403.4" cy="423" rx="7" ry="2.8" transform="translate(-235.5 -77.1) rotate(-1.6)" fill="#7f4814"/><ellipse cx="400" cy="399.6" rx="6.8" ry="2" transform="translate(-234.9 -77.2) rotate(-1.6)" fill="#b75656"/><path d="M352.5,413.5a75.1,75.1,0,0,1-4-23.8c0-6.5.7-14.6,1.6-14.7s2.2,27.8,4.1,27.8.6-18.5,2.7-18.7,3.4,5.7,3.7,11.6c.4,8.5-3.2,14.8-2.2,15.3s5.1-7.3,6.1-6.8-1.3,6-4,13.4c-1.3,3.8-1.9,5-2.8,5S353.7,417,352.5,413.5Z" transform="translate(-223.8 -88.6)" fill="#43d697"/><path d="M352,421.5c.1-.3.7-.4,2.2-.6l2.9-.6c2.7-.2,5.6.4,5.6.9s-.1.2-1.8.8l-2.9,1.1a8.2,8.2,0,0,1-4.8-.7C352.8,422.2,352,421.8,352,421.5Z" transform="translate(-223.8 -88.6)" fill="#b75656"/><path d="M401.3,418.8c-7.6-11.7-8.1-20.6-9.9-20.4s-2.3,6.7-.9,12.2a21.3,21.3,0,0,0,3.9,7.6c3.8,4.7,9.5,7.5,10.3,6.6S403.5,422.2,401.3,418.8Z" transform="translate(-223.8 -88.6)" fill="#37aa75"/><path d="M403.7,419.6c-1.7-10.4,1.2-15.5-.3-16.3s-4.3,2.5-5.2,6.2a12.2,12.2,0,0,0,.3,6.2c1.3,4.5,4.8,9,5.8,8.9S404.2,422.5,403.7,419.6Z" transform="translate(-223.8 -88.6)" fill="#37aa75"/><path d="M403.8,424.6c.8.6,3.3-1,4.8-3s2.8-6.2,1.9-6.7-3.5,1.9-5,4.2S403.1,424,403.8,424.6Z" transform="translate(-223.8 -88.6)" fill="#37aa75"/><path d="M419.1,406.5c-.1.9,3,2.2,5,2.7a14.3,14.3,0,0,0,8.3-.6c2.6-1,5.4-2.9,5.1-3.6s-2-.2-6,.2C422.7,406,419.3,405.6,419.1,406.5Z" transform="translate(-223.8 -88.6)" fill="#b75656"/><path d="M330.8,420.9a53.4,53.4,0,0,0-21.1-12.6c-6.3-2.1-14.6-3.8-15-2.8s9.9,4.3,26.8,13.8c7,4,12.7,7.7,13.3,6.9S331.6,421.7,330.8,420.9Z" transform="translate(-223.8 -88.6)" fill="#207d57"/><path d="M326.5,433.9c.1-1.5-18.7-6.7-39.7-3.5-10.5,1.7-20.6,5.3-20.4,6.4s8.3-.2,23.7-1.3C316.2,433.8,326.4,435.1,326.5,433.9Z" transform="translate(-223.8 -88.6)" fill="#207d57"/><path d="M316.3,432.6a117.5,117.5,0,0,1-36.9-7.7c-9.5-3.7-20.9-9.4-20.4-10.7s41.6,12.6,42.7,9.9-26.5-11.5-25.6-14.7,10.1-1.7,18.9,1.2c12.7,4.3,19.8,13.1,21,12s-7.7-11.6-6.4-12.8,8.1,5.2,17.2,13.4c4.7,4.1,6.2,5.6,5.8,7C331.7,433.2,322.1,432.9,316.3,432.6Z" transform="translate(-223.8 -88.6)" fill="#207d57"/><path d="M327,430.9c-.3,1-.6,2.4,0,3.2s3,.7,7.4-.2,4.1-1.2,4.3-1.6-.8-2.9-2.1-4.5-2.6-3.1-4.1-3-2.1,1-3.6,2.9A9.4,9.4,0,0,0,327,430.9Z" transform="translate(-223.8 -88.6)" fill="#5f3411"/><path d="M294,425.1c-13.8-2.3-20.7-8-21.7-6.5s3.4,6.2,8.4,8.9a21.5,21.5,0,0,0,8.2,2.3c6,.4,11.9-1.9,11.8-3.1S298,425.8,294,425.1Z" transform="translate(-223.8 -88.6)" fill="#207d57"/><path d="M296.2,423.8c-8.8-5.7-10.6-11.3-12.2-10.7s-1,4.9,1.1,8a11,11,0,0,0,4.7,4c4.2,2.1,9.8,2.6,10.4,1.8S298.7,425.5,296.2,423.8Z" transform="translate(-223.8 -88.6)" fill="#207d57"/><path d="M300,427.2c.9-.2,1.4-3.1,1.1-5.5s-2.7-6.2-3.8-6-.9,3.9-.2,6.5S299,427.4,300,427.2Z" transform="translate(-223.8 -88.6)" fill="#207d57"/><path d="M304.9,424c-3.5-1.1-8.3.3-8.5,2.2s4,4.9,7.5,4,4.4-2.4,4.1-4S305.6,424.2,304.9,424Z" transform="translate(-223.8 -88.6)" fill="#5f3411"/><path d="M308.5,433.5c-13.8-2.3-20.7-8-21.7-6.5s3.4,6.2,8.4,8.9a20.9,20.9,0,0,0,8.2,2.3c6,.4,11.9-1.9,11.8-3.1S312.5,434.2,308.5,433.5Z" transform="translate(-223.8 -88.6)" fill="#207d57"/><path d="M310.7,432.2c-8.8-5.7-10.6-11.3-12.2-10.7s-1,4.8,1.1,8a11.7,11.7,0,0,0,4.7,4c4.2,2.1,9.8,2.5,10.4,1.8S313.2,433.9,310.7,432.2Z" transform="translate(-223.8 -88.6)" fill="#207d57"/><path d="M314.5,435.6c.9-.2,1.4-3.1,1-5.5s-2.7-6.3-3.7-6-.9,3.9-.2,6.5S313.5,435.8,314.5,435.6Z" transform="translate(-223.8 -88.6)" fill="#207d57"/><path d="M320.5,431.5c-2.9-1-5.5,1.2-5.9,1.6s-2.9,3.2-2.2,4.8,5.8,1.7,6.5,1.7,4.8-.6,5.5-2.7S323,432.2,320.5,431.5Z" transform="translate(-223.8 -88.6)" fill="#5f3411"/><circle cx="376.5" cy="248.3" r="12.4" fill="#f8f3ea" stroke="#292447" stroke-linecap="round" stroke-linejoin="round" stroke-width="6.29"/><path d="M595.6,336.7a67.6,67.6,0,0,0-3.1-11c-2.2-4.5-4.9-10.2-8.1-16.6-5.5-10.9-10-19.5-12.2-23.5l-15.6-18.5-3.2-11.7h-.2l-11.5-16.5h-6.4l-.3-.6a86.6,86.6,0,0,0-26.4-1.3l-12.1,11.5,6.7,8.9c-3.8,5.3-7.2,9.7-9.9,13-4,4.9-7.1,8.2-11.9,13.3s-8.1,8.1-9.2,9.1a94.2,94.2,0,0,1-7.9,6.6,53.8,53.8,0,0,0-10.2,15.3c-1.7,4.1-2.1,6.4-1.8,8.7s1.1,6.3,5.6,8.9,10.6.2,11,0c4.8-2.5,5-7,9.1-13.2a41.9,41.9,0,0,1,12.8-12.3c9-5.4,13.4-4.9,15.9-3.5,4.9,2.8,3,10.9,7.4,25.4,2.2,7.4,4.3,13.8,5.9,18.7-.3,1.1-.7,2.1-1,3a172.4,172.4,0,0,0-7.3,28.6c-.6,3.8-1.6,8.1-5.4,9.9s-5.2.1-12,1.3c-4.3.7-6.9,1.1-9.2,3.1-4,3.4-4,8.6-4,9.7a10.2,10.2,0,0,0,.7,4.1c2.1,5.8,8.1,8.6,9.4,9.2a19.3,19.3,0,0,0,7.3,1.6,56.3,56.3,0,0,0,6.9,1.3,37.2,37.2,0,0,0,15.5-.8,26.6,26.6,0,0,0,3.8-1.3,20.6,20.6,0,0,0,5.1-6.1,22.4,22.4,0,0,0,1.1-2.2c1-2.4,1.7-4.6,3.8-10.2l4.2-11,3-9c.1-.2.1-.5.2-.6.8-2.5,2.5-6.2,6.2-11.4l3.5-5c1.2,2,2.3,4.1,3.4,6.2a147.5,147.5,0,0,1,2.3,15.6c.6,6,.5,8.4-1.1,10.2s-3.3,1-7.9,3a21.2,21.2,0,0,0-9.7,7.8,14.1,14.1,0,0,0-2.4,6.9,12.7,12.7,0,0,0,1,5.7,12.4,12.4,0,0,0,2.6,3.4c1.5,1.3,3.2,2.1,6.6,2.8a43.8,43.8,0,0,0,11.9.9,56,56,0,0,0,9.5-1.4,35.2,35.2,0,0,0,8.3-2.8c1.4-.7,2.6-1.5,3.5-2a23.2,23.2,0,0,0,3.9-7l.6-2.3c.9-4.3,2.2-8,3.6-12.5,3-10.1,6.5-21.5,8.2-34.8a91.8,91.8,0,0,0,.7-13.5A69.2,69.2,0,0,0,595.6,336.7Zm-78.2-73.9-.2-.4,12.2-15,2.6,6.3Z" transform="translate(-223.8 -88.6)" fill="#f8f3ea" stroke="#292447" stroke-linecap="round" stroke-linejoin="round" stroke-width="6.29"/><ellipse cx="543.4" cy="320.8" rx="21.6" ry="30.4" transform="translate(-297 98.1) rotate(-18.3)" fill="#fb9fbc"/><path d="M579.1,339.2a18.4,18.4,0,0,0,10.3,4.8,14.9,14.9,0,0,0,6.2-.6,12.9,12.9,0,0,0,6.6-4.8c3.5-5.4.6-12.4.1-13.5a16.1,16.1,0,0,0-10.2-8.8,210.1,210.1,0,0,0-9.2-22.8c-7.3-15.3-11.3-23.4-20.1-29.2a40.2,40.2,0,0,0-18.2-6.2v13.1l10.8,23.7h0l6.8,13.2c4.4,8.5,8.5,16.9,12.5,25.3A20.6,20.6,0,0,0,579.1,339.2Z" transform="translate(-223.8 -88.6)" fill="#f8f3ea" stroke="#292447" stroke-linecap="round" stroke-linejoin="round" stroke-width="6.29"/><path d="M553.6,283l1.7-.2c.1-.9,1.2-6.9-.9-11-.3-.7-1.3-1.8-2.4-3.7s-1.8-3.4-2.3-4.4l-1.7,1.1-2.9,1.7-1.6,1.1-3.3,1.7c.4,5,.9,10,1.4,15h.9l.6,2.2c5.4,5.9,7.2,7.1,7.7,6.8s-1.8-4-.2-5.8a3.1,3.1,0,0,1,2.8-1c1.7.4,2.7,2.7,3,2.5s0-.5.1-.5.9,1.4,1.8,3.1a16.4,16.4,0,0,0,1.2,1.8C559.6,293.2,558.5,291.2,553.6,283Z" transform="translate(-223.8 -88.6)" fill="#f8f3ea"/><path d="M491.1,198.8c-3.4-11.6-7.4-31.5-1.9-54.5,6.1-26,24.7-55,36.6-52.5s15.5,32.7,13,54c-2.7,23.8-14.4,40.9-21.3,49.5Z" transform="translate(-223.8 -88.6)" fill="#f8f3ea" stroke="#292447" stroke-linecap="round" stroke-linejoin="round" stroke-width="6.07"/><ellipse cx="519.3" cy="222.8" rx="62.9" ry="56.7" transform="translate(-258.9 25.1) rotate(-12.1)" fill="#f8f3ea" stroke="#292447" stroke-linecap="round" stroke-linejoin="round" stroke-width="6.07"/><path d="M513.9,246.6c.4,1.8-1.4,3.7-4,4.2s-5.1-.4-5.5-2.2,1.4-3.8,4.1-4.3,5,.4,5.4,2.3" transform="translate(-223.8 -88.6)" fill="#292447"/><path d="M503.4,255.1a4.6,4.6,0,0,0-.1,2,8,8,0,0,0,.8,1.6,5,5,0,0,0,1.1,1,1,1,0,0,0,.9.1,4.9,4.9,0,0,0,2.3-1.1,11.7,11.7,0,0,0,2.1-2.3l.9-1.3,1.7.7,2.3.7,2.2.2a9.4,9.4,0,0,0,4.4-.9l.6-.3a11.5,11.5,0,0,0,3.3-2.6,20.8,20.8,0,0,0,3.2-4.9h.3a17.4,17.4,0,0,1-2,6.2,13.1,13.1,0,0,1-4,4.4,11.1,11.1,0,0,1-5.3,1.7,12.8,12.8,0,0,1-5.7-1.3h.3a10.1,10.1,0,0,1-2.9,2.6,5.9,5.9,0,0,1-3.7.8,3.1,3.1,0,0,1-1.9-1.1,4.6,4.6,0,0,1-1.3-2,6.4,6.4,0,0,1-.5-2.4,4.8,4.8,0,0,1,.7-2.1Z" transform="translate(-223.8 -88.6)" fill="#292447"/><path d="M517,177c2-11.9,7.2-31.6,22.2-49.8,17-20.6,46.4-38.5,56-31s-.4,36.2-12,54.3c-13,20.1-31,30.3-41,34.9Z" transform="translate(-223.8 -88.6)" fill="#f8f3ea" stroke="#292447" stroke-linecap="round" stroke-linejoin="round" stroke-width="6.07"/><path d="M510.2,169.8A78.4,78.4,0,0,1,520,168l5.2-.4,6.9,2.6c3.9,1.4,5.9,2,8.5,2.7,5,1.3,6.9,1.1,11.3,2.8,1.1.5,2,.8,3.1,1.4s1.9,1.1,7.6,6.3a11.5,11.5,0,0,1,1.9,2.2,8.5,8.5,0,0,1,1.1,2.7c.6,2.7-7.1,7.2-10.3,8.6-14.6,6.4-59.5.9-68.4-.3Z" transform="translate(-223.8 -88.6)" fill="#f8f3ea"/><path d="M532.8,219.6l2.5,3.2,4-.3-2.2,3.4,4.4,4.7-6.8-2-2.9,1.6-.4-3.1L528,225l3.8-1.5Z" transform="translate(-223.8 -88.6)" fill="#f8f3ea"/><path d="M484.2,225.3l2.6,3.2,4-.3-2.2,3.4,4.4,4.7-6.8-2.1-2.9,1.7-.4-3.1-3.4-2.2,3.8-1.4Z" transform="translate(-223.8 -88.6)" fill="#f8f3ea"/><path d="M534.7,167.3a98.4,98.4,0,0,1,11.5-25.7,93.9,93.9,0,0,1,20.7-23.1c8.8-5.9,12.2-6.2,13.7-5,4.2,3.5-5.3,21.7-10.7,30.5a118.8,118.8,0,0,1-23.7,28.1,11.2,11.2,0,0,0-4.2-3.6A12.2,12.2,0,0,0,534.7,167.3Z" transform="translate(-223.8 -88.6)" fill="#fb9fbc"/><ellipse cx="541.5" cy="240" rx="9.3" ry="3.9" transform="translate(-262.1 30.1) rotate(-12.1)" fill="#fb9fbc"/><path d="M450.8,257.9a15.9,15.9,0,0,1,2.8-6.4,21.3,21.3,0,0,1,2.6-2.6,18.1,18.1,0,0,1,3.3-2,21.1,21.1,0,0,1,3.8-1.2,7.8,7.8,0,0,1,4,.2,12,12,0,0,1,3.4,2.1,7.5,7.5,0,0,1,2.1,3.3l-.4.4-6.3-.2-2.5-.2a6.2,6.2,0,0,0-2.7,0,13.8,13.8,0,0,0-2.7.8,16.5,16.5,0,0,0-2.6,1.4,19,19,0,0,0-4.3,4.6Z" transform="translate(-223.8 -88.6)" fill="#292447"/><path d="M456.6,264.5a15.7,15.7,0,0,1,2.7-5.3,16.1,16.1,0,0,1,2.2-2.3,12.4,12.4,0,0,1,2.7-1.7l3.2-1.4a6,6,0,0,1,3.5.1,6.7,6.7,0,0,1,3.1,1.7,5.6,5.6,0,0,1,1.7,3.2l-.4.4a35.4,35.4,0,0,0-5.2.3,6.7,6.7,0,0,1-2-.1h-2.3a16.2,16.2,0,0,0-8.7,5.3Z" transform="translate(-223.8 -88.6)" fill="#292447"/><path d="M580.7,320.4" transform="translate(-223.8 -88.6)" fill="#f8f3ea" stroke="#f37" stroke-miterlimit="10" stroke-width="1.52"/><path d="M515.7,220.8c-1,6.4,1.3,14.5,6.8,17.3a10.6,10.6,0,0,0,5.4,1.1,11,11,0,0,0,9.9-10.7l-7-1.6,6.8-3.4c-3-8.1-9.3-13.3-15.3-12a8.2,8.2,0,0,0-3.4,1.6A18.7,18.7,0,0,0,515.7,220.8Z" transform="translate(-223.8 -88.6)" fill="#292447"/><path d="M521.9,219.9l2.5,3,3.9-.3-2.2,3.3,4.3,4.5-6.5-1.9-2.8,1.5-.4-2.9-3.3-2.1,3.6-1.3Z" transform="translate(-223.8 -88.6)" fill="#f8f3ea"/><path d="M517.1,231.9h0Z" transform="translate(-223.8 -88.6)" fill="#292447"/><path d="M542.5,222.6h.1a18.1,18.1,0,0,0-4.1-10,14.1,14.1,0,0,0-6-4.1,14.4,14.4,0,0,0-5.1-.5,14.6,14.6,0,0,0-10.4,6.7c-4.2,6.7-.2,16.2.1,17.2a23.5,23.5,0,0,1-.6-7.3,18,18,0,0,1,1.2-5.6,16.1,16.1,0,0,1,2.4-4.2,15,15,0,0,1,4.1-3.1l-.4.5a8.9,8.9,0,0,1,3.4-1.6C533.2,209.3,539.6,214.5,542.5,222.6Z" transform="translate(-223.8 -88.6)" fill="#292447"/><path d="M476.4,231.3c-.1,6.5,3.2,14.4,8.8,16.6a9.5,9.5,0,0,0,5.1.6,9.9,9.9,0,0,0,5.8-3.8,11.8,11.8,0,0,0,1.9-7.8l-6.8-.9,5.9-4c-3.9-7.9-10.5-12.5-15.9-10.6a8.1,8.1,0,0,0-2.9,1.9A18.9,18.9,0,0,0,476.4,231.3Z" transform="translate(-223.8 -88.6)" fill="#292447"/><path d="M482.1,229.8l2.7,2.8,3.5-.7-1.5,3.5,4.6,4.1-6.3-1.3-2.3,1.8-.9-2.9-3.3-1.7,3.1-1.7Z" transform="translate(-223.8 -88.6)" fill="#f8f3ea"/><path d="M479.3,242.3h0Z" transform="translate(-223.8 -88.6)" fill="#292447"/><path d="M501.6,230.6h0a19.9,19.9,0,0,0-5.2-9.6,12.5,12.5,0,0,0-6.1-3.5,9.5,9.5,0,0,0-4.8,0,12.8,12.8,0,0,0-8.8,7.6c-2.9,7.2,2.1,16.3,2.6,17.2a25.3,25.3,0,0,1-1.6-7.3,22.6,22.6,0,0,1,.3-5.7,14,14,0,0,1,1.7-4.4,11.2,11.2,0,0,1,3.3-3.5l-.3.5a9.5,9.5,0,0,1,3-1.9C491,218.1,497.7,222.7,501.6,230.6Z" transform="translate(-223.8 -88.6)" fill="#292447"/><path d="M445.7,375.6a2.5,2.5,0,0,1-2-.8l-27.3-28.4-.4-2.1.8-1.8.2-.5.5-1a43.2,43.2,0,0,1,8.3-12,45.1,45.1,0,0,1,14.8-10.3h.2l2,.3L472.3,345c2.4,2.3-.3,7.7-8,16.2a22,22,0,0,1-2,2.3l-2.8,2.7c-2.8,2.7-9.8,9.2-13.6,9.4Z" transform="translate(-223.8 -88.6)" fill="#ff9cbb"/><path d="M441.6,320.3l23.7,21.1,5.7,5c1.3,1.2-2.3,7-8.1,13.6l-2,2.2-2.6,2.6c-5.5,5.2-10.4,8.8-12.5,8.9h-.1l-.7-.2L417.8,345l.8-1.7a.4.4,0,0,1,.1-.3h0v-.2l.4-.9a44.5,44.5,0,0,1,22.4-21.5m-1.7-3.4h-.1a47.7,47.7,0,0,0-15.4,10.8,45.1,45.1,0,0,0-8.7,12.5,10.4,10.4,0,0,0-.4,1h-.1v.4l-.8,1.8.7,4.2,14.8,15.4,12.4,13h.1a4.7,4.7,0,0,0,3.4,1.3h.3c4-.2,10.3-5.5,14.9-9.9.9-.9,1.9-1.8,2.8-2.8l2.1-2.3a82.7,82.7,0,0,0,7.1-9.3c1.1-1.8,3.9-6.5.8-9.5h-.1l-2.8-2.5-2.9-2.6-11.3-9.9-12.5-11.2-4.2-.5Z" transform="translate(-223.8 -88.6)" fill="#f45d90"/><path d="M418.7,347.3a2.6,2.6,0,0,1-2.1-.8c-2-1.9-.3-5.2,1.1-7.5a67,67,0,0,1,8.1-10,58.1,58.1,0,0,1,10.4-9h0a10.7,10.7,0,0,1,2.9-1.4h.1l1.7-.3a3.2,3.2,0,0,1,2.1.8c3.5,3.4-4.3,12.5-9.3,17.6-3,3.1-10.5,10.5-14.8,10.7Z" transform="translate(-223.8 -88.6)" fill="#ff8ad2"/><path d="M440.9,320.1a1.1,1.1,0,0,1,.8.3c1.4,1.4-2.1,7.4-9.3,14.9s-11.3,10-13.6,10.1h-.1l-.8-.2c-1.4-1.4,2.1-7.4,9.3-14.9a65.3,65.3,0,0,1,10-8.7h0a11,11,0,0,1,2.5-1.2h.1l1.1-.3m0-3.8h0a10.9,10.9,0,0,0-2.4.4h0a12.3,12.3,0,0,0-3.3,1.6h0a54.9,54.9,0,0,0-10.7,9.3,56.8,56.8,0,0,0-8.4,10.3c-1.1,1.7-4.2,6.7-.9,9.9a5,5,0,0,0,3.5,1.4h.3c4.6-.2,11.3-6.3,16.1-11.3a60.4,60.4,0,0,0,8.4-10.3c1-1.7,4.2-6.7.8-9.9a4.8,4.8,0,0,0-3.4-1.4Z" transform="translate(-223.8 -88.6)" fill="#f45d90"/><path d="M430.9,334l-1-.2-1.1-1.7c-.1-1.6,1.4-3.9,4.3-6.8s5.1-4.6,6.6-4.6l1.8,1.1c.3.6,1.1,2.4-4,7.7Q433.2,334,430.9,334Z" transform="translate(-223.8 -88.6)" fill="#a53d80"/><path d="M439.8,322.6c.3.7-1.1,2.9-3.7,5.6s-4.4,3.9-5.2,3.9h-.2c-.1-.9,1.3-3,3.7-5.5s4.5-4,5.4-4m-.1-3.8c-.9,0-3.1.1-8,5.1s-4.9,7.4-4.9,8.2l2.3,3.5a5.7,5.7,0,0,0,1.8.3c.8,0,3.1,0,8-5.1s5.2-8.1,4.3-9.9l-3.5-2.1Z" transform="translate(-223.8 -88.6)" fill="#f45d90"/><path d="M408,378.4l-1.5-5.9,1.3-2.3,28.3-8.6h1.5a19.4,19.4,0,0,1,5.5,4.4l1.5,1.8.3.5a15.9,15.9,0,0,1,1.3,2.2l.8,1.8-1.5,2.6-35.4,4.8Z" transform="translate(-223.8 -88.6)" fill="#ff9cbb"/><path d="M436.7,363.4a18.4,18.4,0,0,1,5,3.9L443,369l.3.4a15.1,15.1,0,0,1,1.2,2c.3.6.5,1.2.7,1.7l-35.4,4.8-.4-1.6-1.1-4.3,28.4-8.6m-1.1-3.7-13.7,4.2-14.7,4.4-2.6,4.6,1.1,4.3.4,1.7,4.2,2.8,31.8-4.4,3.6-.5,3.1-5.1-.9-2c-.4-.8-.9-1.6-1.4-2.4l-.4-.5a15.6,15.6,0,0,0-1.6-2,23.5,23.5,0,0,0-6-4.8l-2.9-.3Z" transform="translate(-223.8 -88.6)" fill="#f45d90"/><path d="M410.2,382.7c-2.1,0-3.8-2.3-4.8-6.9s-1.1-7.5,1.5-8.6a2.7,2.7,0,0,1,1.2-.3c2.7,0,5.9,3.2,6.7,6.6a9.3,9.3,0,0,1-1.6,7.5,3.9,3.9,0,0,1-2.9,1.7Z" transform="translate(-223.8 -88.6)" fill="#065293"/><path d="M408.1,368.8c1.5,0,4.2,2.3,4.8,5.1s-1.2,6.8-2.6,6.9h-.1c-1.7,0-2.8-5-2.9-5.5s-1.3-5.7.4-6.4h.4m0-3.8h0a4.1,4.1,0,0,0-1.9.4q-4.6,2-2.7,10.8c1.3,5.6,3.5,8.4,6.7,8.4h.2a5.8,5.8,0,0,0,4.3-2.5,11.3,11.3,0,0,0,1.9-9.1c-.9-4.2-4.9-8-8.5-8Z" transform="translate(-223.8 -88.6)" fill="#f45d90"/><path d="M410.3,382.5c-2.9,0-4.3-4.8-4.7-6.9a16.7,16.7,0,0,1-.5-4.8c.2-2.6,1.4-3.5,2.4-3.7h.5c2.9,0,4.3,4.8,4.7,6.9a16.7,16.7,0,0,1,.5,4.8c-.2,2.6-1.4,3.5-2.4,3.7Z" transform="translate(-223.8 -88.6)" fill="#a53d80"/><path d="M408,369c.9,0,2.2,2.3,2.9,5.4s.5,6-.5,6.2h-.1c-.9,0-2.2-2.3-2.9-5.4s-.5-6,.5-6.2h.1m0-3.8h-.9c-3.5.7-4.7,4.6-3.4,10.7.7,3.1,2.5,8.4,6.6,8.4h.9c3.5-.7,4.7-4.6,3.4-10.7-.7-3.1-2.5-8.4-6.6-8.4Z" transform="translate(-223.8 -88.6)" fill="#f45d90"/><path d="M458.9,338.2l-.6-2.1a17,17,0,0,0-28.1-17.7,9.9,9.9,0,0,0-2.5,7,15.2,15.2,0,0,0,2,7.6l.2.2v2.5l-.8.9-1.9,1.9-3-.2c-4.6-7-5.7-18.6.6-25.1a24.4,24.4,0,0,1,34.6-.6,24.7,24.7,0,0,1,5.4,27.5l-3,.7Z" transform="translate(-223.8 -88.6)" fill="#ff8ad2"/><path d="M442.4,307.6a22.6,22.6,0,0,1,15.7,6.3,22.9,22.9,0,0,1,5,25.4l-2-1.7-1-.9a18.9,18.9,0,0,0-17.7-25.4,19.1,19.1,0,0,0-13.6,5.8,11.3,11.3,0,0,0-3,8.3,16.7,16.7,0,0,0,2.4,8.7l.3.3-.8.9-1.9,1.9c-4.2-6.4-5.2-16.9.3-22.6a22.8,22.8,0,0,1,16.3-7m0-3.8h0a26.2,26.2,0,0,0-19,8.1c-7,7.3-5.9,19.6-.8,27.4l6,.6,1.9-2h0l.4-.5.4-.4v-5h-.1a13.2,13.2,0,0,1-1.7-6.5,8.1,8.1,0,0,1,1.9-5.6,15.1,15.1,0,0,1,10.9-4.7,14.8,14.8,0,0,1,10.5,4.3,15,15,0,0,1,3.6,16l1.1,4.2.5.4.4.4.3.3,1.7,1.5,6.1-1.3a26.7,26.7,0,0,0-5.9-29.7,26,26,0,0,0-18.3-7.4Z" transform="translate(-223.8 -88.6)" fill="#f45d90"/><path d="M400.4,379.2c.3.2,1.1-.5,1.7-1.6s1-2,.7-2.2-1.1.5-1.8,1.6S400.1,379.1,400.4,379.2Z" transform="translate(-223.8 -88.6)" fill="#fff"/><path d="M405.7,380.8c.3.1,1-.7,1.4-1.9s.6-2.2.3-2.3-1,.7-1.5,1.8S405.3,380.7,405.7,380.8Z" transform="translate(-223.8 -88.6)" fill="#fff"/><path d="M401.2,386.1c.3.1,1-.8,1.4-2s.5-2.2.1-2.3-.9.7-1.4,1.9S400.9,385.9,401.2,386.1Z" transform="translate(-223.8 -88.6)" fill="#fff"/><path d="M396.3,404.5c.3.1.9-.8,1.3-2s.3-2.3,0-2.4-.9.8-1.3,2S395.9,404.4,396.3,404.5Z" transform="translate(-223.8 -88.6)" fill="#fff"/><path d="M395.5,387.9c.3.1.9-.8,1.3-2s.4-2.2.1-2.3-.9.7-1.3,1.9S395.1,387.8,395.5,387.9Z" transform="translate(-223.8 -88.6)" fill="#fff"/><path d="M392.3,397.5c.3.2.9-.7,1.3-1.9s.5-2.3.1-2.4-.9.8-1.3,2S391.9,397.4,392.3,397.5Z" transform="translate(-223.8 -88.6)" fill="#fff"/><path d="M402.2,397.4c.4.1.9-.9,1.1-2.1s.1-2.3-.3-2.4-.8.9-1,2.2S401.9,397.4,402.2,397.4Z" transform="translate(-223.8 -88.6)" fill="#fff"/><path d="M465.6,316.8a5.7,5.7,0,0,0-2.6,7.5c1.4,2.5,5.4,3.4,8.3,1.1" transform="translate(-223.8 -88.6)" fill="#f8f3ea" stroke="#292447" stroke-linecap="round" stroke-linejoin="round" stroke-width="6.29"/></svg>