<svg xmlns="http://www.w3.org/2000/svg" width="221.178" height="273.375" viewBox="0 0 221.178 273.375">
  <g id="그룹_784" data-name="그룹 784" transform="translate(-413.819 -99.359)">
    <path id="패스_1096" data-name="패스 1096" d="M487.049,261.273l-36.862,40.883c-5.738-5.075-13.21-6.477-18.646-3.586a13.967,13.967,0,0,0-6.139,7.008c-1.971,5.3.3,10.227,1.353,12.5,1.441,3.12,5.671,6.71,14.072,13.764,6.022,5.056,9.4,7.558,14.309,9.638a43.772,43.772,0,0,0,5.1,1.8,15.609,15.609,0,0,0,5.443-.2c9.876-2.176,14.885-14,16.913-18.445,4.957-10.877,14.1-25.983,31.833-48.213l-24.14-17.7Z" fill="#51bc99" stroke="#292447" stroke-miterlimit="10" stroke-width="13.328"/>
    <path id="패스_1097" data-name="패스 1097" d="M556.876,284.354l-13.5,53.366c7.409,1.95,12.726,7.382,13.345,13.509a13.966,13.966,0,0,1-2.414,9c-3.309,4.583-8.672,5.43-11.141,5.82-3.394.537-8.73-.985-19.263-4.049-7.55-2.2-11.51-3.616-15.965-6.538a43.5,43.5,0,0,1-4.332-3.243,15.616,15.616,0,0,1-2.859-4.637c-3.68-9.419,3.363-20.153,5.935-24.311,6.287-10.167,13.764-26.162,22.387-53.26L557.2,280.238Z" fill="#51bc99" stroke="#292447" stroke-miterlimit="10" stroke-width="13.328"/>
    <path id="패스_1098" data-name="패스 1098" d="M609.636,212.1c27.416-23.981,21.778-60.941,1.7-74.472-17.8-12-51.466-8.606-71.21,14.888-6.574-29.976-34.807-48.616-56.149-46.257-24.064,2.66-46.223,32.774-33.08,66.744-34.035,18.9-38.93,59.615-17.491,82.939,17.344,18.869,50.844,25.183,78.33,11.841,18.145,24.581,50.746,34.547,74.869,25.892C616.426,282.98,631,244.653,609.636,212.1Z" fill="#51bc99" stroke="#292447" stroke-linecap="round" stroke-linejoin="round" stroke-width="13.328"/>
    <path id="패스_1099" data-name="패스 1099" d="M570.307,208.027l-24.4-9.709,25.988-9.355" fill="none" stroke="#292447" stroke-linecap="round" stroke-linejoin="round" stroke-width="9.693"/>
    <path id="패스_1100" data-name="패스 1100" d="M486.7,190.061l26.1,2.925-18.521-20.491" fill="none" stroke="#292447" stroke-linecap="round" stroke-linejoin="round" stroke-width="9.693"/>
    <circle id="타원_298" data-name="타원 298" cx="5.544" cy="5.544" r="5.544" transform="translate(517.901 202.483)" fill="#292447"/>
    <line id="선_97" data-name="선 97" x2="14.121" y2="24.09" transform="translate(482.001 135.984)" fill="none" stroke="#29775b" stroke-linecap="round" stroke-miterlimit="10" stroke-width="9.289"/>
    <line id="선_98" data-name="선 98" x2="14.121" y2="24.09" transform="translate(565.746 246.532)" fill="none" stroke="#29775b" stroke-linecap="round" stroke-miterlimit="10" stroke-width="9.289"/>
    <line id="선_99" data-name="선 99" x1="23.694" y2="14.776" transform="translate(450.814 224.059)" fill="none" stroke="#29775b" stroke-linecap="round" stroke-miterlimit="10" stroke-width="9.289"/>
    <line id="선_100" data-name="선 100" x1="23.694" y2="14.776" transform="translate(573.711 158.707)" fill="none" stroke="#29775b" stroke-linecap="round" stroke-miterlimit="10" stroke-width="9.289"/>
    <path id="패스_1101" data-name="패스 1101" d="M516.873,221.117c2.32-1.171,5.035,4.465,11.616,5.075,5.287.491,10.079-2.542,13.759-5.854,3,13.821-1.4,24.887-8.2,27.225-4.645,1.6-9.379-1.237-10.246-1.756C513.7,239.758,513.257,222.944,516.873,221.117Z" fill="#327a60" stroke="#292447" stroke-linecap="round" stroke-linejoin="round" stroke-width="9.693"/>
  </g>
</svg>
