<svg xmlns="http://www.w3.org/2000/svg" width="53" height="51.08" viewBox="0 0 53 51.08">
  <g id="그룹_74" data-name="그룹 74" transform="translate(-633 -112.977)">
    <g id="그룹_6" data-name="그룹 6" transform="translate(633 112.977)">
      <path id="패스_26" data-name="패스 26" d="M82.107,445.1a14.451,14.451,0,0,0,4.067-10.56,15,15,0,0,0-15.767-14.175,15.45,15.45,0,0,0-10.72,4.82,15.454,15.454,0,0,0-11.043-4.029,15,15,0,0,0-14.695,15.283,14.444,14.444,0,0,0,4.66,10.087,14.464,14.464,0,0,0-4.225,10.722A15,15,0,0,0,50.15,471.425a15.448,15.448,0,0,0,10.876-4.987,15.445,15.445,0,0,0,11.209,4.184A15,15,0,0,0,86.93,455.338,14.449,14.449,0,0,0,82.107,445.1ZM60.288,446.15l-.1-.1q.127-.128.251-.26c.033.03.066.061.1.091C60.452,445.973,60.369,446.061,60.288,446.15Z" transform="translate(-33.939 -420.356)" fill="#63b79c"/>
    </g>
  </g>
</svg>
