<svg id="Layer_1" data-name="Layer 1" xmlns="http://www.w3.org/2000/svg" viewBox="0 0 308.2 348.3"><title>clova</title><path d="M324.6,310.7,276,364.6c-7.5-6.7-17.4-8.5-24.5-4.7a18.1,18.1,0,0,0-8.1,9.2c-2.6,7,.4,13.5,1.8,16.5s7.4,8.8,18.5,18.1c7.9,6.6,12.4,9.9,18.9,12.7,2.7,1.1,5,1.9,6.7,2.4a22.9,22.9,0,0,0,7.2-.3c13-2.9,19.6-18.5,22.2-24.3,6.6-14.3,18.6-34.2,42-63.5l-31.8-23.3Z" transform="translate(-233.6 -109)" fill="#51bc99" stroke="#292447" stroke-miterlimit="10" stroke-width="17.56"/><path d="M456.7,334.9l21.9,69.2c9.7-3,19.4-.6,24.3,5.8a19.3,19.3,0,0,1,3.6,11.8c-.6,7.4-6,12.1-8.5,14.2s-10.4,5-24.4,8.9c-9.9,2.7-15.4,3.9-22.4,3.7-2.9-.1-5.4-.4-7.1-.6a21,21,0,0,1-6.4-3.2c-10.7-8-10.2-24.9-10.2-31.4,0-15.7-2.7-38.8-11.9-75.2l38.6-8Z" transform="translate(-233.6 -109)" fill="#51bc99" stroke="#292447" stroke-miterlimit="10" stroke-width="17.56"/><path d="M508.4,257.5c36.1-31.6,28.7-80.3,2.2-98.1-23.4-15.8-67.8-11.4-93.8,19.6-8.7-39.5-45.8-64.1-74-60.9-31.7,3.5-60.9,43.1-43.5,87.9-44.9,24.9-51.3,78.5-23.1,109.2,22.9,24.9,67,33.2,103.2,15.6,23.9,32.4,66.9,45.6,98.6,34.2C517.3,350.9,536.5,300.4,508.4,257.5Z" transform="translate(-233.6 -109)" fill="#51bc99" stroke="#292447" stroke-linecap="round" stroke-linejoin="round" stroke-width="17.56"/><polyline points="223 137.9 190.8 125.2 225.1 112.8" fill="none" stroke="#292447" stroke-linecap="round" stroke-linejoin="round" stroke-width="12.77"/><path d="M375.9,224.5s7.4-3.8,12.8-6.8c.6-9.7-2.5-17.6-8.2-19s-15.4,7.4-18.6,20.4,0,24.9,7,26.6c5.2,1.3,11.1-3.3,15.1-11Z" transform="translate(-233.6 -109)" fill="#292447"/><circle cx="161.2" cy="143.1" r="7.3" fill="#292447"/><line x1="106.6" y1="48.2" x2="125.2" y2="79.9" fill="none" stroke="#29775b" stroke-linecap="round" stroke-miterlimit="10" stroke-width="12.24"/><line x1="217" y1="193.8" x2="235.6" y2="225.6" fill="none" stroke="#29775b" stroke-linecap="round" stroke-miterlimit="10" stroke-width="12.24"/><line x1="96.8" y1="164.2" x2="65.6" y2="183.7" fill="none" stroke="#29775b" stroke-linecap="round" stroke-miterlimit="10" stroke-width="12.24"/><line x1="258.7" y1="78.1" x2="227.5" y2="97.6" fill="none" stroke="#29775b" stroke-linecap="round" stroke-miterlimit="10" stroke-width="12.24"/><path d="M391.2,287.8a16.1,16.1,0,0,0,15.6,11.3c9.9.1,21.3-6.4,28-16.1" transform="translate(-233.6 -109)" fill="none" stroke="#292447" stroke-linecap="round" stroke-linejoin="round" stroke-width="12.77"/><path d="M415.7,291.8c-7.7-4.1-7.6-25.5,1.5-29.7,7.3-3.3,20.9,4.2,21.5,13.6S422.7,295.6,415.7,291.8Z" transform="translate(-233.6 -109)" fill="#dd78af" stroke="#292447" stroke-linecap="round" stroke-linejoin="round" stroke-width="12.77"/></svg>