<svg id="Layer_1" data-name="Layer 1" xmlns="http://www.w3.org/2000/svg" viewBox="0 0 339.2 536.8"><title>rabbit</title><circle cx="253.1" cy="372.6" r="18.2" fill="#f8f3ea" stroke="#292447" stroke-linecap="round" stroke-linejoin="round" stroke-width="8.36"/><path d="M360.3,321.8a41.5,41.5,0,0,1-5.2,18.9,41,41,0,0,1-13,13.9,168.6,168.6,0,0,1-17.8,7.8c-9.8,3.6-14.9,5.4-20.5,4.6s-5.6-2.4-10.5-2.4a23.3,23.3,0,0,0-13.6,4c-.5.3-10.8,7.4-10.8,19.9,0,1.8.1,9.8,6.1,15.3,3.8,3.5,8.1,4.3,11.6,4.9s12.4,2.1,20-3.8a21.4,21.4,0,0,0,5.4-6,32.8,32.8,0,0,0,10.6,3.1,34.3,34.3,0,0,0,19.4-3.2,103.6,103.6,0,0,0,14.6-7.6,88.1,88.1,0,0,0,11.5-8.5,238.1,238.1,0,0,0,12.9,32c4.2,8.6,7.6,14.7,8.5,16l15.9,23.1,7.9,7.5-21.2,41.5c-1.5-.3-15.5-2.4-22.2,5.9s.1,25.6,7.2,33.5c9.6,10.9,23.1,12.3,26.7,12.5a34.1,34.1,0,0,0,12.2-1.4c6.9-2.1,19.4-8.1,39.8-51.7,10.3-21.9,19.3-46.4,19.3-46.4,2.2.3,5.6.8,9.7,1.6,16.5,3.4,18.4,7.9,31.4,10.2,10.9,2,15.1-.1,18.5,4s1.9,7.4,6.3,11.3a16.2,16.2,0,0,0,8.1,3.7,21.4,21.4,0,0,0,14.2-2.3,45,45,0,0,0,6.6-6.6c1.9-2.4,9.6-12.2,9.2-25.7a23.9,23.9,0,0,0-2.5-11.3c-.9-1.9-3.6-7.3-9-9.3a14.2,14.2,0,0,0-7.8-.4c-11.7,2.2-35.1-9.2-49.8-19.7s-24.1-18-30-32.3c-4.1-10-4.1-18.9-13.1-32-2.8-4-4.6-5.9-6.7-8.5-6.5-7.8-14.3-20.5-19.3-41.8Z" transform="translate(-244.1 -22.1)" fill="#f8f3ea" stroke="#292447" stroke-linecap="round" stroke-linejoin="round" stroke-width="8.36"/><ellipse cx="433.4" cy="404.3" rx="31.6" ry="44.5" transform="translate(-393.9 276.7) rotate(-32.8)" fill="#fb9fbc"/><path d="M456.1,299.8a180.3,180.3,0,0,1,24.8,24.6c11.5,13.6,15,21.4,16.2,24.3,2.7,6.4,6,14.7,4.1,25a35.3,35.3,0,0,1-5,12.3,35.2,35.2,0,0,1-8.9,6.8,33.9,33.9,0,0,1-11.2,4,26.5,26.5,0,0,1-10.5-.6,28.2,28.2,0,0,1-8.1-3.7,21.5,21.5,0,0,1-18.4,10.9c-8.3,0-16.7-5.2-19.4-13.6-3.3-10.1,3.5-18.4,3.9-18.9s5.8-6.7,13.9-7.2c5.9-.3,8.5,2.8,14.1,1.1,1.2-.4,3.4-1.2,6.9-2.2l4.4-1.1,2.8-.6-22.2-23.8-13.3-10.3c-18.3-11-18.4-16.7-17.9-18.7C414.6,298.5,448.9,299.5,456.1,299.8Z" transform="translate(-244.1 -22.1)" fill="#f8f3ea" stroke="#292447" stroke-linecap="round" stroke-linejoin="round" stroke-width="8.36"/><path d="M426.6,331.1c1.2-.8,2.6-1.5,3.9-2.2l6.3-3.4,21.3,14.6c-.8.6-2.2,1.6-3.7,1.2s-1-.6-2.3-2a34.8,34.8,0,0,0-3.5-3.5,6.1,6.1,0,0,0-4.7-1.5,4.7,4.7,0,0,0-3.2,2.5c-1.3,3.2,3.3,7.1,2.6,8s-3.3-.3-12.5-6.2Z" transform="translate(-244.1 -22.1)" fill="#f8f3ea"/><path d="M465.7,412.8" transform="translate(-244.1 -22.1)" fill="#f8f3ea" stroke="#f37" stroke-miterlimit="10" stroke-width="1.15"/><ellipse cx="395.8" cy="532.4" rx="12.9" ry="20.4" transform="translate(-511.3 534.9) rotate(-55.5)" fill="#e2d4c0"/><path d="M318.2,206.3c-4.8-20.1-9.9-54.6,1.5-93.3,12.9-43.8,47.1-91.7,67.3-86.3s23.5,57.2,17.4,93.4c-6.9,40.4-28.3,68.4-40.9,82.5Z" transform="translate(-244.1 -22.1)" fill="#f8f3ea" stroke="#292447" stroke-linecap="round" stroke-linejoin="round" stroke-width="8.36"/><ellipse cx="364.1" cy="249.7" rx="107.5" ry="96.9" transform="matrix(0.99, -0.16, 0.16, 0.99, -279, 38.64)" fill="#f8f3ea" stroke="#292447" stroke-linecap="round" stroke-linejoin="round" stroke-width="8.36"/><path d="M368.2,268.5c-.1,0-1.4-5.6-.4-13.2a33.1,33.1,0,0,1,2.7-9.9,26.4,26.4,0,0,1,4.8-7.1,22.5,22.5,0,0,1,7.5-5.1,32.2,32.2,0,0,0-7.2,14.2c-2.5,11.2.7,25.8,10.3,31.4a19.7,19.7,0,0,0,9.4,2.5,20.1,20.1,0,0,0,12.3-5,19.3,19.3,0,0,0,6.4-12.8l-12.3-3.7,12.5-5.2a31.1,31.1,0,0,0-6.1-18.2,23.1,23.1,0,0,0-10.2-7.9,22.3,22.3,0,0,0-9-1.4,25.3,25.3,0,0,0-19.2,10.6c-8.6,12.2-1.5,30.8-1.5,30.8" transform="translate(-244.1 -22.1)" fill="#292447"/><path d="M285.6,278.4a40.7,40.7,0,0,1-.3-13.2,33.1,33.1,0,0,1,2.7-9.8,24.2,24.2,0,0,1,4.8-7.1,23.1,23.1,0,0,1,7.5-5.2,32.7,32.7,0,0,0-7.2,14.2c-2.5,11.3.7,25.9,10.3,31.4a18.6,18.6,0,0,0,9.4,2.5,19.1,19.1,0,0,0,12.3-4.9,20,20,0,0,0,6.4-12.9l-12.3-3.6,12.5-5.3a31.1,31.1,0,0,0-6.1-18.1,23.8,23.8,0,0,0-10.2-8,22.5,22.5,0,0,0-9.1-1.4,26.1,26.1,0,0,0-19.2,10.7c-8.5,12.2-1.4,30.7-1.5,30.7" transform="translate(-244.1 -22.1)" fill="#292447"/><path d="M352.8,289.8c.5,3.1-2.7,6.3-7.3,7s-8.5-1.2-9-4.4,2.7-6.2,7.2-7,8.6,1.3,9.1,4.4" transform="translate(-244.1 -22.1)" fill="#292447"/><path d="M331.6,306.2a7.7,7.7,0,0,0-.8,3.8,11.5,11.5,0,0,0,1.1,3.1,8.4,8.4,0,0,0,2.1,2.1,3.8,3.8,0,0,0,1.9.4,13.2,13.2,0,0,0,5.2-1.7,26,26,0,0,0,5.1-3.8l2.3-2.2,3.5,1.6a22.9,22.9,0,0,0,4.6,1.7,27,27,0,0,0,4.8.9,26.1,26.1,0,0,0,9.6-.8l1.4-.5a28.3,28.3,0,0,0,7.8-4.2,42,42,0,0,0,8.3-8.5l.6.3a31.1,31.1,0,0,1-6.2,11.1,27.1,27.1,0,0,1-9.8,7.4,25.4,25.4,0,0,1-11.9,2,26.5,26.5,0,0,1-11.8-3.5h.6a21.8,21.8,0,0,1-7,4.2,12.2,12.2,0,0,1-8,.7,6.7,6.7,0,0,1-3.7-2.3,10.3,10.3,0,0,1-2.1-4,9,9,0,0,1-.2-4.6,6.4,6.4,0,0,1,2.2-3.7Z" transform="translate(-244.1 -22.1)" fill="#292447"/><path d="M374.4,310.5a19.9,19.9,0,0,1-5-7.1c-1-2.3-3.3-7.8-.7-13.2a11.3,11.3,0,0,1,6.8-6,10.6,10.6,0,0,1,7.5.7,11.6,11.6,0,0,1,6,8.5C389.9,299.7,384.2,307.2,374.4,310.5Z" transform="translate(-244.1 -22.1)" fill="#fb9fbc" stroke="#292447" stroke-linecap="round" stroke-linejoin="round" stroke-width="6.05"/><path d="M377.4,294.6a30.9,30.9,0,0,1,1.4,3.2c.5,1.2.9,2.3,1.3,3.4a13.1,13.1,0,0,1,1.2,3.3,12.1,12.1,0,0,1-.1,1.9,7.7,7.7,0,0,1-.5,1.9h-.3a5.8,5.8,0,0,1-1.3-1.5,6.5,6.5,0,0,1-.9-1.6,10.6,10.6,0,0,1-.5-3.5c-.2-1.2-.3-2.4-.4-3.6s-.2-2.4-.2-3.6Z" transform="translate(-244.1 -22.1)" fill="#292447"/><path d="M364.4,171.4c4.5-20.1,15-53.4,42.3-83.1,30.9-33.6,82.7-61.6,98.4-47.9s-4,61.7-25.5,91.5c-23.9,33.2-55.5,49-72.9,56.1Z" transform="translate(-244.1 -22.1)" fill="#f8f3ea" stroke="#292447" stroke-linecap="round" stroke-linejoin="round" stroke-width="8.36"/><path d="M353.3,158.4a155.9,155.9,0,0,1,16.9-2.1l8.9-.3q5.1,2.4,11.7,5.1a141.3,141.3,0,0,0,14.3,5.4c8.4,2.6,11.6,2.5,18.9,5.8a48.9,48.9,0,0,1,5.1,2.6c1.6,1,3.3,2.1,12.5,11.5a20,20,0,0,1,3,3.8,13.9,13.9,0,0,1,1.7,4.7c.7,4.8-12.8,11.8-18.3,13.9-25.6,9.6-101.7-3.9-116.8-6.7Z" transform="translate(-244.1 -22.1)" fill="#f8f3ea"/><path d="M387.4,245.5l4,5.7h6.9l-4.1,5.5,7.1,8.5L389.9,261l-5,2.5-.5-5.3-5.6-4,6.6-2.1Z" transform="translate(-244.1 -22.1)" fill="#f8f3ea"/><path d="M304.1,250.9l4,5.6H315l-4.1,5.6,7.1,8.5-11.4-4.2-5,2.5-.5-5.2-5.7-4,6.7-2.1Z" transform="translate(-244.1 -22.1)" fill="#f8f3ea"/><path d="M395.4,156.4a164.1,164.1,0,0,1,59.4-80.5c15.4-9.3,21.4-9.4,23.7-7.2,6.8,6.2-11,36.5-20.9,51.1a205.1,205.1,0,0,1-43,45.7,20.4,20.4,0,0,0-19.2-9.1Z" transform="translate(-244.1 -22.1)" fill="#fb9fbc"/><ellipse cx="421" cy="284" rx="15.8" ry="6.6" transform="translate(-283.7 48.1) rotate(-9.1)" fill="#fb9fbc"/><path d="M244.1,303.5a27.4,27.4,0,0,1,5.6-10.3,31.3,31.3,0,0,1,4.7-4.2,21.6,21.6,0,0,1,5.7-2.8,26.6,26.6,0,0,1,6.3-1.7,12.9,12.9,0,0,1,3.4,0,13.2,13.2,0,0,1,3.3.8,17.1,17.1,0,0,1,5.6,3.5,12.5,12.5,0,0,1,3.4,5.5c.1.3-.1.6-.3.6h-.3l-5.6-.9-4.9-.6-4.5-.6-1.1-.2h-1.2a19.3,19.3,0,0,0-2.4.1,25.2,25.2,0,0,0-4.7,1.3,22.5,22.5,0,0,0-4.6,2.4,27.5,27.5,0,0,0-7.6,7.6h0a.5.5,0,0,1-.6.1C244.1,303.9,244.1,303.7,244.1,303.5Z" transform="translate(-244.1 -22.1)" fill="#292447"/><path d="M253.5,315.4a25.8,25.8,0,0,1,5.2-8.7,34.6,34.6,0,0,1,4-3.5,26.8,26.8,0,0,1,4.7-2.6l1.3-.5,1.3-.5,2.8-.8a11.8,11.8,0,0,1,5.9.3,13.6,13.6,0,0,1,5,3.1,9.2,9.2,0,0,1,2.8,5.1c.1.3-.1.5-.4.6h-.2a84.1,84.1,0,0,0-8.9-.6,14.6,14.6,0,0,1-3.6-.3h-2a6.9,6.9,0,0,0-2,.1,26.9,26.9,0,0,0-15.1,8.8h-.1c-.1.2-.4.2-.6,0A.6.6,0,0,1,253.5,315.4Z" transform="translate(-244.1 -22.1)" fill="#292447"/></svg>