<svg id="그룹_6" data-name="그룹 6" xmlns="http://www.w3.org/2000/svg" width="75.573" height="72.834" viewBox="0 0 75.573 72.834">
  <path id="패스_26" data-name="패스 26" d="M102.621,455.64a20.606,20.606,0,0,0,5.8-15.058c-.422-11.6-10.488-20.648-22.482-20.211a22.031,22.031,0,0,0-15.286,6.873A22.037,22.037,0,0,0,54.906,421.5c-11.994.436-21.375,10.193-20.954,21.792A20.6,20.6,0,0,0,40.6,457.674a20.624,20.624,0,0,0-6.024,15.289c.422,11.6,10.487,20.648,22.482,20.212a22.028,22.028,0,0,0,15.508-7.112,22.024,22.024,0,0,0,15.983,5.965c11.994-.436,21.375-10.193,20.953-21.792A20.6,20.6,0,0,0,102.621,455.64Zm-31.111,1.5L71.363,457q.181-.183.358-.37c.047.043.093.087.141.129C71.743,456.883,71.625,457.009,71.51,457.136Z" transform="translate(-33.939 -420.355)" fill="#63b79c"/>
</svg>
