<svg id="그룹_583" data-name="그룹 583" xmlns="http://www.w3.org/2000/svg" width="58.249" height="41.25" viewBox="0 0 58.249 41.25">
  <path id="패스_912" data-name="패스 912" d="M1300.464,794.942c-.907-6.686-4.306-7.819-10.993-8.386-5.779-.453-12.352-.68-17.452-.68s-11.786.227-17.452.68c-6.686.566-10.2,1.7-11.106,8.386a110.858,110.858,0,0,0-.566,11.559,109.212,109.212,0,0,0,.566,11.559c.907,6.8,4.42,7.819,11.106,8.386,5.666.567,12.353.68,17.452.68s11.672-.113,17.452-.68c6.686-.567,10.086-1.587,10.993-8.386a83.455,83.455,0,0,0,.68-11.559A84.611,84.611,0,0,0,1300.464,794.942Zm-34.337,20.4V797.775l15.185,8.726Z" transform="translate(-1242.895 -785.876)" fill="#343434" fill-rule="evenodd"/>
</svg>
