<svg xmlns="http://www.w3.org/2000/svg" width="52.048" height="48.069" viewBox="0 0 52.048 48.069">
  <path id="패스_910" data-name="패스 910" d="M1274.717,302.882l18.588-20.105h-2.071c-1.009,0-1.963,0-2.929-.007a1.3,1.3,0,0,0-1.012.447q-6.293,6.814-12.6,13.62l-2.488,2.688-1.619-2.163c-3.458-4.621-7.033-9.4-10.557-14.092a1.142,1.142,0,0,0-.824-.439c-4.006-.035-8.079-.057-12.017-.078l-1.733-.01h-1.169l-.279.592,19.277,25.807-19.858,21.5.865.07.277.025c.16.015.3.029.44.03l.517.006c.947.011,1.926.023,2.891.01a1.281,1.281,0,0,0,.848-.382c.416-.435.825-.887,1.221-1.323.247-.272.494-.545.743-.814q4.581-4.953,9.164-9.9l4.582-4.951c.263-.284.525-.57.791-.86l.049-.053,1.152,1.545q1.584,2.125,3.157,4.23l3.505,4.688q2.768,3.7,5.534,7.4a.974.974,0,0,0,.832.452h0q3.824-.011,7.648-.014,2.722,0,5.444-.008c.333,0,.669-.02,1.025-.041.177-.01.365-.021.566-.031l.794-.038Zm-22.941-16.059h2.178c1.143,0,2.324,0,3.487-.007.084,0,.107,0,.193.114q5.82,7.8,11.649,15.6l2.675,3.58,6.2,8.3,2.279,3.051,6.858,9.182-1.88,0c-1.248,0-2.5.005-3.743.015-.109,0-.143-.01-.227-.122q-10.105-13.525-20.216-27.045l-6.481-8.668q-1.142-1.528-2.276-3.061Z" transform="translate(-1243.43 -282.745)" fill="#343434"/>
</svg>
