<svg xmlns="http://www.w3.org/2000/svg" width="56.454" height="56.32" viewBox="0 0 56.454 56.32">
  <g id="그룹_581" data-name="그룹 581" transform="translate(0 0)">
    <path id="패스_909" data-name="패스 909" d="M766.228,270.4h26a15.3,15.3,0,0,1,15.225,15.225v25.869a15.3,15.3,0,0,1-15.225,15.225h-26A15.3,15.3,0,0,1,751,311.495V285.625A15.3,15.3,0,0,1,766.228,270.4Zm28.16,9.836h0a3.279,3.279,0,0,1,3.234,3.234h0a3.279,3.279,0,0,1-3.234,3.234h0a3.192,3.192,0,0,1-3.234-3.234h0a3.192,3.192,0,0,1,3.234-3.234ZM779.163,283.2h.135a15.529,15.529,0,0,1,15.36,15.36h0a15.44,15.44,0,0,1-15.36,15.36h-.135a15.325,15.325,0,0,1-15.225-15.36h0a15.413,15.413,0,0,1,15.225-15.36Zm0,5.255h.135A10.179,10.179,0,0,1,789.4,298.56h0A10.208,10.208,0,0,1,779.3,308.8h-.135a10.208,10.208,0,0,1-10.105-10.24h0a10.179,10.179,0,0,1,10.105-10.105Zm-12.8-13.2H792.1a10.523,10.523,0,0,1,10.509,10.509v25.6A10.523,10.523,0,0,1,792.1,321.869H766.363a10.523,10.523,0,0,1-10.509-10.509v-25.6a10.523,10.523,0,0,1,10.509-10.509Z" transform="translate(-751.003 -270.4)" fill="#343434" fill-rule="evenodd"/>
  </g>
</svg>
