<svg id="그룹_45" data-name="그룹 45" xmlns="http://www.w3.org/2000/svg" width="78.768" height="75.914" viewBox="0 0 78.768 75.914">
  <g id="그룹_6" data-name="그룹 6" transform="translate(0 0)">
    <path id="패스_26" data-name="패스 26" d="M105.525,457.132a21.477,21.477,0,0,0,6.044-15.694c-.44-12.09-10.931-21.522-23.432-21.066A22.962,22.962,0,0,0,72.2,427.535a22.969,22.969,0,0,0-16.412-5.987c-12.5.454-22.279,10.624-21.839,22.713a21.467,21.467,0,0,0,6.925,14.991A21.5,21.5,0,0,0,34.6,475.187c.44,12.09,10.93,21.522,23.432,21.067A22.959,22.959,0,0,0,74.2,488.841a22.955,22.955,0,0,0,16.659,6.218c12.5-.455,22.279-10.624,21.839-22.713A21.474,21.474,0,0,0,105.525,457.132ZM73.1,458.691l-.153-.142q.189-.19.373-.386c.049.045.1.091.147.135C73.342,458.428,73.218,458.558,73.1,458.691Z" transform="translate(-33.939 -420.355)" fill="#63b79c"/>
  </g>
</svg>
