<svg xmlns="http://www.w3.org/2000/svg" width="6254" height="757.001" viewBox="0 0 6254 757.001">
  <path id="빼기_5" data-name="빼기 5" d="M6254,879H0V122a122.461,122.461,0,0,0,2.555,24.4,120.879,120.879,0,0,0,18.36,43.272,121.853,121.853,0,0,0,53.4,43.827,120.894,120.894,0,0,0,22.756,7.047,122.335,122.335,0,0,0,63.771-4.055A121.729,121.729,0,0,0,238,156.107a121.554,121.554,0,0,0,233,0,121.553,121.553,0,0,0,233,0,121.554,121.554,0,0,0,233,0,121.555,121.555,0,0,0,232.5,1.645,121.554,121.554,0,0,0,232.5-1.645,121.553,121.553,0,0,0,233,0,121.554,121.554,0,0,0,233,0,121.461,121.461,0,0,0,198.441,55.1,122.291,122.291,0,0,0,19.059-22.15,122.1,122.1,0,0,0,42.888,39.168A121.587,121.587,0,0,0,2303,156.107a121.552,121.552,0,0,0,233,0,121.554,121.554,0,0,0,233,0,121.553,121.553,0,0,0,233,0,121.556,121.556,0,0,0,232.5,1.645,121.554,121.554,0,0,0,232.5-1.645,121.552,121.552,0,0,0,233,0,121.555,121.555,0,0,0,233,0,121.554,121.554,0,0,0,182.453,67.45,122.023,122.023,0,0,0,44.047-50.392A121.557,121.557,0,0,0,4386,156.107a121.552,121.552,0,0,0,233,0,121.554,121.554,0,0,0,233,0,121.552,121.552,0,0,0,233,0,121.556,121.556,0,0,0,232.5,1.645,121.555,121.555,0,0,0,232.5-1.645,121.552,121.552,0,0,0,233,0,121.556,121.556,0,0,0,233,0A121.38,121.38,0,0,0,6132.5,243a122.455,122.455,0,0,0,24.417-2.454,120.851,120.851,0,0,0,43.344-18.181,121.877,121.877,0,0,0,44.028-53.188,120.926,120.926,0,0,0,7.142-22.7A122.29,122.29,0,0,0,6254,122.091V879Z" transform="translate(0 -122)" fill="#fff8ee"/>
</svg>
