<svg xmlns="http://www.w3.org/2000/svg" width="61.802" height="63.17" viewBox="0 0 61.802 63.17">
  <path id="패스_1067" data-name="패스 1067" d="M-2745.946-2109.871a17.631,17.631,0,0,0,6.636-13.747,18.071,18.071,0,0,0-18.3-17.838,18.484,18.484,0,0,0-12.6,4.91,18.485,18.485,0,0,0-12.605-4.91,18.071,18.071,0,0,0-18.3,17.838,17.632,17.632,0,0,0,6.636,13.747,17.632,17.632,0,0,0-6.636,13.747,18.071,18.071,0,0,0,18.3,17.838,18.484,18.484,0,0,0,12.605-4.91,18.482,18.482,0,0,0,12.6,4.91,18.071,18.071,0,0,0,18.3-17.838A17.63,17.63,0,0,0-2745.946-2109.871Z" transform="translate(2801.111 2141.456)" fill="#5b9dff"/>
</svg>
