<svg xmlns="http://www.w3.org/2000/svg" width="409.633" height="227.617" viewBox="0 0 409.633 227.617">
  <g id="그룹_301" data-name="그룹 301" transform="translate(-4573.286 -1488.376)">
    <g id="그룹_300" data-name="그룹 300" transform="translate(4573.286 1488.376)">
      <path id="패스_354" data-name="패스 354" d="M4553.22,1841.521a26.386,26.386,0,0,0,7.076,1.677c6.811.422,13.811-.772,20.043-4.923-.555,6.4-.947,12.709-1.2,19.13-5.873-7.267-15.766-10.235-24.207-11.031l-1.879-.176c.94,7.1,4.438,13.732,8.446,19.257h-10.209a364.135,364.135,0,0,1,2.774-41.673l10.057,2.048C4559.351,1829.545,4554.489,1834.974,4553.22,1841.521Z" transform="translate(-4551.286 -1637.837)" fill="#fff"/>
      <path id="패스_355" data-name="패스 355" d="M4564.3,1760.738,4590.663,1771c-1,3.568-1.461,5.383-2.321,9.072l-13.562-4.5c-.875,3.744-1.28,5.646-2.021,9.506l13.713,3.809c-.732,3.833-1.063,5.78-1.649,9.735l-27.3-6.007c.682-4.565,1.065-6.813,1.917-11.236l11.952,3.319c.746-3.888,1.153-5.8,2.036-9.574l-11.819-3.919C4562.606,1766.949,4563.146,1764.855,4564.3,1760.738Z" transform="translate(-4554.393 -1609.954)" fill="#fff"/>
      <path id="패스_356" data-name="패스 356" d="M4601.906,1748.484c-1.173,3.407-1.729,5.141-2.771,8.67l-26.155-10.705c1.207-4.07,1.85-6.07,3.208-10Z" transform="translate(-4562.088 -1599.211)" fill="#fff"/>
      <path id="패스_357" data-name="패스 357" d="M4597.532,1683.225c2.655,1.781,2.062,5.813.5,9.068a10.947,10.947,0,0,1-3.479,4.44,13.417,13.417,0,0,0-4.849,5.658c-.583,1.433-.467,2.493.274,2.882.944.5,2.383-1.228,6.861-6.384,4.568-5.258,13.519-13.436,19.731-9.923a3.2,3.2,0,0,1,.911.808c3.964,5.653.313,12.987-2.162,18.384-3.105,6.774-5.076,8.741-7.969,10.559a6.05,6.05,0,0,1-5.587.339c-2.771-1.333-4.377-6.71-1.27-14.069,1.433-3.391,2.869-3.173,2.869-3.173-.95,2.6-.065,8.61,3.429,10.482,2.116,1.134,4.443.015,6.893-5.325,2.956-6.446-.535-9.012-.6-9.053-6.453-2.8-12.479,4.511-16.492,9.074-3.812,4.331-6.455,3.7-7.308,3.278-4.084-2.027-2.4-7.8-1.581-9.8.227-.55.4-.875.4-.875,2.513-5.8,5.124-11.4,7.945-17.015A4.309,4.309,0,0,1,4597.532,1683.225Z" transform="translate(-4568.899 -1575.385)" fill="#fff"/>
      <path id="패스_358" data-name="패스 358" d="M4671.381,1568.735a322.7,322.7,0,0,0,8.776,31.437c-2.908,2.663-4.331,4.044-7.105,6.9-4.681-3.041-7.054-4.516-11.866-7.367,2.467,5.378,3.748,8.034,6.4,13.271-2.678,3.036-3.982,4.6-6.51,7.839-8.912-4.46-17.9-8.558-27.062-12.344,2.418-3.422,3.663-5.09,6.221-8.336,7.8,3.4,15.519,7.08,23.06,11.148-2.341-4.636-4.626-9.315-6.527-14.2-3.79-2.181-5.7-3.242-9.572-5.3,2.023-2.3,3.053-3.419,5.147-5.616.826-.867,1.242-1.3,2.079-2.149,7.355,4.376,14.6,9,21.654,13.955-1.045-6.162-2.678-10.187-4.605-12.708a9.063,9.063,0,0,0-5.637-3.7,4.829,4.829,0,0,1-3.078-1.733,5.411,5.411,0,0,1-1.093-2.754C4665.459,1573.595,4667.405,1571.926,4671.381,1568.735Z" transform="translate(-4592.479 -1525.033)" fill="#fff"/>
      <path id="패스_359" data-name="패스 359" d="M4742.862,1557.786l4.742,9c-4.738,2.8-7.063,4.3-11.6,7.51-2.5,1.771-3.739,2.688-6.175,4.583l-16.671-24.635a194.079,194.079,0,0,1,20.494-13.927c1.9,3.6,2.846,5.4,4.743,9,0,0-5.832-3.705-9.176-3.183a10.383,10.383,0,0,0-3.815,1.776,31.941,31.941,0,0,0-3.839,3.123c2.847,4.585,4.269,6.878,7.114,11.462,1.427-1.106,3.536-3.4,1.887-6.806,1.661,2.826,2.49,4.238,4.151,7.064-.283-.482-1.833-2.3-5.638.386l5.641,9.088a26.809,26.809,0,0,0,3.812-2.091,9.8,9.8,0,0,0,2.8-2.592C4743.061,1564.877,4742.862,1557.786,4742.862,1557.786Zm-8.079,5.07-.061-.1Z" transform="translate(-4631.89 -1512.464)" fill="#fff"/>
      <path id="패스_360" data-name="패스 360" d="M4788.927,1536.551c1.446,3.822,2.169,5.733,3.616,9.555-5.035,2.085-7.519,3.229-12.4,5.719-2.7,1.375-4.03,2.094-6.669,3.593l-13.551-26.7A197.176,197.176,0,0,1,4781.911,1518l3.616,9.555s-5.334-4.49-8.711-4.459a10.2,10.2,0,0,0-3.993,1.2,30.974,30.974,0,0,0-4.181,2.514l5.669,12.325c1.546-.879,3.913-2.828,2.689-6.425l3.262,7.562c-.224-.517-1.54-2.532-5.633-.444,1.8,3.909,2.7,5.863,4.494,9.772a25.923,25.923,0,0,0,4.029-1.5,9.414,9.414,0,0,0,3.083-2.147C4788.27,1543.573,4788.927,1536.551,4788.927,1536.551Zm-8.618,3.831-.047-.11Z" transform="translate(-4655.175 -1502.595)" fill="#fff"/>
      <path id="패스_361" data-name="패스 361" d="M4843.856,1529.881c-3.78.9-5.66,1.407-9.39,2.519a15.193,15.193,0,0,0-.532-3.792,7.874,7.874,0,0,0-3.821-5.244,11.692,11.692,0,0,0-6.792-1.255c1.594,5,2.391,7.5,3.987,12.508-2.817.973-4.216,1.489-6.994,2.583q-5.117-14.175-10.232-28.349c3.2-1.259,4.819-1.854,8.066-2.973l2.8,8.787c3-8.3,9.012-11.679,16.279-14.244.521,3.573.786,5.358,1.327,8.927a9.25,9.25,0,0,0-6.514-.312,14.594,14.594,0,0,0-4.039,1.876c-.058.018-5.2,4.4-4,8.285.144.462,1.079,1.818,4.741.881C4836.059,1518.2,4842.2,1520.628,4843.856,1529.881Z" transform="translate(-4680.149 -1494.818)" fill="#fff"/>
      <path id="패스_362" data-name="패스 362" d="M4918.073,1507.012c4.6-.3,10.024,1.909,10.11,6.1.115,5.519-2.56,7.888-7.4,8.156a6.389,6.389,0,0,1-5.354-1.93,3.838,3.838,0,0,0-2.468-1.477c.155,1.59.231,2.384.387,3.973-3.273.318-4.907.514-8.163.982q-2.1-15.038-4.191-30.076c6.726.1,20.945-4.712,25.587,2.626a13.644,13.644,0,0,1,.5,2.933c.1,3.948-2.535,6.013-6.985,7.383a13.6,13.6,0,0,1-3.077.594,9.923,9.923,0,0,1-5.9-1.24.82.82,0,0,0-.342.723c.09.883,1.767,1.789,4.792,1.553.408-.032.878-.1,1.334-.18A11.451,11.451,0,0,1,4918.073,1507.012Zm-8.775-12.776c-.433.045-.927.1-1.416.192,0,0,3.684,2.017,3.971,5.068.268,2.85,1.724,5.725,5.137,5.488a3.22,3.22,0,0,0,3.334-3.755,6.467,6.467,0,0,0-1.561-3.871A10.988,10.988,0,0,0,4909.3,1494.236Zm12.869,20.906a6.636,6.636,0,0,0-2.576-4.387,10.754,10.754,0,0,0-6.971-1.855,13.085,13.085,0,0,0-2.962.666c-.057.007,3.659,1.311,4.7,3.872.894,2.193,2.56,4.387,5.049,4.233a4.466,4.466,0,0,0,1.314-.318A2.037,2.037,0,0,0,4922.167,1515.143Z" transform="translate(-4725.419 -1490.777)" fill="#fff"/>
      <path id="패스_363" data-name="패스 363" d="M4981.533,1511.508c-.395,4.066-.591,6.1-.986,10.165-5.369-.625-8.066-.835-13.464-1.055-2.983-.121-4.476-.15-7.46-.148q-.143-15.047-.285-30.094a206.41,206.41,0,0,1,24.109,1.4c-.394,4.066-.591,6.1-.986,10.165,0,0-2.754-6.55-5.752-8.177a10.222,10.222,0,0,0-4.053-.908,30.076,30.076,0,0,0-4.793.149c-.154,5.442-.231,8.163-.385,13.6,1.75-.009,4.694-.557,5.187-4.316-.17,3.3-.256,4.944-.426,8.24.029-.563-.254-2.974-4.783-3.159-.122,4.314-.183,6.472-.305,10.787a25.344,25.344,0,0,0,4.217.664,8.943,8.943,0,0,0,3.666-.374C4977.875,1517.36,4981.533,1511.508,4981.533,1511.508Zm-9.3-.851c0-.048,0-.073.007-.121C4972.235,1510.616,4972.232,1510.657,4972.232,1510.657Z" transform="translate(-4754.469 -1490.376)" fill="#fff"/>
      <path id="패스_364" data-name="패스 364" d="M5036.109,1501.3c-.742,3.24-4.188,3.781-7.226,3.083a8.715,8.715,0,0,1-4.479-2.367,11.185,11.185,0,0,0-5.751-3.494c-1.284-.221-2.092.179-2.212,1.055-.154,1.114,1.542,2.177,6.828,5.4,5.516,3.364,14.471,10.281,13.284,17.543a3.664,3.664,0,0,1-.416,1.17c-3.491,5.638-10.4,4.077-15.517,2.972-6.245-1.349-8.264-2.908-10.413-5.449a8.119,8.119,0,0,1-1.654-5.743c.356-3.236,4.128-6.276,10.784-5.042,3.067.568,3.275,2.11,3.275,2.11-2.327-.272-6.88,2.264-7.478,6.4-.363,2.5,1.093,4.642,6.016,5.707,5.939,1.286,7.136-3.066,7.152-3.144.575-7.277-6.773-11.539-11.548-14.585-4.4-2.8-4.538-5.744-4.418-6.742.573-4.787,5.54-4.558,7.334-4.242a6.84,6.84,0,0,1,.8.183c5.279.927,10.577,2.1,15.774,3.485A5.619,5.619,0,0,1,5036.109,1501.3Z" transform="translate(-4778.954 -1492.768)" fill="#fff"/>
      <path id="패스_365" data-name="패스 365" d="M5083.51,1510.548a40.9,40.9,0,0,0-2.958,7.151c-1.983,6.953-2.987,14.4-1.634,21.914-5.067-2.043-7.639-2.964-12.833-4.6,6.832-5.331,11.016-14.983,13.647-23.507q.389-1.259.6-1.946c-5.138-.345-10.8,2.419-15.039,5.447,1.048-4.293,1.573-6.439,2.62-10.732a195.689,195.689,0,0,1,27.934,10.139c-1.593,4.092-2.39,6.138-3.981,10.23C5090.479,1519.163,5087.883,1513.734,5083.51,1510.548Z" transform="translate(-4807.229 -1496.524)" fill="#fff"/>
      <path id="패스_366" data-name="패스 366" d="M5163.677,1542.808c.3,5.743.386,11.559.259,17.309,3.3-.354,5.752-1.686,6.857-3.45,1.062-1.7.409-3.876,1.356-5.415a6.38,6.38,0,0,1,1.464-1.646c3.528,2.577,5.263,3.92,8.666,6.714a181.743,181.743,0,0,0-18.2,5.875l-7.058,11.622c-2.55-1.828-3.843-2.709-6.461-4.408l6.663-12.039q-.544-9.839-1.875-19.6C5158.723,1539.7,5160.39,1540.706,5163.677,1542.808Z" transform="translate(-4849.687 -1511.338)" fill="#fff"/>
      <path id="패스_367" data-name="패스 367" d="M5223.549,1592.772l-19.206,21.3c-2.211-2.449-3.341-3.641-5.644-5.958-3.969-3.691-9.884-11.292-6.027-17.08a3.682,3.682,0,0,1,.721-.818l11.168-15.836c3.368,2.844,5.02,4.321,8.25,7.381a8.848,8.848,0,0,1-.936,1.512c-2.309,2.994-6.3,3.193-9.8,4.664a14.783,14.783,0,0,0-6.224,4.651c-3.291,4.5-1.2,8.54,2.04,11.688a23.057,23.057,0,0,0,2.19,1.89q8.418-10.2,16.836-20.4C5219.628,1588.49,5220.954,1589.891,5223.549,1592.772Z" transform="translate(-4870.03 -1527.529)" fill="#fff"/>
      <path id="패스_368" data-name="패스 368" d="M5264.249,1645.641l-22.754,16.674c-2-3.547-3.034-5.276-5.187-8.644l17.251-14.126a155.106,155.106,0,0,0-19.681-.318q3.22-10,5.655-20.279a13.109,13.109,0,0,0-1.163,1.111,29.375,29.375,0,0,0-7.153,14.382c-.673,3.149-3.591,5.856-4.03,6.283-2.36-3.044-3.574-4.521-6.065-7.389q9.854-10.566,19.708-21.131c2.87,3.308,4.269,5.012,6.984,8.521-1.545,5.284-3.269,10.549-5.142,15.7a151.889,151.889,0,0,1,15.835-.394C5260.888,1639.778,5262.037,1641.7,5264.249,1645.641Z" transform="translate(-4884.819 -1544.259)" fill="#fff"/>
      <path id="패스_369" data-name="패스 369" d="M5296.722,1685.414c-2.352,5.481-4.785,10.836-7.359,16.192,3,1.773,5.686,2.111,7.41,1.172,1.658-.9,2.056-3.357,3.545-4.186a4.918,4.918,0,0,1,1.983-.6c1.9,4.669,2.793,7.057,4.468,11.941a149.614,149.614,0,0,0-18.191-6.3l-11.175,6.319c-1.39-3.332-2.119-4.966-3.635-8.17l11.017-6.953q3.83-9.409,6.937-19.154C5293.8,1679.484,5294.8,1681.432,5296.722,1685.414Z" transform="translate(-4911.034 -1572.332)" fill="#fff"/>
      <path id="패스_370" data-name="패스 370" d="M5327.563,1773.361l-25.8,7.353c-.768-3.976-1.19-5.932-2.111-9.775-1.462-5.548-3.924-17.334,2.457-20.462a2.883,2.883,0,0,1,.978-.3l16.548-7.6c1.618,4.933,2.371,7.453,3.754,12.6a6.641,6.641,0,0,1-1.47.816c-3.292,1.305-6.783-1.225-10.413-2.175a11.444,11.444,0,0,0-7.37.254c-4.8,2.087-4.812,7.325-3.457,12.594.5,1.96,1.017,3.34,1.017,3.34l23.393-8.13C5326.172,1766.392,5326.667,1768.689,5327.563,1773.361Z" transform="translate(-4923.071 -1601.922)" fill="#fff"/>
      <path id="패스_371" data-name="패스 371" d="M5337.029,1857.471h-26.62c0-5.32-.067-7.935-.309-13.076l20.877-1.559a185.715,185.715,0,0,0-16.291-15.1q7.28-7.792,13.95-16.247a9.04,9.04,0,0,0-1.482.269c-5.1,1.234-9.273,4.832-12.525,9.195-1.986,2.666-5.674,3.265-6.236,3.373-.6-4.795-.953-7.148-1.763-11.767l26.145-6.833c.927,5.323,1.331,8.034,2.014,13.558-3.684,4.177-7.525,8.244-11.461,12.127,4.619,3.706,9,7.489,13.392,11.531C5336.968,1848.661,5337.032,1851.565,5337.029,1857.471Z" transform="translate(-4927.396 -1629.854)" fill="#fff"/>
    </g>
  </g>
</svg>
