<svg xmlns="http://www.w3.org/2000/svg" width="117.113" height="152.348" viewBox="0 0 117.113 152.348">
  <path id="패스_493" data-name="패스 493" d="M5173.172,1835.171a75.738,75.738,0,0,0-8.677-5.867,66.763,66.763,0,0,0,1.694-23.074c-3.223-29.922-23.443-52.913-39.838-66.931a5.925,5.925,0,1,0-7.7,9.007c14.763,12.623,32.95,33.138,35.756,59.193a53.73,53.73,0,0,1-.9,16.528,78.351,78.351,0,0,0-33.952-5.16c-9.02.667-16.238,2.873-22.065,6.742-7.688,5.106-12.528,13.387-12.632,21.614-.119,9.418,6,18.744,15.229,23.206,7.533,3.644,16.854,4.2,26.245,1.571,16.216-4.541,27.784-16.751,34.231-31.233a64.1,64.1,0,0,1,5.309,3.734,66.632,66.632,0,0,1,24.33,40.792,5.925,5.925,0,0,0,11.682-1.992A78.614,78.614,0,0,0,5173.172,1835.171Zm-50.04,25.418c-6.608,1.849-12.961,1.557-17.889-.828-5.089-2.461-8.6-7.555-8.539-12.389.055-4.365,2.867-8.921,7.339-11.891,4.087-2.714,9.446-4.283,16.383-4.8q2.341-.173,4.688-.172a66.82,66.82,0,0,1,24.81,4.831C5144.825,1847.092,5135.73,1857.061,5123.132,1860.589Z" transform="translate(-5084.853 -1737.876)" fill="#7de0ff"/>
</svg>
