<svg xmlns="http://www.w3.org/2000/svg" width="200.639" height="191.905" viewBox="0 0 200.639 191.905">
  <path id="패스_492" data-name="패스 492" d="M3708.334,88.387a47.739,47.739,0,0,0,6.8,5.09,54.243,54.243,0,0,0-2.185,17.771,56.541,56.541,0,0,0,27.928,45.569c-1.35,16.565,6.041,33.8,19.2,44a5.223,5.223,0,1,0,6.4-8.258,40.757,40.757,0,0,1-15.314-31.253,56.678,56.678,0,0,0,44.612-4.514c9.064-5.174,18.662-15.627,15.882-28.06-1.614-7.217-7.683-13.46-15.462-15.905-6.093-1.916-13.226-1.684-20.626.671-15.09,4.8-27.474,17.391-32.456,32.4a45.978,45.978,0,0,1-19.723-35.134,43.739,43.739,0,0,1,1.291-12.644,64.61,64.61,0,0,0,28.487,3.454c7.65-.727,13.7-2.606,18.5-5.746,6.588-4.308,10.745-11.316,10.851-18.29.151-9.972-8.187-19.38-18.982-21.42-8.307-1.569-17.656.809-26.334,6.693a55.523,55.523,0,0,0-18.13,20.768,36.968,36.968,0,0,1-3.745-2.953c-9.809-8.835-13.447-23-8.65-33.687a5.224,5.224,0,0,0-9.531-4.279C3690.541,57.369,3695.247,76.6,3708.334,88.387Zm70.4,35.065c3.723-1.185,9.23-2.262,14.324-.661,4.221,1.327,7.6,4.631,8.4,8.219,1.431,6.4-4.629,13.147-10.866,16.707a46,46,0,0,1-38.053,3.031A40.729,40.729,0,0,1,3778.729,123.452Zm-35.667-52c3.694-2.5,11.017-6.494,18.532-5.074,5.125.968,10.557,5.618,10.476,11-.053,3.5-2.456,7.307-6.123,9.7-3.348,2.189-7.854,3.527-13.776,4.09a54.2,54.2,0,0,1-23.838-2.829A45.059,45.059,0,0,1,3743.063,71.455Z" transform="matrix(0.602, -0.799, 0.799, 0.602, -2254.815, 3020.692)" fill="#ffadd3"/>
</svg>
