<svg xmlns="http://www.w3.org/2000/svg" width="266.708" height="231.585" viewBox="0 0 266.708 231.585">
  <path id="패스_486" data-name="패스 486" d="M3713.658,106.741a65.66,65.66,0,0,0,9.353,7A74.639,74.639,0,0,0,3720,138.2c1.19,25.545,16.232,50.028,38.428,62.7-1.857,22.793,8.313,46.515,26.414,60.541a7.187,7.187,0,0,0,8.8-11.363c-13.029-10.1-20.866-26.54-21.072-43,20.144,6.375,43,4.285,61.386-6.211,12.472-7.119,25.678-21.5,21.853-38.61-2.221-9.93-10.572-18.521-21.275-21.885-8.384-2.636-18.2-2.317-28.381.924-20.763,6.608-37.8,23.93-44.66,44.582a63.266,63.266,0,0,1-27.138-48.345,60.183,60.183,0,0,1,1.776-17.4,88.9,88.9,0,0,0,39.2,4.752c10.526-1,18.854-3.586,25.462-7.906,9.064-5.927,14.786-15.571,14.931-25.167.208-13.721-11.265-26.667-26.119-29.474-11.43-2.159-24.295,1.113-36.236,9.209a76.4,76.4,0,0,0-24.947,28.577,50.884,50.884,0,0,1-5.154-4.063c-13.5-12.156-18.5-31.651-11.9-46.354a7.188,7.188,0,0,0-13.114-5.887C3689.174,64.06,3695.649,90.522,3713.658,106.741Zm96.863,48.249c5.123-1.63,12.7-3.113,19.711-.909,5.809,1.827,10.454,6.372,11.558,11.31,1.969,8.807-6.369,18.09-14.951,22.989a63.3,63.3,0,0,1-52.361,4.17C3779.365,175.211,3793.331,160.461,3810.521,154.99Zm-49.077-71.547c5.083-3.447,15.16-8.936,25.5-6.981,7.052,1.332,14.527,7.73,14.415,15.13-.073,4.813-3.38,10.055-8.425,13.353-4.607,3.012-10.808,4.853-18.956,5.627a74.579,74.579,0,0,1-32.8-3.892A62,62,0,0,1,3761.445,83.443Z" transform="matrix(0.358, 0.934, -0.934, 0.358, -1078.39, -3462.991)" fill="#ffadd3"/>
</svg>
