<svg xmlns="http://www.w3.org/2000/svg" width="288.05" height="287.374" viewBox="0 0 288.05 287.374">
  <path id="패스_488" data-name="패스 488" d="M3908.76,1027.275a6.462,6.462,0,1,0-8.612-9.638c-6.036,5.394-12.278,10.971-19.385,14.076-5.43,2.373-13.329,3.646-19.217.115-7.443-4.467-9.7-15.339-9.321-24.025a131.81,131.81,0,0,1,1.58-13.774c.989-6.613,2.011-13.451,1.719-20.539-.547-13.317-7.435-28.634-21.589-32.831-11.527-3.418-22.842,1.954-31.934,6.271l-.565.269c-7.393,3.507-16.145,7.249-25.021,8.411-8.837,1.159-16.946-.432-22.832-4.476-12.113-8.323-14.171-26.071-14.319-35.91-.073-4.863.16-9.931.385-14.833.492-10.658,1-21.679-1.387-32.652-3.792-17.432-17.634-35.127-36.752-35.218h-.031a6.462,6.462,0,0,0-.03,12.925c12.183.058,21.553,12.945,24.184,25.04,2.027,9.32,1.579,19.03,1.106,29.31-.235,5.1-.477,10.365-.4,15.623.321,21.294,7.4,37.761,19.923,46.368,8.518,5.854,19.824,8.211,31.83,6.639,10.655-1.4,20.58-5.61,28.881-9.549l.569-.27c7.834-3.72,15.933-7.565,22.716-5.555,7.99,2.369,12,12.531,12.35,20.97.241,5.861-.648,11.8-1.588,18.1a143.47,143.47,0,0,0-1.71,15.13c-.691,16.06,5.135,29.392,15.584,35.662a29.774,29.774,0,0,0,15.386,4.04,39.314,39.314,0,0,0,15.655-3.392C3894.939,1039.625,3902.281,1033.064,3908.76,1027.275Z" transform="matrix(0.899, -0.438, 0.438, 0.899, -3686.011, 966.17)" fill="#63b79c"/>
</svg>
