<svg xmlns="http://www.w3.org/2000/svg" width="159" height="159" viewBox="0 0 159 159">
  <path id="패스_353" data-name="패스 353" d="M2677.352,369.958c.025-9.757-25.675-9.473-44.294-9.436,16.089-9.363,37.873-22.948,33.646-30.314-4.857-8.463-26.972,4.633-43.078,13.975,9.252-16.153,21.325-38.811,13.981-43.076-8.437-4.9-21.042,17.5-30.319,33.642-.064-18.615-.937-44.274-9.43-44.3-9.758-.025-9.474,25.675-9.437,44.294-9.363-16.089-22.948-37.873-30.314-33.646-8.463,4.857,4.633,26.973,13.975,43.079-16.153-9.252-38.811-21.325-43.076-13.981-4.9,8.438,17.5,21.042,33.642,30.32-18.615.064-44.274.937-44.3,9.43-.025,9.757,25.676,9.473,44.295,9.436-16.089,9.363-37.873,22.949-33.646,30.314,4.856,8.463,26.972-4.633,43.078-13.975-9.252,16.153-21.325,38.811-13.981,43.076,8.438,4.9,21.042-17.5,30.32-33.642.064,18.615.937,44.274,9.43,44.3,9.758.025,9.474-25.675,9.437-44.294,9.363,16.089,22.949,37.873,30.314,33.646,8.463-4.857-4.634-26.972-13.975-43.079,16.153,9.252,38.81,21.325,43.076,13.981,4.9-8.438-17.5-21.042-33.641-30.32C2651.671,379.324,2677.33,378.451,2677.352,369.958Z" transform="translate(-2518.351 -290.453)" fill="#ffc0d5"/>
</svg>
