<svg id="Layer_1" data-name="Layer 1" xmlns="http://www.w3.org/2000/svg" viewBox="0 0 296.3 383.7"><title>bibi</title><path d="M309.7,411.8A40.4,40.4,0,0,1,282,407c-15.3-9.2-18.2-25.3-18.6-27.7a28.8,28.8,0,0,0,12.2,51.1,100.4,100.4,0,0,0,27.7-1.6c16.8-3.4,34.4-11.8,33.5-15.4C336.4,411.5,331.3,410,309.7,411.8Z" transform="translate(-247.8 -132.1)" fill="#e0aa85" stroke="#292447" stroke-linecap="round" stroke-miterlimit="10" stroke-width="8.68"/><path d="M304.5,412.3a123.4,123.4,0,0,0,3,18.5c4.3,18,10.7,33.1,16.4,46.5,2.5,5.9,4.9,10.8,6.8,16.6a32.8,32.8,0,0,0,1.2,3.1,26.9,26.9,0,0,0,6.4,8.9,35,35,0,0,0,5,2.3,47,47,0,0,0,11.8,2.6,77.3,77.3,0,0,0,13.3.5,63.1,63.1,0,0,0,16.2-3c4.5-1.5,6.7-2.8,8.5-4.8a13.7,13.7,0,0,0,3.1-5.1,14.9,14.9,0,0,0,.5-7.9,19.1,19.1,0,0,0-4.3-9.2c-4.9-6.2-11.8-8.4-14.4-9.2-6.6-2.1-8.7-.5-11.4-3s-2.9-5.4-3-13.8c0-5.5.1-12.9.9-21.7l3.7-9.1c1.9,2.2,3.8,4.3,5.6,6.5,5.9,6.6,8.7,11.4,10.2,14.6a3.9,3.9,0,0,1,.4.9c1.6,3.4,5.4,11.9,5.4,11.9,6.6,12.7,7.4,14.5,7.4,14.5,3.8,7.3,5,10.2,6.8,13.3l1.7,2.9a32,32,0,0,0,7.9,7.6,41.3,41.3,0,0,0,5.5,1.3,52,52,0,0,0,21.4-1.2c2.3-.6,5.5-1.5,9.3-2.9a27.3,27.3,0,0,0,9.8-3.3c1.7-1,9.5-5.7,11.5-13.9a18.1,18.1,0,0,0,.4-5.8c-.2-1.5-1-8.6-7-12.7-3.5-2.4-7-2.6-13.1-2.9-9.5-.6-12.3,1.6-16.6,0s-7.5-7.7-8.9-12.8a245.1,245.1,0,0,0-14.3-38.2q-.9-1.8-1.8-3.9c1.5-7,3.4-16,5.3-26.5,3.2-16.6,5.5-29.8,6.5-36.1l-5.2,40.1c4.6,9,8.8,16.9,12.5,23.9a24,24,0,0,0,7.5,9.1,18.4,18.4,0,0,0,8.6,3.6c1.4.2,7,1,11.7-2.3,6.8-4.6,6.7-13.7,6.6-15.9-.6-10.9-10-17.1-11.1-17.8-1.8-18.6-3.8-35-5.8-48.7-2.8-19.2-4.7-28.8-11.4-39a66,66,0,0,0-15.5-16.5c2.7-4.3,5.3-8.7,7.9-13.1-6.1-4.7-12.2-9.4-18.4-14a119.5,119.5,0,0,0-36,5.7l-.3.9-8.8,1L350.6,279h-.3l-2.7,16.5L329,323.3c-2.4,5.9-7.3,18.4-13.2,34.1-3.5,9.3-6.4,17.4-8.7,24a93.9,93.9,0,0,0-2.6,15.5A87.6,87.6,0,0,0,304.5,412.3Zm74.9-138.7,2.6-9.1,19,18.8-.2.7Z" transform="translate(-247.8 -132.1)" fill="#f8f3ea" stroke="#292447" stroke-linecap="round" stroke-linejoin="round" stroke-width="8.68"/><path d="M310.1,401.1a24.5,24.5,0,0,1-14.1,6.8,20.1,20.1,0,0,1-8.5-.9,16.8,16.8,0,0,1-9.3-6.5c-4.8-7.5-.9-17.1-.2-18.6a22.4,22.4,0,0,1,14.1-12.3,274.3,274.3,0,0,1,12.6-31.5c9.9-21.1,15.4-32.4,27.4-40.4a55.5,55.5,0,0,1,25.1-8.7l.2,18.1-14.6,32.7h0c-3.2,6-6.3,12.1-9.4,18.3-6,11.8-11.7,23.5-17.1,35A28.7,28.7,0,0,1,310.1,401.1Z" transform="translate(-247.8 -132.1)" fill="#f8f3ea" stroke="#292447" stroke-linecap="round" stroke-linejoin="round" stroke-width="8.68"/><path d="M448.2,155.2s14.3-26.1,37.3-16.7c25.9,10.6,40.7,44.4,47.2,62.4,8.3,22.4,7.2,35.9,6.6,41.1s-2.1,15.3-8.6,22.1c-9,9.4-20.9,5.9-23,5.2-7.2-3.3-19.6-10.3-32-25.1-16.1-19.3-22.9-40.8-25.6-50.6" transform="translate(-247.8 -132.1)" fill="#e0aa85" stroke="#292447" stroke-linecap="round" stroke-miterlimit="10" stroke-width="8.68"/><ellipse cx="160.3" cy="95.6" rx="91.5" ry="82.4" fill="#f8f3ea" stroke="#292447" stroke-linecap="round" stroke-linejoin="round" stroke-width="8.68"/><ellipse cx="213" cy="99.7" rx="33.5" ry="34.9" fill="#e0aa85"/><path d="M423,259.9c0,2.7,3.1,4.9,7,4.9s7.1-2.2,7.1-4.9-3.2-4.9-7.1-4.9-7,2.2-7,4.9" transform="translate(-247.8 -132.1)" fill="#292447"/><path d="M426.6,275.6c-3.8,7.1-11.5,9.3-17.3,5s-7.8-13.4-4.6-20.7c-.1,1.1-.7,8.6,3.7,13.9S420.3,280.2,426.6,275.6Z" transform="translate(-247.8 -132.1)" fill="#292447"/><path d="M360.3,161.1s-21.1-20.9-44.1-8.5c-26,14-34.9,46.8-38.2,64-4.2,21.5-.2,33.3,1.6,37.9s5.5,13.3,14,18.2c11.8,6.9,24,1.6,26.2.7a91.7,91.7,0,0,0,29.5-28.1c13.4-20,16.3-40.4,17.1-49.6" transform="translate(-247.8 -132.1)" fill="#e0aa85" stroke="#292447" stroke-linecap="round" stroke-miterlimit="10" stroke-width="8.68"/><ellipse cx="221.3" cy="132.7" rx="11.4" ry="4.8" fill="#fbd"/><path d="M482.2,239.7c2-2.7,2.2-4.4,1.8-5.5-1.8-4.8-17.2-5.9-28.2.3a30.6,30.6,0,0,0-12.3,13.7l.3-.3-.3.3a33.9,33.9,0,0,1,19.7-1.6,32,32,0,0,1,14.9,7.7c2.7-1.6,3.5-3.1,3.6-4.2.5-4.9-11.5-11.5-22.8-9.8a27.1,27.1,0,0,0-7.6,2.5,35.3,35.3,0,0,1,11.9-4.2A39.7,39.7,0,0,1,482.2,239.7Z" transform="translate(-247.8 -132.1)" fill="#292447"/><path d="M383.2,231.4c-1.4-3.1-1.3-4.9-.7-6,2.4-4.8,16.4-3.7,25.2,4.5,5.6,5.2,7.8,12.2,8.8,16.2l-.3-.4.3.4a27.4,27.4,0,0,0-17.5-4.6,28.2,28.2,0,0,0-14.7,6c-2.2-2.2-2.6-3.8-2.5-5,.4-5.3,12.3-10.4,22.2-7a21.1,21.1,0,0,1,6.4,3.7,33.3,33.3,0,0,0-10-6.1A31.8,31.8,0,0,0,383.2,231.4Z" transform="translate(-247.8 -132.1)" fill="#292447"/><path d="M345,323.4l-2.3-.2c-.3-1.3-1.8-9.5,1.1-15.3.4-.9,1.7-2.4,3.3-5.1s2.4-4.6,3.1-6.1l2.4,1.5,4,2.4,2.2,1.5,4.6,2.3-1.8,20.8-1.4-.2c-.2,1.1-.5,2.1-.7,3.1-7.4,8.1-9.9,9.8-10.5,9.4s2.3-5.5.1-8.1a4.2,4.2,0,0,0-3.8-1.3c-2.4.6-3.8,3.8-4.2,3.5s0-.7-.1-.7-1.2,1.9-2.4,4.2a12.5,12.5,0,0,1-1.7,2.5C336.8,337.6,338.3,334.8,345,323.4Z" transform="translate(-247.8 -132.1)" fill="#f8f3ea"/></svg>