<svg xmlns="http://www.w3.org/2000/svg" width="166.696" height="205.508" viewBox="0 0 166.696 205.508">
  <g id="그룹_474" data-name="그룹 474" transform="translate(-4294.64 57.201)">
    <path id="패스_755" data-name="패스 755" d="M4350.891,89.693l-27.412,30.4c-4.268-3.774-9.824-4.816-13.867-2.667a10.393,10.393,0,0,0-4.566,5.212c-1.465,3.939.228,7.6,1.007,9.293,1.072,2.32,4.217,4.99,10.464,10.236,4.478,3.76,6.993,5.621,10.641,7.167a32.258,32.258,0,0,0,3.795,1.338,11.6,11.6,0,0,0,4.048-.15c7.344-1.617,11.069-10.408,12.577-13.717,3.687-8.089,10.485-19.322,23.673-35.853L4353.3,87.79Z" transform="translate(-0.685 -25.378)" fill="#51bc99" stroke="#292447" stroke-miterlimit="10" stroke-width="12.127"/>
    <path id="패스_756" data-name="패스 756" d="M4415.3,108.735q-5.021,19.843-10.04,39.686c5.509,1.45,9.464,5.49,9.924,10.045a10.383,10.383,0,0,1-1.8,6.692c-2.46,3.408-6.448,4.038-8.285,4.328-2.523.4-6.492-.732-14.326-3.011-5.614-1.634-8.559-2.69-11.872-4.863a32.483,32.483,0,0,1-3.222-2.411,11.625,11.625,0,0,1-2.125-3.449c-2.736-7,2.5-14.987,4.413-18.078,4.676-7.561,10.236-19.456,16.649-39.608l20.921,7.607Z" transform="translate(-13.167 -27.255)" fill="#51bc99" stroke="#292447" stroke-miterlimit="10" stroke-width="12.127"/>
    <path id="패스_757" data-name="패스 757" d="M4441.368,27.751c20.388-17.833,16.2-45.32,1.265-55.382-13.24-8.924-38.272-6.4-52.955,11.072-4.889-22.292-25.884-36.153-41.755-34.4-17.9,1.978-34.374,24.372-24.6,49.634-25.31,14.058-28.95,44.333-13.007,61.678,12.9,14.032,37.811,18.728,58.251,8.806,13.494,18.28,37.737,25.691,55.676,19.255C4446.417,80.458,4457.254,51.956,4441.368,27.751Z" transform="translate(0 0)" fill="#51bc99" stroke="#292447" stroke-linecap="round" stroke-linejoin="round" stroke-width="12.127"/>
    <path id="패스_758" data-name="패스 758" d="M4432.97,38.5l-18.145-7.22,19.327-6.957" transform="translate(-20.848 -13.782)" fill="none" stroke="#292447" stroke-linecap="round" stroke-linejoin="round" stroke-width="8.82"/>
    <path id="패스_759" data-name="패스 759" d="M4360.948,22.4l19.407,2.175L4366.582,9.339" transform="translate(-11.005 -11.044)" fill="none" stroke="#292447" stroke-linecap="round" stroke-linejoin="round" stroke-width="8.82"/>
    <circle id="타원_180" data-name="타원 180" cx="4.123" cy="4.123" r="4.123" transform="translate(4373.149 20.596)" fill="#292447"/>
    <line id="선_85" data-name="선 85" x2="10.501" y2="17.914" transform="translate(4346.452 -28.856)" fill="none" stroke="#29775b" stroke-linecap="round" stroke-miterlimit="10" stroke-width="8.452"/>
    <line id="선_86" data-name="선 86" x2="10.501" y2="17.914" transform="translate(4408.729 53.353)" fill="none" stroke="#29775b" stroke-linecap="round" stroke-miterlimit="10" stroke-width="8.452"/>
    <line id="선_87" data-name="선 87" x1="17.62" y2="10.988" transform="translate(4323.259 36.641)" fill="none" stroke="#29775b" stroke-linecap="round" stroke-miterlimit="10" stroke-width="8.452"/>
    <line id="선_88" data-name="선 88" x1="17.62" y2="10.988" transform="translate(4414.652 -11.958)" fill="none" stroke="#29775b" stroke-linecap="round" stroke-miterlimit="10" stroke-width="8.452"/>
    <path id="패스_760" data-name="패스 760" d="M4388.063,53.451c1.726-.871,3.745,3.321,8.638,3.774,3.932.365,7.5-1.89,10.232-4.355,2.229,10.279-1.041,18.508-6.1,20.247-3.454,1.188-6.975-.92-7.62-1.306C4385.706,67.313,4385.374,54.81,4388.063,53.451Z" transform="translate(-15.678 -18.998)" fill="#327a60" stroke="#292447" stroke-linecap="round" stroke-linejoin="round" stroke-width="8.82"/>
  </g>
</svg>
