<svg xmlns="http://www.w3.org/2000/svg" width="99.602" height="99.2" viewBox="0 0 99.602 99.2">
  <g id="그룹_553" data-name="그룹 553" transform="matrix(0.799, 0.602, -0.602, 0.799, -194.82, -242.842)">
    <path id="패스_895" data-name="패스 895" d="M406.14,66.681c-.016-.055-.029-.111-.045-.167a22.025,22.025,0,0,0-7.635-11.16,18.924,18.924,0,0,0-17.233-3.15c-9.009,2.7-12.291,10.743-12.256,17.338h0c-3.6-5.526-10.766-10.434-19.775-7.731a18.885,18.885,0,0,0-9.763,6.693,21.342,21.342,0,0,0-3.125,18.941c.017.055.037.109.054.164.33,1.218,2.463,8.328,10.506,15.97,7.06,6.709,18.673,13.827,37.617,17.731v0l0,0h.006l0,0h.006l0-.006a100.037,100.037,0,0,0,11.757-13.982c7.222-10.512,9.974-19.7,10.8-26.686C407.994,72.752,406.467,67.677,406.14,66.681Z" fill="#ff92c9"/>
  </g>
</svg>
