<svg id="Layer_1" data-name="Layer 1" xmlns="http://www.w3.org/2000/svg" viewBox="0 0 252.9 483.3"><title>toto</title><path d="M284.9,238.8A22.5,22.5,0,0,1,295.1,228a22.7,22.7,0,0,1,5-1.7l1.4-.2,1.4-.2,1.4-.2h1.4a10.2,10.2,0,0,1,5.4,1.5,14.9,14.9,0,0,1,4.1,3.8,10.2,10.2,0,0,1,1.9,5.2l-.7.5-4.7-1.2-3.8-.9a19.3,19.3,0,0,1-3.4-1.1,11.1,11.1,0,0,0-3.7-.8,17.1,17.1,0,0,0-3.9.3,26.4,26.4,0,0,0-4,1.2,27.1,27.1,0,0,0-7.3,5Z" transform="translate(-284.9 -27.7)" fill="#292447"/><circle cx="202.5" cy="372.4" r="16.8" fill="#f8f3ea" stroke="#292447" stroke-linecap="round" stroke-linejoin="round" stroke-width="8.52"/><path d="M477,385.2a24.2,24.2,0,0,0,13.9,6.7,20.6,20.6,0,0,0,8.3-.8c1.6-.6,6.2-2.1,9.1-6.5,4.8-7.3.9-16.7.2-18.2-3.8-8.9-12.3-11.6-13.8-12.1a302.6,302.6,0,0,0-12.3-30.9c-9.8-20.7-15.2-31.7-27-39.6a54.4,54.4,0,0,0-24.6-8.6l-.2,17.8L445,325.1h0l9.2,17.9c5.8,11.6,11.4,23.1,16.8,34.4A24.5,24.5,0,0,0,477,385.2Z" transform="translate(-284.9 -27.7)" fill="#f8f3ea" stroke="#292447" stroke-linecap="round" stroke-linejoin="round" stroke-width="8.52"/><path d="M482.8,394.3a89.9,89.9,0,0,0-2.6-15.2c-2.2-6.4-5.1-14.4-8.5-23.6-5.8-15.4-10.6-27.6-13-33.4L440.5,295l-2.6-16.3h-.3l-13.1-23.8-8.6-.9-.3-.9a118.6,118.6,0,0,0-35.4-5.6l-18,13.7,7.7,13a62.8,62.8,0,0,0-15.2,16.1c-6.5,10-8.4,19.5-11.1,38.3-2,13.4-4,29.5-5.7,47.8-1.1.6-10.4,6.7-10.9,17.4-.1,2.2-.2,11.1,6.4,15.6,4.7,3.3,10.2,2.5,11.5,2.3a19.2,19.2,0,0,0,8.5-3.5,24.6,24.6,0,0,0,7.3-8.9c3.7-7,7.8-14.7,12.3-23.5-2.9-22.8-4.4-34.1-5.1-39.3,1,6.1,3.3,19.1,6.3,35.3,2,10.3,3.8,19.2,5.3,26q-1,2.1-1.8,3.9a255.5,255.5,0,0,0-14.1,37.5c-1.3,4.9-3.2,10.6-8.7,12.6s-6.9-.7-16.3-.1c-5.9.3-9.4.5-12.8,2.9-5.9,3.9-6.7,11-6.8,12.5a14.1,14.1,0,0,0,.3,5.6c2,8,9.7,12.7,11.3,13.6a24.9,24.9,0,0,0,9.6,3.3,70.9,70.9,0,0,0,9.1,2.8c4.1,1,12,2.8,21.1,1.2a37.1,37.1,0,0,0,5.3-1.3,26.6,26.6,0,0,0,7.7-7.5,25.2,25.2,0,0,0,1.8-2.7c1.7-3.1,2.9-5.9,6.6-13.1,0,0,.8-1.7,7.3-14.2,0,0,3.7-8.4,5.3-11.8a4.1,4.1,0,0,0,.3-.8c1.5-3.2,4.3-7.9,10-14.4l5.6-6.3c1.2,3,2.4,5.9,3.7,8.9.7,8.7.8,16,.8,21.3-.1,8.2-.6,11.4-3,13.6s-4.7.9-11.2,2.9c-2.5.8-9.2,3-14.1,9.1a19.2,19.2,0,0,0-4.2,9,14.2,14.2,0,0,0,.5,7.7,13.5,13.5,0,0,0,3,5c1.8,2,4,3.3,8.4,4.7a61,61,0,0,0,15.9,3,73.9,73.9,0,0,0,13-.5,44.8,44.8,0,0,0,11.6-2.6,27.2,27.2,0,0,0,5-2.2,27.3,27.3,0,0,0,6.2-8.8,25.3,25.3,0,0,0,1.2-3c1.9-5.7,4.2-10.5,6.6-16.3,5.6-13.1,12-28,16.2-45.6a120.4,120.4,0,0,0,2.9-18.1A85.3,85.3,0,0,0,482.8,394.3ZM388.3,283.5l-.2-.6,18.6-18.5,2.6,8.9Z" transform="translate(-284.9 -27.7)" fill="#f8f3ea" stroke="#292447" stroke-linecap="round" stroke-linejoin="round" stroke-width="8.52"/><path d="M357.8,169.6c-1.3-16.9-1-45.6,13.3-75.5,16.1-33.8,50.1-68.3,65.7-61.2s11.7,49.4,2,78C428,142.7,407,162.7,395,172.4Z" transform="translate(-284.9 -27.7)" fill="#f8f3ea" stroke="#292447" stroke-linecap="round" stroke-linejoin="round" stroke-width="8.52"/><ellipse cx="104.4" cy="183.1" rx="88.3" ry="79.6" fill="#f8f3ea" stroke="#292447" stroke-linecap="round" stroke-linejoin="round" stroke-width="8.52"/><path d="M374.9,241.8c0,2.6-3,4.7-6.8,4.7s-6.7-2.1-6.7-4.7,3-4.7,6.7-4.7,6.8,2.1,6.8,4.7" transform="translate(-284.9 -27.7)" fill="#292447"/><path d="M399.7,147.3c6.3-15.8,19.2-41.4,45.2-62,29.3-23.2,75-39.2,86-26s-11.3,49.6-32.6,70.9c-23.7,23.9-51.4,32.5-66.4,36Z" transform="translate(-284.9 -27.7)" fill="#f8f3ea" stroke="#292447" stroke-linecap="round" stroke-linejoin="round" stroke-width="8.52"/><path d="M392.4,135.3a113.8,113.8,0,0,1,14,.5c2.6.2,5,.5,7.3.9s5.4,3.6,8.8,5.6c4.9,3,7.3,4.5,10.8,6.3,6.5,3.2,9.2,3.5,14.7,7.2a44.4,44.4,0,0,1,3.8,2.7c1.1,1,2.3,2.2,8.6,11a12.8,12.8,0,0,1,2.7,7.5c0,3.9-11.9,7.9-16.7,8.8-22,4.5-81.9-16.3-93.9-20.5Z" transform="translate(-284.9 -27.7)" fill="#f8f3ea"/><path d="M408.8,210.4l2.5,5.1,5.6.8-4.1,3.9,4.7,7.8-8.7-4.8-4.4,1.4.3-4.4-4.1-3.9,5.6-.8Z" transform="translate(-284.9 -27.7)" fill="#f8f3ea"/><path d="M403.3,251.5a38.8,38.8,0,0,1-.8,9.4l-.3,1.5a20.4,20.4,0,0,1-8.3,11.9,20.1,20.1,0,0,1-7.5,2.9c-2,.3-10.5,1.7-16.5-3.1a16.8,16.8,0,0,1-4-4.7,22.4,22.4,0,0,1-3.5-10.5l7.4-2,18.2,6Z" transform="translate(-284.9 -27.7)" fill="#292447"/><path d="M340.5,203.9,343,209l5.6.8-4,4,4.6,7.8-8.7-4.9-4.4,1.4.3-4.3-4.1-4,5.7-.8Z" transform="translate(-284.9 -27.7)" fill="#f8f3ea"/><path d="M426.8,139.1a134.4,134.4,0,0,1,58.6-57.6c13.8-5.5,18.6-4.8,20.2-2.7,4.7,5.9-13.6,28.2-23.6,38.7A168.7,168.7,0,0,1,441.2,149a16.2,16.2,0,0,0-4.8-6.1A17.2,17.2,0,0,0,426.8,139.1Z" transform="translate(-284.9 -27.7)" fill="#fb9fbc"/><ellipse cx="146.1" cy="218.2" rx="13" ry="5.4" fill="#fb9fbc"/><path d="M291.1,249.6a20.6,20.6,0,0,1,5.2-6.6,23.5,23.5,0,0,1,3.7-2.4,19.2,19.2,0,0,1,4.2-1.6,24,24,0,0,1,4.8-.9,9.2,9.2,0,0,1,4.8,1.1,10.7,10.7,0,0,1,3.7,3.3,8.1,8.1,0,0,1,1.5,4.8l-.7.5c-3.2-.6-5.4-.9-7.3-1.1a14.3,14.3,0,0,1-2.8-.7l-1.5-.5-1.6-.2a22,22,0,0,0-13.4,4.8Z" transform="translate(-284.9 -27.7)" fill="#292447"/><path d="M392.6,208.2c-4.5,8.4-5.1,20.6,1.3,27.2a15.4,15.4,0,0,0,6.9,4,16.5,16.5,0,0,0,10.8-1.2,16.7,16.7,0,0,0,7.9-8.8l-9-5.6,11-1.4c-.2-12.6-6.5-22.9-15.4-23.9a12.4,12.4,0,0,0-5.4.6A27.9,27.9,0,0,0,392.6,208.2Z" transform="translate(-284.9 -27.7)" fill="#292447"/><path d="M401.7,209.9l1.9,5.4,5.5,1.4-4.5,3.5,3.8,8.3-8.2-5.8-4.5.9.8-4.3-3.6-4.4,5.7-.2Z" transform="translate(-284.9 -27.7)" fill="#f8f3ea"/><path d="M389.3,224.3h0Z" transform="translate(-284.9 -27.7)" fill="#292447"/><path d="M428.8,223.5h0a26.2,26.2,0,0,0-.8-15.7,19,19,0,0,0-6.4-8.5,17.6,17.6,0,0,0-6.8-3.1,20.9,20.9,0,0,0-17.5,4.2c-9,7.4-8,22.4-8,23.9a32.1,32.1,0,0,1,2.6-10.4,28.7,28.7,0,0,1,4.3-7.2,20.8,20.8,0,0,1,5.4-4.6,19,19,0,0,1,7.1-2.4l-.8.5a12.8,12.8,0,0,1,5.5-.6C422.2,200.6,428.6,210.9,428.8,223.5Z" transform="translate(-284.9 -27.7)" fill="#292447"/><path d="M329.7,206.1c-3.5,9.2-3,22.2,3.8,28.3a15,15,0,0,0,7.1,3.6,14.5,14.5,0,0,0,10.3-2.4,17.4,17.4,0,0,0,6.9-10l-9.2-5,10.5-2.6c-1.3-13.2-8.4-23.3-17.1-23.5a12.4,12.4,0,0,0-5.3,1.2A29.6,29.6,0,0,0,329.7,206.1Z" transform="translate(-284.9 -27.7)" fill="#292447"/><path d="M338.7,206.9l2.4,5.5,5.5.9-4.1,4.1,4.5,8.3-8.5-5.2-4.3,1.4.4-4.6-3.9-4.2,5.5-.8Z" transform="translate(-284.9 -27.7)" fill="#f8f3ea"/><path d="M328,223.3h0Z" transform="translate(-284.9 -27.7)" fill="#292447"/><path d="M366.3,218.4h.1a29.4,29.4,0,0,0-2.3-16.4,20.9,20.9,0,0,0-7-8.3,17.1,17.1,0,0,0-6.9-2.5c-6.2-.9-12.7,1.9-16.7,6.2-8,8.7-5.7,24.3-5.5,25.9a38.4,38.4,0,0,1,1.6-11.2,27.4,27.4,0,0,1,3.5-8,21.1,21.1,0,0,1,4.8-5.3,18.4,18.4,0,0,1,6.7-3.3l-.7.6a11.7,11.7,0,0,1,5.2-1.2C357.9,195.1,364.9,205.2,366.3,218.4Z" transform="translate(-284.9 -27.7)" fill="#292447"/><path d="M355.6,250.3a6.5,6.5,0,0,0-1.1,3,7.6,7.6,0,0,0,.5,2.7,7.8,7.8,0,0,0,1.4,2,3,3,0,0,0,1.5.5,10.3,10.3,0,0,0,4.4-.6,20.5,20.5,0,0,0,4.6-2.5l2.2-1.5,2.6,1.8,3.5,2A28.4,28.4,0,0,0,379,259a21,21,0,0,0,7.9.6l1.2-.2A23.7,23.7,0,0,0,395,257a35.8,35.8,0,0,0,7.8-5.8l.5.3a29.6,29.6,0,0,1-6.5,8.3,22.3,22.3,0,0,1-8.9,4.6,20.7,20.7,0,0,1-9.9.1,22.5,22.5,0,0,1-9.1-4.3h.5a18.9,18.9,0,0,1-6.3,2.5,10.7,10.7,0,0,1-6.6-.4,6.2,6.2,0,0,1-2.7-2.4,11.2,11.2,0,0,1-1.2-3.5,8.2,8.2,0,0,1,.5-3.8,5.9,5.9,0,0,1,2.2-2.7Z" transform="translate(-284.9 -27.7)" fill="#292447"/><path d="M455,308l2.6-.9c-.1-1.6-.6-11.7-5.6-17.6a33.6,33.6,0,0,0-5.3-5c-1.9-1.4-3.6-2.4-4.9-3.2a19.6,19.6,0,0,0-9.6,4.2c-1.8,4.9-3.6,9.7-5.5,14.6l9.6,14.7,1.5-.5,1.7,3.3c10.9,7.3,14.2,8.6,14.9,7.9s-4.3-5.7-2.5-9.3a5.8,5.8,0,0,1,4.1-2.6c2.6-.4,4.7,1.2,5.8,2a45.2,45.2,0,0,1,4,4.2,9.4,9.4,0,0,0,2.7,2.5C468.6,322.2,466,319.4,455,308Z" transform="translate(-284.9 -27.7)" fill="#f8f3ea"/><ellipse cx="414.4" cy="359.5" rx="29.3" ry="41.1" transform="translate(-375.8 118) rotate(-18)" fill="#fb9fbc"/></svg>