<svg xmlns="http://www.w3.org/2000/svg" width="2137.002" height="452.58" viewBox="0 0 2137.002 452.58">
  <path id="빼기_4" data-name="빼기 4" d="M13292.2,1964.757H11221.845a289.853,289.853,0,0,1-24.7-63.923,280.746,280.746,0,0,1-1.166-133.547,288.142,288.142,0,0,1,21.442-59.973,308.984,308.984,0,0,1,33.929-54.272,336.723,336.723,0,0,1,44.936-47.286,364.671,364.671,0,0,1,54.464-39.014,388.6,388.6,0,0,1,62.512-29.458,407.9,407.9,0,0,1,69.078-18.617,425.161,425.161,0,0,1,74.166-6.491,417.533,417.533,0,0,1,123.643,18.479,396.28,396.28,0,0,1,55.574,21.9,377.787,377.787,0,0,1,50.186,29.281,377.083,377.083,0,0,1,50.117-29.281,395.5,395.5,0,0,1,55.5-21.9A416.46,416.46,0,0,1,12015,1512.177a424.891,424.891,0,0,1,67.852,5.434,409.288,409.288,0,0,1,63.716,15.65,392.582,392.582,0,0,1,58.454,24.885,371.968,371.968,0,0,1,52.063,33.14,372.541,372.541,0,0,1,52.135-33.14,393.3,393.3,0,0,1,58.534-24.885,410.284,410.284,0,0,1,63.8-15.65,426.036,426.036,0,0,1,67.943-5.434,417.55,417.55,0,0,1,123.646,18.48,396.3,396.3,0,0,1,55.575,21.9,377.684,377.684,0,0,1,50.186,29.28,377.279,377.279,0,0,1,50.117-29.28,395.506,395.506,0,0,1,55.5-21.9,416.457,416.457,0,0,1,123.477-18.48,424.04,424.04,0,0,1,74.065,6.491,406.9,406.9,0,0,1,68.983,18.617,387.861,387.861,0,0,1,62.427,29.458,364.163,364.163,0,0,1,54.39,39.014,336.471,336.471,0,0,1,44.875,47.286,309.079,309.079,0,0,1,33.884,54.272,288.423,288.423,0,0,1,21.413,59.973,281.13,281.13,0,0,1-1.164,133.547,290.125,290.125,0,0,1-24.669,63.923Z" transform="translate(-11188.501 -1512.178)" fill="#63b79c"/>
</svg>
