<svg xmlns="http://www.w3.org/2000/svg" width="35.626" height="35.626" viewBox="0 0 35.626 35.626">
  <g id="그룹_781" data-name="그룹 781" transform="translate(-1423.342 -5762.368)">
    <path id="패스_343" data-name="패스 343" d="M773.644,157.273a2.089,2.089,0,1,0,2.088,2.089A2.089,2.089,0,0,0,773.644,157.273Z" transform="translate(676.943 5611.456)" fill="#156d51"/>
    <path id="패스_344" data-name="패스 344" d="M764.358,159.952a8.773,8.773,0,1,0,8.774,8.773A8.783,8.783,0,0,0,764.358,159.952Zm0,14.393a5.62,5.62,0,1,1,5.62-5.62A5.626,5.626,0,0,1,764.358,174.345Z" transform="translate(676.943 5611.456)" fill="#156d51"/>
    <path id="패스_345" data-name="패스 345" d="M771.323,186.538H757.1a10.713,10.713,0,0,1-10.7-10.7V161.613a10.713,10.713,0,0,1,10.7-10.7h14.223a10.713,10.713,0,0,1,10.7,10.7v14.224A10.713,10.713,0,0,1,771.323,186.538ZM757.1,154.264a7.358,7.358,0,0,0-7.35,7.349v14.224a7.358,7.358,0,0,0,7.35,7.35h14.223a7.358,7.358,0,0,0,7.35-7.35V161.613a7.358,7.358,0,0,0-7.35-7.349Z" transform="translate(676.943 5611.456)" fill="#156d51"/>
  </g>
</svg>
