<svg xmlns="http://www.w3.org/2000/svg" width="144.893" height="66" viewBox="0 0 144.893 66">
  <g id="그룹_253" data-name="그룹 253" transform="translate(-211.698 -93.464)">
    <path id="패스_7" data-name="패스 7" d="M356.574,119.707c.051-3.38-.02-6.782-.09-10.074l0-.066h0a11.007,11.007,0,0,0-.555-3,8,8,0,0,0-8.972-5.854,8.653,8.653,0,0,0-4,1.457c-.118-.081-.24-.159-.366-.235a8.714,8.714,0,0,0-8.979-.125,6.573,6.573,0,0,0-.589-.369,7.149,7.149,0,0,0-6.3-.21,7.489,7.489,0,0,0-1.169.629,7.088,7.088,0,0,0-4.279-1.274,7.177,7.177,0,0,0-5.169,2.209,7.234,7.234,0,0,0-5.321-2.215,7.6,7.6,0,0,0-4.328,1.2,7.031,7.031,0,0,0-3.263-1.22,8.065,8.065,0,0,0-6.907,2.465,8.555,8.555,0,0,0-.934-.963c-2.415-2.116-5.867-2.139-8.8-.056-.144.1-.283.212-.418.322a8.357,8.357,0,0,0-6.366-1.6,9.159,9.159,0,0,0-1.751.389,6.761,6.761,0,0,0-2.1,1.025,8.469,8.469,0,0,0-5.992-1.412,8.258,8.258,0,0,0-3.379,1.05,7.205,7.205,0,0,0-6.165-.806,6.747,6.747,0,0,0-2.762,1.586,6.545,6.545,0,0,0-.665-.585,6.991,6.991,0,0,0-5.361-1.3,7.344,7.344,0,0,0-4.261,2.113,7.244,7.244,0,0,0-5.125-2.2,8.365,8.365,0,0,0-4.5-6.324,8.508,8.508,0,0,0-10.481,2.845c-.075.11-.144.22-.21.33-.032-.053-.064-.107-.1-.16a8.7,8.7,0,0,0-9.578-3.4,7.749,7.749,0,0,0-3.509,2.087,7.972,7.972,0,0,0-2.14,5.727,10.154,10.154,0,0,0,2.484,6.356c1.064,1.289,2.181,2.5,3.261,3.681l.305.333c1.795,1.956,2.02,2.794,1.817,3.741a3.841,3.841,0,0,0-.086.8l0,.745c0,.615-.009,1.23.01,1.845a7.47,7.47,0,0,0,7.478,7.368c.062,0,.126,0,.19,0a7.38,7.38,0,0,0,7.385-7.368l.014-.538a37.1,37.1,0,0,0-.035-3.9.914.914,0,0,1,.223-.7c.047,1.318.107,2.634.2,3.944a9.4,9.4,0,0,0,9.206,8.588,8.071,8.071,0,0,0,3.055-.6,7.906,7.906,0,0,0,1.35-.707,6.884,6.884,0,0,0,.87.513,14.156,14.156,0,0,0,.169,4.406,20.371,20.371,0,0,0-4.716,3.552,7.084,7.084,0,0,0-3.584-4.968,13.105,13.105,0,0,0-3.634-1.518,26.96,26.96,0,0,0-13.709.149,16.328,16.328,0,0,0-9.9,7.388,16.809,16.809,0,0,0-2.188,10.31,15.87,15.87,0,0,0,5.661,11.339,14.17,14.17,0,0,0,8.94,2.953,18.817,18.817,0,0,0,2.825-.218,10.324,10.324,0,0,0,4.18-1.547,7.653,7.653,0,0,0,2.242,1.031,11.261,11.261,0,0,0,4.56.327,7.011,7.011,0,0,0,6.23-5.235c4.327,3.506,10.784,5.7,18.122,5.7,9.25,0,17.1-3.48,21.047-8.689,4,5.074,11.756,8.446,20.862,8.446,8.148,0,15.212-2.7,19.475-6.907,1.7,4.166,5.185,6.635,10.09,6.952q.463.031.909.03a9.189,9.189,0,0,0,5.694-1.734,7.009,7.009,0,0,0,4.261,1.686,13.986,13.986,0,0,0,4.3-.452c3.767-1.008,5.764-4.289,5.215-8.564a52.821,52.821,0,0,1-.493-5.865c-.041-2.6-.036-5.262-.033-7.836,0-2.173.008-4.42-.016-6.642a10.886,10.886,0,0,0-.861-4.391,7.175,7.175,0,0,0-.553-.987A6.576,6.576,0,0,0,356.574,119.707Zm-129.465-7.141,0,.019c-.033,0-.064-.008-.1-.008s-.066.007-.1.008l0-.019C226.974,112.567,227.042,112.566,227.109,112.566Zm-6.609-9.513c-.01.168-.02.355-.026.568-.128-.151-.255-.3-.381-.455a2.561,2.561,0,0,1-.73-1.628.956.956,0,0,1,.027-.27c.026-.009.06-.019.089-.027a1.449,1.449,0,0,1,.907.111c.034.22.073.563.1.856A4.131,4.131,0,0,1,220.5,103.053Zm13.074.571c-.014-.27-.034-.509-.053-.723a3.11,3.11,0,0,1,0-.89c.033-.217.075-.5.111-.654a.975.975,0,0,1,.708-.217.763.763,0,0,1,.3.492A4.576,4.576,0,0,1,233.575,103.624Zm-9.489,31.914-.1.058a10.986,10.986,0,0,0-2.241,1.649A8.273,8.273,0,0,1,224.086,135.538Zm-1.832,14.9a7.23,7.23,0,0,1-2.347-3.708,11.956,11.956,0,0,0,5.228,4.712c.244.108.48.2.712.29A6.347,6.347,0,0,1,222.253,150.435Zm125.829-42.121a1.2,1.2,0,0,1,.309.028,1.216,1.216,0,0,1,.2.434c.032.1.1.322.151.532a5.908,5.908,0,0,0-.794-.991Q348.021,108.314,348.082,108.314Zm-9.61.093c.055.157.117.4.173.636a5.876,5.876,0,0,0-.653-.763A1.031,1.031,0,0,1,338.473,108.407ZM298.138,146.7a3.93,3.93,0,0,1,.63-.25,3.821,3.821,0,0,0,2.447-2.288,3.827,3.827,0,0,0,1.543,2.064,1.24,1.24,0,0,1,.118.086c.023.069.057.131.083.2a4.542,4.542,0,0,1-2.565.666A5.044,5.044,0,0,1,298.138,146.7Zm12.141-.473a3.827,3.827,0,0,0,1.543-2.064,3.821,3.821,0,0,0,2.447,2.288,3.929,3.929,0,0,1,.63.25,5.044,5.044,0,0,1-2.256.477,4.564,4.564,0,0,1-2.565-.664c.026-.067.06-.129.083-.2A1.429,1.429,0,0,1,310.279,146.227Zm-7.4-6.484a1.247,1.247,0,0,1-.118.086,3.828,3.828,0,0,0-1.458,1.8,3.829,3.829,0,0,0-2.532-2.513,3.875,3.875,0,0,1-.629-.249,5.019,5.019,0,0,1,2.255-.477,4.2,4.2,0,0,1,2.717.785A3.936,3.936,0,0,0,302.875,139.744Zm12.023-.872a3.934,3.934,0,0,1-.63.249,3.831,3.831,0,0,0-2.532,2.513,3.828,3.828,0,0,0-1.458-1.8,1.265,1.265,0,0,1-.118-.086,3.832,3.832,0,0,0-.234-.562,4.2,4.2,0,0,1,2.716-.787A5.029,5.029,0,0,1,314.9,138.872Zm-23.361-14.449a1.179,1.179,0,0,1,.251.31c.09.142.171.29.255.436.051.09.1.185.161.283a2.652,2.652,0,0,1-.511-.5,1.042,1.042,0,0,1-.16-.52Zm-10.171-16.085a1.8,1.8,0,0,1,.166.436c.023.085.043.171.064.26a4.92,4.92,0,0,0-.605-.72A1.737,1.737,0,0,1,281.366,108.337Zm-4,16.239a7.3,7.3,0,0,0,4.933,1.982,6.591,6.591,0,0,0,1.085-.089q.363-.061.706-.149a8.453,8.453,0,0,0,1.543,3.316,10.4,10.4,0,0,0,2.712,2.453,17.287,17.287,0,0,0-2.874,2.95,22.451,22.451,0,0,0-11.586-7.19,11.93,11.93,0,0,0-.017-1.469,7.52,7.52,0,0,0,1.847-.655A6.989,6.989,0,0,0,277.364,124.575Zm-10.988,17.38c.093-.459.165-.925.218-1.4.069-.045.138-.086.207-.133l.483.278-.481-.278q.273-.184.539-.384a16.813,16.813,0,0,1,3.573,1.711,2.821,2.821,0,0,1-.312.866h0a2.86,2.86,0,0,1-3.906,1.048,2.848,2.848,0,0,1-.725-.618A3.839,3.839,0,0,0,266.377,141.955Zm-4.7,2.951a3.817,3.817,0,0,0,2.926-.442,4.848,4.848,0,0,0,2.893,1.493,14.433,14.433,0,0,1-4.672.937c-2.713,0-5.007-1.746-5.037-3.823A12.137,12.137,0,0,0,261.68,144.906Zm9.73-36.541a3.168,3.168,0,0,1,.319,1.062,6.285,6.285,0,0,0-.958-1.076A2.311,2.311,0,0,1,271.41,108.365Zm-32.285,43.023v.033a3.144,3.144,0,0,1-.85-.02c0-.307,0-.613,0-.92l0-.678a3.815,3.815,0,0,0-.762-2.292,5.046,5.046,0,0,0-.779-2.728c.745.018,1.5.048,2.264.091a3.886,3.886,0,0,1,.111.765h0C239.155,147.458,239.158,149.392,239.124,151.389Zm9.383-8.359c0-1.6.987-3.269,2.737-4.717a10.464,10.464,0,0,0,0,9.433C249.494,146.3,248.508,144.628,248.508,143.029Zm30.417,3.833a7.292,7.292,0,0,0-.023-7.692,5.01,5.01,0,0,1,.023,7.692Zm57.653,4.756c-1.878-.122-3.9-.643-4.085-5.314,0-.078-.006-.156-.008-.23a5.4,5.4,0,0,0,4.748,4.331q.729.07,1.462.1C338.19,151.721,337.649,151.686,336.578,151.618Zm-3.931-9.146a6.917,6.917,0,0,1,.345-1.226c.727-1.868,1.589-2.113,1.958-2.218a7.516,7.516,0,0,1,1.94-.337l-.174.04A5.591,5.591,0,0,0,332.647,142.472Zm7.263-11.03a12.518,12.518,0,0,0-7.062.216,9.942,9.942,0,0,0-5.173,3.533c-3.9-5.293-11.819-8.84-21.157-8.84-.47,0-.934.011-1.4.028a13.945,13.945,0,0,0,.578-1.569c.139-.464.271-.914.4-1.356.181.2.366.4.564.582a8.808,8.808,0,0,0,8.253,2.284,8.917,8.917,0,0,0,2.484-.976,7.261,7.261,0,0,0,4,1.238h.1a6.981,6.981,0,0,0,4.076-1.242,7.85,7.85,0,0,0,5.742.957,6.255,6.255,0,0,0,3.195-1.605,7.215,7.215,0,0,0,4.876,1.872h.039a7.5,7.5,0,0,0,.939-.066,9.715,9.715,0,0,0-.445,2.834Q339.913,130.387,339.91,131.442Zm7.761,20.16a2.473,2.473,0,0,1-.051-.331c-.007-.082-.006-.166-.008-.249a8.25,8.25,0,0,0-.117-1.379,4.868,4.868,0,0,0-.674-1.7,6.577,6.577,0,0,0,.205-6.431,3.833,3.833,0,0,0,.438-1.537c.01-.151.023-.3.034-.443.033-.392.07-.836.073-1.324,0-1.082,0-2.165,0-3.247,0-1.812-.007-3.686.022-5.513a2.7,2.7,0,0,1,.039-.455,2,2,0,0,1,.527-.066,5.358,5.358,0,0,1,.1,1.043c.023,2.175.019,4.4.016,6.549,0,2.607-.009,5.3.033,7.97a60.32,60.32,0,0,0,.554,6.722c.014.1.022.193.026.27A6.2,6.2,0,0,1,347.671,151.6Z" transform="translate(0 0)" fill="#f8f3ea"/>
    <g id="그룹_1" data-name="그룹 1" transform="translate(215.627 97.336)">
      <ellipse id="타원_1" data-name="타원 1" cx="15.254" cy="11.942" rx="15.254" ry="11.942" transform="translate(75.605 33.487)" fill="#3d342e"/>
      <ellipse id="타원_2" data-name="타원 2" cx="15.254" cy="11.942" rx="15.254" ry="11.942" transform="translate(76.346 33.729)" fill="#fb9fbc"/>
      <path id="패스_8" data-name="패스 8" d="M222.932,116.16c.638-2.971-.883-5.108-2.736-7.126-1.164-1.268-2.335-2.532-3.431-3.858a6.389,6.389,0,0,1-1.6-3.986,4.136,4.136,0,0,1,1.079-3,3.934,3.934,0,0,1,1.8-1.051,4.876,4.876,0,0,1,5.259,1.75,5.432,5.432,0,0,1,.618,2.47c.159,1.427-.132,1.686.1,3.275a9.8,9.8,0,0,0,.632,2.218,2.154,2.154,0,0,0,.507.9,2.046,2.046,0,0,0,1.421.545,2.115,2.115,0,0,0,1.536-.538,2.327,2.327,0,0,0,.526-.892,7.935,7.935,0,0,0,.619-1.957c.312-1.806-.159-2.271.085-3.894a5.005,5.005,0,0,1,.687-2.2,4.637,4.637,0,0,1,5.6-1.54,4.483,4.483,0,0,1,2.4,4.47,8.678,8.678,0,0,1-2.259,4.312c-1.452,1.661-2.9,3.323-4.307,5.025a4.757,4.757,0,0,0-1.152,3.521,40.3,40.3,0,0,1,.011,4.041,3.538,3.538,0,0,1-3.642,3.626,3.6,3.6,0,0,1-3.74-3.646C222.91,117.807,222.932,116.983,222.932,116.16Z" transform="translate(-215.159 -96.874)" fill="#0a1956"/>
      <path id="패스_9" data-name="패스 9" d="M329.626,135.929c.036-.534.1-1.027.1-1.521.013-2.93-.02-5.861.023-8.791.033-2.208.966-3.54,2.7-4.044,2.2-.643,4.307-.017,5.1,1.737a7.344,7.344,0,0,1,.518,2.846c.051,4.825-.027,9.653.049,14.478a56.543,56.543,0,0,0,.522,6.284c.291,2.258-.456,3.847-2.4,4.366a10.082,10.082,0,0,1-3.106.327c-1.923-.1-3.136-1.561-3.341-3.8-.039-.428,0-.87-.078-1.286a2.557,2.557,0,0,0-.37-.7c-.191.211-.489.384-.557.639-1.035,3.867-2.926,5.393-6.457,5.165-4.809-.311-7.431-3.378-7.656-8.973a16.046,16.046,0,0,1,.756-6.592,6.837,6.837,0,0,1,4.472-4.506c2.431-.694,4.884-.829,7.018.9A20.4,20.4,0,0,1,329.626,135.929Zm-3.589,2.4a23.82,23.82,0,0,0-2.439.337,1.918,1.918,0,0,0-1.452,2.011c-.032,1.143.508,2.025,1.449,2.116a25.336,25.336,0,0,0,4.866,0c.936-.091,1.48-.956,1.458-2.108a1.909,1.909,0,0,0-1.441-2.016A22.188,22.188,0,0,0,326.037,138.329Z" transform="translate(-201.697 -93.565)" fill="#0a1956"/>
      <path id="패스_10" data-name="패스 10" d="M225.453,113.688a3.716,3.716,0,0,1-1.648,2.092,3.716,3.716,0,0,1,1.648,2.092,3.721,3.721,0,0,1,1.648-2.092A3.721,3.721,0,0,1,225.453,113.688Z" transform="translate(-213.989 -94.599)" fill="#fb9fbc"/>
      <path id="패스_11" data-name="패스 11" d="M296.794,108.131c-.367,1.505-.93,3.978-1.578,6.427-.7,2.635-1.452,5.257-2.231,7.869a12.867,12.867,0,0,1-.961,2.268c-2.417,4.619-9.269,5.332-12.385,1.3a4.462,4.462,0,0,1-.47-4.756,3.732,3.732,0,0,1,3.673-1.918A4.081,4.081,0,0,1,286,121.405a9.679,9.679,0,0,0,1.3,1.941,1.782,1.782,0,0,0,1.5.268c.283-.084.581-.79.532-1.174a10.522,10.522,0,0,0-.7-2.576,1.24,1.24,0,0,0-.953-.548,5.951,5.951,0,0,1-5.49-3.475c-1.325-2.677-2.494-5.435-3.621-8.2a3.115,3.115,0,0,1,1.193-3.776c1.384-.984,2.938-1.153,4.044-.184a7.405,7.405,0,0,1,1.643,2.349c1.009,2.084,1.893,4.229,2.862,6.334a5.3,5.3,0,0,0,.838,1.181,1.405,1.405,0,0,0,1.987.38,1.43,1.43,0,0,0,.471-2.063c-.43-.822-1.037-1.551-1.546-2.333a4.416,4.416,0,0,1-.883-3.379,3.928,3.928,0,0,1,4.564-3.044C295.655,103.316,296.869,104.9,296.794,108.131Z" transform="translate(-206.611 -96.041)" fill="#0a1956"/>
      <path id="패스_12" data-name="패스 12" d="M306.315,116.937c-.269.469-.437.635-.458.819a3.851,3.851,0,0,1-3.248,3.535,4.958,4.958,0,0,1-4.746-1.35,5.845,5.845,0,0,1-1.848-4.1c-.138-3.174-.217-6.357-.151-9.533a3.091,3.091,0,0,1,3.463-3.172,3.228,3.228,0,0,1,3.434,3.37c.072,2.281,0,4.565.028,6.847a5.244,5.244,0,0,0,.278,1.751,1.688,1.688,0,0,0,1.912,1.051,1.429,1.429,0,0,0,1.394-1.49c.086-2.129.1-4.261.158-6.391a19.707,19.707,0,0,1,.114-2.349,3.177,3.177,0,0,1,3.271-2.785,3.014,3.014,0,0,1,3.213,2.66,17.584,17.584,0,0,1,.145,2.905c-.031,3.289,0,6.584-.185,9.866a2.794,2.794,0,0,1-3.076,2.878,3.321,3.321,0,0,1-3.337-2.887C306.6,118.115,306.48,117.675,306.315,116.937Z" transform="translate(-204.24 -96.027)" fill="#0a1956"/>
      <path id="패스_13" data-name="패스 13" d="M245.6,117.243a2.1,2.1,0,0,0-.236.456,4.539,4.539,0,0,1-7.165,2.9,5.23,5.23,0,0,1-2.572-4.15c-.227-3.391-.312-6.8-.251-10.2.037-2.059,1.488-3.18,3.51-3.118a3.18,3.18,0,0,1,3.362,3.315c.077,2.2.022,4.415.027,6.624a8.379,8.379,0,0,0,.039,1.121c.176,1.3.915,2.013,2.016,1.98,1.016-.031,1.6-.624,1.653-2.008.09-2.467.042-4.939.089-7.408.04-2.125,1.01-3.262,2.972-3.572a2.987,2.987,0,0,1,3.571,2.562,32.917,32.917,0,0,1,.14,4.142c-.019,2.917-.006,5.837-.161,8.747a2.8,2.8,0,0,1-3.028,2.81,3.326,3.326,0,0,1-3.372-2.844c-.071-.454-.175-.9-.264-1.354Z" transform="translate(-212.426 -96.028)" fill="#0a1956"/>
      <ellipse id="타원_3" data-name="타원 3" cx="19.906" cy="12.585" rx="19.906" ry="12.585" transform="translate(29.104 33.086)" fill="#0a1956"/>
      <path id="패스_14" data-name="패스 14" d="M257.706,137.479c-5.144-1.3-10.166-9.279-9.382-14.946.238-1.725,1.123-2.132,2.448-1.511C255.515,123.241,258.947,131.377,257.706,137.479Z" transform="translate(-210.682 -93.644)" fill="#f8f3ea"/>
      <path id="패스_15" data-name="패스 15" d="M256.608,134.453c4.083-1.017,8.022-7.414,7.36-11.985-.2-1.391-.907-1.726-1.957-1.234C258.254,122.993,255.58,129.527,256.608,134.453Z" transform="translate(-209.58 -93.607)" fill="#f8f3ea"/>
      <path id="패스_16" data-name="패스 16" d="M257.814,145.7c-4.893,0-8.859-3.441-8.859-7.686s3.966-7.687,8.859-7.687,13.332,3.441,13.332,7.687S262.707,145.7,257.814,145.7Z" transform="translate(-210.585 -92.347)" fill="#f8f3ea"/>
      <circle id="타원_4" data-name="타원 4" cx="0.971" cy="0.971" r="0.971" transform="translate(51.549 42.865)" fill="#fb9fbc"/>
      <path id="패스_17" data-name="패스 17" d="M280.035,110.505a17.25,17.25,0,0,0-.467-4c-.66-2.5-2.432-3.571-5-3.258a5.256,5.256,0,0,0-1.144.27,3.458,3.458,0,0,0-1.407.832l-.016.016c-.077.07-.153.146-.227.226-.014.016-.028.031-.043.047-.056.062-.11.126-.164.193l-.029.042c-.041.053-.078.108-.117.163-.026.037-.053.076-.077.115-.047.07-.09.144-.132.218l-.03.054a4.471,4.471,0,0,0-.267.584,4.338,4.338,0,0,0-.141.425c-.022.089-.041.171-.058.251-.008.032-.015.062-.022.094-.086.393-.126.639-.126.639-.09.565-.111,1-.339,1.081a.223.223,0,0,1-.146,0,.238.238,0,0,1-.126-.184c-.333-3.227-1.673-5.414-5.3-5.051a3.863,3.863,0,0,0-2.611,1.186v-.008a3.675,3.675,0,0,0-.737,1.042,3.552,3.552,0,0,0-.257.744,14.472,14.472,0,0,0-.216,1.81.376.376,0,0,1-.12.3.247.247,0,0,1-.219.027c-.166-.066-.187-.363-.218-.787-.049-.671-.074-1.007-.077-1.042a4.911,4.911,0,0,0-.258-1.248,3.869,3.869,0,0,0-.489-.918v0a3.089,3.089,0,0,0-3.632-1,3.2,3.2,0,0,0-2.23,3.278c-.042,3.816-.025,7.634,0,11.45a3.533,3.533,0,0,0,.291,1.409,3.427,3.427,0,0,0,3.524,1.865,2.909,2.909,0,0,0,2.709-2.827c.135-1.862.061-3.739.1-5.607a7.64,7.64,0,0,1,.205-2.331A1.868,1.868,0,0,1,261.7,109.5c.446-.025,1.087.529,1.35.993a3.8,3.8,0,0,1,.258,1.747c.03,1.871.007,3.742.019,5.613a3.206,3.206,0,0,0,1.3,2.836,3.427,3.427,0,0,0,3.709.312,3.06,3.06,0,0,0,1.694-2.944c.018-2.132-.018-4.267.051-6.4.052-1.566.638-2.276,1.643-2.245.971.031,1.417.68,1.526,2.234.024.335.026.672.027,1.009.006,1.684-.018,3.369.024,5.051a4.87,4.87,0,0,0,.3,1.745,3.392,3.392,0,0,0,3.485,1.929c1.738-.291,2.827-1.241,2.9-2.912C280.111,115.82,280.1,113.16,280.035,110.505Z" transform="translate(-209.96 -96.021)" fill="#0a1956"/>
      <path id="패스_18" data-name="패스 18" d="M237.816,133.391" transform="translate(-212.093 -91.933)" fill="#fff"/>
      <path id="패스_19" data-name="패스 19" d="M233.01,133.222l1.009.552A8.564,8.564,0,0,0,233.01,133.222Z" transform="translate(-212.743 -91.956)" fill="#fff"/>
      <path id="패스_20" data-name="패스 20" d="M242.526,141.138a8.675,8.675,0,0,0-.333-2.038,2.922,2.922,0,0,0-2.592-2.41,69.5,69.5,0,0,0-7.423-.115l-.061,0c-1.694,0-3.067,1.018-3.067,2.275a2.289,2.289,0,0,0,1.614,2,13.391,13.391,0,0,1,1.234.578,9.259,9.259,0,0,1,.84.543c.058.052.666.626.515,1.235-.121.488-.657.7-1.108.876a3.9,3.9,0,0,1-1.251.251l0,0c-.044,0-.089,0-.133,0h0c-.236.006-.494,0-.775-.026-.091-.006-.179-.015-.269-.023l-.024,0-.11-.011c-.187-.018-.374-.035-.556-.062a8.734,8.734,0,0,1-2.735-.7,5.749,5.749,0,0,1-1.052-.6,4.994,4.994,0,0,1-2.74-4.118c0-1.728,1.177-3.272,3.022-4.289a5.208,5.208,0,0,1,1.079-.5,11.431,11.431,0,0,1,4.162-.761,11.238,11.238,0,0,1,4.63.954c.492.044.983.084,1.476.112a3.315,3.315,0,0,0,3.631-2.489,3.222,3.222,0,0,0-1.574-4.13,9.306,9.306,0,0,0-2.556-1.084,23.052,23.052,0,0,0-11.763.1,12.526,12.526,0,0,0-7.659,5.664,12.911,12.911,0,0,0-1.655,8c.6,6.93,5.283,11.773,13.015,10.6a5.275,5.275,0,0,0,4.875-4.665,5.961,5.961,0,0,1,.344-.984l.515.058c0,.686-.018,1.373,0,2.057a2.889,2.889,0,0,0,2.28,3.118,7.4,7.4,0,0,0,2.965.225c2.248-.33,3.211-1.513,3.248-3.751C242.571,145.067,242.571,143.1,242.526,141.138Z" transform="translate(-215.151 -92.947)" fill="#0a1956"/>
      <path id="패스_21" data-name="패스 21" d="M255.506,133.391c-2.879-.782-5.763-5.288-5.389-8.443.115-.961.6-1.178,1.348-.817C254.13,125.419,256.131,130,255.506,133.391Z" transform="translate(-210.433 -93.208)" fill="#fb9fbc"/>
      <path id="패스_22" data-name="패스 22" d="M308.406,104.423a3.724,3.724,0,0,1-1.648,2.092,3.72,3.72,0,0,1,1.648,2.092,3.714,3.714,0,0,1,1.647-2.092A3.717,3.717,0,0,1,308.406,104.423Z" transform="translate(-202.763 -95.853)" fill="#fb9fbc"/>
      <path id="패스_23" data-name="패스 23" d="M338.909,108.363a7.549,7.549,0,0,0-.393-1.975,4.183,4.183,0,0,0-4.881-3.144,4.391,4.391,0,0,0-4.108,4.178c-.027.335-.1.666-.154,1l-.333.055c-.5-1.627-.5-3.546-2.148-4.538a4.828,4.828,0,0,0-5.126-.065c-1.747.989-1.781,2.853-2.034,4.588l-.406-.026c-.085-.79-.137-1.585-.26-2.369a3.119,3.119,0,0,0-4.554-2.587,3.391,3.391,0,0,0-1.973,3.481c-.014,3.63-.023,7.26.014,10.89a4.272,4.272,0,0,0,.406,1.829c.7,1.371,2.126,1.878,3.978,1.544a2.7,2.7,0,0,0,2.131-2.581c.138-1.679.089-3.373.125-5.06v-2.608a3.007,3.007,0,0,1,.191-.557,1.213,1.213,0,0,1,.769-.923,1.111,1.111,0,0,1,.631-.166c.658.039,1.243.694,1.463,1.646v.561c.016.242.017.488.022.721.033,1.946-.025,3.894.037,5.838a3.318,3.318,0,0,0,3.388,3.333,3.222,3.222,0,0,0,3.291-3.384c.041-1.87-.01-3.742.029-5.613a8.821,8.821,0,0,1,.078-1.2v-.258c.237-1.02.888-1.688,1.591-1.646.658.039,1.242.694,1.463,1.646v.033a7.628,7.628,0,0,1,.085,1.454c.025,1.721-.023,3.443.027,5.163a5.289,5.289,0,0,0,.363,1.957,3.364,3.364,0,0,0,3.562,1.767c1.747-.361,2.791-1.337,2.816-3C339.051,115.021,338.979,111.691,338.909,108.363Z" transform="translate(-201.982 -96.025)" fill="#0a1956"/>
      <path id="패스_24" data-name="패스 24" d="M297.561,125.8c-10.995,0-19.907,5.635-19.907,12.585s8.912,12.585,19.907,12.585,19.906-5.635,19.906-12.585S308.554,125.8,297.561,125.8Zm12.65,16.491c0,2.379-2.926,4.306-6.534,4.306-2.8,0-5.19-1.166-6.116-2.8-.928,1.635-3.312,2.8-6.116,2.8-3.609,0-6.535-1.928-6.535-4.306,0-1.733,1.557-3.222,3.794-3.906-2.238-.683-3.794-2.173-3.794-3.906,0-2.379,2.926-4.306,6.535-4.306,2.8,0,5.188,1.166,6.116,2.8.926-1.635,3.312-2.8,6.116-2.8,3.608,0,6.534,1.928,6.534,4.306,0,1.733-1.555,3.222-3.794,3.906C308.655,139.072,310.211,140.561,310.211,142.294Z" transform="translate(-206.702 -92.96)" fill="#0a1956"/>
      <path id="패스_25" data-name="패스 25" d="M295.385,135.259a3.724,3.724,0,0,1-1.648,2.092,3.72,3.72,0,0,1,1.648,2.092,3.718,3.718,0,0,1,1.647-2.092A3.722,3.722,0,0,1,295.385,135.259Z" transform="translate(-204.525 -91.68)" fill="#0a1956"/>
    </g>
  </g>
</svg>
