<svg xmlns="http://www.w3.org/2000/svg" width="36.2" height="25.341" viewBox="0 0 36.2 25.341">
  <path id="패스_347" data-name="패스 347" d="M782.312,438.856a7.944,7.944,0,0,0-7.944-7.944H754.055a7.944,7.944,0,0,0-7.943,7.944v9.453a7.944,7.944,0,0,0,7.943,7.944h20.313a7.944,7.944,0,0,0,7.944-7.944Zm-11.946,5.435-9.109,4.506c-.357.193-1.57-.065-1.57-.471v-9.25c0-.412,1.223-.67,1.581-.466l8.719,4.743C770.352,443.562,770.736,444.091,770.366,444.291Z" transform="translate(-746.112 -430.912)" fill="#156d51"/>
</svg>
