<svg xmlns="http://www.w3.org/2000/svg" width="54.667" height="53.045" viewBox="0 0 54.667 53.045">
  <g id="그룹_725" data-name="그룹 725" transform="translate(-1620 -8316)">
    <path id="패스_157" data-name="패스 157" d="M-79.84-211.958a14.824,14.824,0,0,0,5.666-11.667A14.855,14.855,0,0,0-89.029-238.48a14.839,14.839,0,0,0-12.478,6.8,14.839,14.839,0,0,0-12.478-6.8,14.855,14.855,0,0,0-14.855,14.855,14.825,14.825,0,0,0,5.666,11.667,14.825,14.825,0,0,0-5.666,11.667,14.855,14.855,0,0,0,14.855,14.855,14.839,14.839,0,0,0,12.478-6.8,14.839,14.839,0,0,0,12.478,6.8A14.855,14.855,0,0,0-74.174-200.29,14.824,14.824,0,0,0-79.84-211.958Z" transform="translate(1748.841 8554.48)" fill="#ffb2e8"/>
    <path id="다각형_7" data-name="다각형 7" d="M8.5,0,17,15H0Z" transform="translate(1656 8350) rotate(180)" fill="#f8f3ea"/>
  </g>
</svg>
