<svg xmlns="http://www.w3.org/2000/svg" xmlns:xlink="http://www.w3.org/1999/xlink" width="77" height="86" viewBox="0 0 77 86">
  <defs>
    <filter id="다각형_8" x="0" y="0" width="77" height="86" filterUnits="userSpaceOnUse">
      <feOffset dy="3" input="SourceAlpha"/>
      <feGaussianBlur stdDeviation="3" result="blur"/>
      <feFlood flood-opacity="0.161"/>
      <feComposite operator="in" in2="blur"/>
      <feComposite in="SourceGraphic"/>
    </filter>
  </defs>
  <g id="그룹_729" data-name="그룹 729" transform="translate(11220.5 -4306)">
    <g transform="matrix(1, 0, 0, 1, -11220.5, 4306)" filter="url(#다각형_8)">
      <path id="다각형_8-2" data-name="다각형 8" d="M27.069,12.028a8,8,0,0,1,13.863,0L61.088,47.006A8,8,0,0,1,54.157,59H13.843A8,8,0,0,1,6.912,47.006Z" transform="translate(68 6) rotate(90)" fill="#63b79c"/>
    </g>
    <path id="패스_1076" data-name="패스 1076" d="M1487.268,2538.026a15.381,15.381,0,0,0-1.613-.285,15.3,15.3,0,0,0,1.33-.956c2.922-2.33,4.6-5.081,3.755-6.144s-3.9-.036-6.825,2.294a15.339,15.339,0,0,0-1.228,1.083,15.37,15.37,0,0,0,.081-1.635c0-3.737-1.1-6.767-2.462-6.767s-2.462,3.029-2.462,6.767a15.41,15.41,0,0,0,.081,1.634,15.541,15.541,0,0,0-1.227-1.083c-2.921-2.33-5.977-3.357-6.825-2.295s.833,3.814,3.754,6.145a15.328,15.328,0,0,0,1.329.956,15.5,15.5,0,0,0-1.613.285c-3.643.831-6.352,2.58-6.049,3.905s3.5,1.727,7.144.9a15.454,15.454,0,0,0,1.577-.443,15.409,15.409,0,0,0-.783,1.438c-1.622,3.367-1.943,6.574-.718,7.164s3.533-1.661,5.155-5.027a15.409,15.409,0,0,0,.636-1.509,15.464,15.464,0,0,0,.636,1.509c1.621,3.367,3.929,5.619,5.154,5.029s.9-3.8-.717-7.165a15.359,15.359,0,0,0-.783-1.438,15.593,15.593,0,0,0,1.577.443c3.643.832,6.842.431,7.145-.895S1490.911,2538.858,1487.268,2538.026Z" transform="translate(-12674.34 1807.383)" fill="#f8f3ea"/>
  </g>
</svg>
