<svg xmlns="http://www.w3.org/2000/svg" width="75.572" height="72.834" viewBox="0 0 75.572 72.834">
  <g id="그룹_728" data-name="그룹 728" transform="translate(11276 -4360)">
    <g id="그룹_726" data-name="그룹 726" transform="translate(-11276 4360)">
      <path id="패스_26" data-name="패스 26" d="M102.621,455.64a20.606,20.606,0,0,0,5.8-15.058c-.422-11.6-10.488-20.648-22.482-20.211a22.031,22.031,0,0,0-15.286,6.873A22.037,22.037,0,0,0,54.906,421.5c-11.994.436-21.375,10.193-20.954,21.792A20.6,20.6,0,0,0,40.6,457.674a20.624,20.624,0,0,0-6.024,15.289c.422,11.6,10.487,20.648,22.482,20.212a22.028,22.028,0,0,0,15.508-7.112,22.024,22.024,0,0,0,15.983,5.965c11.994-.436,21.375-10.193,20.953-21.792A20.6,20.6,0,0,0,102.621,455.64Zm-31.111,1.5L71.363,457q.181-.183.358-.37c.047.043.093.087.141.129C71.743,456.883,71.625,457.009,71.51,457.136Z" transform="translate(-33.939 -420.355)" fill="#63b79c"/>
    </g>
    <g id="그룹_727" data-name="그룹 727" transform="translate(-12685.061 -1516.97)">
      <path id="패스_14" data-name="패스 14" d="M265.145,150.629c-9.188-2.326-18.157-16.572-16.757-26.693.426-3.08,2.005-3.808,4.372-2.7C261.231,125.2,267.361,139.73,265.145,150.629Z" transform="translate(1178.064 5767.222)" fill="#f8f3ea"/>
      <path id="패스_15" data-name="패스 15" d="M256.783,145.011c7.292-1.817,14.328-13.241,13.146-21.4-.359-2.484-1.62-3.082-3.5-2.2C259.721,124.543,254.946,136.213,256.783,145.011Z" transform="translate(1186.437 5767.502)" fill="#f8f3ea"/>
      <path id="패스_16" data-name="패스 16" d="M264.778,157.788c-8.74,0-15.823-6.146-15.823-13.727s7.083-13.73,15.823-13.73,23.812,6.146,23.812,13.73S273.517,157.788,264.778,157.788Z" transform="translate(1178.799 5777.069)" fill="#f8f3ea"/>
      <ellipse id="타원_4" data-name="타원 4" cx="1.735" cy="1.735" rx="1.735" ry="1.735" transform="translate(1451.294 5916.117)" fill="#fb9fbc"/>
      <path id="패스_21" data-name="패스 21" d="M259.768,140.8c-5.142-1.4-10.293-9.445-9.626-15.08.2-1.715,1.077-2.1,2.407-1.46C257.311,126.561,260.884,134.739,259.768,140.8Z" transform="translate(1179.959 5770.528)" fill="#fb9fbc"/>
    </g>
  </g>
</svg>
