<svg xmlns="http://www.w3.org/2000/svg" width="81.119" height="81.41" viewBox="0 0 81.119 81.41">
  <path id="패스_260" data-name="패스 260" d="M149.23,901.729l-3.362,10.919-9.381-6.521-7.513,8.607-5.918-9.773-10.364,4.808-1.431-11.335-11.424.177,3.3-10.937-10.508-4.485,7.466-8.648-7.775-8.371,10.338-4.864-3.7-10.81,11.422-.239,1.019-11.379,10.532,4.428,5.559-9.981,7.82,8.329,9.138-6.857,3.757,10.79,11.137-2.548-.957,11.385,11.211,2.2-5.5,10.011,9.346,6.572-9.1,6.907,5.865,9.8-11.123,2.608,1.37,11.343Z" transform="translate(-92.323 -833.324)" fill="#63b79c"/>
</svg>
