<svg xmlns="http://www.w3.org/2000/svg" width="167.163" height="167.763" viewBox="0 0 167.163 167.763">
  <path id="패스_130" data-name="패스 130" d="M209.591,974.287l-6.928,22.5L183.331,983.35l-15.481,17.737-12.195-20.139L134.3,990.855,131.348,967.5l-23.541.364,6.806-22.538L92.96,936.081l15.385-17.821L92.323,901.009l21.3-10.023-7.62-22.276,23.538-.492,2.1-23.45,21.7,9.125L164.8,833.324l16.116,17.163,18.831-14.131,7.741,22.234,22.951-5.25L228.468,876.8l23.1,4.539L240.227,901.97l19.259,13.543-18.754,14.233,12.085,20.2L229.9,955.326l2.822,23.374Z" transform="translate(-92.323 -833.324)" fill="#fe93de"/>
</svg>
