<svg xmlns="http://www.w3.org/2000/svg" width="270.447" height="366.27" viewBox="0 0 270.447 366.27">
  <g id="그룹_783" data-name="그룹 783" transform="translate(-42.881 -725.401)">
    <path id="패스_1083" data-name="패스 1083" d="M235.342,983.961a38.77,38.77,0,0,0,16.909,21.217c14.816,8.681,29.882,3.7,32.092,2.925a27.777,27.777,0,0,1-48.961,13.359,94.181,94.181,0,0,1-11.5-24.183c-4.887-15.808-6.01-34.58-2.5-35.567C223.115,961.225,226.768,964.829,235.342,983.961Z" fill="#e0aa85" stroke="#292447" stroke-linecap="round" stroke-miterlimit="10" stroke-width="7.197"/>
    <path id="패스_1084" data-name="패스 1084" d="M285.791,941.866c-6.508-8.349-11.837-15.718-15.938-21.592-19.555-28.014-24.373-40.938-39.81-48.326-.39-.187-.775-.342-1.163-.514h.07a47.066,47.066,0,0,0-17.239-4.113l-27.824.671-27.825-.671a49.3,49.3,0,0,0-18.332,4.627c-15.437,7.388-20.255,20.312-39.81,48.326-4.1,5.874-9.43,13.243-15.938,21.592-11.452,3.86-17.765,14.207-15.937,22.621,2.437,11.215,18.19,13.688,19.536,13.88,10.856,1.552,19.3-4.437,21.989-6.34a35.6,35.6,0,0,0,8.857-9.083l20.618-27.933q-1.029,36.5-2.057,73-5.79,25.62-11.582,51.239s-14.712,1.671-17.11,9.907c-1.134,3.9.926,7.571,1.492,8.6,7.991,14.533,49.475,8.8,54.619,8.054,7.194-.749,10.586-3.391,12.339-5.483,4.416-5.272,2.286-11.653,3.427-28.1.023-.337.587-5.137,1.714-14.738.906-7.721,2.217-18.429,4-31.613,1.782,13.184,3.093,23.892,4,31.613,1.127,9.6,1.691,14.4,1.714,14.738,1.141,16.452-.989,22.833,3.427,28.1,1.753,2.092,5.145,4.734,12.339,5.483,5.144.75,46.628,6.479,54.619-8.054.566-1.03,2.626-4.706,1.492-8.6-2.4-8.236-17.11-9.907-17.11-9.907q-5.657-25.02-11.311-50.039h0l-.271-1.2q-1.029-36.5-2.057-73l20.618,27.933a35.6,35.6,0,0,0,8.857,9.083c2.685,1.9,11.133,7.892,21.989,6.34,1.346-.192,17.1-2.665,19.536-13.88C303.556,956.073,297.243,945.726,285.791,941.866Z" fill="#f8f3ea" stroke="#292447" stroke-linejoin="round" stroke-width="8.226"/>
    <g id="그룹_782" data-name="그룹 782">
      <ellipse id="타원_295" data-name="타원 295" cx="88.337" cy="79.583" rx="88.337" ry="79.583" transform="translate(94.934 729)" fill="#f8f3ea" stroke="#292447" stroke-miterlimit="10" stroke-width="7.197"/>
      <path id="패스_1085" data-name="패스 1085" d="M184.811,837.245c0,2.607-3.04,4.721-6.79,4.721s-6.789-2.114-6.789-4.721,3.039-4.72,6.789-4.72,6.79,2.114,6.79,4.72" fill="#292447"/>
      <g id="그룹_780" data-name="그룹 780">
        <path id="패스_1086" data-name="패스 1086" d="M123.759,818.03a31.03,31.03,0,0,1,1.407-10.765,27.163,27.163,0,0,1,3.479-7.618,20.282,20.282,0,0,1,4.8-5.134,19.572,19.572,0,0,1,6.79-3.23,27.268,27.268,0,0,0-7.7,10.6c-3.508,8.783-2.795,21.049,4.266,26.809a15.863,15.863,0,0,0,7.327,3.251A15.949,15.949,0,0,0,161.6,819.934l-9.522-4.553,10.847-2.65a25.776,25.776,0,0,0-2.612-15.531,19.013,19.013,0,0,0-7.242-7.739,18.352,18.352,0,0,0-7.142-2.339,21.218,21.218,0,0,0-16.955,6.148c-8.5,8.793-5.151,24.763-5.217,24.76" fill="#292447"/>
        <path id="패스_1087" data-name="패스 1087" d="M142.308,798.08l2.52,5.1,5.634.819-4.077,3.974q2.331,3.9,4.661,7.794l-8.738-4.832-4.382,1.389.306-4.351L134.155,804l5.634-.819Z" fill="#f8f3ea"/>
      </g>
      <ellipse id="타원_296" data-name="타원 296" cx="13" cy="5.412" rx="13" ry="5.412" transform="translate(111.987 837.089)" fill="#fb9fbc"/>
      <ellipse id="타원_297" data-name="타원 297" cx="43.401" cy="48.23" rx="43.401" ry="48.23" transform="matrix(0.973, -0.229, 0.229, 0.973, 166.762, 755.351)" fill="#e0aa85"/>
      <g id="그룹_781" data-name="그룹 781">
        <path id="패스_1088" data-name="패스 1088" d="M193.021,818.03a31.018,31.018,0,0,1,1.408-10.765,27.206,27.206,0,0,1,3.478-7.618,20.32,20.32,0,0,1,4.8-5.134,19.588,19.588,0,0,1,6.79-3.23,27.268,27.268,0,0,0-7.7,10.6c-3.507,8.783-2.795,21.049,4.266,26.809a15.863,15.863,0,0,0,7.327,3.251,15.949,15.949,0,0,0,17.473-12.008l-9.523-4.553,10.848-2.65a25.778,25.778,0,0,0-2.613-15.531,19,19,0,0,0-7.241-7.739,18.357,18.357,0,0,0-7.142-2.339,21.221,21.221,0,0,0-16.956,6.148c-8.505,8.793-5.151,24.763-5.217,24.76" fill="#292447"/>
        <path id="패스_1089" data-name="패스 1089" d="M211.626,801.9l2.519,5.105,5.634.819L215.7,811.8l4.662,7.794-8.738-4.832-4.383,1.389.306-4.351-4.077-3.974,5.634-.819Z" fill="#f8f3ea"/>
      </g>
      <path id="패스_1090" data-name="패스 1090" d="M167.881,840.116a11.691,11.691,0,0,0-1.35,3.47c-.268,1.269-.884,4.175.643,5.741a19.413,19.413,0,0,0,1.769,1.036c1.873,1.049,2.369,2.129,3.153,2.521a17.7,17.7,0,0,0,6.443,1.763c6.865.461,12.622-6.021,13.2-6.683-.928.321-2.268.782-3.886,1.323-5.754,1.923-7.18,3.227-8.8,2.447-1.391-.672-.94-1.837-3.182-3.3-.891-.579-1.284-.6-2.828-1.6a18.211,18.211,0,0,1-2.206-1.606,8.388,8.388,0,0,1-2.249-2.485A6.271,6.271,0,0,1,167.881,840.116Z" fill="#292447"/>
      <path id="패스_1091" data-name="패스 1091" d="M228.7,749.487s13.04-23.807,33.516-16.831c23.1,7.87,35.956,36.8,41.641,52.21,7.11,19.266,6.037,31.185,5.394,35.784-.68,4.873-2,13.583-7.9,19.941-8.149,8.779-18.79,6.344-20.649,5.88-6.4-2.505-17.484-8.018-28.4-20.339-14.2-16.027-20.1-34.529-22.349-43.013" fill="#e0aa85" stroke="#292447" stroke-linecap="round" stroke-miterlimit="10" stroke-width="7.197"/>
      <path id="패스_1092" data-name="패스 1092" d="M127.506,749.487s-13.04-23.807-33.517-16.831c-23.1,7.87-35.956,36.8-41.641,52.21-7.11,19.266-6.036,31.185-5.394,35.784.68,4.873,2,13.583,7.9,19.941,8.149,8.779,18.789,6.344,20.648,5.88,6.4-2.505,17.484-8.018,28.4-20.339,14.2-16.027,20.1-34.529,22.35-43.013" fill="#e0aa85" stroke="#292447" stroke-linecap="round" stroke-miterlimit="10" stroke-width="7.197"/>
      <path id="패스_1093" data-name="패스 1093" d="M169.714,848.327a18.283,18.283,0,0,0,23.306-.514,21.448,21.448,0,0,1,1.114,13.881c-.78,2.831-2.275,8.319-7.2,10.025-4.841,1.677-9.39-1.362-10.025-1.8a22.07,22.07,0,0,1-4.847-5.946A23.668,23.668,0,0,1,169.714,848.327Z" fill="#fb9fbc" stroke="#292447" stroke-linecap="round" stroke-miterlimit="10" stroke-width="6.169"/>
    </g>
    <path id="패스_1094" data-name="패스 1094" d="M267.131,953.511c-6.324,5.937-9.465,8.975-9.254,11.568.478,5.885,10.82,9.768,17.394,10.625a27.245,27.245,0,0,0,12.167-1.286c3.74-1.288,9.356-3.222,11.567-8.568a13.824,13.824,0,0,0,.257-9,16.107,16.107,0,0,0-4.113-6.683c-2.157-2.338-6.779-7.477-12.649-7.384C278.566,942.849,274.7,946.4,267.131,953.511Z" fill="#e0aa85"/>
    <path id="패스_1095" data-name="패스 1095" d="M100.308,954c6.323,5.937,9.464,8.975,9.253,11.568-.478,5.885-10.82,9.768-17.393,10.624A27.228,27.228,0,0,1,80,974.911c-3.74-1.288-9.356-3.222-11.567-8.568a13.832,13.832,0,0,1-.257-9,16.117,16.117,0,0,1,4.113-6.683c2.157-2.338,6.779-7.478,12.649-7.384C88.872,943.341,92.738,946.9,100.308,954Z" fill="#e0aa85"/>
  </g>
</svg>
