<svg xmlns="http://www.w3.org/2000/svg" width="144.617" height="165.554" viewBox="0 0 144.617 165.554">
  <g id="그룹_462" data-name="그룹 462" transform="translate(-4826.565 1709.622)">
    <path id="패스_711" data-name="패스 711" d="M4868.257-1604.861q-.864,18.459-1.729,36.918c-5.14-.191-9.616,2.262-11.208,6.078a9.382,9.382,0,0,0-.2,6.252c1.233,3.589,4.513,5.179,6.024,5.911,2.076,1.006,5.8,1.069,13.165,1.154,5.279.061,8.1-.08,11.532-1.089a29.028,29.028,0,0,0,3.415-1.239,10.476,10.476,0,0,0,2.741-2.422c4.2-5.334,1.768-13.6.927-16.776-2.058-7.758-3.744-19.492-4-38.583l-20.069,1.087Z" fill="#51bc99" stroke="#292447" stroke-miterlimit="10" stroke-width="8.949"/>
    <path id="패스_712" data-name="패스 712" d="M4929.152-1606.97q1.491,18.42,2.982,36.838c5.13-.365,9.686,1.935,11.407,5.694a9.383,9.383,0,0,1,.415,6.242c-1.11,3.629-4.335,5.329-5.82,6.112-2.04,1.076-5.761,1.265-13.119,1.6-5.273.24-8.1.2-11.562-.7A29.29,29.29,0,0,1,4910-1552.3a10.463,10.463,0,0,1-2.821-2.328c-4.379-5.188-2.229-13.536-1.5-16.735,1.793-7.823,3.079-19.608,2.689-38.7l20.095.406Z" fill="#51bc99" stroke="#292447" stroke-miterlimit="10" stroke-width="8.949"/>
    <g id="그룹_461" data-name="그룹 461">
      <path id="패스_713" data-name="패스 713" d="M4953.916-1654.2c14.138-19.954,4.661-43.2-10.567-48.885-13.506-5.042-34.948,2.453-44.154,20.887-8.993-18.539-30.347-26.281-43.91-21.394-15.293,5.51-25.037,28.644-11.13,48.76-19.255,17.679-16.066,45.024,1.587,56.889,14.282,9.6,37.143,8.468,52.994-4.553,15.7,13.2,38.547,14.6,52.938,5.163C4969.463-1608.99,4972.966-1636.3,4953.916-1654.2Z" fill="#51bc99" stroke="#292447" stroke-linecap="round" stroke-linejoin="round" stroke-width="8.949"/>
      <path id="패스_714" data-name="패스 714" d="M4912.308-1654.625s3.217-2.771,5.527-4.87c-.865-4.9-3.354-8.443-6.318-8.46-3.71-.021-6.75,5.49-6.789,12.309s2.937,12.365,6.647,12.386c2.731.016,5.093-2.969,6.169-7.262Z" fill="#292447"/>
      <path id="패스_715" data-name="패스 715" d="M4884.35-1654.786s3.217-2.771,5.527-4.87c-.865-4.9-3.355-8.443-6.318-8.46-3.71-.021-6.75,5.49-6.79,12.309s2.937,12.365,6.648,12.386c2.73.016,5.093-2.969,6.169-7.262Z" fill="#292447"/>
      <circle id="타원_159" data-name="타원 159" cx="3.722" cy="3.722" r="3.722" transform="translate(4893.286 -1647.065)" fill="#292447"/>
      <path id="패스_716" data-name="패스 716" d="M4890.665-1633.434a8.976,8.976,0,0,0,9.863,6.05,8.917,8.917,0,0,0,7.141-7.488" fill="#51bc99" stroke="#292447" stroke-linecap="round" stroke-miterlimit="10" stroke-width="6.508"/>
      <line id="선_75" data-name="선 75" x2="12.997" y2="13.512" transform="translate(4858.654 -1683.876)" fill="none" stroke="#29775b" stroke-linecap="round" stroke-miterlimit="10" stroke-width="6.237"/>
      <line id="선_76" data-name="선 76" x2="12.997" y2="13.512" transform="translate(4930.662 -1624.839)" fill="none" stroke="#29775b" stroke-linecap="round" stroke-miterlimit="10" stroke-width="6.237"/>
      <line id="선_77" data-name="선 77" x1="13.151" y2="13.362" transform="translate(4854.422 -1625.202)" fill="none" stroke="#29775b" stroke-linecap="round" stroke-miterlimit="10" stroke-width="6.237"/>
      <line id="선_78" data-name="선 78" x1="13.151" y2="13.362" transform="translate(4924.407 -1687.138)" fill="none" stroke="#29775b" stroke-linecap="round" stroke-miterlimit="10" stroke-width="6.237"/>
    </g>
  </g>
</svg>
