<svg id="Layer_1" data-name="Layer 1" xmlns="http://www.w3.org/2000/svg" viewBox="0 0 237.8 474.5"><title>toto</title><path d="M523.4,398.4c-6.4-8.1-11.5-15.3-15.5-21-19.1-27.3-23.7-39.8-38.8-47l-1.1-.5h.1a45.3,45.3,0,0,0-16.8-4l-27,.6-27.1-.6a46.5,46.5,0,0,0-17.8,4.5c-15,7.2-19.7,19.7-38.7,47-4,5.7-9.2,12.9-15.5,21-11.2,3.7-17.3,13.8-15.5,22,2.3,10.9,17.6,13.3,19,13.5,10.5,1.5,18.7-4.3,21.3-6.2a35.4,35.4,0,0,0,8.7-8.8c6.6-9.1,13.3-18.1,20-27.2-.7,23.7-1.3,47.3-2,71-3.8,16.6-7.5,33.2-11.3,49.8,0,0-14.3,1.7-16.6,9.7-1.1,3.8.9,7.3,1.4,8.3,7.8,14.2,48.2,8.6,53.2,7.9,7-.7,10.3-3.3,12-5.4,4.3-5.1,2.2-11.3,3.3-27.3,0-.3.6-5,1.7-14.3.9-7.5,2.1-17.9,3.9-30.8,1.7,12.9,3,23.3,3.8,30.8,1.1,9.3,1.7,14,1.7,14.3,1.1,16-.9,22.2,3.3,27.3,1.8,2.1,5.1,4.7,12,5.4,5.1.7,45.4,6.3,53.2-7.9.5-1,2.5-4.5,1.4-8.3-2.3-8-16.6-9.7-16.6-9.7-3.7-16.2-7.4-32.4-11-48.6h0l-.3-1.2c-.7-23.7-1.3-47.3-2-71l20.1,27.2a33,33,0,0,0,8.6,8.8c2.6,1.9,10.8,7.7,21.4,6.2,1.3-.2,16.6-2.6,19-13.5C540.6,412.2,534.5,402.1,523.4,398.4Z" transform="translate(-305.3 -69.6)" fill="#f8f3ea" stroke="#292447" stroke-linejoin="round" stroke-width="8"/><ellipse cx="114.6" cy="200.5" rx="85.9" ry="77.4" fill="#f8f3ea" stroke="#292447" stroke-linejoin="round" stroke-width="8"/><path d="M421.4,297.9c0,2.6-2.9,4.6-6.6,4.6s-6.6-2-6.6-4.6,3-4.6,6.6-4.6,6.6,2.1,6.6,4.6" transform="translate(-305.3 -69.6)" fill="#292447"/><path d="M362.1,279.2a28.3,28.3,0,0,1,1.3-10.4,27,27,0,0,1,3.4-7.4,19.6,19.6,0,0,1,11.3-8.2,27.2,27.2,0,0,0-7.5,10.3c-3.4,8.6-2.7,20.5,4.1,26.1a15.3,15.3,0,0,0,24.2-8.5l-9.3-4.4,10.5-2.6a24.7,24.7,0,0,0-2.5-15.1,17.9,17.9,0,0,0-7-7.5,18.6,18.6,0,0,0-7-2.3,20.7,20.7,0,0,0-16.5,6c-8.2,8.5-5,24.1-5,24" transform="translate(-305.3 -69.6)" fill="#292447"/><path d="M380.1,259.8l2.4,5,5.5.8-3.9,3.9,4.5,7.6-8.5-4.7-4.3,1.3.3-4.2-3.9-3.9,5.4-.8Z" transform="translate(-305.3 -69.6)" fill="#f8f3ea"/><ellipse cx="159.2" cy="232.8" rx="12.6" ry="5.3" fill="#fb9fbc"/><path d="M323.1,300.4a21.9,21.9,0,0,1,6.7-7.5,23.4,23.4,0,0,1,9.6-4,33.1,33.1,0,0,1,5.5-.4,12.6,12.6,0,0,1,2.7.4,11.4,11.4,0,0,1,2.6.9,14.4,14.4,0,0,1,4.3,3.4,11.6,11.6,0,0,1,2.7,4.7l-.5.4c-3.3-1.2-6-2.2-8.7-2.9l-4-1a11.4,11.4,0,0,0-4.1-.7,16.5,16.5,0,0,0-4.4.5,16.9,16.9,0,0,0-4.2,1.3,26.2,26.2,0,0,0-7.7,5.2Z" transform="translate(-305.3 -69.6)" fill="#292447"/><path d="M329.6,310.9a23.2,23.2,0,0,1,6-6.1,18.7,18.7,0,0,1,3.9-2.2,30.9,30.9,0,0,1,4.3-1.4l2.3-.4,2.4-.2a9.6,9.6,0,0,1,4.7.9,12.4,12.4,0,0,1,3.9,2.9,9.2,9.2,0,0,1,2.1,4.3l-.5.4a48.5,48.5,0,0,0-7.5-1.9l-3.3-.7-1.7-.4h-1.8a23.7,23.7,0,0,0-14.3,5.3Z" transform="translate(-305.3 -69.6)" fill="#292447"/><path d="M427.9,210.5c2.4-16.4,8.7-43.5,28.6-68.9,22.4-28.8,61.9-54.3,75.3-44.4s.7,49.5-14.5,74.6c-17,27.9-41.2,42.5-54.6,49.2Z" transform="translate(-305.3 -69.6)" fill="#f8f3ea" stroke="#292447" stroke-linejoin="round" stroke-width="8"/><path d="M425.4,195l14.2.7,20.7,12.8,14.3,7c4.2,1,7.5,3.9,8.2,7.6a8.7,8.7,0,0,1-.5,5.1c-1.1,5.2-3.4,12-9.2,16.5-24.8,19.1-91.4-20-91.4-20h0Z" transform="translate(-305.3 -69.6)" fill="#f8f3ea"/><path d="M446.5,198.4A130.9,130.9,0,0,1,461.2,163a132.6,132.6,0,0,1,27.5-32.4c11.7-8.3,16.5-8.8,18.5-7.2,5.8,4.5-6.5,29.8-13.5,42a163.2,163.2,0,0,1-31.3,39.1,17,17,0,0,0-15.9-6.1Z" transform="translate(-305.3 -69.6)" fill="#fb9fbc"/><path d="M382.2,227.2c-9.9-13.2-24.6-36.9-28.6-68.9-4.4-36.2,5.5-82.2,22-84.6S411,108.1,418,136.6c7.8,31.8.9,59.2-3.8,73.5Z" transform="translate(-305.3 -69.6)" fill="#f8f3ea" stroke="#292447" stroke-linejoin="round" stroke-width="8"/><path d="M386.8,205.6a133.9,133.9,0,0,1-14.7-35.5,131.8,131.8,0,0,1-3.4-42.3c2.4-14.2,5.4-17.9,7.9-18.2,7.4-.9,16.5,25.6,20.2,39.2a164.8,164.8,0,0,1,5.5,49.9,16.4,16.4,0,0,0-15.5,6.9Z" transform="translate(-305.3 -69.6)" fill="#fb9fbc"/><path d="M429.4,279.2a30,30,0,0,1,1.4-10.4,24.1,24.1,0,0,1,3.4-7.4,19.5,19.5,0,0,1,4.6-5,20.2,20.2,0,0,1,6.6-3.2,26.6,26.6,0,0,0-7.4,10.3c-3.5,8.6-2.8,20.5,4.1,26.1a15.7,15.7,0,0,0,7.1,3.2,16.2,16.2,0,0,0,10.3-2.4,15.6,15.6,0,0,0,6.7-9.3l-9.2-4.4,10.5-2.6A24.7,24.7,0,0,0,465,259a19,19,0,0,0-7.1-7.5,17.8,17.8,0,0,0-6.9-2.3,20.6,20.6,0,0,0-16.5,6c-8.3,8.5-5,24.1-5.1,24" transform="translate(-305.3 -69.6)" fill="#292447"/><path d="M447.5,263.6l2.5,4.9,5.4.8-3.9,3.9,4.5,7.6-8.5-4.7-4.3,1.3.3-4.2-3.9-3.9,5.5-.8Z" transform="translate(-305.3 -69.6)" fill="#f8f3ea"/><path d="M426.4,195.9l-14.1-1.3-22.4,9.6c-1.4.6-15.2,4.9-15.2,4.9-4.3.4-8,2.8-9.2,6.3a8.4,8.4,0,0,0-.3,5.1c.3,5.3,1.7,12.4,6.8,17.7,21.6,22.5,93.3-6.5,93.3-6.5h0Z" transform="translate(-305.3 -69.6)" fill="#f8f3ea"/><path d="M402.4,307.9c-.7,2.4-.6,4.8.5,6.3a7.4,7.4,0,0,0,4.6,2.8,8.6,8.6,0,0,0,5.1-.5,9.1,9.1,0,0,0,2.1-1.5,8.3,8.3,0,0,0,1.6-2.1h.1a3,3,0,0,1,4-1h.1a13,13,0,0,0,9.2,1.7,17.1,17.1,0,0,0,4.8-2.2,27,27,0,0,0,4.4-4,13.4,13.4,0,0,1-2.5,5.9,12.9,12.9,0,0,1-5.1,4.4,13.2,13.2,0,0,1-7.1,1.4,16.4,16.4,0,0,1-6.8-2.1l4.1-1.1a11.7,11.7,0,0,1-2.8,3.5,11.9,11.9,0,0,1-3.9,2.5,10.3,10.3,0,0,1-4.6.7,12.8,12.8,0,0,1-4.3-1,12.4,12.4,0,0,1-3.7-2.4,8.4,8.4,0,0,1-2.2-3.9,6.6,6.6,0,0,1,.2-4.2A7.4,7.4,0,0,1,402.4,307.9Z" transform="translate(-305.3 -69.6)" fill="#292447"/><ellipse cx="118.9" cy="334.8" rx="28.5" ry="40" fill="#fb9fbc"/></svg>