<svg xmlns="http://www.w3.org/2000/svg" width="392.142" height="409" viewBox="0 0 392.142 409">
  <path id="패스_227" data-name="패스 227" d="M676.786,230.137c-14.943-22.618-39.9-37.446-68.175-37.446s-53.229,14.825-68.172,37.436c-14.947-22.611-39.9-37.436-68.172-37.436h0c-28.28,0-53.235,14.831-68.179,37.449a86.409,86.409,0,0,0-9.613-12.077,80.615,80.615,0,0,0-58.533-25.372V584.833c28.25,0,53.2-14.831,68.146-37.446,14.943,22.615,39.9,37.446,68.179,37.446h0c28.273,0,53.226-14.824,68.172-37.436,14.943,22.611,39.9,37.436,68.172,37.436s53.232-14.828,68.175-37.446c14.937,22.615,39.879,37.446,68.156,37.446V192.691C716.665,192.691,691.723,207.522,676.786,230.137Z" transform="translate(584.833 -335.942) rotate(90)" fill="#f23873"/>
</svg>
