<svg xmlns="http://www.w3.org/2000/svg" width="227.648" height="156.382" viewBox="0 0 227.648 156.382">
  <g id="그룹_580" data-name="그룹 580" transform="translate(-388.064 -1719.387)">
    <path id="패스_908" data-name="패스 908" d="M581.051,1853.948l-25.285-5.7-12.992,22.38-22.412-13.033-18.471,18.174-18.472-18.174L461,1870.628l-12.993-22.38-25.285,5.7-1.333-22.661-22.747-.53,8.448-20.956-19.03-12.226,19.031-12.224-8.448-20.955,22.743-.526,1.335-22.662,25.285,5.7L461,1724.528l22.412,13.033,18.471-18.174,18.472,18.174,22.414-13.033,12.993,22.38,25.285-5.7,1.333,22.661,22.747.53-8.448,20.956,19.03,12.226-19.031,12.225,8.448,20.955-22.743.526Z" fill="#ffb2e8"/>
  </g>
</svg>
