<svg xmlns="http://www.w3.org/2000/svg" width="61.37" height="61.37" viewBox="0 0 61.37 61.37">
  <g id="그룹_560" data-name="그룹 560" transform="translate(-407.631 -105.65)">
    <path id="패스_905" data-name="패스 905" d="M468.823,127.479h-8.7a.178.178,0,0,1-.126-.3l6.15-6.15a.178.178,0,0,0,0-.252L453.878,108.5a.179.179,0,0,0-.252,0l-6.15,6.15a.178.178,0,0,1-.3-.126v-8.7a.178.178,0,0,0-.178-.178H429.639a.178.178,0,0,0-.178.178v8.7a.178.178,0,0,1-.3.126l-6.15-6.15a.179.179,0,0,0-.252,0l-12.272,12.272a.178.178,0,0,0,0,.252l6.15,6.15a.178.178,0,0,1-.126.3h-8.7a.178.178,0,0,0-.178.178v17.355a.178.178,0,0,0,.178.178h8.7a.178.178,0,0,1,.126.3l-6.15,6.15a.178.178,0,0,0,0,.252l12.272,12.272a.179.179,0,0,0,.252,0l6.15-6.15a.178.178,0,0,1,.3.126v8.7a.178.178,0,0,0,.178.178h17.355a.178.178,0,0,0,.178-.178v-8.7a.178.178,0,0,1,.3-.126l6.15,6.15a.179.179,0,0,0,.252,0L466.15,151.9a.178.178,0,0,0,0-.252l-6.15-6.15a.178.178,0,0,1,.126-.3h8.7a.178.178,0,0,0,.178-.178V127.658A.178.178,0,0,0,468.823,127.479Z" transform="translate(0)" fill="#80ad75"/>
  </g>
</svg>
