<svg xmlns="http://www.w3.org/2000/svg" width="562.299" height="646.584" viewBox="0 0 562.299 646.584">
  <g id="그룹_590" data-name="그룹 590" transform="translate(-4144.976 -1374.905)">
    <path id="패스_928" data-name="패스 928" d="M4301.572,1774.241c-5.051.548-24.741,2.085-43.246-11.1-23.014-16.4-25.677-42.378-26.006-46.218a45.712,45.712,0,0,0,12.914,82.515,155.023,155.023,0,0,0,44.057.982c27.029-3.307,55.972-14.262,55.089-20.2C4343.945,1777.29,4336.074,1774.232,4301.572,1774.241Z" transform="translate(-1.855 -10.377)" fill="#e0aa85" stroke="#292447" stroke-linecap="round" stroke-linejoin="round" stroke-width="13.262"/>
    <path id="패스_929" data-name="패스 929" d="M4482.966,1667.187a62.625,62.625,0,0,0,28.265,49.794,261.563,261.563,0,0,0,27.088,11.506c15.059,5.411,22.762,8.09,31.288,6.749,7.277-1.144,8.567-3.633,16.008-3.81a37.816,37.816,0,0,1,20.746,5.905c.733.48,16.586,11.238,16.679,30.193.013,2.728.073,14.945-9.093,23.462-5.746,5.338-12.208,6.521-17.576,7.5-4.383.8-18.75,3.433-30.546-5.417a31.953,31.953,0,0,1-8.179-9.142,52.147,52.147,0,0,1-16.1,4.935,53.884,53.884,0,0,1-29.619-4.636,154.359,154.359,0,0,1-39.939-24.134,392.124,392.124,0,0,1-19.187,48.823c-6.258,13.221-11.4,22.5-12.709,24.445l-23.887,35.432-11.966,11.491,32.814,62.89c2.241-.394,23.58-3.85,33.893,8.655,11.886,14.413.1,39.086-10.493,51.217-14.569,16.685-35,18.946-40.6,19.382a55.947,55.947,0,0,1-18.508-2.048c-10.509-3.036-29.632-12.094-61.355-78.19-15.9-33.12-30.018-70.3-30.018-70.3-3.34.419-8.465,1.165-14.629,2.507-25.1,5.465-28.014,12.234-47.679,15.986-16.59,3.165-23.032-.029-28.226,6.227-4.462,5.377-2.727,11.376-9.312,17.362a25.27,25.27,0,0,1-12.347,5.8,32.581,32.581,0,0,1-21.642-3.376,64.773,64.773,0,0,1-10.111-9.918c-3.027-3.7-14.8-18.535-14.413-39.066a38.985,38.985,0,0,1,3.645-17.248c1.385-2.852,5.378-11.076,13.584-14.19a21.875,21.875,0,0,1,11.942-.741c17.867,3.141,53.234-14.455,75.455-30.736,20.39-14.941,36.5-27.668,45.275-49.563,6.12-15.269,6.087-28.743,19.594-48.845a146.019,146.019,0,0,1,10.093-12.977c9.706-11.974,21.465-31.488,28.762-63.924Z" transform="translate(0 -7.658)" fill="#f8f3ea" stroke="#292447" stroke-linecap="round" stroke-linejoin="round" stroke-width="13.262"/>
    <path id="패스_930" data-name="패스 930" d="M4638.99,1731.4" transform="translate(-15.103 -10.826)" fill="#f8f3ea" stroke="#f37" stroke-miterlimit="10" stroke-width="1.829"/>
    <path id="패스_931" data-name="패스 931" d="M4340.588,1635.11a298.655,298.655,0,0,0-37.4,37.763c-17.3,20.875-22.519,32.808-24.312,37.219-4,9.849-8.989,22.591-5.874,38.163a53.648,53.648,0,0,0,7.715,18.714,55.992,55.992,0,0,0,30.695,16.163,40.263,40.263,0,0,0,28.382-6.895,32.427,32.427,0,0,0,28.11,16.4c12.678-.131,25.309-8.166,29.365-21,4.85-15.344-5.585-27.972-6.151-28.633-.527-.616-8.96-10.191-21.292-10.765-9.059-.421-12.873,4.358-21.434,1.79-1.828-.547-5.178-1.811-10.551-3.256-2-.538-4.26-1.088-6.8-1.616-1.785-.371-3.253-.637-4.2-.8l33.511-36.641q10.025-7.856,20.048-15.714c27.808-17.082,27.839-25.732,27.086-28.731C4403.8,1632.581,4351.536,1634.6,4340.588,1635.11Z" transform="translate(-3.731 -7.83)" fill="#f8f3ea" stroke="#292447" stroke-linecap="round" stroke-linejoin="round" stroke-width="13.262"/>
    <path id="패스_932" data-name="패스 932" d="M4337.707,1831.942" transform="translate(-5.767 -13.942)" fill="#f8f3ea" stroke="#f37" stroke-miterlimit="10" stroke-width="1.829"/>
    <path id="패스_933" data-name="패스 933" d="M4386.638,1682.253q-3.1-1.446-6.279-2.879-5.1-2.3-10.081-4.408l-30.823,24.934c1.25.858,3.594,2.184,5.74,1.422,1.055-.375,1.529-1.065,3.336-3.357a52.091,52.091,0,0,1,4.861-5.787c1.329-1.114,3.891-3.262,7.1-2.825a6.9,6.9,0,0,1,5.134,3.381c2.385,4.771-4.141,11.3-2.92,12.585.83.875,5-.911,18.361-11.012Q4383.856,1688.28,4386.638,1682.253Z" transform="translate(-5.821 -9.077)" fill="#f8f3ea"/>
    <ellipse id="타원_207" data-name="타원 207" cx="28.977" cy="18.278" rx="28.977" ry="18.278" transform="translate(4399.837 1986.474) rotate(-40.421)" fill="#896954"/>
    <path id="패스_934" data-name="패스 934" d="M4559.3,1419.183s29.468-45.143,69.576-24.859c45.255,22.887,67.015,86.091,76.279,119.4,11.585,41.664,7.775,65.849,5.848,75.115-2.042,9.817-5.9,27.337-18.621,38.69-17.567,15.676-38.576,7.582-42.239,6.087-12.49-7.008-33.96-21.558-54.143-50.051-26.252-37.065-35.513-76.8-38.856-94.9" transform="translate(-12.567 -0.218)" fill="#e0aa85" stroke="#292447" stroke-linecap="round" stroke-linejoin="round" stroke-width="13.262"/>
    <ellipse id="타원_208" data-name="타원 208" cx="149.132" cy="165.536" rx="149.132" ry="165.536" transform="translate(4286.931 1679.356) rotate(-85.421)" fill="#f8f3ea" stroke="#292447" stroke-linecap="round" stroke-linejoin="round" stroke-width="13.262"/>
    <ellipse id="타원_209" data-name="타원 209" cx="89.834" cy="61.33" rx="89.834" ry="61.33" transform="translate(4487.332 1623.742) rotate(-85.421)" fill="#e0aa85"/>
    <path id="패스_935" data-name="패스 935" d="M4467.465,1577.354c.067,0,1.447-8.783-1.02-20.319a50.922,50.922,0,0,0-5.357-14.75,38.043,38.043,0,0,0-8.2-10.308,36.646,36.646,0,0,0-12.2-7.049,51.1,51.1,0,0,1,12.8,20.95c5.237,16.931,2.072,39.735-11.979,49.438a29.7,29.7,0,0,1-14.172,4.977,29.884,29.884,0,0,1-30.842-25.043l18.468-7.082-19.866-6.572c-.292-5.563-.068-17.375,7.2-28.621a35.622,35.622,0,0,1,14.685-13.371,34.384,34.384,0,0,1,13.69-3.3c12.069-.4,23.977,5.793,30.751,14.021,14.572,17.7,5.917,47.027,6.042,47.031" transform="translate(-7.543 -4.16)" fill="#292447"/>
    <path id="패스_936" data-name="패스 936" d="M4599.408,1582.78c.067,0,1.447-8.783-1.019-20.319a50.968,50.968,0,0,0-5.357-14.75,38.043,38.043,0,0,0-8.2-10.308,36.673,36.673,0,0,0-12.2-7.049,51.075,51.075,0,0,1,12.8,20.95c5.238,16.931,2.072,39.735-11.979,49.438a29.7,29.7,0,0,1-14.173,4.977,29.884,29.884,0,0,1-30.841-25.042l18.468-7.082-19.866-6.572c-.291-5.563-.068-17.375,7.2-28.621a35.618,35.618,0,0,1,14.684-13.371,34.371,34.371,0,0,1,13.691-3.3c12.068-.4,23.977,5.792,30.752,14.02,14.572,17.7,5.918,47.027,6.041,47.031" transform="translate(-11.632 -4.328)" fill="#292447"/>
    <path id="패스_937" data-name="패스 937" d="M4496.787,1610.939c-.389,4.869,4.973,9.273,11.977,9.834s13-2.933,13.388-7.8-4.971-9.272-11.976-9.833-13,2.933-13.389,7.8" transform="translate(-10.695 -6.85)" fill="#292447"/>
    <path id="패스_938" data-name="패스 938" d="M4435.408,1537.812l-5.471,9.16-10.646.686,7.021,8.033-9.873,13.862,17.044-7.719,7.979,3.251.081-8.175,8.209-6.813-10.4-2.372Z" transform="translate(-8.207 -4.827)" fill="#f8f3ea"/>
    <path id="패스_939" data-name="패스 939" d="M4572,1545.167l-5.47,9.159-10.646.686,7.021,8.033-9.873,13.863,17.045-7.72,7.978,3.251.081-8.174,8.209-6.813-10.4-2.372Z" transform="translate(-12.439 -5.055)" fill="#f8f3ea"/>
    <path id="패스_940" data-name="패스 940" d="M4489.711,1632.474c8.061,14.855,3.235,28.79-10.679,31.3-13.717,2.476-31.919-6.936-41.062-21.348,1.9,1.7,14.294,12.56,28.337,13.567C4480.507,1657.012,4490.54,1647.541,4489.711,1632.474Z" transform="translate(-8.874 -7.76)" fill="#292447"/>
    <path id="패스_941" data-name="패스 941" d="M4389.593,1417.034s-34.968-40.742-78.3-21.685c-48.894,21.5-69.684,79.434-78.2,109.935-10.65,38.148-5.174,60.145-2.558,68.565,2.772,8.922,7.953,24.841,22.626,35.012,20.26,14.044,43.089,6.369,47.067,4.954a166.415,166.415,0,0,0,57.314-46.394c27.125-34.161,35.3-70.523,38.06-87.065" transform="translate(-2.33 -0.255)" fill="#e0aa85" stroke="#292447" stroke-linecap="round" stroke-linejoin="round" stroke-width="13.262"/>
    <ellipse id="타원_210" data-name="타원 210" cx="8.684" cy="20.715" rx="8.684" ry="20.715" transform="translate(4356.544 1613.352) rotate(-85.421)" fill="#fbd"/>
    <ellipse id="타원_211" data-name="타원 211" cx="4.879" cy="3.67" rx="4.879" ry="3.67" transform="translate(4453.624 1955.587) rotate(-55.421)" fill="#896954"/>
    <ellipse id="타원_212" data-name="타원 212" cx="4.076" cy="3.066" rx="4.076" ry="3.066" transform="translate(4460.226 1960.268) rotate(-23.393)" fill="#896954"/>
    <ellipse id="타원_213" data-name="타원 213" cx="5.266" cy="3.67" rx="5.266" ry="3.67" transform="translate(4444.862 1954.285) rotate(-85.421)" fill="#896954"/>
    <ellipse id="타원_214" data-name="타원 214" cx="31.304" cy="30.881" rx="31.304" ry="30.881" transform="translate(4555.544 1787.747) rotate(-85.421)" fill="#e0aa85"/>
    <ellipse id="타원_215" data-name="타원 215" cx="27.074" cy="28.766" rx="27.074" ry="28.766" transform="translate(4332.156 1779.193) rotate(-85.421)" fill="#e0aa85"/>
    <path id="패스_942" data-name="패스 942" d="M4460.618,1654.613a32.4,32.4,0,0,0,7.7-10.96c1.479-3.485,5.093-12,1.095-20.214-.623-1.28-3.584-7.361-10.476-9.33a16.388,16.388,0,0,0-11.6,1.159c-5.959,3.012-8.649,9.149-9.223,13.1C4436.722,1637.927,4445.542,1649.431,4460.618,1654.613Z" transform="translate(-8.874 -7.173)" fill="#fb9fbc" stroke="#292447" stroke-linecap="round" stroke-linejoin="round" stroke-width="9.603"/>
    <line id="선_90" data-name="선 90" x1="5.067" y2="21.169" transform="translate(4442.27 1622.95)" fill="none" stroke="#292447" stroke-miterlimit="10" stroke-width="5.03"/>
  </g>
</svg>
