<svg xmlns="http://www.w3.org/2000/svg" width="350.15" height="351.739" viewBox="0 0 350.15 351.739">
  <g id="그룹_463" data-name="그룹 463" transform="translate(-3690.23 2063.228)">
    <path id="패스_717" data-name="패스 717" d="M3794.679-1837.005l-24.255,70.255c-9.809-3.281-19.835-1.082-25.068,5.378a18.847,18.847,0,0,0-3.933,11.948c.344,7.624,5.773,12.55,8.272,14.819,3.436,3.117,10.588,5.349,24.75,9.685,10.152,3.108,15.674,4.435,22.868,4.433a59.051,59.051,0,0,0,7.292-.455,21.114,21.114,0,0,0,6.661-3.121c11.127-7.913,11.119-25.247,11.292-31.846.425-16.134,3.821-39.731,14.14-76.715l-39.341-9.272Z" fill="#51bc99" stroke="#292447" stroke-miterlimit="10" stroke-width="17.996"/>
    <path id="패스_718" data-name="패스 718" d="M3914.833-1851.269l68.184,29.582c-4.025,9.528-2.6,19.693,3.435,25.407a18.851,18.851,0,0,0,11.61,4.841c7.628.242,12.957-4.792,15.411-7.11,3.372-3.186,6.147-10.145,11.559-23.932,3.879-9.883,5.626-15.287,6.177-22.46a58.658,58.658,0,0,0,.106-7.3,21.075,21.075,0,0,0-2.6-6.881c-7.035-11.7-24.318-13.026-30.884-13.706-16.054-1.664-39.32-6.863-75.4-19.993q-6.135,19.256-12.268,38.512Z" fill="#51bc99" stroke="#292447" stroke-miterlimit="10" stroke-width="17.996"/>
    <path id="패스_719" data-name="패스 719" d="M3938.18-1959.873c21.464-44.248-5-87.235-37.088-93.491-28.456-5.548-68.52,16.393-80.7,56-23.955-33.81-68.871-42.124-94.165-27.956-28.52,15.974-40.218,65.082-6,100.4-32.366,41.422-17.021,94.617,21.913,112.331,31.5,14.33,76.475,4.546,103.626-26.512,35.5,21.011,81.282,16.241,106.72-7.22C3983.933-1875.322,3981.875-1930.648,3938.18-1959.873Z" fill="#51bc99" stroke="#292447" stroke-linecap="round" stroke-linejoin="round" stroke-width="17.996"/>
    <path id="패스_720" data-name="패스 720" d="M3855.5-1947s5.468-6.558,9.358-11.482c-3.331-9.433-9.44-15.643-15.324-14.7-7.368,1.182-11.58,13.117-9.409,26.658s9.905,23.56,17.273,22.379c5.422-.87,9.124-7.571,9.842-16.442Z" fill="#292447"/>
    <path id="패스_721" data-name="패스 721" d="M3799.982-1938.1s5.468-6.558,9.358-11.482c-3.331-9.433-9.439-15.644-15.323-14.7-7.368,1.182-11.581,13.117-9.409,26.658s9.9,23.56,17.272,22.379c5.422-.87,9.124-7.571,9.842-16.443Z" fill="#292447"/>
    <circle id="타원_160" data-name="타원 160" cx="7.486" cy="7.486" r="7.486" transform="translate(3821.382 -1927.055)" fill="#292447"/>
    <path id="패스_722" data-name="패스 722" d="M3833.032-1888.986c7.094,5.571,17.054,5.186,23.262-.552a17.938,17.938,0,0,0,3.883-20.444" fill="#51bc99" stroke="#292447" stroke-linecap="round" stroke-miterlimit="10" stroke-width="13.088"/>
    <line id="선_79" data-name="선 79" x2="30.239" y2="22.518" transform="translate(3739.412 -1987.327)" fill="none" stroke="#29775b" stroke-linecap="round" stroke-miterlimit="10" stroke-width="12.542"/>
    <line id="선_80" data-name="선 80" x2="30.239" y2="22.518" transform="translate(3901.733 -1893.962)" fill="none" stroke="#29775b" stroke-linecap="round" stroke-miterlimit="10" stroke-width="12.542"/>
    <line id="선_81" data-name="선 81" x1="21.682" y2="30.845" transform="translate(3754.779 -1873.873)" fill="none" stroke="#29775b" stroke-linecap="round" stroke-miterlimit="10" stroke-width="12.542"/>
    <line id="선_82" data-name="선 82" x1="21.682" y2="30.845" transform="translate(3873.181 -2019.825)" fill="none" stroke="#29775b" stroke-linecap="round" stroke-miterlimit="10" stroke-width="12.542"/>
  </g>
</svg>
