<svg xmlns="http://www.w3.org/2000/svg" width="576.811" height="453.074" viewBox="0 0 576.811 453.074">
  <g id="그룹_772" data-name="그룹 772" transform="translate(139.838 -5197.852)">
    <g id="그룹_529" data-name="그룹 529" transform="translate(-516.079 5021.67) rotate(1)">
      <g id="그룹_520" data-name="그룹 520" transform="translate(468.33 165.64)">
        <path id="패스_846" data-name="패스 846" d="M838.3,296.067c9.784-7.676,16.7-19.447,10.219-31.046-6.331-11.323-23.038-10-38.113-3.24,9.844-15.143,15.974-33,5.73-44.417-7.354-8.139-22.574,5.43-28.078,10.06a62.761,62.761,0,0,0-5.8,5.645c.2-12.058-2.306-22.426-9.734-25.478-5.928-2.476-11.312,4.9-14.877,11.209-.124-20.311-5.663-40.869-22.139-41.774-8.673-.513-14.835,11.482-18.107,19.529-.541,1.238-.955,2.462-1.408,3.753-3.187-21.906-14.761-47.543-32.185-26.745a31.159,31.159,0,0,0-4.061,6.544c-12.133-14.067-29.419-19.253-48.148-9.342-10.976,5.748-18.252,21.142-20.084,35.22a64.824,64.824,0,0,0-.187,12.515c-6.236-6.179-14.418-7.1-22.673,2.929-5.889,7.067-7.248,18.708-7.149,29.037-1.878-3.208-3.835-6.42-5.89-9.777-5.461-8.808-12.67-14.35-19.635-5.943-6.332,7.559-2.023,24.417-.067,33.278a77.42,77.42,0,0,0,3.421,11.464c-20.113-3.509-41.219,2.384-50.225,21.014-9.062,18.807,14.884,35.428,26.239,39.613a59.871,59.871,0,0,0,9.165,2.289c-.4.5-.757,1.043-1.118,1.56-4.662,7.2-10.912,22.956-.212,28.542a25.866,25.866,0,0,0,16.826,2.381c-.87,1.563-1.712,3.173-2.5,4.832-2.02,4.177-11.015,25.277-3.219,28.489,10.81,4.443,22.249-7.439,29.2-13.982q4.9-4.643,9.522-9.575c.838.05,1.715,0,2.663,0-.814,2.211-1.645,4.379-2.356,6.7-2.823,8.829-4.545,22.32,6.056,26.479,8.068,3.152,18.33-3.58,24.442-8.146a108.227,108.227,0,0,0,8.684-7.467.4.4,0,0,1-.018.117c-1.227,7.371-2.8,18.273,3.891,23.643,8,6.363,20.222-4.9,25.425-10.148a81.9,81.9,0,0,0,10.155-12.7c-.046.131-.046.187-.064.24-.959,5.486-2.048,11.85,2.635,15.758,3.109,2.625,7.722-2.246,9.349-4.372a43.166,43.166,0,0,0,7.428-13.293c.361,4.857,1.457,9.112,5.49,12.907,4.273,4.018,11.086,5.387,16.7,4.365,6.176-1.189,8.935-5.249,9.745-10.2,4.521,9.706,12.44,17.909,23.494,15.281,4.535-1.132,6.519-5.865,7.418-9.9a12.648,12.648,0,0,0,.251-1.854c6.087,6.059,14.474,10.714,23.038,9.14,7.421-1.45,12.656-6.523,15.521-13.035a33.915,33.915,0,0,0,7.661-.251c3.983-.676,15.461-3.169,13.356-9.918a21.7,21.7,0,0,0-3.3-6.275,72.455,72.455,0,0,0,11.054-1.995c5.214-1.287,18.789-4.995,16.805-13.038-1.457-5.886-9.2-7.683-14.969-8.684a3.825,3.825,0,0,0,.545-.173c7.046-2.879,19.09-6.024,17.007-15.73a9.864,9.864,0,0,0-3.5-5.139,40.387,40.387,0,0,0,10.466-6.936C867.153,322.065,854.72,305.628,838.3,296.067Z" transform="translate(-369.956 -165.64)" fill="#48a373"/>
        <path id="패스_847" data-name="패스 847" d="M593.017,338.063c.838.05,1.715,0,2.663,0-.814,2.211-1.645,4.379-2.356,6.7-2.794,8.829-4.545,22.2,5.946,26.458,15.207-19.918,30.572-39.751,40.908-62.683,7.747-17.092,13.2-36.6,10.6-55.509-1.157-8.309-3.413-18.05-9.427-24.262-7.909-8.319-23.285-9.335-26.776,3.909a1.279,1.279,0,0,1-2.518-.24c-.7-17.481-12.225-37.321-29.606-42.142a82.012,82.012,0,0,0-.948,13.583c-1.878-3.208-3.835-6.42-5.89-9.777-5.461-8.808-12.67-14.35-19.635-5.943-6.332,7.559-2.023,24.417-.067,33.278a77.423,77.423,0,0,0,3.421,11.464c-20.113-3.509-41.219,2.384-50.225,21.014-9.062,18.807,14.884,35.428,26.239,39.613a59.871,59.871,0,0,0,9.165,2.289c-.4.5-.757,1.043-1.118,1.56-4.662,7.2-10.912,22.956-.212,28.542a25.865,25.865,0,0,0,16.826,2.381c-.87,1.563-1.712,3.173-2.5,4.832-2.02,4.177-11.015,25.277-3.219,28.489,10.81,4.443,22.249-7.439,29.2-13.982Q588.392,343,593.017,338.063Z" transform="translate(-369.956 -119.054)" fill="#3a8974" opacity="0.7" style="mix-blend-mode: multiply;isolation: isolate"/>
        <path id="패스_848" data-name="패스 848" d="M552.108,383.446a55.4,55.4,0,0,0-2.851,7.428c36.426-24.732,81.253-36.773,123.462-46.977,25.489-6.176,52.552-12.656,78.989-8.486,15.143,2.37,30.993,7.5,44.434,15.822a37.944,37.944,0,0,0,5.408-4.719c17.364-18.687,4.188-33.872-12.3-42.075,8.928-8.09,14.927-19.922,7.916-30.809-6.887-10.566-23.027-8.2-37.243-.644,8.567-15.4,13.346-33.1,2.7-43.511-7.648-7.439-21.577,6.742-26.614,11.56a55.821,55.821,0,0,0-5.277,5.858c-.63-11.751-3.664-21.6-11.093-24.109-5.974-2-10.668,5.476-13.742,11.772-1.436-19.677-8.082-39.291-24.148-39.082-8.482.021-13.661,12.041-16.352,20.063-.435,1.213-.764,2.522-1.1,3.742-4.535-21.064-17.382-45.145-32.981-23.9a31.055,31.055,0,0,0-3.548,6.593c-12.66-12.872-29.819-16.749-47.356-5.95-10.311,6.363-16.36,21.761-17.237,35.5a66.8,66.8,0,0,0,.587,12.111c-6.438-5.546-14.41-5.9-21.8,4.333-5.256,7.272-5.836,18.623-5.051,28.683-2.037-3.024-4.174-5.988-6.4-9.112-5.865-8.2-13.2-13.141-19.433-4.552-5.6,7.708-.375,23.869,2.059,32.344a76.053,76.053,0,0,0,4.085,10.944c-19.73-2.168-39.9,4.934-47.455,23.579-7.609,18.882,16.748,33.508,28.032,36.829a52.731,52.731,0,0,0,9.006,1.588c-.279.566-.651,1.072-.98,1.624-4.061,7.262-9.1,23.034,1.673,27.746,12.914,5.684,25.234-1.369,36.348-8.45C546.165,387.736,549.066,385.777,552.108,383.446Z" transform="translate(-468.33 -111.117)" fill="#3a8974"/>
        <path id="패스_849" data-name="패스 849" d="M747.073,297.1c-.414-5.783-9.37-5.539-13.314-4.779a25.205,25.205,0,0,0-5.812,1.864c2.045-3.771,2.78-7.6.417-10.247-2.89-3.212-8.518-.46-12.437,2.207a49.687,49.687,0,0,0,8.3-19.147c.729-3.41,1.026-13.173-5.539-10.375a19.174,19.174,0,0,0-6.367,4.517c2.876-6.929,4.782-15.157-2.119-15.723A12.335,12.335,0,0,0,703.251,247c1.8-5.348,3.781-14.322-1.256-15.917-8.174-2.55-13.562,5-16.869,13.54-.159-6.668-2.267-12.706-8.931-14.439a5.084,5.084,0,0,0-1.418-.18c5.026-6.933,7.057-15.121,1.351-20.47-6.788-6.307-17.056.831-21.945,5.748-.739.679-1.546,1.585-2.423,2.529.721-5.935-.057-11.708-3.261-14.258-6.212-4.878-10.212,3.322-12.154,10.88-.23-.485-.463-1.1-.736-1.609a38.123,38.123,0,0,0-9.218-15.772c-7.014-6.936-19.73-5.292-26.7,1-10.025,8.949-14.672,20.339-16.947,33.306-.662,3.572-.106,10.293,1.517,16.575a29.208,29.208,0,0,0-3.4-2.3c-4.135-2.518-11.354-4.857-15.083-.212-3.321,4.032-3.1,9.2-1.945,14.064-5.78-7.184-15.585-14.955-22.387-7.343-4.934,5.575-6.126,13.229-5.154,21.113a44.231,44.231,0,0,0,.449,5.514c-2.2-2.136-4.411-2.8-5.745.117-1.344,2.791-.492,6.087.718,8.988a6.236,6.236,0,0,0-2.267,1.659,11.462,11.462,0,0,0-6.922,7.6c-2.172,6.7,2.045,15,5.688,20.25.272.378.591.856.944,1.27-.432.042-.867.166-1.28.248-2.554.789-3.742,3.891-3.742,6.232a10.381,10.381,0,0,0,2.77,6.293,6.407,6.407,0,0,0-2.165,1.022c-3.781,2.759-5.214,6.088-4.213,10.612,1.475,6.544,10.523,11.574,16.023,14.336a61.971,61.971,0,0,0,6.063,2.529c1.9,1.514,3.76,3.176,5.748,4.63a91.009,91.009,0,0,0,11.666-2.724c.35-.042.711-.078,1.068-.131a3.675,3.675,0,0,0,.34.814c3.268,4.906,11.177,4.892,18.294,3.378a14.514,14.514,0,0,0-.969,1.135c-.181.205-.421.849-.11,1.118,3.82,2.7,12.32-1.249,16.172-2.8,1.5-.523,2.943-1.242,4.347-1.843a7.493,7.493,0,0,0-1.358,4.421.461.461,0,0,0,.3.467c4.97,1.723,12.391-3.686,16.42-5.872a86.533,86.533,0,0,0,13.484-9.091c-3.467,5.2-6.622,11.5-.93,10.675,4.375-.679,10.555-4.761,14.863-9.915a16.856,16.856,0,0,0,2.154,2.115,58.48,58.48,0,0,0,6.148,4.421c1.061.75,2.639,1.995,4.018,1.662,2.306-.594,2.2-3.438,1.924-5.5a38.856,38.856,0,0,0,9.412,3.972c4.481,1.277,11.344,2.147,15.475-.435,4.085-2.494,4.206-5.2,2.38-9.466-.251-.541-.527-1.022-.792-1.5,1.684.364,3.328.739,4.782,1.16,6.332,1.486,13.968,3.152,20.222.789,4.114-1.585,2.918-4.421-.1-7.573a64.694,64.694,0,0,0,21.372-1.871,75.4,75.4,0,0,1-10.82-6.749c3.732.24,8.043,0,10.686-1.493,2.229-1.245,5.04-3.82,3.93-6.784a8.6,8.6,0,0,0-3.516-4.588,12.222,12.222,0,0,0,4.648-2.876c1.758-1.754.248-3.7-.923-5.14a4.473,4.473,0,0,0-1-.891C740.618,311.231,747.707,306.049,747.073,297.1Z" transform="translate(-336.665 -97.396)" fill="#3a8954" opacity="0.7" style="mix-blend-mode: multiply;isolation: isolate"/>
        <path id="패스_850" data-name="패스 850" d="M650.728,363.973a10.7,10.7,0,0,0,.053-3.583,48.1,48.1,0,0,0-1.585-7.209.908.908,0,0,1,1.263-1.047c4.142,2.168,7.386,5.628,11.641,7.548-.47-3.109-2.076-6.045-3.488-8.822a.871.871,0,0,1,1.45-.966c4.344,6.126,10.841,9.925,17.93,12.019a.531.531,0,0,0-.021-.152,56.013,56.013,0,0,0,10.176.732c10.474-.283,28.754-3.88,35.337-13.222,7.764-10.9.672-18.917-11.262-20.215-.336-.057-.69-.057-1.089-.152,4.764-2.784,10.081-6.653,12.193-11.089,2.094-4.421.806-8.712-4.4-9.359a12.912,12.912,0,0,0-5.787.849c5.695-7.241,8.132-15.641-2.738-17.583a15.841,15.841,0,0,0-8.638,1.167c.955-1.263,1.815-2.575,2.536-3.647,5.4-8.256,9.352-19.493,3.611-28.478-5.037-7.874-16.78-6.183-23.6-2.009a58.459,58.459,0,0,0-10.092,7.792c1.139-5.023.987-10.6-1.981-14.584-4.149-5.56-12.26.11-15.935,3.7.421-3.038.757-5.886,1-8.068,1.033-8.429,1.723-26.158-11.093-24.679-3.93.407-7.255,2.833-9.932,6.08a74.206,74.206,0,0,0-1.776-12.469c-2.455-10.958-13.855-31.064-27.463-21.237-11.786,8.482-15.967,24.7-17.378,38.41a92.425,92.425,0,0,0,.092,20.3c-3.569-3.993-7.916-6.961-13.151-7.184-9.43-.421-10.619,12.677-9.922,18.991.067.679.156,1.376.287,2.037a83.847,83.847,0,0,0-7.676-7.612c-5.667-4.892-16.724-13.908-23.558-7.011-5.988,6.119-.909,21.347,1.546,27.8.417,1.146.906,2.342,1.4,3.516-4.443-2.48-8.277-2.568-10.286,1.811-3.226,6.989,1.178,16.7,5.451,23.9-2.14-.6-3.926-.347-5.023,1.546-2.752,4.581,2.738,11.358,7.57,16.345-3.53-1.7-7.308-2.922-10.573-.524-6.264,4.574.555,11.337,4.524,14.846a45.984,45.984,0,0,0,12.649,7.923c-5.829,1.266-11.4,3.346-15.914,7.485-7.318,6.77-7.69,12.9,2.444,16,10.551,3.219,23.3.877,34.159-2.55-1.436,1.97-2.25,4.022.846,4.2,8.051.347,14.817-2.586,22.044-5.741,2.211-.941,5.224-2.023,8.259-3.3-.767,2.189-.576,3.8,1.312,3.6,8.992-1.015,17.173-7.007,24.693-11.56.5-.336,1.04-.683,1.613-1,.919,4.022,3,7.393,6.912,7.842,3.335.357,6.763-3.7,8.479-5.992.57-.849,1.1-1.6,1.553-2.437a47.785,47.785,0,0,0,7.276,8.5C648.478,366.184,650.367,366.205,650.728,363.973Z" transform="translate(-332.848 -97.067)" fill="#84d3a4"/>
        <g id="그룹_519" data-name="그룹 519" transform="translate(40.21 167.575)">
          <path id="패스_851" data-name="패스 851" d="M653.894,290.6c-3.42-4.892-9.9-6.763-15.673-6.254,6.926-4.726,13.028-11.4,8.832-16.837-2.027-2.685-5.514-2.458-8.832-1.372,7.152-10.247,10.852-23.911,1.652-31.775-5.741-4.924-17.261,1.312-22.079,4.726a37.407,37.407,0,0,0-4.942,4.132c2.158-11.952,1.9-25.383-9.5-24.941-6.105.216-11.262,6.9-14.439,11.344-.149.209-.357.548-.58.927-.8-4.627-2.656-8.277-6.749-6.286-3.421,1.659-5.026,7.1-6.332,10.279a24.881,24.881,0,0,0-.969,2.639c-2.416-5.684-4.98-12.263-10-15.889-7.612-5.56-15.7,1.277-18.683,8.656a75.957,75.957,0,0,0-4.174-6.7c-2.812-4-11.015-12.539-16.876-9.646-11.22,5.5-12.582,19.592-10.162,31.421a4.775,4.775,0,0,0-3.778-.354,5.672,5.672,0,0,0-3.237,3.817,18.09,18.09,0,0,0-6.438-7.057c-3.746-2.243-8.542-3.155-11.153,1.369-4.475,7.945-2.607,17.375-.471,25.825.566,2.2,1.249,4.552,2.041,6.929-3.767-2.964-8.581-4.567-11.623-2.059a23.623,23.623,0,0,0,1.592,10.039,27.733,27.733,0,0,0,4.188,7.481c1.019,1.217,2.607,2.762,3.031,4.386.729,3.3-.385,5.348-.916,8.624-1.033,6.045,5.61,10.65,10.435,12.518,21.276,8.284,43.476-.113,63.889-6.5a1.358,1.358,0,0,1,1.7,1.521,6.965,6.965,0,0,0-.265,1.054c.463-.248.927-.552,1.454-.814.951,4.213,3.159,7.771,7.265,8.235,3.527.386,7.071-3.909,8.846-6.328a14.3,14.3,0,0,0,1.638-2.564,48.228,48.228,0,0,0,7.647,8.956c1.935.732,3.87.849,4.291-1.556a12.709,12.709,0,0,0,.014-3.771,51.934,51.934,0,0,0-1.585-7.509.928.928,0,0,1,1.28-1.128c4.351,2.281,7.778,5.928,12.2,7.952-.5-3.329-2.13-6.349-3.661-9.292a.917.917,0,0,1,1.531-1.008c4.383,6.162,10.849,10.031,17.909,12.341,8.9.06,18.616-3.986,24.948-8.921C651.666,303.758,658.107,296.616,653.894,290.6Z" transform="translate(-479.698 -213.015)" fill="#3a896f" opacity="0.7" style="mix-blend-mode: multiply;isolation: isolate"/>
        </g>
        <path id="패스_852" data-name="패스 852" d="M631.051,285.636c6.6-5.083,13.091-11.683,9.437-15.535-1.121-1.1-2.826-1.28-4.694-.884q3.905-4.595,7.425-9.55c4.439-6.162,10.024-16.664-.23-19.3-9.879-2.458-21.446,8.21-28.1,14.432-1.7,1.592-3.59,3.4-5.518,5.4a37.209,37.209,0,0,0,.966-8.56c-.117-9.313-2.975-20.739-13.59-17.831-5.981,1.67-10.332,8.5-13.413,15.178-1.341-13.183-5.875-25.231-16.819-21.223-5.147,1.885-8.426,6.547-10.332,12.461-.212-.849-.385-1.691-.58-2.487-1.51-5.988-9.763-24.537-17.612-23.377-14.492,2.133-11.648,28.312-6.983,44.975-3.35-4.022-7.743-7.754-9.3-2.218a20.43,20.43,0,0,0-.216,9.388c-5.744-9.554-14.138-21.142-18.047-15.04-3.484,5.348.881,16.3,2.579,21.637.364,1.266.817,2.494,1.256,3.82-4.16-2.589-8.677-4.117-12.667-2.037-4.764,2.529.785,9.444,5.988,14.46a27.081,27.081,0,0,0-14.407,2.5c-4.45,2.108-8.334,5.935-4.51,10.583,7.863,9.487,20.686,14.1,33.8,14.931-2.854,2.023-5.355,4.683-5.189,7.856.3,5.476,20.99,4.581,23.745,4.337a82.627,82.627,0,0,0,21-5.408,5.049,5.049,0,0,0,.156,1.609c.032.226.35.333.534.333,4.577.248,10.852-2.08,15.942-5.285a13.346,13.346,0,0,0-1.309,4.591.69.69,0,0,0,.375.644c4.917,1.712,13.247-2.915,17.187-5.691a30.5,30.5,0,0,0,5.638-4.949c1.2,1.418,2.381,2.855,3.622,4.248,2.1,2.363,6.484,4.949,9.515,3.042,3.343-2.253,3.325-6.848,3.258-10.711a18.393,18.393,0,0,0,2.129,1.245c3,1.415,9.115,4.312,12.3,3.191a2.365,2.365,0,0,0,1.641-2.091c.021-2.476-1.751-5.051-3.746-7.241a104.924,104.924,0,0,0,15.787-2.31c5.9-1.242,16.681-3.551,19.479-10.445C663.24,280.387,644.142,282.162,631.051,285.636Z" transform="translate(-438.375 -42.156)" fill="#55b783"/>
      </g>
      <g id="그룹_521" data-name="그룹 521" transform="translate(759.575 393.432)">
        <path id="패스_853" data-name="패스 853" d="M565.945,233.141a4.591,4.591,0,0,0-3.834-.7c-.269-1.355-1-2.872-2.412-2.264a3.556,3.556,0,0,0-1.945,1.945c-1.408-1.291-3.106-1.822-4.507.187-.7,1.015-.237,2.044.531,2.922a3.687,3.687,0,0,0-2.95,2.412c-.488,1.638.127,3.718,2.182,3.718a5.5,5.5,0,0,0,2.1-.4c-.941,2.08-1.457,4.333.888,4.354a3.847,3.847,0,0,0,3.764-2.632c1.4,1.355,3.258,1.829,4.666-.209a3.865,3.865,0,0,0,.195-4.025,1.89,1.89,0,0,0,.223-.2C565.849,237.375,567.4,234.252,565.945,233.141Z" transform="translate(-550.668 -230.039)" fill="#fffbca"/>
        <path id="패스_854" data-name="패스 854" d="M557.651,233.728a2.7,2.7,0,0,1-2.55,2.851,2.674,2.674,0,0,1-2.812-2.547,2.594,2.594,0,0,1,2.547-2.777A2.622,2.622,0,0,1,557.651,233.728Z" transform="translate(-546.57 -226.979)" fill="#fab798"/>
      </g>
      <g id="그룹_522" data-name="그룹 522" transform="translate(736.483 303.942)">
        <path id="패스_855" data-name="패스 855" d="M559.407,207.9a4.842,4.842,0,0,0-3.8-.718c-.262-1.372-.987-2.865-2.423-2.327a3.883,3.883,0,0,0-1.9,2.023c-1.418-1.234-3.148-1.85-4.556.194-.683,1.015-.258,1.963.545,2.869a4.045,4.045,0,0,0-3,2.494c-.456,1.609.195,3.689,2.193,3.689a5.47,5.47,0,0,0,2.158-.417c-.955,2.073-1.457,4.269.923,4.4a3.935,3.935,0,0,0,3.714-2.7c1.408,1.4,3.265,1.811,4.666-.23a3.793,3.793,0,0,0,.216-3.986,2.5,2.5,0,0,1,.2-.17C559.365,212.128,560.935,209.033,559.407,207.9Z" transform="translate(-544.14 -204.739)" fill="#fffbca"/>
        <path id="패스_856" data-name="패스 856" d="M551.112,208.488a2.565,2.565,0,0,1-2.512,2.794,2.674,2.674,0,0,1-2.84-2.55,2.734,2.734,0,0,1,2.554-2.777A2.661,2.661,0,0,1,551.112,208.488Z" transform="translate(-540.029 -201.662)" fill="#fab798"/>
      </g>
      <g id="그룹_523" data-name="그룹 523" transform="translate(573.24 416.412)">
        <path id="패스_857" data-name="패스 857" d="M508.377,238.673a2.945,2.945,0,0,0-2.589-.492c-.131-.923-.658-1.924-1.641-1.574a2.331,2.331,0,0,0-1.288,1.348c-.962-.891-2.133-1.27-3.116.124-.463.7-.17,1.362.357,2a2.5,2.5,0,0,0-2,1.677c-.34,1.058.113,2.55,1.475,2.55a8.92,8.92,0,0,0,1.482-.311c-.672,1.39-.99,2.957.637,2.957a2.476,2.476,0,0,0,2.508-1.783c.93.934,2.232,1.231,3.194-.187a2.4,2.4,0,0,0,.092-2.678c.078-.035.1-.113.17-.113C508.338,241.506,509.413,239.441,508.377,238.673Z" transform="translate(-497.989 -236.536)" fill="#fffbca"/>
        <path id="패스_858" data-name="패스 858" d="M502.739,239.159a1.823,1.823,0,0,1-3.643.131,1.872,1.872,0,0,1,1.726-1.949A1.9,1.9,0,0,1,502.739,239.159Z" transform="translate(-495.189 -234.493)" fill="#fab798"/>
      </g>
      <g id="그룹_524" data-name="그룹 524" transform="translate(827.01 207.63)">
        <path id="패스_859" data-name="패스 859" d="M587.452,181.179a5.28,5.28,0,0,0-4.46-.814c-.262-1.567-1.121-3.371-2.773-2.717a4.731,4.731,0,0,0-2.253,2.335c-1.638-1.443-3.611-2.154-5.2.237-.845,1.153-.318,2.278.6,3.314a4.656,4.656,0,0,0-3.488,2.862c-.488,1.85.248,4.326,2.607,4.3a5.362,5.362,0,0,0,2.44-.492c-1.058,2.384-1.68,4.994,1.058,5.072a4.483,4.483,0,0,0,4.312-3.049c1.6,1.5,3.834,2.122,5.4-.262a4.323,4.323,0,0,0,.223-4.662c.081-.064.17-.117.269-.195C587.3,186.036,589.157,182.481,587.452,181.179Z" transform="translate(-569.732 -177.511)" fill="#fffbca"/>
        <path id="패스_860" data-name="패스 860" d="M577.827,181.856a3.111,3.111,0,1,1-6.211.357,3.108,3.108,0,0,1,2.943-3.293A3.063,3.063,0,0,1,577.827,181.856Z" transform="translate(-564.965 -173.951)" fill="#fab798"/>
      </g>
      <g id="그룹_525" data-name="그룹 525" transform="translate(590.411 271.504)">
        <path id="패스_861" data-name="패스 861" d="M520.513,199.284a5.362,5.362,0,0,0-4.425-.877c-.269-1.578-1.164-3.371-2.794-2.688a4.734,4.734,0,0,0-2.232,2.363c-1.606-1.514-3.608-2.122-5.221.187-.842,1.192-.322,2.32.594,3.35a4.345,4.345,0,0,0-3.4,2.851c-.584,1.825.173,4.34,2.526,4.34a6.686,6.686,0,0,0,2.444-.523c-1.068,2.356-1.666,5.023,1.086,5.023a4.46,4.46,0,0,0,4.337-3.028c1.581,1.521,3.76,2.147,5.369-.219A4.509,4.509,0,0,0,519,205.35a.812.812,0,0,1,.262-.166C520.449,204.161,522.235,200.553,520.513,199.284Z" transform="translate(-502.844 -195.569)" fill="#fffbca"/>
        <path id="패스_862" data-name="패스 862" d="M510.885,199.927a3.046,3.046,0,0,1-2.89,3.261,3.115,3.115,0,1,1,2.89-3.261Z" transform="translate(-498.091 -192.02)" fill="#fab798"/>
      </g>
      <g id="그룹_526" data-name="그룹 526" transform="translate(896.341 344.05)">
        <path id="패스_863" data-name="패스 863" d="M600.545,218.391a3.447,3.447,0,0,0-2.777-.47c-.2-1.036-.778-2.168-1.8-1.754a2.8,2.8,0,0,0-1.422,1.507c-1.015-.962-2.271-1.334-3.318.138-.516.711-.219,1.457.364,2.115a2.735,2.735,0,0,0-2.147,1.807c-.354,1.153.081,2.766,1.6,2.766a4.654,4.654,0,0,0,1.6-.3c-.743,1.471-1.128,3.176.658,3.176a2.758,2.758,0,0,0,2.7-1.921c1.029,1.015,2.416,1.291,3.442-.18a2.8,2.8,0,0,0,.17-2.95c0-.039.074-.067.149-.145C600.482,221.514,601.674,219.268,600.545,218.391Z" transform="translate(-589.333 -216.078)" fill="#fffbca"/>
        <path id="패스_864" data-name="패스 864" d="M594.46,218.863a1.953,1.953,0,0,1-1.853,2.09,2,2,0,0,1-2.083-1.829,1.974,1.974,0,1,1,3.937-.262Z" transform="translate(-586.321 -213.841)" fill="#fab798"/>
      </g>
    </g>
    <g id="그룹_552" data-name="그룹 552" transform="translate(-600.169 5182.622) rotate(1)">
      <g id="그룹_520-2" data-name="그룹 520" transform="translate(468.33 165.64)">
        <path id="패스_846-2" data-name="패스 846" d="M838.3,296.067c9.784-7.676,16.7-19.447,10.219-31.046-6.331-11.323-23.038-10-38.113-3.24,9.844-15.143,15.974-33,5.73-44.417-7.354-8.139-22.574,5.43-28.078,10.06a62.761,62.761,0,0,0-5.8,5.645c.2-12.058-2.306-22.426-9.734-25.478-5.928-2.476-11.312,4.9-14.877,11.209-.124-20.311-5.663-40.869-22.139-41.774-8.673-.513-14.835,11.482-18.107,19.529-.541,1.238-.955,2.462-1.408,3.753-3.187-21.906-14.761-47.543-32.185-26.745a31.159,31.159,0,0,0-4.061,6.544c-12.133-14.067-29.419-19.253-48.148-9.342-10.976,5.748-18.252,21.142-20.084,35.22a64.824,64.824,0,0,0-.187,12.515c-6.236-6.179-14.418-7.1-22.673,2.929-5.889,7.067-7.248,18.708-7.149,29.037-1.878-3.208-3.835-6.42-5.89-9.777-5.461-8.808-12.67-14.35-19.635-5.943-6.332,7.559-2.023,24.417-.067,33.278a77.42,77.42,0,0,0,3.421,11.464c-20.113-3.509-41.219,2.384-50.225,21.014-9.062,18.807,14.884,35.428,26.239,39.613a59.871,59.871,0,0,0,9.165,2.289c-.4.5-.757,1.043-1.118,1.56-4.662,7.2-10.912,22.956-.212,28.542a25.866,25.866,0,0,0,16.826,2.381c-.87,1.563-1.712,3.173-2.5,4.832-2.02,4.177-11.015,25.277-3.219,28.489,10.81,4.443,22.249-7.439,29.2-13.982q4.9-4.643,9.522-9.575c.838.05,1.715,0,2.663,0-.814,2.211-1.645,4.379-2.356,6.7-2.823,8.829-4.545,22.32,6.056,26.479,8.068,3.152,18.33-3.58,24.442-8.146a108.227,108.227,0,0,0,8.684-7.467.4.4,0,0,1-.018.117c-1.227,7.371-2.8,18.273,3.891,23.643,8,6.363,20.222-4.9,25.425-10.148a81.9,81.9,0,0,0,10.155-12.7c-.046.131-.046.187-.064.24-.959,5.486-2.048,11.85,2.635,15.758,3.109,2.625,7.722-2.246,9.349-4.372a43.166,43.166,0,0,0,7.428-13.293c.361,4.857,1.457,9.112,5.49,12.907,4.273,4.018,11.086,5.387,16.7,4.365,6.176-1.189,8.935-5.249,9.745-10.2,4.521,9.706,12.44,17.909,23.494,15.281,4.535-1.132,6.519-5.865,7.418-9.9a12.648,12.648,0,0,0,.251-1.854c6.087,6.059,14.474,10.714,23.038,9.14,7.421-1.45,12.656-6.523,15.521-13.035a33.915,33.915,0,0,0,7.661-.251c3.983-.676,15.461-3.169,13.356-9.918a21.7,21.7,0,0,0-3.3-6.275,72.455,72.455,0,0,0,11.054-1.995c5.214-1.287,18.789-4.995,16.805-13.038-1.457-5.886-9.2-7.683-14.969-8.684a3.825,3.825,0,0,0,.545-.173c7.046-2.879,19.09-6.024,17.007-15.73a9.864,9.864,0,0,0-3.5-5.139,40.387,40.387,0,0,0,10.466-6.936C867.153,322.065,854.72,305.628,838.3,296.067Z" transform="translate(-369.956 -165.64)" fill="#48a373"/>
        <path id="패스_847-2" data-name="패스 847" d="M593.017,338.063c.838.05,1.715,0,2.663,0-.814,2.211-1.645,4.379-2.356,6.7-2.794,8.829-4.545,22.2,5.946,26.458,15.207-19.918,30.572-39.751,40.908-62.683,7.747-17.092,13.2-36.6,10.6-55.509-1.157-8.309-3.413-18.05-9.427-24.262-7.909-8.319-23.285-9.335-26.776,3.909a1.279,1.279,0,0,1-2.518-.24c-.7-17.481-12.225-37.321-29.606-42.142a82.012,82.012,0,0,0-.948,13.583c-1.878-3.208-3.835-6.42-5.89-9.777-5.461-8.808-12.67-14.35-19.635-5.943-6.332,7.559-2.023,24.417-.067,33.278a77.423,77.423,0,0,0,3.421,11.464c-20.113-3.509-41.219,2.384-50.225,21.014-9.062,18.807,14.884,35.428,26.239,39.613a59.871,59.871,0,0,0,9.165,2.289c-.4.5-.757,1.043-1.118,1.56-4.662,7.2-10.912,22.956-.212,28.542a25.865,25.865,0,0,0,16.826,2.381c-.87,1.563-1.712,3.173-2.5,4.832-2.02,4.177-11.015,25.277-3.219,28.489,10.81,4.443,22.249-7.439,29.2-13.982Q588.392,343,593.017,338.063Z" transform="translate(-369.956 -119.054)" fill="#3a8974" opacity="0.7" style="mix-blend-mode: multiply;isolation: isolate"/>
        <path id="패스_848-2" data-name="패스 848" d="M552.108,383.446a55.4,55.4,0,0,0-2.851,7.428c36.426-24.732,81.253-36.773,123.462-46.977,25.489-6.176,52.552-12.656,78.989-8.486,15.143,2.37,30.993,7.5,44.434,15.822a37.944,37.944,0,0,0,5.408-4.719c17.364-18.687,4.188-33.872-12.3-42.075,8.928-8.09,14.927-19.922,7.916-30.809-6.887-10.566-23.027-8.2-37.243-.644,8.567-15.4,13.346-33.1,2.7-43.511-7.648-7.439-21.577,6.742-26.614,11.56a55.821,55.821,0,0,0-5.277,5.858c-.63-11.751-3.664-21.6-11.093-24.109-5.974-2-10.668,5.476-13.742,11.772-1.436-19.677-8.082-39.291-24.148-39.082-8.482.021-13.661,12.041-16.352,20.063-.435,1.213-.764,2.522-1.1,3.742-4.535-21.064-17.382-45.145-32.981-23.9a31.055,31.055,0,0,0-3.548,6.593c-12.66-12.872-29.819-16.749-47.356-5.95-10.311,6.363-16.36,21.761-17.237,35.5a66.8,66.8,0,0,0,.587,12.111c-6.438-5.546-14.41-5.9-21.8,4.333-5.256,7.272-5.836,18.623-5.051,28.683-2.037-3.024-4.174-5.988-6.4-9.112-5.865-8.2-13.2-13.141-19.433-4.552-5.6,7.708-.375,23.869,2.059,32.344a76.053,76.053,0,0,0,4.085,10.944c-19.73-2.168-39.9,4.934-47.455,23.579-7.609,18.882,16.748,33.508,28.032,36.829a52.731,52.731,0,0,0,9.006,1.588c-.279.566-.651,1.072-.98,1.624-4.061,7.262-9.1,23.034,1.673,27.746,12.914,5.684,25.234-1.369,36.348-8.45C546.165,387.736,549.066,385.777,552.108,383.446Z" transform="translate(-468.33 -111.117)" fill="#3a8974"/>
        <path id="패스_849-2" data-name="패스 849" d="M747.073,297.1c-.414-5.783-9.37-5.539-13.314-4.779a25.205,25.205,0,0,0-5.812,1.864c2.045-3.771,2.78-7.6.417-10.247-2.89-3.212-8.518-.46-12.437,2.207a49.687,49.687,0,0,0,8.3-19.147c.729-3.41,1.026-13.173-5.539-10.375a19.174,19.174,0,0,0-6.367,4.517c2.876-6.929,4.782-15.157-2.119-15.723A12.335,12.335,0,0,0,703.251,247c1.8-5.348,3.781-14.322-1.256-15.917-8.174-2.55-13.562,5-16.869,13.54-.159-6.668-2.267-12.706-8.931-14.439a5.084,5.084,0,0,0-1.418-.18c5.026-6.933,7.057-15.121,1.351-20.47-6.788-6.307-17.056.831-21.945,5.748-.739.679-1.546,1.585-2.423,2.529.721-5.935-.057-11.708-3.261-14.258-6.212-4.878-10.212,3.322-12.154,10.88-.23-.485-.463-1.1-.736-1.609a38.123,38.123,0,0,0-9.218-15.772c-7.014-6.936-19.73-5.292-26.7,1-10.025,8.949-14.672,20.339-16.947,33.306-.662,3.572-.106,10.293,1.517,16.575a29.208,29.208,0,0,0-3.4-2.3c-4.135-2.518-11.354-4.857-15.083-.212-3.321,4.032-3.1,9.2-1.945,14.064-5.78-7.184-15.585-14.955-22.387-7.343-4.934,5.575-6.126,13.229-5.154,21.113a44.231,44.231,0,0,0,.449,5.514c-2.2-2.136-4.411-2.8-5.745.117-1.344,2.791-.492,6.087.718,8.988a6.236,6.236,0,0,0-2.267,1.659,11.462,11.462,0,0,0-6.922,7.6c-2.172,6.7,2.045,15,5.688,20.25.272.378.591.856.944,1.27-.432.042-.867.166-1.28.248-2.554.789-3.742,3.891-3.742,6.232a10.381,10.381,0,0,0,2.77,6.293,6.407,6.407,0,0,0-2.165,1.022c-3.781,2.759-5.214,6.088-4.213,10.612,1.475,6.544,10.523,11.574,16.023,14.336a61.971,61.971,0,0,0,6.063,2.529c1.9,1.514,3.76,3.176,5.748,4.63a91.009,91.009,0,0,0,11.666-2.724c.35-.042.711-.078,1.068-.131a3.675,3.675,0,0,0,.34.814c3.268,4.906,11.177,4.892,18.294,3.378a14.514,14.514,0,0,0-.969,1.135c-.181.205-.421.849-.11,1.118,3.82,2.7,12.32-1.249,16.172-2.8,1.5-.523,2.943-1.242,4.347-1.843a7.493,7.493,0,0,0-1.358,4.421.461.461,0,0,0,.3.467c4.97,1.723,12.391-3.686,16.42-5.872a86.533,86.533,0,0,0,13.484-9.091c-3.467,5.2-6.622,11.5-.93,10.675,4.375-.679,10.555-4.761,14.863-9.915a16.856,16.856,0,0,0,2.154,2.115,58.48,58.48,0,0,0,6.148,4.421c1.061.75,2.639,1.995,4.018,1.662,2.306-.594,2.2-3.438,1.924-5.5a38.856,38.856,0,0,0,9.412,3.972c4.481,1.277,11.344,2.147,15.475-.435,4.085-2.494,4.206-5.2,2.38-9.466-.251-.541-.527-1.022-.792-1.5,1.684.364,3.328.739,4.782,1.16,6.332,1.486,13.968,3.152,20.222.789,4.114-1.585,2.918-4.421-.1-7.573a64.694,64.694,0,0,0,21.372-1.871,75.4,75.4,0,0,1-10.82-6.749c3.732.24,8.043,0,10.686-1.493,2.229-1.245,5.04-3.82,3.93-6.784a8.6,8.6,0,0,0-3.516-4.588,12.222,12.222,0,0,0,4.648-2.876c1.758-1.754.248-3.7-.923-5.14a4.473,4.473,0,0,0-1-.891C740.618,311.231,747.707,306.049,747.073,297.1Z" transform="translate(-336.665 -97.396)" fill="#3a8954" opacity="0.7" style="mix-blend-mode: multiply;isolation: isolate"/>
        <path id="패스_850-2" data-name="패스 850" d="M650.728,363.973a10.7,10.7,0,0,0,.053-3.583,48.1,48.1,0,0,0-1.585-7.209.908.908,0,0,1,1.263-1.047c4.142,2.168,7.386,5.628,11.641,7.548-.47-3.109-2.076-6.045-3.488-8.822a.871.871,0,0,1,1.45-.966c4.344,6.126,10.841,9.925,17.93,12.019a.531.531,0,0,0-.021-.152,56.013,56.013,0,0,0,10.176.732c10.474-.283,28.754-3.88,35.337-13.222,7.764-10.9.672-18.917-11.262-20.215-.336-.057-.69-.057-1.089-.152,4.764-2.784,10.081-6.653,12.193-11.089,2.094-4.421.806-8.712-4.4-9.359a12.912,12.912,0,0,0-5.787.849c5.695-7.241,8.132-15.641-2.738-17.583a15.841,15.841,0,0,0-8.638,1.167c.955-1.263,1.815-2.575,2.536-3.647,5.4-8.256,9.352-19.493,3.611-28.478-5.037-7.874-16.78-6.183-23.6-2.009a58.459,58.459,0,0,0-10.092,7.792c1.139-5.023.987-10.6-1.981-14.584-4.149-5.56-12.26.11-15.935,3.7.421-3.038.757-5.886,1-8.068,1.033-8.429,1.723-26.158-11.093-24.679-3.93.407-7.255,2.833-9.932,6.08a74.206,74.206,0,0,0-1.776-12.469c-2.455-10.958-13.855-31.064-27.463-21.237-11.786,8.482-15.967,24.7-17.378,38.41a92.425,92.425,0,0,0,.092,20.3c-3.569-3.993-7.916-6.961-13.151-7.184-9.43-.421-10.619,12.677-9.922,18.991.067.679.156,1.376.287,2.037a83.847,83.847,0,0,0-7.676-7.612c-5.667-4.892-16.724-13.908-23.558-7.011-5.988,6.119-.909,21.347,1.546,27.8.417,1.146.906,2.342,1.4,3.516-4.443-2.48-8.277-2.568-10.286,1.811-3.226,6.989,1.178,16.7,5.451,23.9-2.14-.6-3.926-.347-5.023,1.546-2.752,4.581,2.738,11.358,7.57,16.345-3.53-1.7-7.308-2.922-10.573-.524-6.264,4.574.555,11.337,4.524,14.846a45.984,45.984,0,0,0,12.649,7.923c-5.829,1.266-11.4,3.346-15.914,7.485-7.318,6.77-7.69,12.9,2.444,16,10.551,3.219,23.3.877,34.159-2.55-1.436,1.97-2.25,4.022.846,4.2,8.051.347,14.817-2.586,22.044-5.741,2.211-.941,5.224-2.023,8.259-3.3-.767,2.189-.576,3.8,1.312,3.6,8.992-1.015,17.173-7.007,24.693-11.56.5-.336,1.04-.683,1.613-1,.919,4.022,3,7.393,6.912,7.842,3.335.357,6.763-3.7,8.479-5.992.57-.849,1.1-1.6,1.553-2.437a47.785,47.785,0,0,0,7.276,8.5C648.478,366.184,650.367,366.205,650.728,363.973Z" transform="translate(-332.848 -97.067)" fill="#84d3a4"/>
        <g id="그룹_519-2" data-name="그룹 519" transform="translate(40.21 167.575)">
          <path id="패스_851-2" data-name="패스 851" d="M653.894,290.6c-3.42-4.892-9.9-6.763-15.673-6.254,6.926-4.726,13.028-11.4,8.832-16.837-2.027-2.685-5.514-2.458-8.832-1.372,7.152-10.247,10.852-23.911,1.652-31.775-5.741-4.924-17.261,1.312-22.079,4.726a37.407,37.407,0,0,0-4.942,4.132c2.158-11.952,1.9-25.383-9.5-24.941-6.105.216-11.262,6.9-14.439,11.344-.149.209-.357.548-.58.927-.8-4.627-2.656-8.277-6.749-6.286-3.421,1.659-5.026,7.1-6.332,10.279a24.881,24.881,0,0,0-.969,2.639c-2.416-5.684-4.98-12.263-10-15.889-7.612-5.56-15.7,1.277-18.683,8.656a75.957,75.957,0,0,0-4.174-6.7c-2.812-4-11.015-12.539-16.876-9.646-11.22,5.5-12.582,19.592-10.162,31.421a4.775,4.775,0,0,0-3.778-.354,5.672,5.672,0,0,0-3.237,3.817,18.09,18.09,0,0,0-6.438-7.057c-3.746-2.243-8.542-3.155-11.153,1.369-4.475,7.945-2.607,17.375-.471,25.825.566,2.2,1.249,4.552,2.041,6.929-3.767-2.964-8.581-4.567-11.623-2.059a23.623,23.623,0,0,0,1.592,10.039,27.733,27.733,0,0,0,4.188,7.481c1.019,1.217,2.607,2.762,3.031,4.386.729,3.3-.385,5.348-.916,8.624-1.033,6.045,5.61,10.65,10.435,12.518,21.276,8.284,43.476-.113,63.889-6.5a1.358,1.358,0,0,1,1.7,1.521,6.965,6.965,0,0,0-.265,1.054c.463-.248.927-.552,1.454-.814.951,4.213,3.159,7.771,7.265,8.235,3.527.386,7.071-3.909,8.846-6.328a14.3,14.3,0,0,0,1.638-2.564,48.228,48.228,0,0,0,7.647,8.956c1.935.732,3.87.849,4.291-1.556a12.709,12.709,0,0,0,.014-3.771,51.934,51.934,0,0,0-1.585-7.509.928.928,0,0,1,1.28-1.128c4.351,2.281,7.778,5.928,12.2,7.952-.5-3.329-2.13-6.349-3.661-9.292a.917.917,0,0,1,1.531-1.008c4.383,6.162,10.849,10.031,17.909,12.341,8.9.06,18.616-3.986,24.948-8.921C651.666,303.758,658.107,296.616,653.894,290.6Z" transform="translate(-479.698 -213.015)" fill="#3a896f" opacity="0.7" style="mix-blend-mode: multiply;isolation: isolate"/>
        </g>
        <path id="패스_852-2" data-name="패스 852" d="M631.051,285.636c6.6-5.083,13.091-11.683,9.437-15.535-1.121-1.1-2.826-1.28-4.694-.884q3.905-4.595,7.425-9.55c4.439-6.162,10.024-16.664-.23-19.3-9.879-2.458-21.446,8.21-28.1,14.432-1.7,1.592-3.59,3.4-5.518,5.4a37.209,37.209,0,0,0,.966-8.56c-.117-9.313-2.975-20.739-13.59-17.831-5.981,1.67-10.332,8.5-13.413,15.178-1.341-13.183-5.875-25.231-16.819-21.223-5.147,1.885-8.426,6.547-10.332,12.461-.212-.849-.385-1.691-.58-2.487-1.51-5.988-9.763-24.537-17.612-23.377-14.492,2.133-11.648,28.312-6.983,44.975-3.35-4.022-7.743-7.754-9.3-2.218a20.43,20.43,0,0,0-.216,9.388c-5.744-9.554-14.138-21.142-18.047-15.04-3.484,5.348.881,16.3,2.579,21.637.364,1.266.817,2.494,1.256,3.82-4.16-2.589-8.677-4.117-12.667-2.037-4.764,2.529.785,9.444,5.988,14.46a27.081,27.081,0,0,0-14.407,2.5c-4.45,2.108-8.334,5.935-4.51,10.583,7.863,9.487,20.686,14.1,33.8,14.931-2.854,2.023-5.355,4.683-5.189,7.856.3,5.476,20.99,4.581,23.745,4.337a82.627,82.627,0,0,0,21-5.408,5.049,5.049,0,0,0,.156,1.609c.032.226.35.333.534.333,4.577.248,10.852-2.08,15.942-5.285a13.346,13.346,0,0,0-1.309,4.591.69.69,0,0,0,.375.644c4.917,1.712,13.247-2.915,17.187-5.691a30.5,30.5,0,0,0,5.638-4.949c1.2,1.418,2.381,2.855,3.622,4.248,2.1,2.363,6.484,4.949,9.515,3.042,3.343-2.253,3.325-6.848,3.258-10.711a18.393,18.393,0,0,0,2.129,1.245c3,1.415,9.115,4.312,12.3,3.191a2.365,2.365,0,0,0,1.641-2.091c.021-2.476-1.751-5.051-3.746-7.241a104.924,104.924,0,0,0,15.787-2.31c5.9-1.242,16.681-3.551,19.479-10.445C663.24,280.387,644.142,282.162,631.051,285.636Z" transform="translate(-438.375 -42.156)" fill="#55b783"/>
      </g>
      <g id="그룹_521-2" data-name="그룹 521" transform="translate(759.575 393.432)">
        <path id="패스_853-2" data-name="패스 853" d="M565.945,233.141a4.591,4.591,0,0,0-3.834-.7c-.269-1.355-1-2.872-2.412-2.264a3.556,3.556,0,0,0-1.945,1.945c-1.408-1.291-3.106-1.822-4.507.187-.7,1.015-.237,2.044.531,2.922a3.687,3.687,0,0,0-2.95,2.412c-.488,1.638.127,3.718,2.182,3.718a5.5,5.5,0,0,0,2.1-.4c-.941,2.08-1.457,4.333.888,4.354a3.847,3.847,0,0,0,3.764-2.632c1.4,1.355,3.258,1.829,4.666-.209a3.865,3.865,0,0,0,.195-4.025,1.89,1.89,0,0,0,.223-.2C565.849,237.375,567.4,234.252,565.945,233.141Z" transform="translate(-550.668 -230.039)" fill="#fffbca"/>
        <path id="패스_854-2" data-name="패스 854" d="M557.651,233.728a2.7,2.7,0,0,1-2.55,2.851,2.674,2.674,0,0,1-2.812-2.547,2.594,2.594,0,0,1,2.547-2.777A2.622,2.622,0,0,1,557.651,233.728Z" transform="translate(-546.57 -226.979)" fill="#fab798"/>
      </g>
      <g id="그룹_522-2" data-name="그룹 522" transform="translate(736.483 303.942)">
        <path id="패스_855-2" data-name="패스 855" d="M559.407,207.9a4.842,4.842,0,0,0-3.8-.718c-.262-1.372-.987-2.865-2.423-2.327a3.883,3.883,0,0,0-1.9,2.023c-1.418-1.234-3.148-1.85-4.556.194-.683,1.015-.258,1.963.545,2.869a4.045,4.045,0,0,0-3,2.494c-.456,1.609.195,3.689,2.193,3.689a5.47,5.47,0,0,0,2.158-.417c-.955,2.073-1.457,4.269.923,4.4a3.935,3.935,0,0,0,3.714-2.7c1.408,1.4,3.265,1.811,4.666-.23a3.793,3.793,0,0,0,.216-3.986,2.5,2.5,0,0,1,.2-.17C559.365,212.128,560.935,209.033,559.407,207.9Z" transform="translate(-544.14 -204.739)" fill="#fffbca"/>
        <path id="패스_856-2" data-name="패스 856" d="M551.112,208.488a2.565,2.565,0,0,1-2.512,2.794,2.674,2.674,0,0,1-2.84-2.55,2.734,2.734,0,0,1,2.554-2.777A2.661,2.661,0,0,1,551.112,208.488Z" transform="translate(-540.029 -201.662)" fill="#fab798"/>
      </g>
      <g id="그룹_523-2" data-name="그룹 523" transform="translate(573.24 416.412)">
        <path id="패스_857-2" data-name="패스 857" d="M508.377,238.673a2.945,2.945,0,0,0-2.589-.492c-.131-.923-.658-1.924-1.641-1.574a2.331,2.331,0,0,0-1.288,1.348c-.962-.891-2.133-1.27-3.116.124-.463.7-.17,1.362.357,2a2.5,2.5,0,0,0-2,1.677c-.34,1.058.113,2.55,1.475,2.55a8.92,8.92,0,0,0,1.482-.311c-.672,1.39-.99,2.957.637,2.957a2.476,2.476,0,0,0,2.508-1.783c.93.934,2.232,1.231,3.194-.187a2.4,2.4,0,0,0,.092-2.678c.078-.035.1-.113.17-.113C508.338,241.506,509.413,239.441,508.377,238.673Z" transform="translate(-497.989 -236.536)" fill="#fffbca"/>
        <path id="패스_858-2" data-name="패스 858" d="M502.739,239.159a1.823,1.823,0,0,1-3.643.131,1.872,1.872,0,0,1,1.726-1.949A1.9,1.9,0,0,1,502.739,239.159Z" transform="translate(-495.189 -234.493)" fill="#fab798"/>
      </g>
      <g id="그룹_524-2" data-name="그룹 524" transform="translate(827.01 207.63)">
        <path id="패스_859-2" data-name="패스 859" d="M587.452,181.179a5.28,5.28,0,0,0-4.46-.814c-.262-1.567-1.121-3.371-2.773-2.717a4.731,4.731,0,0,0-2.253,2.335c-1.638-1.443-3.611-2.154-5.2.237-.845,1.153-.318,2.278.6,3.314a4.656,4.656,0,0,0-3.488,2.862c-.488,1.85.248,4.326,2.607,4.3a5.362,5.362,0,0,0,2.44-.492c-1.058,2.384-1.68,4.994,1.058,5.072a4.483,4.483,0,0,0,4.312-3.049c1.6,1.5,3.834,2.122,5.4-.262a4.323,4.323,0,0,0,.223-4.662c.081-.064.17-.117.269-.195C587.3,186.036,589.157,182.481,587.452,181.179Z" transform="translate(-569.732 -177.511)" fill="#fffbca"/>
        <path id="패스_860-2" data-name="패스 860" d="M577.827,181.856a3.111,3.111,0,1,1-6.211.357,3.108,3.108,0,0,1,2.943-3.293A3.063,3.063,0,0,1,577.827,181.856Z" transform="translate(-564.965 -173.951)" fill="#fab798"/>
      </g>
      <g id="그룹_525-2" data-name="그룹 525" transform="translate(590.411 271.504)">
        <path id="패스_861-2" data-name="패스 861" d="M520.513,199.284a5.362,5.362,0,0,0-4.425-.877c-.269-1.578-1.164-3.371-2.794-2.688a4.734,4.734,0,0,0-2.232,2.363c-1.606-1.514-3.608-2.122-5.221.187-.842,1.192-.322,2.32.594,3.35a4.345,4.345,0,0,0-3.4,2.851c-.584,1.825.173,4.34,2.526,4.34a6.686,6.686,0,0,0,2.444-.523c-1.068,2.356-1.666,5.023,1.086,5.023a4.46,4.46,0,0,0,4.337-3.028c1.581,1.521,3.76,2.147,5.369-.219A4.509,4.509,0,0,0,519,205.35a.812.812,0,0,1,.262-.166C520.449,204.161,522.235,200.553,520.513,199.284Z" transform="translate(-502.844 -195.569)" fill="#fffbca"/>
        <path id="패스_862-2" data-name="패스 862" d="M510.885,199.927a3.046,3.046,0,0,1-2.89,3.261,3.115,3.115,0,1,1,2.89-3.261Z" transform="translate(-498.091 -192.02)" fill="#fab798"/>
      </g>
      <g id="그룹_526-2" data-name="그룹 526" transform="translate(896.341 344.05)">
        <path id="패스_863-2" data-name="패스 863" d="M600.545,218.391a3.447,3.447,0,0,0-2.777-.47c-.2-1.036-.778-2.168-1.8-1.754a2.8,2.8,0,0,0-1.422,1.507c-1.015-.962-2.271-1.334-3.318.138-.516.711-.219,1.457.364,2.115a2.735,2.735,0,0,0-2.147,1.807c-.354,1.153.081,2.766,1.6,2.766a4.654,4.654,0,0,0,1.6-.3c-.743,1.471-1.128,3.176.658,3.176a2.758,2.758,0,0,0,2.7-1.921c1.029,1.015,2.416,1.291,3.442-.18a2.8,2.8,0,0,0,.17-2.95c0-.039.074-.067.149-.145C600.482,221.514,601.674,219.268,600.545,218.391Z" transform="translate(-589.333 -216.078)" fill="#fffbca"/>
        <path id="패스_864-2" data-name="패스 864" d="M594.46,218.863a1.953,1.953,0,0,1-1.853,2.09,2,2,0,0,1-2.083-1.829,1.974,1.974,0,1,1,3.937-.262Z" transform="translate(-586.321 -213.841)" fill="#fab798"/>
      </g>
    </g>
  </g>
</svg>
