<svg xmlns="http://www.w3.org/2000/svg" width="469.692" height="308.791" viewBox="0 0 469.692 308.791">
  <g id="그룹_537" data-name="그룹 537" transform="translate(-466.123 -91.17)">
    <g id="그룹_533" data-name="그룹 533" transform="translate(466.123 91.17)">
      <path id="패스_865" data-name="패스 865" d="M922.957,295.687a35.727,35.727,0,0,0-3.56-1.933c6.436-4.415,11.772-10.338,14.537-17.925,4.845-13.482-8.535-24.888-20.14-26.026-.43-.06-.929,0-1.387-.06A51.779,51.779,0,0,0,925.561,225c3.052-14.495-6.9-31.135-22.1-30.376a44.674,44.674,0,0,0-11.342,2.02c2.857-6.764,4.956-13.824,4.351-21.282-1.549-17.629-16.358-7.092-25.17.939a10.293,10.293,0,0,0-14.213-7.143c0-3.241-.125-6.367-.4-9.529-.4-4.369-2.677-13.408-7.62-14.726-5.844-1.6-11.268,2.9-15.752,8.48-1.258-4.471-3.62-8.23-7.865-8.868a12.262,12.262,0,0,0-8.484,2.094c-1.924-15.53-7-32.573-19.322-27.931-6.9,2.589-10.2,9.266-12.539,16.1-.421,1.04-.758,2.122-1.114,3.162-3.111-3.306-7.074-4.688-11.966-.74a23.818,23.818,0,0,0-1.854,1.877,71.8,71.8,0,0,0-12.215-21.458c-11.8-14.185-22.974-3.666-30.483,11.351-1.724-7.259-7.578-16.326-14.689-7.8-.235.305-.421.541-.587.758,0-4.309-.2-8.614-.56-12.913-.457-5.155-3.1-15.72-8.956-17.366-10.768-2.862-20.325,11.642-26.257,21.546a14.615,14.615,0,0,0-6.487-6.625c-3.19-1.627-6.722-.911-10.075,1.091-3.024-9.834-8.873-17.236-19.664-16.427-9.709.7-15.318,9.511-17.907,19.867-2.571-2.3-5.391-3.685-8.345-3.287-9.367,1.077-16.506,10.514-19.3,20.815-4.1-2.635-8.771-3.8-13.431-2.192a12.339,12.339,0,0,0-6.852,5.715c-8.433-8.091-19.118-11.919-31.731-4.919-16.044,8.9-13.852,25.771-7.421,40.544-9.377-.3-15.549,11.018-15.105,23.83-5.206-3.8-10.99-5.8-16.941-1.073-3.375,2.557-3.588,6.681-2.252,11.027-.569-.153-1.124-.291-1.651-.435-7.777-1.78-17.357-1.193-22.281,6.122-10.68,15.433,6.917,30.622,22.891,35.7-7.869,1.174-15.669,3.694-21.37,9.409-11.993,12.271,8.558,24.176,17.153,29.133a81.157,81.157,0,0,0,8.188,4.064c-4.309,1.443-8.54,3.223-12.881,5.109-9.76,4.147-26.844,16.871-24.648,29.854,2.941,16.9,24.773,12.844,36.318,10.176,5.271-1.262,10.583-2.862,15.817-4.549-.569.55-1.207,1.04-1.849,1.563a256.118,256.118,0,0,1,26.581-8.517c17.851-4.7,35.628-9.464,53.942-12.127a473.983,473.983,0,0,1,108.708-2.774c53.36,4.642,111.441,13.639,153.011,50.914,15.979,7.939,35.18,9.455,51.839,2.834,4.827-1.947,12.4-7.069,12.71-13.135a14.4,14.4,0,0,0-3.6-10.223,31.75,31.75,0,0,0,12.877-10.93C940.555,312.609,932.223,301.966,922.957,295.687Z" transform="translate(-466.123 -91.17)" fill="#48a373"/>
      <path id="패스_866" data-name="패스 866" d="M885.841,301.383c4.064-1.581,8.308-4.328,9.349-8.225,2.3-8.544-6.2-13.214-14.6-13.889,6.5-3.315,11.993-8.789,8.535-14.411-2.987-4.9-8.179-7.3-14.07-8.082.153-.129.287-.166.518-.328,6.944-4.092,12.659-10.149,14.453-18.166,1.725-7.9-3.995-16.349-10.893-19.271-3.958-1.7-8.35-.8-12.377,1.156a10.651,10.651,0,0,0-2.335-9.557,5.864,5.864,0,0,0-3.57-2.03c1.313-2.122,2.455-4.12,3.348-5.752,4.721-8.068,11.906-20.662,7.25-30.136-6.432-13.057-20.838-11.046-30.562-3.181-.111-2.266-.754-4.143-2.219-5.289-1.947-1.456-4.147-1.327-6.27-.6,1.637-6.283,1.128-12.47-3.278-17.727-6.024-7.208-15.942-1.1-21.851,2.52a10.231,10.231,0,0,1-1.456.9,28.2,28.2,0,0,0-3.421-18.494c-4.425-7.61-12.641-8.785-19.858-4.882a30.271,30.271,0,0,0-6.348,4.642,9.885,9.885,0,0,0-7.111-5.447c-2.977-.606-5.678.8-8.049,2.76.06-1.669,0-3.366-.107-5.063-.712-9.862-8.655-22.729-19.77-22.378-10.274.143-17.237,6.556-22.734,14.712a32.447,32.447,0,0,0-5.16,13.3,13.842,13.842,0,0,0-7.828,2.834,14.7,14.7,0,0,0-1.188,1.128c-3.241-9.552-9.145-17.005-19.932-16.543-6.223.227-10.4,7.6-12.451,12.581a19.064,19.064,0,0,0-.763,2.58c-7.194-4.388-13.3-1.609-16.177,5.1-2.118-5.141-6.122-12.826-12.225-10.458a17.9,17.9,0,0,0-1.174-2.215c-4.776-7.684-12.206-7.98-19.345-3.611-3.093,1.933-7.083,5.465-8.327,9.437-3.362-6.32-7.869-9.931-15.887-5.4-5.71,3.172-8.475,8.04-8.354,13.593a12.609,12.609,0,0,0-10.338.9c-3.412-7.388-9.413-12.164-19.618-8.452-10.787,3.9-15.928,20.353-14.277,32.563-1.724-1.96-3.8-3.2-5.627-2.1-2.89,1.554-3.269,4.2-2.788,6.908-3.149-4.369-7.069-7.777-13.464-8.073-5.581-.245-9.372,4-11.494,8.5-3.468,7.583-2.21,17.01,1.382,24.31a3.267,3.267,0,0,0,.518.929,10.934,10.934,0,0,0-3.047.966,1.539,1.539,0,0,0-.425.3c-6.223-1.808-13.214-3.135-16.076,3.93-3.019,7.384-1.706,17.634,3.315,24.283-8.239-1.826-18.582.957-21.194,9.229-1.655,5.252,1.947,11.628,4.739,15.854,4.1,6.126,10.842,9.982,15.475,15.392-5.964-1.068-13.519-.453-17.5,3.99-3.953,4.351-.791,10.68,3.805,13.625-7.217.689-17.639,3.7-13.621,10.62,2.843,4.956,13.889,10.223,20.676,8.017a16.434,16.434,0,0,0,3.87.282c4.684-.282,9.1-2.1,13.737-2.8,5.728-.791,11.439-1.678,17.227-2.39,22.6-2.774,44.839-10.375,67.11-15.17,22.147-4.67,44.506-9.215,67.124-11.161,11.795-.966,23.51-1.475,35.347-1.873,6.14-.134,12.137-.425,18.221.4,2.922.37,5.807,1.475,8.628,1.789a1.347,1.347,0,0,0,.578-.092c.708.527,1.47.994,2.284,1.512,13.034,8.567,25.771,17.579,38.856,26.2,24.028,15.854,49.046,26.359,77.495,31.269,12.308,2.122,24.824,4.207,37.3,4.67,7.878.342,15.715-1.526,19.77-8.822C902.79,313.824,895.61,305.969,885.841,301.383Z" transform="translate(-457.585 -57.538)" fill="#3a896f" opacity="0.7" style="mix-blend-mode: multiply;isolation: isolate"/>
      <path id="패스_867" data-name="패스 867" d="M476.25,290.6a10.745,10.745,0,0,0-4.045,7.467c-.379,4.721,5.913,9.353,10.079,11.3a63.574,63.574,0,0,0,31.43,5.41c-.952,3.759-.356,7.541,3.394,10.287,7.12,5.053,15.461,1.9,23.021-3.616a8.6,8.6,0,0,0,2.409,3.75c5.59,5.118,14.069-1.452,17.995-5.941a19.033,19.033,0,0,0,5.257,8.216c3.44,2.645,5.6,1.239,7-1.771,2.677,4.291,5.886,8.507,9.492,9.057,7.263,1.086,11.013-2.959,12.529-9.853.1-.351.157-.846.292-1.359a45.7,45.7,0,0,0,12.151,7.458c7.938,3.458,10.842-1.429,11.314-8.41.18.157.4.347.629.564a42.32,42.32,0,0,0,8.956,6.889c2.169,1.211,5.816,3.62,8.549,2.76,4.485-1.359,5.16-5.137,3.838-9.649,5.964,4.485,12.238,8.928,19.248,11.212,7.388,2.386,12.747-.407,15.539-6.787,3.7,3.593,8.225,7.051,13.432,6.436a4.614,4.614,0,0,0,4.147-2.843c.194.083.231.3.425.425,3.616,4.425,12.488,12.47,18.971,9.7,5.867-2.534,7.583-9.506,8.017-15.267.12-1.059.222-2.224.328-3.38a46.616,46.616,0,0,0,16,10.893c6.075,2.247,10.583-.388,11.623-5.557,5.451,4.147,12.313,8.516,17.838,8.327,6.755-.134,5.784-5.761,2.395-12.137.49.351,1.087.67,1.6,1.013,7.948,4.795,18.864,11.369,28.495,11.443,8.3.042,10.657-2.622,9.936-6.325,1.969,1.114,3.828,1.96,5.636,2.89,6.4,3.065,25.933,14.4,32.721,7.111,2.756-3.038,2.321-6.649.033-10.5.643.227,1.373.6,2.067.841,11.54,4.244,26.992,12.594,38.028,3.26,8.965-7.624-3.925-27.7-9.275-33.34-5.146-5.511-13.408-14.069-21.966-17.69,7.4-3.856,13.713-9.413,7.4-16.349a24.475,24.475,0,0,0-7.13-5.28c4.161-3.269,8.544-7.8,6.177-12.669-1.4-2.8-4.212-4.6-7.361-5.511.795-.749,1.6-1.489,2.349-2.349,4.665-5.46,15.484-17.32,7.606-24.236-3.3-2.89-7.8-2.76-12.409-1.4a17.59,17.59,0,0,0-3.352-8.225,9.617,9.617,0,0,0-2.108-2.131,32.458,32.458,0,0,0,1.872-4.785c4.073-8.207,6.251-16.9,4.684-25.314-2.252-12.423-12.946-11.8-22.637-7.61a9.215,9.215,0,0,0-2.88-3.079c-3.768-2.682-8.456-2.039-12.692-.106,2.265-6.884,3.727-14.865-.583-19.164-7.421-7.43-21.486,6.024-26.081,10.518-3.148,3.181-6.556,6.713-9.9,10.343v-.018c2.534-6.889,5.091-14.25,5.881-21.666.652-6.066,1.466-17.745-7.6-19.747-3.9-.841-8.017,2.978-11.669,7.948-1.211-4.221-4.1-7.633-9.007-8.507-2.89-.606-5.456.9-7.708,3.449-.435-2.446-.952-4.906-1.6-7.314-1.706-6.376-4.4-12.724-11.318-15.859C720.441,97,712.988,121.2,710.1,136.249a5.106,5.106,0,0,0-3.823-1.609,9.307,9.307,0,0,0-7.208,4.587c-4.369-8.026-11.147-18.24-20.307-17.167-5.317.68-8.771,8.7-9.742,12.655-.592,2.645-1.04,5.391-1.48,8.1a19.187,19.187,0,0,0-7.823-7.162c-6.593-3.033-8.868,4.67-9.487,11.106-8.47-7.943-21.287-16.959-24.713-1.983a28.055,28.055,0,0,0-.162,11.05h-.786a11.18,11.18,0,0,0-5.7,2.862,18.509,18.509,0,0,0-.86-2.418,70.236,70.236,0,0,0-1.632-8.128c-1.47-5.382-3.814-10.782-9.658-13.427-9.46-4.272-15.415,5.437-18.859,16-2.608-2.224-5.872-3.468-9.353-2.094-3.666,1.4-5.456,5.978-6.491,10.463-3.5-5.081-8.151-9.543-13.8-8.868-4.587.624-7.472,7.416-8.267,10.759-.416,1.651-.684,3.3-.943,4.938-3.546-1.221-7.231-.851-9.894,2.635A15.018,15.018,0,0,0,536.753,174c-6.778-6.889-20.579-18.984-23.894-4.489-1.443,6.468.245,12.867,2.543,18.966a2.212,2.212,0,0,0-.3-.148c-4.938-1.308-10.6,1.41-12.3,6.251a23.841,23.841,0,0,0-.985,4.046c-5.206-1.184-10.1-.814-11.18,4.11-1.387,6.32,2.737,12.368,6.269,17.653,1.271,1.97,2.654,3.93,4.1,5.807-8.211-4.161-17.671-7.314-22.942-1.951-8.3,8.424,3.921,26.622,10.25,32.429.874.8,1.822,1.6,2.788,2.538-10.523-1.554-19.581-.6-16.353,8.332a28.752,28.752,0,0,0,1.331,3.079,10.654,10.654,0,0,0,4.6,6.2.644.644,0,0,1,.328.227c-3.935-.227-9.612.046-10.213,4.046C470.221,284.8,472.917,288.136,476.25,290.6Z" transform="translate(-449.491 -49.585)" fill="#84d3a4"/>
      <path id="패스_868" data-name="패스 868" d="M795.742,222a27.081,27.081,0,0,0-12.16,2.349c4.453-5.086,7.328-11.36,3.824-16.418-2.857-4.036-9.118-2.33-14.485.929,1.919-4.281,2.58-8.984.485-11.434-2.15-2.538-7.675,1.336-9.33,2.672a15.765,15.765,0,0,0-2.9,2.612c1.72-9.6.786-20.843-3.934-19.983a13.594,13.594,0,0,0-7.143,3.754,44.383,44.383,0,0,0-3.675-17.565c-4.185-9.307-13.358-9.922-21.014-4.785a20.8,20.8,0,0,0-7,8.355c-1.91,3.856-1.47,7.855-1.47,11.845-1.591-3.149-4.051-6.14-7.9-4.443a24.974,24.974,0,0,0-8.35,6.316c1.845-5.178,2.561-10.592.25-15.9-2.164-4.956-8.013-4.633-12.881-3.107,1.073-1.623,2.229-3.287,3.213-4.956,1.826-3.195,4.614-11.785-1.831-12.46a17.223,17.223,0,0,0-8.817,1.563,26.6,26.6,0,0,0,5.345-13.908c.43-4.046-.749-10.893-6.348-10.3-6.926.74-15.78,6.385-21.282,13.14,1.184-8.3-.8-17.292-10.269-16.039-5.613.767-10.666,7.227-13.69,11.323-1.064,1.572-2.1,3.089-2.973,4.67-.564-13.76-4.249-27.505-17.015-27.695-8.581-.074-14.522,8.641-17.759,15.443-2.589,5.428-3.005,11.415-3.26,17.264-.046.786-.046,1.535-.148,2.321-3.408-11.758-10.1-24.851-21.088-21.837-6.722,1.78-10.13,5.807-11.957,12.354a37.794,37.794,0,0,0-1.285,9.205,92.913,92.913,0,0,0-5.04-7.994c-3.32-4.508-9.756-11.161-15.979-8.526-8.6,3.606-6.792,19.988-3.778,29.937-3.986-4.517-8.424-8.271-14.767-9.256a12.1,12.1,0,0,0-12.747,5.285c-3.435,5.724-.194,16.668,2.7,21.934a41.363,41.363,0,0,0,4.208,6.168c-4.1-.939-8.466-.717-11.309,2.15-5.035,5.007-2.737,13.117.143,18.79.7,1.345,1.521,2.575,2.335,3.875a20.306,20.306,0,0,0-5.909-.319c-4.67.472-10.815,2.746-12.9,7.342-3.824,8.23,1.909,13.755,10.079,17.26-6.44,3.338-15.706,9.284-14.892,17.149,1.142,10.338,13.293,13.237,21.86,13.917,2.071.051,4.226.2,6.38.222A25.246,25.246,0,0,0,500.9,271.7c-3.63,4.864,8.4,7.134,10.324,7.287,8.521.832,17.431-3.768,25.046-6.847a136.6,136.6,0,0,0,19.571-9.7c9.118,2.349,18.559,2.663,27.9,3.324,11.022.9,22.036,2.085,33.044,3.052q33.65,2.691,67.48,4.873c10.444.68,20.922,1.475,31.38,2.205,5.368.324,11.679,1.165,17.546,1.165,4.314,3.9,11.365,5.807,16.317,7.032,10.5,2.746,21.06,4.452,31.745,2.113,2.894-.675,7.467-4.587,4.781-7.934a7.885,7.885,0,0,0-3.38-2.053c3.338-1.6,6-4.152,5.858-7.185-.153-4.716-2.973-7.8-6.713-9.529,12.262-3.6,24.519-13.538,27.149-24.357C811.12,226.191,803.209,222.45,795.742,222Z" transform="translate(-412.26 -13.754)" fill="#38a57e" opacity="0.7" style="mix-blend-mode: multiply;isolation: isolate"/>
      <path id="패스_869" data-name="패스 869" d="M766.171,276.664c-1.66-1-3.315-1.9-4.957-2.816a25.846,25.846,0,0,0,3.671-.758c3.985-1.184,13.408-3.828,9.344-9.21-2.6-3.371-7.263-4.952-11.619-5.918a33.554,33.554,0,0,0,9.751-6.417c2.436-2.441,7.943-7.606,4.526-11.18-3.509-3.486-10.888.786-14.167,2.344-.333.166-.721.291-1.1.5,3.361-3.343,6.968-7.541,8.35-11.124,2.2-3.74,3.579-7.721,3.153-11.758-.846-8.373-10.463-5.248-15.678-1.97a52.311,52.311,0,0,0-6.8,4.966,48.081,48.081,0,0,0,2.959-5.373c1.406-2.982,5.22-9.853,2.4-13.228-3.246-3.676-10.329,2.039-12.618,4.018-1.66,1.392-3.352,2.9-5.1,4.531a42.063,42.063,0,0,0,3.583-9.987c.559-2.862,1.378-8.327-2.83-9.635-4.055-1.23-9.668,8.7-10.851,10.925-.851,1.447-1.5,2.867-2.284,4.392.07-1.013.12-2,.143-2.964.153-3.061.708-7.513-.314-10.99-.125-1.48-.31-3.015-.568-4.5-.606-3.061-1.637-6.186-4.767-7.971-8.8-4.785-13.464,14.393-14.245,18.619-.277,1.868-.62,3.75-.846,5.6-.657-2.039-1.405-3.99-2.265-6.024-1.5-3.574-4.545-11.966-10.093-11.665-2.543.134-4.513,3.722-5.035,5.544a36.6,36.6,0,0,0-1.789,9.113,14.271,14.271,0,0,0-4.027.324c-.356-.55-.726-1.11-1.128-1.706a42.071,42.071,0,0,0-3.407-3.856,32.64,32.64,0,0,0,2.848-5.275c3.3-5.6,5.363-11.6,4.739-17.7-1.281-12.516-15.794-7.791-23.557-2.9a96.061,96.061,0,0,0-10.214,7.5,76.713,76.713,0,0,0,4.453-8.045c2.178-4.577,7.883-14.846,3.6-19.858-4.832-5.668-15.5,2.936-19.021,5.987-2.432,2.113-5.026,4.351-7.56,6.746V164.9c2.15-4.767,4.36-9.806,5.317-14.943.888-4.318,2.094-12.488-4.245-14.448-6.052-1.8-14.448,13.14-16.266,16.427-1.193,2.122-2.335,4.286-3.458,6.5.1-1.475.18-2.945.227-4.406.167-4.573,1.128-11.263-.481-16.474-.2-2.284-.486-4.587-.888-6.9-.842-4.55-2.432-9.2-7.088-11.776-13.237-7.259-20.292,21.439-21.43,27.912-.481,2.82-.9,5.692-1.341,8.48q-1.415-4.591-3.324-9.192c-2.307-5.409-6.833-17.935-15.151-17.509-3.833.217-6.718,5.636-7.606,8.345a57.831,57.831,0,0,0-2.714,14,98.673,98.673,0,0,0,.092,10.537,66.212,66.212,0,0,0-7.763-12.812c-4.263-5.539-16.788-20.158-20.935-7.092-1.729,5.636-.481,11.471,1.225,17.139,1.54,5.114,3.422,10.315,5.322,15.415-.874-.569-1.752-1.063-2.742-1.623-1.3-.911-2.714-1.78-4.189-2.626-4.064-2.242-17.782-10.172-20.218-2.242-1.558,5.211,1.461,10.468,4.027,15.119A120.975,120.975,0,0,0,520.912,199.8c-5.188-2.511-25.254-11.531-24.583-1.516.277,4.217,2.9,8.017,5.978,11.494.92,2.954,4,5.373,7.111,7.388.652.615,1.336,1.318,2.007,1.859a59.476,59.476,0,0,0-13.834-1.073c-2.469.171-9.21,1.119-9.007,4.522.24,4.032,3.408,6.26,7.023,8.281,2.006,1.248,4.147,2.395,6.33,3.486a46.6,46.6,0,0,0-5.849,1.563c-5.544,1.836-11.549,3.8-12.479,9.737-.615,3.838,4.3,8.128,7.6,9.987a51.422,51.422,0,0,0,19.326,6.177c-4.494,4.244-8.623,9.312-9.39,14.448-1.9,12.641,18.531,6.445,24.607,3.25a59.8,59.8,0,0,0,6.01-3.593c-1.5,4.813-1.618,10.962,5.669,11.05,8.595.056,15.627-6.556,20.7-12.127,1.258,8.013,4.73,19.6,14.153,19.354,5.534-.153,9.233-3.551,11.776-7.633,3.981,10.352,10.579,18.406,19.493,12.446,4.54-3.019,5.664-8.452,5.719-13.834,3.888,4.693,10.01,9.807,15.817,8.2,5.548-1.4,7.208-5.308,7.282-9.608.837.666,1.739,1.271,2.548,1.9,5.729,4.1,12.558,7.638,19.349,6.593,4.046.693,10.218-1.382,12.756-2.691a35.028,35.028,0,0,0,3.99-2.45c-.98,3.264-1.077,7.388,3.805,7.388,5.673.092,10.394-4.369,13.806-7.976.768,5.257,3.116,12.923,9.377,12.77,3.7-.079,6.135-2.372,7.832-5.049,2.668,6.847,7.065,12.22,12.974,8.281,3.005-2.048,3.759-5.6,3.842-9.2,2.571,3.052,6.667,6.468,10.491,5.474,3.7-1.012,4.8-3.5,4.855-6.4.532.453,1.147.8,1.683,1.262,4.975,3.514,11.161,6.468,16.917,3.019a5.9,5.9,0,0,0,2.816-5.932c4.767,1.849,12.465,4.124,14.781-1.336C776.079,284.81,769.971,278.911,766.171,276.664Z" transform="translate(-402.954 5.029)" fill="#55b783"/>
    </g>
    <path id="패스_870" data-name="패스 870" d="M603.344,162.879a45.659,45.659,0,0,0-9.312,2.839c4.027-5.4,6.075-11.009.555-13.935-4.526-2.386-10.421.6-14.416,3.269.023-9.192-4.748-19.137-13.57-22.105-6.662-2.224-14.582,3.139-18.309,8.244a33.529,33.529,0,0,0-4.744,10.421,11.558,11.558,0,0,0-6.533-2.113,15.982,15.982,0,0,0-13.621,6.871c-4.216,6.81-4.184,17.611-.023,25.161a13.958,13.958,0,0,0-4.744,2.816c-4.735,3.972-5.553,9.219-2.423,14.333,3.338,5.678,10.153,7.449,17.218,6.917a10.983,10.983,0,0,0-.074,2.039c.68,7.028,6.935,8.868,13.117,7.957,5.312-.767,13.551-5.285,19.437-10.944,2.677,6.7,11.564,11.369,18.129,10.824,6.778-.629,12.516-3.727,15.281-10.149a12.633,12.633,0,0,0,.1-8.378,51.661,51.661,0,0,0,13.625-2.178c9.289-2.746,15.937-9.672,16.4-19.479C630.178,162.07,612.184,161.311,603.344,162.879Z" transform="translate(174.718 149.504)" fill="#2fba67" opacity="0.5" style="mix-blend-mode: multiply;isolation: isolate"/>
    <g id="그룹_535" data-name="그룹 535" transform="translate(586.032 236.004)">
      <g id="그룹_534" data-name="그룹 534" opacity="0.5">
        <path id="패스_871" data-name="패스 871" d="M580.973,172.353c8.058-3.865,15.271-11.9,14.421-19.091-1.008-9.011-9.733-8.327-16.5-5.96a29.136,29.136,0,0,0-4.526,2.159c1.489-5.664-.315-10.241-9.219-10.639-5.3-.245-10,2.414-14.171,5.534,1.54-5.137,2.229-10.366-.758-15.424-3.019-5.234-8.105-8.72-13.63-4.674-6.639,4.73-9.6,12.206-10.44,20.191-2.913-3.592-6.667-4.929-10.685.661-3.394,4.711-1.655,11.448-.231,16.441.259.767.527,1.581.837,2.455-8.48-1.688-18.036.661-22.41,8.373-3.241,5.752-1.484,15.567,4.466,19.007a27.877,27.877,0,0,0,8.124,3.241,77.012,77.012,0,0,0-6.565,5.53c-6.283,5.733-8.419,14.675-3.828,21.98,5.446,8.7,18.17,4.106,25.082.305a43.855,43.855,0,0,0,4.133-2.52c-.675,2.991.051,5,3.814,3.629a37.8,37.8,0,0,0,13.3-9.238,19.3,19.3,0,0,0,0,2.839c.966,8.7,9.816,11.929,17.472,10.047,6.861-1.651,10-10.093,11.429-16.071a33.084,33.084,0,0,0-.712-16.085c6.612,3.163,14.569,3.777,19.932-.6C599.148,187.5,590.081,177.545,580.973,172.353Z" transform="translate(-492.058 -122.495)" fill="#84d3a4" style="mix-blend-mode: multiply;isolation: isolate"/>
      </g>
      <path id="패스_872" data-name="패스 872" d="M576.6,171.074c5.363-3.555,9.742-9.02,9.547-15.655-.273-10.731-13.348-6.394-21.259.448,2.437-8.678,1.937-19.081-9.113-15.683-4.06,1.253-7.546,4.5-10.283,7.989a60.087,60.087,0,0,0-1.8-16.686c-1.258-4.526-5.84-10.223-10.593-6.357-6.219,4.919-6.819,15.387-6.819,22.558.014,1.6.1,3.3.291,5.109-3.38-5.437-7.9-10.6-11.013-5.562-3.542,5.724-.925,13.736,3.472,19.544a22.242,22.242,0,0,0-14.532-.726c-5.4,1.517-11.859,4.328-11.466,10.893.361,6.283,9.857,9.326,14.472,11.17a22.179,22.179,0,0,0,5.964,1.308c-1.785,1.137-3.468,2.395-4.97,3.5-5.336,4.073-16.811,12.326-15.757,20.307,1.914,14.324,21.125,8.826,32.253.536a7.828,7.828,0,0,0-.092,2.682.655.655,0,0,0,.217.217c3.971,1.651,9.455-4.1,11.891-6.593,1.175-1.147,2.543-2.548,3.889-4.1a27.679,27.679,0,0,0,2.418,6.269c2.326,4.207,8.942,9.931,13.741,5.534,7.9-7.264,8.415-19.289,5.012-29.692,5.155,3.269,11.11,4.425,15.609.1C583.773,182.383,581.646,176.239,576.6,171.074Z" transform="translate(-489.846 -117.587)" fill="#84d3a4"/>
    </g>
    <path id="패스_873" data-name="패스 873" d="M603.579,164.886a48.134,48.134,0,0,0-22.109,6.3c5.349-7.19,10.63-16.978,2.991-16.381-5.516.351-10.162,5.22-13.764,9.834,1.757-6.519,2.446-13.094.985-19.738-2.048-9.113-12.714-16.663-20.6-8.96A45.393,45.393,0,0,0,540.26,154.6c-3.093-3-6.843-4.281-11.272-2.358-5.867,2.668-8.739,8.3-9.413,14.467-.555,5.493,2.136,10.306,5.493,14.731a6.464,6.464,0,0,0-5.234.541c-4.027,2.205-6.122,5.382-4.161,9.8,2.229,5.1,9.118,6.658,14.014,7.56a12.435,12.435,0,0,0,3.657,0c-1.928,4.055-1.928,7.883,2.127,10.449,5.327,3.347,13.542-.929,17.791-4.157,3.717-2.788,7.3-5.978,9.663-9.867.222,4.513,1.627,8.669,6.306,11.628,5.068,3.389,11.758,3.042,17.144.749,7.592-3.338,7.7-9.247,4.739-14.555a75.191,75.191,0,0,0,12.719-1.013c7.509-1.225,15.1-6.066,17.181-13.672C623.867,168.317,611.43,164.534,603.579,164.886Z" transform="translate(176.845 150.687)" fill="#84d3a4"/>
  </g>
</svg>
