<svg xmlns="http://www.w3.org/2000/svg" width="54.969" height="53.338" viewBox="0 0 54.969 53.338">
  <path id="패스_202" data-name="패스 202" d="M-79.569-211.811a14.906,14.906,0,0,0,5.7-11.732A14.937,14.937,0,0,0-88.809-238.48a14.921,14.921,0,0,0-12.547,6.837A14.921,14.921,0,0,0-113.9-238.48a14.937,14.937,0,0,0-14.937,14.937,14.907,14.907,0,0,0,5.7,11.732,14.907,14.907,0,0,0-5.7,11.732A14.937,14.937,0,0,0-113.9-185.142a14.921,14.921,0,0,0,12.547-6.837,14.921,14.921,0,0,0,12.547,6.837,14.937,14.937,0,0,0,14.937-14.937A14.906,14.906,0,0,0-79.569-211.811Z" transform="translate(128.841 238.48)" fill="#63b79c"/>
</svg>
