<svg xmlns="http://www.w3.org/2000/svg" width="491.303" height="310.323" viewBox="0 0 491.303 310.323">
  <g id="그룹_774" data-name="그룹 774" transform="translate(-468.697 -2621.677)">
    <path id="패스_774" data-name="패스 774" d="M-2074.7,1131.278a47.563,47.563,0,0,0-14.489-34.266,47.561,47.561,0,0,0,14.489-34.266,47.4,47.4,0,0,0-47.241-47.552,46.918,46.918,0,0,0-32.652,13.188,46.92,46.92,0,0,0-32.652-13.188,46.919,46.919,0,0,0-32.652,13.188,46.919,46.919,0,0,0-32.652-13.188,46.919,46.919,0,0,0-32.652,13.188,46.919,46.919,0,0,0-32.652-13.188,46.918,46.918,0,0,0-32.652,13.188,46.919,46.919,0,0,0-32.652-13.188,46.919,46.919,0,0,0-32.652,13.188,46.918,46.918,0,0,0-32.652-13.188,46.919,46.919,0,0,0-32.652,13.188,46.919,46.919,0,0,0-32.652-13.188A47.4,47.4,0,0,0-2561,1062.746a47.561,47.561,0,0,0,14.489,34.266A47.563,47.563,0,0,0-2561,1131.278a47.561,47.561,0,0,0,14.489,34.266A47.563,47.563,0,0,0-2561,1199.809a47.561,47.561,0,0,0,14.489,34.266A47.562,47.562,0,0,0-2561,1268.34a47.4,47.4,0,0,0,47.241,47.552,46.92,46.92,0,0,0,32.652-13.188,46.92,46.92,0,0,0,32.652,13.188,46.919,46.919,0,0,0,32.652-13.188,46.92,46.92,0,0,0,32.652,13.188,46.921,46.921,0,0,0,32.652-13.188,46.919,46.919,0,0,0,32.652,13.188,46.92,46.92,0,0,0,32.652-13.188,46.92,46.92,0,0,0,32.652,13.188,46.92,46.92,0,0,0,32.652-13.188,46.92,46.92,0,0,0,32.652,13.188,46.921,46.921,0,0,0,32.652-13.188,46.919,46.919,0,0,0,32.652,13.188,47.4,47.4,0,0,0,47.241-47.552,47.563,47.563,0,0,0-14.489-34.266,47.562,47.562,0,0,0,14.489-34.266,47.563,47.563,0,0,0-14.489-34.266A47.562,47.562,0,0,0-2074.7,1131.278Z" transform="translate(3034.697 1616.107)" fill="#292447"/>
    <path id="패스_763" data-name="패스 763" d="M-2074.7,1131.278a47.563,47.563,0,0,0-14.489-34.266,47.561,47.561,0,0,0,14.489-34.266,47.4,47.4,0,0,0-47.241-47.552,46.918,46.918,0,0,0-32.652,13.188,46.92,46.92,0,0,0-32.652-13.188,46.919,46.919,0,0,0-32.652,13.188,46.919,46.919,0,0,0-32.652-13.188,46.919,46.919,0,0,0-32.652,13.188,46.919,46.919,0,0,0-32.652-13.188,46.918,46.918,0,0,0-32.652,13.188,46.919,46.919,0,0,0-32.652-13.188,46.919,46.919,0,0,0-32.652,13.188,46.918,46.918,0,0,0-32.652-13.188,46.919,46.919,0,0,0-32.652,13.188,46.919,46.919,0,0,0-32.652-13.188A47.4,47.4,0,0,0-2561,1062.746a47.561,47.561,0,0,0,14.489,34.266A47.563,47.563,0,0,0-2561,1131.278a47.561,47.561,0,0,0,14.489,34.266A47.563,47.563,0,0,0-2561,1199.809a47.561,47.561,0,0,0,14.489,34.266A47.562,47.562,0,0,0-2561,1268.34a47.4,47.4,0,0,0,47.241,47.552,46.92,46.92,0,0,0,32.652-13.188,46.92,46.92,0,0,0,32.652,13.188,46.919,46.919,0,0,0,32.652-13.188,46.92,46.92,0,0,0,32.652,13.188,46.921,46.921,0,0,0,32.652-13.188,46.919,46.919,0,0,0,32.652,13.188,46.92,46.92,0,0,0,32.652-13.188,46.92,46.92,0,0,0,32.652,13.188,46.92,46.92,0,0,0,32.652-13.188,46.92,46.92,0,0,0,32.652,13.188,46.921,46.921,0,0,0,32.652-13.188,46.919,46.919,0,0,0,32.652,13.188,47.4,47.4,0,0,0,47.241-47.552,47.563,47.563,0,0,0-14.489-34.266,47.562,47.562,0,0,0,14.489-34.266,47.563,47.563,0,0,0-14.489-34.266A47.562,47.562,0,0,0-2074.7,1131.278Z" transform="translate(3029.697 1606.482)" fill="#fff8ee"/>
  </g>
</svg>
