<svg id="Layer_1" data-name="Layer 1" xmlns="http://www.w3.org/2000/svg" viewBox="0 0 339.2 536.8"><title>toto</title><circle cx="253.1" cy="372.6" r="18.2" fill="#f8f3ea" stroke="#292447" stroke-linecap="round" stroke-linejoin="round" stroke-width="8.36"/><path d="M333.1,325.9a41.6,41.6,0,0,1-5.3,18.9,42.5,42.5,0,0,1-13,14,187.6,187.6,0,0,1-17.7,7.7c-9.9,3.6-14.9,5.4-20.5,4.6s-5.7-2.4-10.6-2.4a25.7,25.7,0,0,0-13.6,4c-.4.3-10.8,7.4-10.7,19.9,0,1.8,0,9.8,6.1,15.3,3.8,3.5,8,4.3,11.6,4.9s12.3,2.1,20-3.8a20.7,20.7,0,0,0,5.3-6,34.6,34.6,0,0,0,30-.1,93.8,93.8,0,0,0,14.6-7.6,88.1,88.1,0,0,0,11.5-8.5,268.1,268.1,0,0,0,12.9,32c4.2,8.6,7.6,14.7,8.5,16l15.9,23.1,7.9,7.5-21.2,41.5c-1.5-.3-15.5-2.4-22.2,5.9s.2,25.6,7.2,33.5c9.7,10.9,23.1,12.3,26.8,12.5a33.8,33.8,0,0,0,12.1-1.4c6.9-2.1,19.4-8.1,39.9-51.7,10.2-21.9,19.3-46.4,19.3-46.4,2.2.3,5.5.8,9.6,1.6,16.5,3.5,18.5,7.9,31.4,10.2,10.9,2,15.1-.1,18.6,4s1.8,7.4,6.2,11.3a16.2,16.2,0,0,0,8.1,3.7,21.4,21.4,0,0,0,14.2-2.3,36.8,36.8,0,0,0,6.6-6.6c2-2.4,9.6-12.2,9.3-25.7a26.6,26.6,0,0,0-2.5-11.3c-1-1.9-3.6-7.3-9-9.3a14.6,14.6,0,0,0-7.9-.4c-11.7,2.2-35-9.2-49.7-19.7s-24.2-18-30-32.3c-4.1-10-4.2-18.9-13.2-32a97.8,97.8,0,0,0-6.7-8.5c-6.4-7.8-14.3-20.5-19.2-41.8Z" transform="translate(-216.8 -26.2)" fill="#f8f3ea" stroke="#292447" stroke-linecap="round" stroke-linejoin="round" stroke-width="8.36"/><ellipse cx="406.1" cy="408.4" rx="31.6" ry="44.5" transform="translate(-373.2 258.5) rotate(-32.8)" fill="#fb9fbc"/><path d="M428.9,303.9a186.5,186.5,0,0,1,24.7,24.6c11.5,13.6,15,21.4,16.2,24.3,2.7,6.4,6.1,14.7,4.1,25a35.3,35.3,0,0,1-5,12.3,32.7,32.7,0,0,1-8.8,6.8,34.6,34.6,0,0,1-11.2,4,26.9,26.9,0,0,1-10.6-.6,29.6,29.6,0,0,1-8.1-3.7,21.4,21.4,0,0,1-18.4,10.9c-8.3,0-16.6-5.2-19.4-13.6-3.3-10.1,3.5-18.4,3.9-18.9s5.8-6.7,13.9-7.2c6-.3,8.5,2.8,14.1,1.1,1.2-.4,3.4-1.2,6.9-2.2a37.1,37.1,0,0,1,4.5-1.1l2.7-.6-22.2-23.8L402.9,331c-18.3-11.1-18.4-16.8-17.9-18.8C387.3,302.6,421.7,303.6,428.9,303.9Z" transform="translate(-216.8 -26.2)" fill="#f8f3ea" stroke="#292447" stroke-linecap="round" stroke-linejoin="round" stroke-width="8.36"/><path d="M399.3,335.2l3.9-2.2,6.3-3.4,21.3,14.6c-.8.6-2.2,1.6-3.6,1.2s-1.1-.6-2.4-2a39.2,39.2,0,0,0-3.4-3.5c-.9-.6-2.7-1.9-4.8-1.5a4.3,4.3,0,0,0-3.1,2.5c-1.3,3.2,3.2,7.1,2.5,8s-3.3-.3-12.5-6.2Z" transform="translate(-216.8 -26.2)" fill="#f8f3ea"/><path d="M438.5,417" transform="translate(-216.8 -26.2)" fill="#f8f3ea" stroke="#f37" stroke-miterlimit="10" stroke-width="1.15"/><ellipse cx="368.5" cy="536.5" rx="12.9" ry="20.4" transform="matrix(0.57, -0.82, 0.82, 0.57, -499.2, 510.15)" fill="#e2d4c0"/><path d="M291,210.4c-4.9-20.1-10-54.6,1.4-93.3,12.9-43.8,47.1-91.7,67.3-86.3s23.6,57.2,17.4,93.4c-6.9,40.4-28.3,68.5-40.9,82.5Z" transform="translate(-216.8 -26.2)" fill="#f8f3ea" stroke="#292447" stroke-linecap="round" stroke-linejoin="round" stroke-width="8.36"/><ellipse cx="336.9" cy="253.8" rx="107.5" ry="96.9" transform="translate(-252.7 30.3) rotate(-9.1)" fill="#f8f3ea" stroke="#292447" stroke-linecap="round" stroke-linejoin="round" stroke-width="8.36"/><path d="M340.9,272.6c-.1,0-1.4-5.6-.4-13.2a33.1,33.1,0,0,1,2.7-9.9,26.4,26.4,0,0,1,4.8-7.1,24.7,24.7,0,0,1,7.5-5.1,33.4,33.4,0,0,0-7.2,14.2c-2.5,11.2.7,25.8,10.3,31.4a20.2,20.2,0,0,0,9.5,2.5,19.9,19.9,0,0,0,12.2-5,19.3,19.3,0,0,0,6.4-12.8l-12.3-3.7,12.5-5.2a31.1,31.1,0,0,0-6.1-18.2,22.1,22.1,0,0,0-19.2-9.3,25.6,25.6,0,0,0-19.2,10.6c-8.5,12.2-1.4,30.8-1.5,30.8" transform="translate(-216.8 -26.2)" fill="#292447"/><path d="M258.4,282.5c-.1,0-1.4-5.6-.4-13.2a33.1,33.1,0,0,1,2.7-9.8,26.4,26.4,0,0,1,4.8-7.1,25.4,25.4,0,0,1,7.5-5.2,34.5,34.5,0,0,0-7.2,14.2c-2.5,11.3.7,25.9,10.3,31.4a18.3,18.3,0,0,0,21.7-2.4,19.5,19.5,0,0,0,6.4-12.9l-12.3-3.6,12.5-5.3a31.1,31.1,0,0,0-6.1-18.1,23.2,23.2,0,0,0-10.2-8,22.3,22.3,0,0,0-9-1.4,25.7,25.7,0,0,0-19.2,10.7c-8.5,12.2-1.4,30.7-1.5,30.7" transform="translate(-216.8 -26.2)" fill="#292447"/><path d="M325.5,293.9c.5,3.1-2.7,6.3-7.2,7s-8.6-1.2-9.1-4.4,2.8-6.2,7.3-6.9,8.5,1.2,9,4.3" transform="translate(-216.8 -26.2)" fill="#292447"/><path d="M304.3,310.3a6.6,6.6,0,0,0-.7,3.8,7.2,7.2,0,0,0,1.1,3.1,8.1,8.1,0,0,0,2,2.1,4.1,4.1,0,0,0,1.9.4,12.7,12.7,0,0,0,5.2-1.7,22.5,22.5,0,0,0,5.1-3.8l2.4-2.2,3.4,1.6a22.9,22.9,0,0,0,4.6,1.7,27,27,0,0,0,4.8.9,26.1,26.1,0,0,0,9.6-.8l1.4-.5a27,27,0,0,0,7.8-4.2,42,42,0,0,0,8.3-8.5l.6.3a33.9,33.9,0,0,1-6.1,11.2,28.3,28.3,0,0,1-9.9,7.3,25.4,25.4,0,0,1-11.9,2,26.8,26.8,0,0,1-11.8-3.5h.7a22.9,22.9,0,0,1-7,4.2,12.6,12.6,0,0,1-8.1.7,6.7,6.7,0,0,1-3.7-2.3,10.5,10.5,0,0,1-2.3-8.6,7.7,7.7,0,0,1,2.2-3.7Z" transform="translate(-216.8 -26.2)" fill="#292447"/><path d="M347.1,314.6a21.2,21.2,0,0,1-5-7.1c-1-2.3-3.3-7.8-.7-13.2a11.3,11.3,0,0,1,6.8-6,11,11,0,0,1,7.6.7,12.2,12.2,0,0,1,6,8.6C362.7,303.8,356.9,311.3,347.1,314.6Z" transform="translate(-216.8 -26.2)" fill="#fb9fbc" stroke="#292447" stroke-linecap="round" stroke-linejoin="round" stroke-width="6.05"/><path d="M350.1,298.7a25.2,25.2,0,0,1,1.5,3.3l1.3,3.3a10.4,10.4,0,0,1,1.1,3.4v1.8a8.2,8.2,0,0,1-.6,1.9h-.3a5.8,5.8,0,0,1-1.3-1.5,6.5,6.5,0,0,1-.9-1.6,10.2,10.2,0,0,1-.5-3.5c-.1-1.2-.3-2.4-.4-3.6s-.1-2.4-.2-3.6Z" transform="translate(-216.8 -26.2)" fill="#292447"/><path d="M337.1,175.5c4.5-20.1,15.1-53.4,42.4-83.1,30.8-33.6,82.6-61.6,98.3-47.9s-4,61.7-25.4,91.5c-24,33.2-55.6,49-73,56.1Z" transform="translate(-216.8 -26.2)" fill="#f8f3ea" stroke="#292447" stroke-linecap="round" stroke-linejoin="round" stroke-width="8.36"/><path d="M326.1,162.5a149.8,149.8,0,0,1,16.9-2.1l8.9-.3c3.3,1.6,7.2,3.3,11.6,5.1a150.9,150.9,0,0,0,14.3,5.4c8.4,2.6,11.7,2.5,19,5.8,1.9.9,3.2,1.5,5.1,2.6s3.2,2.1,12.5,11.5a20.3,20.3,0,0,1,2.9,3.8,15.1,15.1,0,0,1,1.8,4.7c.7,4.8-12.9,11.8-18.4,13.9-25.6,9.6-101.6-3.9-116.8-6.7Z" transform="translate(-216.8 -26.2)" fill="#f8f3ea"/><path d="M360.1,249.6l4.1,5.7h6.9l-4.1,5.5,7.1,8.5-11.5-4.1-5,2.5-.4-5.3-5.7-4,6.6-2.1Z" transform="translate(-216.8 -26.2)" fill="#f8f3ea"/><path d="M276.8,255l4,5.6h7l-4.2,5.6c2.4,2.8,4.8,5.6,7.1,8.5l-11.4-4.2-5,2.5-.5-5.2-5.6-4,6.6-2.1Z" transform="translate(-216.8 -26.2)" fill="#f8f3ea"/><path d="M368.2,160.5A163,163,0,0,1,427.5,80c15.5-9.3,21.4-9.4,23.8-7.2,6.8,6.2-11,36.5-21,51.1a205.1,205.1,0,0,1-42.9,45.7,21.3,21.3,0,0,0-7-6.5A20.6,20.6,0,0,0,368.2,160.5Z" transform="translate(-216.8 -26.2)" fill="#fb9fbc"/><ellipse cx="393.7" cy="288.1" rx="15.8" ry="6.6" transform="translate(-257.4 39.7) rotate(-9.1)" fill="#fb9fbc"/><path d="M216.8,307.6a26.3,26.3,0,0,1,5.7-10.3,22.5,22.5,0,0,1,4.6-4.1,20.4,20.4,0,0,1,5.7-2.9,26.2,26.2,0,0,1,6.4-1.7,12.9,12.9,0,0,1,3.4,0,11.6,11.6,0,0,1,3.2.8,17.1,17.1,0,0,1,5.6,3.5,11.8,11.8,0,0,1,3.5,5.5c0,.3-.1.6-.4.6h-.2l-5.7-.9-4.9-.6-4.5-.6-1.1-.2h-1.2a19.3,19.3,0,0,0-2.4.1,25.2,25.2,0,0,0-4.7,1.3,19.5,19.5,0,0,0-4.5,2.4,27.8,27.8,0,0,0-7.7,7.6h0c-.1.2-.4.2-.6.1S216.8,307.8,216.8,307.6Z" transform="translate(-216.8 -26.2)" fill="#292447"/><path d="M226.3,319.5a24.3,24.3,0,0,1,5.2-8.7,44,44,0,0,1,3.9-3.5,27.7,27.7,0,0,1,4.8-2.6l1.3-.5,1.3-.5,2.8-.8a11.4,11.4,0,0,1,5.8.3,12.8,12.8,0,0,1,5,3.1,10.1,10.1,0,0,1,2.9,5.1c0,.3-.2.6-.4.6h-.3a82.5,82.5,0,0,0-8.9-.6,22.3,22.3,0,0,1-3.6-.2l-1-.2h-3c-5.4.9-10.8,4.1-15.1,8.8h0a.4.4,0,0,1-.6,0C226.3,319.8,226.2,319.6,226.3,319.5Z" transform="translate(-216.8 -26.2)" fill="#292447"/></svg>