<svg id="그룹_473" data-name="그룹 473" xmlns="http://www.w3.org/2000/svg" width="279.899" height="274.225" viewBox="0 0 279.899 274.225">
  <g id="그룹_435" data-name="그룹 435" transform="translate(0 0)">
    <path id="패스_558" data-name="패스 558" d="M-582.126,149.8l-1.757.559a8.218,8.218,0,0,0,.752-1.7,5.856,5.856,0,0,0,.347-1.657l.126-1.387-7.633-8.513,2.846-.906,5.087,6,.7-7.841.955-.3Z" transform="translate(684.255 -129.14)" fill="#fff"/>
    <path id="패스_559" data-name="패스 559" d="M-564.707,138.011a5.092,5.092,0,0,0,.667,1.752,3.18,3.18,0,0,0,.888.9l-3.66.814-.514-2.31a4.173,4.173,0,0,1-.918,2.012,2.944,2.944,0,0,1-1.713.935,3.612,3.612,0,0,1-3.4-.835,7.8,7.8,0,0,1-1.729-3.754l-1.045-4.7,2.662-.591,1.045,4.7a6.929,6.929,0,0,0,1.205,2.834,1.773,1.773,0,0,0,1.853.758,1.9,1.9,0,0,0,.437-.158,2.014,2.014,0,0,0,1-1.445,6.5,6.5,0,0,0-.115-2.963l-1.045-4.7,2.741-.609Z" transform="translate(681.125 -128.388)" fill="#fff"/>
    <path id="패스_560" data-name="패스 560" d="M-558.677,130.1a3.485,3.485,0,0,0-.792-1.033l3.753-.354.156,1.657a4.067,4.067,0,0,1,1.2-1.382,3.111,3.111,0,0,1,1.518-.566,3.642,3.642,0,0,1,2.215.536,4.991,4.991,0,0,1,1.793,1.825,4.514,4.514,0,0,1,1.338-2.15,3.586,3.586,0,0,1,1.987-.822,4.716,4.716,0,0,1,.764-.011,3.378,3.378,0,0,1,2.735,1.565,7.67,7.67,0,0,1,1.2,3.643l.451,4.791-2.715.256-.451-4.791a7.184,7.184,0,0,0-.875-3.089,1.877,1.877,0,0,0-1.866-1,1.792,1.792,0,0,0-1.439,1.081,5.735,5.735,0,0,0-.326,3.072l.485,5.15-2.715.256-.451-4.791a7.391,7.391,0,0,0-.517-2.177,3.79,3.79,0,0,0-1-1.466,1.67,1.67,0,0,0-1.26-.445,1.757,1.757,0,0,0-1.408,1.078,5.817,5.817,0,0,0-.316,3.072l.485,5.15-2.8.263-.708-7.526A4.944,4.944,0,0,0-558.677,130.1Z" transform="translate(677.443 -127.756)" fill="#fff"/>
    <path id="패스_561" data-name="패스 561" d="M-530.414,142.4l-1.844-.039A8.276,8.276,0,0,0-531,141a5.854,5.854,0,0,0,.862-1.456l.569-1.271-4.472-10.523,2.987.062,2.875,7.321,3.2-7.193,1,.021Z" transform="translate(671.822 -127.746)" fill="#fff"/>
    <path id="패스_562" data-name="패스 562" d="M-510.192,136.625a5.1,5.1,0,0,0,.068,1.873,3.174,3.174,0,0,0,.551,1.14l-3.727-.408.258-2.351a4.174,4.174,0,0,1-1.518,1.609,2.939,2.939,0,0,1-1.923.335,3.612,3.612,0,0,1-2.95-1.886,7.793,7.793,0,0,1-.428-4.111l.523-4.784,2.71.3-.523,4.784a6.921,6.921,0,0,0,.229,3.071,1.773,1.773,0,0,0,1.51,1.315,1.916,1.916,0,0,0,.465-.01,2.018,2.018,0,0,0,1.415-1.045,6.511,6.511,0,0,0,.845-2.842l.523-4.784,2.79.305Z" transform="translate(668.707 -127.811)" fill="#fff"/>
    <path id="패스_563" data-name="패스 563" d="M-502.09,130.833a3.488,3.488,0,0,0-.417-1.233l3.667.875-.386,1.619a4.069,4.069,0,0,1,1.581-.922,3.116,3.116,0,0,1,1.619-.046,3.644,3.644,0,0,1,1.925,1.221,5,5,0,0,1,1.109,2.306,4.522,4.522,0,0,1,1.959-1.6,3.583,3.583,0,0,1,2.145-.138,4.8,4.8,0,0,1,.728.235,3.378,3.378,0,0,1,2.085,2.363,7.661,7.661,0,0,1-.039,3.835l-1.116,4.68-2.652-.632,1.116-4.681a7.184,7.184,0,0,0,.167-3.207,1.874,1.874,0,0,0-1.444-1.549,1.791,1.791,0,0,0-1.711.56,5.73,5.73,0,0,0-1.3,2.8l-1.2,5.032-2.652-.633,1.116-4.68a7.412,7.412,0,0,0,.212-2.228,3.807,3.807,0,0,0-.478-1.711,1.675,1.675,0,0,0-1.049-.827,1.758,1.758,0,0,0-1.682.568,5.818,5.818,0,0,0-1.288,2.806l-1.2,5.032-2.73-.651,1.753-7.353A4.949,4.949,0,0,0-502.09,130.833Z" transform="translate(665.185 -128.156)" fill="#fff"/>
    <path id="패스_564" data-name="패스 564" d="M-461.323,151.082a6.424,6.424,0,0,1-2.844.409,8.345,8.345,0,0,1-2.819-.664,7.788,7.788,0,0,1-3.008-2.271,6.4,6.4,0,0,1-1.359-3.374,7.9,7.9,0,0,1,.737-4.048,7.731,7.731,0,0,1,2.464-3.2,6.572,6.572,0,0,1,3.431-1.29,7.581,7.581,0,0,1,3.707.663,8.836,8.836,0,0,1,2.37,1.606,4.86,4.86,0,0,1,1.465,2.959l-.953.171a4.74,4.74,0,0,0-.937-2.244,4.538,4.538,0,0,0-1.74-1.371,3.717,3.717,0,0,0-.784-.259,4.676,4.676,0,0,0-3.492.562,7.566,7.566,0,0,0-2.8,3.608,9.623,9.623,0,0,0-.9,3.428,4.8,4.8,0,0,0,.522,2.588,3.522,3.522,0,0,0,1.69,1.535,6.421,6.421,0,0,0,2.667.686,1.636,1.636,0,0,0,1.505-1.1l1.71-3.87-3.54-1.563.324-.735,5.923,2.618-1.523,3.447A3.183,3.183,0,0,1-461.323,151.082Z" transform="translate(657.977 -129.708)" fill="#fff"/>
    <path id="패스_565" data-name="패스 565" d="M-454.294,157.394a4.436,4.436,0,0,1-.566-2.519,6.094,6.094,0,0,1,.83-2.621,5.729,5.729,0,0,1,1.815-1.976,4.55,4.55,0,0,1,2.454-.754,5.332,5.332,0,0,1,2.784.786,5.344,5.344,0,0,1,2.087,2.005,4.564,4.564,0,0,1,.59,2.5,5.728,5.728,0,0,1-.788,2.564,6.092,6.092,0,0,1-1.84,2.042,4.452,4.452,0,0,1-2.461.785,5.376,5.376,0,0,1-2.8-.8A5.374,5.374,0,0,1-454.294,157.394Zm1.761-1.683a4.326,4.326,0,0,0-.111,1.889,1.66,1.66,0,0,0,.8,1.2,1.662,1.662,0,0,0,1.441.086,4.324,4.324,0,0,0,1.573-1.051,8.406,8.406,0,0,0,1.364-1.795,8.131,8.131,0,0,0,.834-2.041,4.334,4.334,0,0,0,.107-1.88,1.661,1.661,0,0,0-.8-1.2,1.657,1.657,0,0,0-1.44-.087,4.334,4.334,0,0,0-1.568,1.043,8.105,8.105,0,0,0-1.339,1.752A8.34,8.34,0,0,0-452.533,155.711Z" transform="translate(654.327 -132.559)" fill="#fff"/>
    <path id="패스_566" data-name="패스 566" d="M-441.546,165.2a4.448,4.448,0,0,1-.333-2.561,6.1,6.1,0,0,1,1.067-2.533,5.739,5.739,0,0,1,1.988-1.8,4.548,4.548,0,0,1,2.513-.526,5.327,5.327,0,0,1,2.7,1.038,5.337,5.337,0,0,1,1.9,2.187,4.56,4.56,0,0,1,.359,2.543,5.732,5.732,0,0,1-1.02,2.481,6.1,6.1,0,0,1-2.019,1.865,4.45,4.45,0,0,1-2.522.558,5.393,5.393,0,0,1-2.717-1.05A5.382,5.382,0,0,1-441.546,165.2Zm1.909-1.514a4.323,4.323,0,0,0-.284,1.87,1.662,1.662,0,0,0,.69,1.268,1.663,1.663,0,0,0,1.427.217,4.334,4.334,0,0,0,1.662-.9,8.382,8.382,0,0,0,1.522-1.663,8.141,8.141,0,0,0,1.018-1.956,4.35,4.35,0,0,0,.278-1.862,1.661,1.661,0,0,0-.69-1.268,1.658,1.658,0,0,0-1.427-.217,4.317,4.317,0,0,0-1.657.894,8.089,8.089,0,0,0-1.493,1.622A8.351,8.351,0,0,0-439.637,163.681Z" transform="translate(651.468 -134.379)" fill="#fff"/>
    <path id="패스_567" data-name="패스 567" d="M-427.967,176.058a4.788,4.788,0,0,1-1.5-2.2,4.605,4.605,0,0,1-.083-2.518,5.453,5.453,0,0,1,1.186-2.286,6.457,6.457,0,0,1,2.022-1.553,5.142,5.142,0,0,1,2.6-.545,4.282,4.282,0,0,1,2.616,1.126,8.509,8.509,0,0,1,2.068,2.915l1.268-1.475a5.037,5.037,0,0,0,.991-1.567,3.235,3.235,0,0,0,.188-1.28l2.858,2.457-7.516,8.743a5.106,5.106,0,0,0-1,1.582,3.027,3.027,0,0,0-.174,1.264l-2.858-2.457.536-.623A7.784,7.784,0,0,1-427.967,176.058Zm.372-2.431a2.79,2.79,0,0,0,1.066,2.45,6.011,6.011,0,0,0,2.145,1.1l4.824-5.61a5.669,5.669,0,0,0-1.465-2.264,2.414,2.414,0,0,0-2.61-.485,6.484,6.484,0,0,0-2.559,1.885A5.222,5.222,0,0,0-427.6,173.627Z" transform="translate(648.761 -136.349)" fill="#fff"/>
    <path id="패스_568" data-name="패스 568" d="M-397.458,188.127a5.032,5.032,0,0,0-.289-1.457,4.711,4.711,0,0,0-.947-1.592,3.482,3.482,0,0,0-1.67-1.141,1.869,1.869,0,0,0-1.793.5,2.074,2.074,0,0,0-.686,1,2.526,2.526,0,0,0,.031,1.3,9.906,9.906,0,0,0,.739,1.89,13.549,13.549,0,0,1,.893,2.42,4.259,4.259,0,0,1,.014,2.09,3.652,3.652,0,0,1-1.241,1.863,4.025,4.025,0,0,1-3.935,1.084,7.992,7.992,0,0,1-3.674-2.578,7.383,7.383,0,0,1-1.811-6.008l1.385-.266a3.6,3.6,0,0,0-.435,2.769,6.145,6.145,0,0,0,1.352,2.631,3.24,3.24,0,0,0,1.95,1.206,2.586,2.586,0,0,0,1.886-.407c.22-.154.381-.274.482-.362a2.175,2.175,0,0,0,.779-1.384,4.492,4.492,0,0,0-.469-2.19l-.192-.469a18.139,18.139,0,0,1-.9-2.4,4.381,4.381,0,0,1-.074-2.053,3.434,3.434,0,0,1,1.225-1.927,3.276,3.276,0,0,1,3.23-.8,7.442,7.442,0,0,1,3.372,2.442,6.812,6.812,0,0,1,1.362,2.306,11.377,11.377,0,0,1,.5,2.625l-1.489.33A2.439,2.439,0,0,0-397.458,188.127Z" transform="translate(644.829 -139.67)" fill="#fff"/>
    <path id="패스_569" data-name="패스 569" d="M-401.035,204.284a4.445,4.445,0,0,1,.553-2.523,6.088,6.088,0,0,1,1.862-2.022,5.72,5.72,0,0,1,2.48-1.023,4.543,4.543,0,0,1,2.543.354,5.336,5.336,0,0,1,2.19,1.89,5.347,5.347,0,0,1,1.043,2.7,4.562,4.562,0,0,1-.523,2.515,5.73,5.73,0,0,1-1.8,1.99,6.1,6.1,0,0,1-2.531,1.072,4.455,4.455,0,0,1-2.562-.33,5.375,5.375,0,0,1-2.2-1.908A5.369,5.369,0,0,1-401.035,204.284Zm2.308-.78a4.335,4.335,0,0,0-.9,1.665,1.66,1.66,0,0,0,.22,1.426,1.663,1.663,0,0,0,1.269.688,4.355,4.355,0,0,0,1.87-.287,8.385,8.385,0,0,0,2-1.05,8.115,8.115,0,0,0,1.62-1.5,4.332,4.332,0,0,0,.892-1.658,1.659,1.659,0,0,0-.22-1.426,1.661,1.661,0,0,0-1.269-.689,4.331,4.331,0,0,0-1.862.282,8.125,8.125,0,0,0-1.954,1.02A8.333,8.333,0,0,0-398.727,203.5Z" transform="translate(642.431 -143.42)" fill="#fff"/>
    <path id="패스_570" data-name="패스 570" d="M-392.759,216.78a4.444,4.444,0,0,1,.782-2.462,6.1,6.1,0,0,1,2.039-1.844,5.727,5.727,0,0,1,2.563-.791,4.545,4.545,0,0,1,2.5.587,5.332,5.332,0,0,1,2.008,2.083,5.333,5.333,0,0,1,.791,2.783,4.56,4.56,0,0,1-.75,2.455,5.725,5.725,0,0,1-1.974,1.817,6.083,6.083,0,0,1-2.619.835,4.451,4.451,0,0,1-2.521-.562,5.382,5.382,0,0,1-2.017-2.1A5.374,5.374,0,0,1-392.759,216.78Zm2.37-.565a4.312,4.312,0,0,0-1.049,1.575,1.66,1.66,0,0,0,.088,1.44,1.663,1.663,0,0,0,1.2.8,4.34,4.34,0,0,0,1.888-.114,8.4,8.4,0,0,0,2.083-.862,8.112,8.112,0,0,0,1.75-1.341,4.341,4.341,0,0,0,1.04-1.57,1.662,1.662,0,0,0-.088-1.441,1.663,1.663,0,0,0-1.2-.8,4.327,4.327,0,0,0-1.88.11,8.12,8.12,0,0,0-2.039.837A8.38,8.38,0,0,0-390.39,216.215Z" transform="translate(640.6 -146.295)" fill="#fff"/>
    <path id="패스_571" data-name="패스 571" d="M-385.685,229.939a4.448,4.448,0,0,1,1-2.379,6.1,6.1,0,0,1,2.2-1.649,5.73,5.73,0,0,1,2.624-.552,4.555,4.555,0,0,1,2.435.812,5.337,5.337,0,0,1,1.808,2.26,5.336,5.336,0,0,1,.532,2.843,4.548,4.548,0,0,1-.973,2.377,5.727,5.727,0,0,1-2.131,1.628,6.113,6.113,0,0,1-2.685.592,4.449,4.449,0,0,1-2.458-.792,5.369,5.369,0,0,1-1.817-2.278A5.372,5.372,0,0,1-385.685,229.939Zm2.412-.344a4.315,4.315,0,0,0-1.189,1.472,1.657,1.657,0,0,0-.044,1.443,1.664,1.664,0,0,0,1.122.908,4.35,4.35,0,0,0,1.891.059,8.385,8.385,0,0,0,2.153-.668,8.125,8.125,0,0,0,1.866-1.176,4.313,4.313,0,0,0,1.179-1.468,1.657,1.657,0,0,0,.044-1.443,1.659,1.659,0,0,0-1.122-.908,4.331,4.331,0,0,0-1.882-.064,8.094,8.094,0,0,0-2.108.647A8.33,8.33,0,0,0-383.273,229.6Z" transform="translate(639.042 -149.318)" fill="#fff"/>
    <path id="패스_572" data-name="패스 572" d="M-377.533,248.434a5.01,5.01,0,0,0,1.835-.266l8.242-2.462a5.037,5.037,0,0,0,1.68-.784,3.214,3.214,0,0,0,.849-.976l1.079,3.612-13.083,3.909,1.917,6.416-.769.23-3-10.028A3.221,3.221,0,0,0-377.533,248.434Z" transform="translate(637.509 -153.426)" fill="#fff"/>
    <path id="패스_573" data-name="패스 573" d="M-369.973,272.4a5.113,5.113,0,0,0-1.767.624,3.158,3.158,0,0,0-.922.868l-.726-3.679,2.321-.458a4.168,4.168,0,0,1-1.99-.967,2.936,2.936,0,0,1-.894-1.734,3.612,3.612,0,0,1,.917-3.38,7.8,7.8,0,0,1,3.8-1.637l4.721-.932.528,2.675-4.721.931a6.917,6.917,0,0,0-2.861,1.137,1.773,1.773,0,0,0-.8,1.835,1.9,1.9,0,0,0,.148.44,2.012,2.012,0,0,0,1.421,1.038,6.484,6.484,0,0,0,2.965-.043l4.721-.932.543,2.755Z" transform="translate(636.457 -157.22)" fill="#fff"/>
    <path id="패스_574" data-name="패스 574" d="M-361.422,284.367a3.3,3.3,0,0,0-.872-1.947,4.326,4.326,0,0,0-1.884-1.2,4.661,4.661,0,0,0-2.275-.174,4.975,4.975,0,0,0-2.1.827,4.016,4.016,0,0,0-1.295,1.45,3.006,3.006,0,0,0-.334,1.687,2.918,2.918,0,0,0,.932,1.85,4.39,4.39,0,0,0,2.324,1.066l.079.778a4.887,4.887,0,0,1-3.086-1.422,4.709,4.709,0,0,1-1.273-2.833,5.833,5.833,0,0,1,.4-2.761,5.606,5.606,0,0,1,1.653-2.293,4.751,4.751,0,0,1,2.631-1.081,4.986,4.986,0,0,1,2.678.476,5.615,5.615,0,0,1,2.178,1.826,5.492,5.492,0,0,1,1.031,2.727,6.8,6.8,0,0,1-.721,3.639l-.717.073A4.561,4.561,0,0,0-361.422,284.367Z" transform="translate(635.843 -161.016)" fill="#fff"/>
    <path id="패스_575" data-name="패스 575" d="M-369.145,294.238a5.125,5.125,0,0,0,1.828.231l8.6-.139a5.108,5.108,0,0,0,1.82-.291,3.356,3.356,0,0,0,1.091-.7l.077,4.711a3.216,3.216,0,0,0-1.1-.674,5.031,5.031,0,0,0-1.839-.241l-8.6.139a5.043,5.043,0,0,0-1.83.3,3.23,3.23,0,0,0-1.082.71l-.076-4.711A3.379,3.379,0,0,0-369.145,294.238Zm9.513,9.171.027,1.7-4.608-4.7-5.845,5.59-.06-3.71,4.9-4.591Z" transform="translate(635.627 -164.343)" fill="#fff"/>
    <path id="패스_576" data-name="패스 576" d="M-376.42,313.39l.16-1.838a8.2,8.2,0,0,0,1.281,1.349,5.831,5.831,0,0,0,1.4.957l1.232.65,10.794-3.77-.259,2.977-7.493,2.386,6.967,3.666-.086,1Z" transform="translate(636.988 -168.188)" fill="#fff"/>
    <path id="패스_577" data-name="패스 577" d="M-373.086,324.021a1.746,1.746,0,0,1,1.363-.326,1.779,1.779,0,0,1,1.2.744,1.777,1.777,0,0,1,.325,1.373,1.745,1.745,0,0,1-.742,1.189,1.8,1.8,0,0,1-1.372.315,1.764,1.764,0,0,1-1.191-.733,1.761,1.761,0,0,1-.317-1.362A1.8,1.8,0,0,1-373.086,324.021Zm14.661,6.837a2.84,2.84,0,0,1-.83,1.855l-9.448-5.356.274-1.683,10.091,3.9A6.358,6.358,0,0,1-358.425,330.858Z" transform="translate(636.42 -171.046)" fill="#fff"/>
    <path id="패스_578" data-name="패스 578" d="M-379.93,336.51l.432-1.793a8.2,8.2,0,0,0,1.066,1.525,5.828,5.828,0,0,0,1.238,1.153l1.12.827,11.235-2.121-.7,2.9-7.765,1.244,6.343,4.662-.235.975Z" transform="translate(637.764 -173.488)" fill="#fff"/>
    <path id="패스_579" data-name="패스 579" d="M-378.189,357.467a5.093,5.093,0,0,0-1.844-.337,3.158,3.158,0,0,0-1.232.293l1.2-3.553,2.241.758a4.169,4.169,0,0,1-1.245-1.828,2.943,2.943,0,0,1,.086-1.95,3.615,3.615,0,0,1,2.476-2.476,7.8,7.8,0,0,1,4.107.467l4.559,1.54-.872,2.583-4.559-1.54a6.916,6.916,0,0,0-3.048-.436,1.771,1.771,0,0,0-1.609,1.192,1.877,1.877,0,0,0-.09.456,2.015,2.015,0,0,0,.716,1.608,6.5,6.5,0,0,0,2.594,1.436l4.559,1.54-.9,2.659Z" transform="translate(638.059 -176.481)" fill="#fff"/>
    <path id="패스_580" data-name="패스 580" d="M-375.441,366.391a3.49,3.49,0,0,0,1.294-.143l-1.644,3.393-1.5-.725a4.06,4.06,0,0,1,.559,1.742,3.116,3.116,0,0,1-.3,1.591,3.647,3.647,0,0,1-1.608,1.616,5,5,0,0,1-2.49.587,4.531,4.531,0,0,1,1.145,2.259,3.588,3.588,0,0,1-.328,2.124,4.891,4.891,0,0,1-.386.66,3.382,3.382,0,0,1-2.757,1.528,7.671,7.671,0,0,1-3.736-.864l-4.33-2.1,1.188-2.453,4.331,2.1a7.177,7.177,0,0,0,3.1.854,1.875,1.875,0,0,0,1.824-1.077,1.8,1.8,0,0,0-.179-1.792,5.741,5.741,0,0,0-2.459-1.87l-4.655-2.256,1.189-2.453,4.331,2.1a7.4,7.4,0,0,0,2.129.686,3.8,3.8,0,0,0,1.775-.1,1.678,1.678,0,0,0,1.034-.847,1.758,1.758,0,0,0-.192-1.765,5.816,5.816,0,0,0-2.462-1.86l-4.655-2.256,1.223-2.525,6.8,3.3A4.963,4.963,0,0,0-375.441,366.391Z" transform="translate(640.326 -179.637)" fill="#fff"/>
    <path id="패스_581" data-name="패스 581" d="M-399.47,383.693l.992-1.555a8.246,8.246,0,0,0,.511,1.789,5.887,5.887,0,0,0,.8,1.494l.791,1.146,11.313,1.651-1.606,2.519-7.748-1.351,4.48,6.473-.539.845Z" transform="translate(642.082 -183.968)" fill="#fff"/>
    <path id="패스_582" data-name="패스 582" d="M-405.31,404.494a5.107,5.107,0,0,0-1.634-.917,3.183,3.183,0,0,0-1.26-.123l2.288-2.97,1.874,1.443a4.16,4.16,0,0,1-.584-2.132,2.94,2.94,0,0,1,.715-1.816,3.612,3.612,0,0,1,3.146-1.538,7.808,7.808,0,0,1,3.733,1.775l3.812,2.936-1.664,2.161-3.812-2.937a6.908,6.908,0,0,0-2.741-1.4,1.773,1.773,0,0,0-1.909.605,1.908,1.908,0,0,0-.234.4,2.016,2.016,0,0,0,.157,1.753,6.5,6.5,0,0,0,1.986,2.2l3.812,2.936-1.713,2.224Z" transform="translate(644.013 -187.125)" fill="#fff"/>
    <path id="패스_583" data-name="패스 583" d="M-406.195,414.064a3.512,3.512,0,0,0,1.271.284l-2.652,2.679-1.183-1.171a4.065,4.065,0,0,1-.033,1.828,3.125,3.125,0,0,1-.8,1.408,3.646,3.646,0,0,1-2.044,1.01,5,5,0,0,1-2.547-.249,4.52,4.52,0,0,1,.354,2.507,3.59,3.59,0,0,1-1,1.905,4.991,4.991,0,0,1-.579.5,3.382,3.382,0,0,1-3.1.554,7.672,7.672,0,0,1-3.256-2.025l-3.421-3.385,1.919-1.938,3.42,3.385a7.177,7.177,0,0,0,2.653,1.809,1.878,1.878,0,0,0,2.075-.428,1.8,1.8,0,0,0,.409-1.753,5.723,5.723,0,0,0-1.721-2.565l-3.677-3.639,1.919-1.937,3.42,3.385a7.368,7.368,0,0,0,1.793,1.338,3.8,3.8,0,0,0,1.711.481,1.676,1.676,0,0,0,1.253-.467,1.759,1.759,0,0,0,.389-1.732,5.822,5.822,0,0,0-1.729-2.557l-3.676-3.639,1.975-1.995,5.371,5.318A4.956,4.956,0,0,0-406.195,414.064Z" transform="translate(647.766 -189.607)" fill="#fff"/>
    <path id="패스_584" data-name="패스 584" d="M-443.686,438.523a6.41,6.41,0,0,1,1.123-2.646,8.307,8.307,0,0,1,2.028-2.067,7.772,7.772,0,0,1,3.5-1.4,6.381,6.381,0,0,1,3.59.583,7.888,7.888,0,0,1,3.082,2.725,7.728,7.728,0,0,1,1.459,3.763,6.569,6.569,0,0,1-.672,3.6,7.578,7.578,0,0,1-2.486,2.829,8.849,8.849,0,0,1-2.6,1.2,4.863,4.863,0,0,1-3.291-.279l.347-.9a4.732,4.732,0,0,0,2.406.36,4.534,4.534,0,0,0,2.074-.778,3.647,3.647,0,0,0,.628-.537,4.679,4.679,0,0,0,1.327-3.279,7.561,7.561,0,0,0-1.637-4.263,9.622,9.622,0,0,0-2.466-2.544,4.791,4.791,0,0,0-2.484-.893,3.526,3.526,0,0,0-2.188.65,6.428,6.428,0,0,0-1.967,1.928,1.636,1.636,0,0,0,.162,1.856l2.426,3.467,3.171-2.219.46.657L-441,444.049l-2.162-3.087A3.182,3.182,0,0,1-443.686,438.523Z" transform="translate(651.866 -195.067)" fill="#fff"/>
    <path id="패스_585" data-name="패스 585" d="M-451.3,441.685a4.447,4.447,0,0,1,2.45.818,6.1,6.1,0,0,1,1.813,2.067,5.734,5.734,0,0,1,.753,2.575,4.562,4.562,0,0,1-.624,2.491,5.335,5.335,0,0,1-2.114,1.976,5.342,5.342,0,0,1-2.8.749,4.552,4.552,0,0,1-2.444-.788,5.744,5.744,0,0,1-1.787-2,6.105,6.105,0,0,1-.8-2.631,4.451,4.451,0,0,1,.6-2.512,5.384,5.384,0,0,1,2.131-1.986A5.379,5.379,0,0,1-451.3,441.685Zm.529,2.378a4.325,4.325,0,0,0-1.558-1.073,1.666,1.666,0,0,0-1.442.066,1.662,1.662,0,0,0-.82,1.189,4.317,4.317,0,0,0,.086,1.89,8.356,8.356,0,0,0,.831,2.1,8.11,8.11,0,0,0,1.314,1.77,4.324,4.324,0,0,0,1.554,1.064,1.66,1.66,0,0,0,1.442-.067,1.66,1.66,0,0,0,.819-1.189,4.317,4.317,0,0,0-.081-1.881,8.06,8.06,0,0,0-.806-2.051A8.341,8.341,0,0,0-450.77,444.063Z" transform="translate(654.764 -197.127)" fill="#fff"/>
    <path id="패스_586" data-name="패스 586" d="M-464.559,448.565a4.447,4.447,0,0,1,2.363,1.041,6.093,6.093,0,0,1,1.615,2.225,5.738,5.738,0,0,1,.513,2.634,4.552,4.552,0,0,1-.851,2.422,5.332,5.332,0,0,1-2.286,1.773,5.326,5.326,0,0,1-2.852.489,4.554,4.554,0,0,1-2.361-1.01,5.724,5.724,0,0,1-1.6-2.155,6.1,6.1,0,0,1-.551-2.694,4.448,4.448,0,0,1,.829-2.446,5.378,5.378,0,0,1,2.3-1.781A5.381,5.381,0,0,1-464.559,448.565Zm.308,2.417a4.323,4.323,0,0,0-1.454-1.212,1.664,1.664,0,0,0-1.442-.066,1.663,1.663,0,0,0-.925,1.109,4.332,4.332,0,0,0-.089,1.891,8.387,8.387,0,0,0,.635,2.162,8.1,8.1,0,0,0,1.147,1.884,4.337,4.337,0,0,0,1.449,1.2,1.66,1.66,0,0,0,1.443.066,1.659,1.659,0,0,0,.925-1.109,4.336,4.336,0,0,0,.093-1.88,8.117,8.117,0,0,0-.615-2.118A8.356,8.356,0,0,0-464.252,450.982Z" transform="translate(657.795 -198.641)" fill="#fff"/>
    <path id="패스_587" data-name="패스 587" d="M-481.811,454.532a4.768,4.768,0,0,1,2.663-.141,4.592,4.592,0,0,1,2.2,1.235,5.445,5.445,0,0,1,1.339,2.2,6.449,6.449,0,0,1,.279,2.535,5.136,5.136,0,0,1-.882,2.5,4.288,4.288,0,0,1-2.319,1.652,8.511,8.511,0,0,1-3.565.256l.6,1.849a5.037,5.037,0,0,0,.826,1.66,3.218,3.218,0,0,0,1,.825l-3.584,1.169-3.574-10.961a5.128,5.128,0,0,0-.833-1.68,3.009,3.009,0,0,0-.99-.8l3.583-1.169.255.781A7.765,7.765,0,0,1-481.811,454.532Zm1.885,1.578a2.791,2.791,0,0,0-2.648-.36,6.016,6.016,0,0,0-2.056,1.261l2.294,7.034a5.644,5.644,0,0,0,2.7-.077,2.412,2.412,0,0,0,1.768-1.979,6.466,6.466,0,0,0-.284-3.166A5.224,5.224,0,0,0-479.926,456.11Z" transform="translate(661.793 -199.908)" fill="#fff"/>
    <path id="패스_588" data-name="패스 588" d="M-508.123,474.043a4.958,4.958,0,0,0,1.4.512,4.686,4.686,0,0,0,1.852.019,3.482,3.482,0,0,0,1.844-.833,1.868,1.868,0,0,0,.507-1.791,2.081,2.081,0,0,0-.5-1.106,2.521,2.521,0,0,0-1.123-.648,9.873,9.873,0,0,0-2-.351,13.662,13.662,0,0,1-2.53-.5,4.264,4.264,0,0,1-1.793-1.076,3.651,3.651,0,0,1-.945-2.029,4.027,4.027,0,0,1,1.12-3.924,8.006,8.006,0,0,1,4.114-1.8,7.382,7.382,0,0,1,6.072,1.578l-.493,1.32a3.6,3.6,0,0,0-2.138-1.81,6.161,6.161,0,0,0-2.952-.214,3.235,3.235,0,0,0-2.043,1.039,2.579,2.579,0,0,0-.634,1.821q.026.4.058.6a2.179,2.179,0,0,0,.777,1.387,4.492,4.492,0,0,0,2.113.738l.5.079a17.982,17.982,0,0,1,2.518.479,4.381,4.381,0,0,1,1.792,1,3.437,3.437,0,0,1,1.009,2.049,3.277,3.277,0,0,1-1,3.172,7.447,7.447,0,0,1-3.84,1.609,6.82,6.82,0,0,1-2.678-.036,11.415,11.415,0,0,1-2.5-.938l.493-1.443A2.436,2.436,0,0,0-508.123,474.043Z" transform="translate(666.842 -201.266)" fill="#fff"/>
    <path id="패스_589" data-name="패스 589" d="M-518.978,462.927a4.449,4.449,0,0,1,1.867,1.785,6.088,6.088,0,0,1,.758,2.642,5.741,5.741,0,0,1-.417,2.65,4.554,4.554,0,0,1-1.627,1.986,5.335,5.335,0,0,1-2.754.887,5.343,5.343,0,0,1-2.848-.514,4.564,4.564,0,0,1-1.874-1.754,5.738,5.738,0,0,1-.763-2.572,6.093,6.093,0,0,1,.4-2.719,4.445,4.445,0,0,1,1.615-2.016,5.384,5.384,0,0,1,2.775-.888A5.378,5.378,0,0,1-518.978,462.927Zm-.535,2.377a4.332,4.332,0,0,0-.953-1.634,1.658,1.658,0,0,0-1.333-.554,1.661,1.661,0,0,0-1.248.725,4.328,4.328,0,0,0-.728,1.746,8.352,8.352,0,0,0-.143,2.25,8.111,8.111,0,0,0,.435,2.161,4.345,4.345,0,0,0,.952,1.625,1.66,1.66,0,0,0,1.333.555,1.659,1.659,0,0,0,1.248-.725,4.33,4.33,0,0,0,.729-1.737,8.1,8.1,0,0,0,.145-2.2A8.366,8.366,0,0,0-519.513,465.3Z" transform="translate(670.19 -201.706)" fill="#fff"/>
    <path id="패스_590" data-name="패스 590" d="M-533.911,463.5a4.441,4.441,0,0,1,1.7,1.946,6.1,6.1,0,0,1,.517,2.7,5.736,5.736,0,0,1-.654,2.6,4.55,4.55,0,0,1-1.8,1.831,5.329,5.329,0,0,1-2.823.635,5.337,5.337,0,0,1-2.789-.769,4.552,4.552,0,0,1-1.709-1.916A5.722,5.722,0,0,1-542,467.9a6.088,6.088,0,0,1,.646-2.672,4.443,4.443,0,0,1,1.789-1.863,5.372,5.372,0,0,1,2.842-.633A5.374,5.374,0,0,1-533.911,463.5Zm-.748,2.318a4.317,4.317,0,0,0-.8-1.714,1.663,1.663,0,0,0-1.278-.672,1.66,1.66,0,0,0-1.308.61,4.33,4.33,0,0,0-.883,1.674,8.354,8.354,0,0,0-.344,2.228,8.119,8.119,0,0,0,.238,2.191,4.326,4.326,0,0,0,.8,1.7,1.657,1.657,0,0,0,1.278.672,1.66,1.66,0,0,0,1.308-.61,4.335,4.335,0,0,0,.883-1.664,8.088,8.088,0,0,0,.343-2.178A8.348,8.348,0,0,0-534.659,465.818Z" transform="translate(673.582 -201.779)" fill="#fff"/>
    <path id="패스_591" data-name="패스 591" d="M-548.869,462.714a4.442,4.442,0,0,1,1.514,2.092,6.081,6.081,0,0,1,.27,2.736,5.72,5.72,0,0,1-.888,2.532,4.552,4.552,0,0,1-1.958,1.661,5.341,5.341,0,0,1-2.869.375,5.33,5.33,0,0,1-2.708-1.019,4.547,4.547,0,0,1-1.528-2.064,5.722,5.722,0,0,1-.287-2.667,6.088,6.088,0,0,1,.886-2.6,4.444,4.444,0,0,1,1.951-1.692,5.369,5.369,0,0,1,2.889-.373A5.372,5.372,0,0,1-548.869,462.714Zm-.956,2.241a4.319,4.319,0,0,0-.642-1.78,1.661,1.661,0,0,0-1.211-.786,1.661,1.661,0,0,0-1.359.489,4.34,4.34,0,0,0-1.031,1.586,8.373,8.373,0,0,0-.545,2.187,8.1,8.1,0,0,0,.038,2.2,4.344,4.344,0,0,0,.643,1.77,1.664,1.664,0,0,0,1.211.786,1.663,1.663,0,0,0,1.359-.489,4.321,4.321,0,0,0,1.03-1.577,8.045,8.045,0,0,0,.539-2.138A8.329,8.329,0,0,0-549.825,464.955Z" transform="translate(676.979 -201.539)" fill="#fff"/>
    <path id="패스_592" data-name="패스 592" d="M-569.308,459.719a5.036,5.036,0,0,0-.724,1.708l-2.162,8.325a5.031,5.031,0,0,0-.2,1.844,3.22,3.22,0,0,0,.394,1.232l-3.648-.948,3.433-13.216-6.482-1.684.2-.776,10.13,2.631A3.243,3.243,0,0,0-569.308,459.719Z" transform="translate(681.692 -200.337)" fill="#fff"/>
    <path id="패스_593" data-name="패스 593" d="M-593.844,453.58a5.109,5.109,0,0,0,.381-1.835,3.174,3.174,0,0,0-.263-1.238l3.523,1.284-.811,2.223a4.174,4.174,0,0,1,1.857-1.2,2.939,2.939,0,0,1,1.947.134,3.612,3.612,0,0,1,2.416,2.535,7.8,7.8,0,0,1-.565,4.094l-1.648,4.521-2.563-.934,1.649-4.521a6.908,6.908,0,0,0,.509-3.036,1.773,1.773,0,0,0-1.153-1.637,1.957,1.957,0,0,0-.454-.1,2.019,2.019,0,0,0-1.623.679,6.491,6.491,0,0,0-1.5,2.559l-1.648,4.52-2.637-.961Z" transform="translate(685.61 -199.078)" fill="#fff"/>
    <path id="패스_594" data-name="패스 594" d="M-608.025,455.2a3.31,3.31,0,0,0,2.117.265,4.335,4.335,0,0,0,2-.989,4.662,4.662,0,0,0,1.328-1.855,4.977,4.977,0,0,0,.383-2.226,4.028,4.028,0,0,0-.569-1.859,3,3,0,0,0-1.269-1.159,2.913,2.913,0,0,0-2.066-.163,4.4,4.4,0,0,0-2.116,1.435l-.706-.337a4.885,4.885,0,0,1,2.815-1.9,4.712,4.712,0,0,1,3.083.381,5.835,5.835,0,0,1,2.155,1.77,5.624,5.624,0,0,1,1.1,2.6,4.765,4.765,0,0,1-.44,2.811,4.99,4.99,0,0,1-1.8,2.043,5.631,5.631,0,0,1-2.691.916,5.512,5.512,0,0,1-2.867-.533,6.8,6.8,0,0,1-2.738-2.5l.311-.651A4.558,4.558,0,0,0-608.025,455.2Z" transform="translate(688.675 -198.149)" fill="#fff"/>
    <path id="패스_595" data-name="패스 595" d="M-626.214,445.926l-1.46-.879,6.426-1.417-1.641-7.919,3.177,1.915,1.3,6.587Zm12.818-3.206a5.145,5.145,0,0,0-1.165,1.429l-4.44,7.367a5.124,5.124,0,0,0-.718,1.7,3.355,3.355,0,0,0,.015,1.3l-4.036-2.433a3.225,3.225,0,0,0,1.157-.578,5.06,5.06,0,0,0,1.179-1.432l4.44-7.367a5.036,5.036,0,0,0,.715-1.711,3.246,3.246,0,0,0-.028-1.294l4.035,2.432A3.379,3.379,0,0,0-613.4,442.719Z" transform="translate(692.516 -195.807)" fill="#fff"/>
    <path id="패스_596" data-name="패스 596" d="M-625.964,427.955l1.485,1.094a8.2,8.2,0,0,0-1.819.391,5.847,5.847,0,0,0-1.544.694l-1.2.713-2.4,11.179-2.407-1.771,1.863-7.64-6.756,4.041-.808-.594Z" transform="translate(695.14 -194.094)" fill="#fff"/>
    <path id="패스_597" data-name="패스 597" d="M-650.063,434.3a2.841,2.841,0,0,1-1.153-1.674l9.49-5.282,1.294,1.109-8.578,6.591A6.344,6.344,0,0,1-650.063,434.3Zm13.464-8.965a1.746,1.746,0,0,1-.43,1.334,1.779,1.779,0,0,1-1.259.637,1.78,1.78,0,0,1-1.342-.437,1.745,1.745,0,0,1-.629-1.253,1.792,1.792,0,0,1,.444-1.335,1.759,1.759,0,0,1,1.245-.636,1.763,1.763,0,0,1,1.328.438A1.8,1.8,0,0,1-636.6,425.333Z" transform="translate(697.719 -193.139)" fill="#fff"/>
    <path id="패스_598" data-name="패스 598" d="M-643.977,413.052l1.308,1.3a8.294,8.294,0,0,0-1.856.118,5.864,5.864,0,0,0-1.63.459l-1.288.528-4.025,10.7-2.119-2.106,2.972-7.282-7.279,3-.711-.707Z" transform="translate(699.352 -190.8)" fill="#fff"/>
    <path id="패스_599" data-name="패스 599" d="M-662.521,402.591a5.093,5.093,0,0,0,1.244-1.4,3.181,3.181,0,0,0,.388-1.2l2.416,2.867-1.81,1.525a4.183,4.183,0,0,1,2.208-.117,2.943,2.943,0,0,1,1.622,1.085,3.612,3.612,0,0,1,.833,3.4,7.812,7.812,0,0,1-2.529,3.27l-3.68,3.1-1.757-2.085,3.68-3.1a6.909,6.909,0,0,0,1.954-2.38,1.772,1.772,0,0,0-.185-1.993,1.916,1.916,0,0,0-.344-.314,2.018,2.018,0,0,0-1.746-.221,6.5,6.5,0,0,0-2.573,1.474l-3.681,3.1-1.809-2.146Z" transform="translate(701.492 -187.912)" fill="#fff"/>
    <path id="패스_600" data-name="패스 600" d="M-673.065,399.369a3.483,3.483,0,0,0-.548,1.181l-2.053-3.161,1.4-.907a4.077,4.077,0,0,1-1.78-.422,3.117,3.117,0,0,1-1.2-1.082,3.648,3.648,0,0,1-.552-2.212,5,5,0,0,1,.786-2.434,4.523,4.523,0,0,1-2.525-.189,3.586,3.586,0,0,1-1.649-1.38,4.975,4.975,0,0,1-.365-.672,3.381,3.381,0,0,1,.119-3.149,7.678,7.678,0,0,1,2.673-2.751l4.037-2.621,1.485,2.288-4.037,2.62a7.187,7.187,0,0,0-2.332,2.207,1.876,1.876,0,0,0-.023,2.119,1.794,1.794,0,0,0,1.626.774,5.727,5.727,0,0,0,2.872-1.136l4.34-2.816,1.484,2.287-4.036,2.621a7.376,7.376,0,0,0-1.69,1.467,3.8,3.8,0,0,0-.834,1.569,1.673,1.673,0,0,0,.189,1.323,1.758,1.758,0,0,0,1.609.749,5.811,5.811,0,0,0,2.867-1.144l4.34-2.817,1.528,2.355-6.341,4.115A4.946,4.946,0,0,0-673.065,399.369Z" transform="translate(704.498 -183.4)" fill="#fff"/>
    <path id="패스_601" data-name="패스 601" d="M-674.491,371.914l.817,1.654a8.262,8.262,0,0,0-1.8-.488,5.843,5.843,0,0,0-1.69-.093l-1.39.083-7.267,8.827-1.323-2.679,5.164-5.93-7.857.485-.444-.9Z" transform="translate(706.352 -181.708)" fill="#fff"/>
    <path id="패스_602" data-name="패스 602" d="M-688.786,355.34a5.108,5.108,0,0,0,1.631-.923,3.168,3.168,0,0,0,.757-1.014l1.355,3.5-2.206.855a4.177,4.177,0,0,1,2.127.606,2.947,2.947,0,0,1,1.182,1.553,3.613,3.613,0,0,1-.315,3.488,7.8,7.8,0,0,1-3.451,2.272l-4.487,1.74-.985-2.543,4.486-1.739a6.915,6.915,0,0,0,2.62-1.617,1.771,1.771,0,0,0,.471-1.946,1.92,1.92,0,0,0-.222-.409,2.019,2.019,0,0,0-1.581-.774,6.5,6.5,0,0,0-2.912.559l-4.486,1.739-1.015-2.617Z" transform="translate(707.576 -177.617)" fill="#fff"/>
    <path id="패스_603" data-name="패스 603" d="M-697.725,348.854a3.477,3.477,0,0,0-.9.939l-.911-3.658,1.615-.4a4.081,4.081,0,0,1-1.546-.979,3.111,3.111,0,0,1-.786-1.416,3.646,3.646,0,0,1,.2-2.271,5.014,5.014,0,0,1,1.536-2.046,4.523,4.523,0,0,1-2.326-1,3.583,3.583,0,0,1-1.109-1.842,4.847,4.847,0,0,1-.126-.754,3.381,3.381,0,0,1,1.137-2.938,7.677,7.677,0,0,1,3.422-1.731l4.67-1.164.659,2.645-4.669,1.165a7.17,7.17,0,0,0-2.924,1.327,1.875,1.875,0,0,0-.711,2,1.791,1.791,0,0,0,1.285,1.26,5.727,5.727,0,0,0,3.086-.138l5.02-1.251.659,2.646-4.669,1.164a7.405,7.405,0,0,0-2.075.837,3.8,3.8,0,0,0-1.3,1.213,1.674,1.674,0,0,0-.251,1.312A1.755,1.755,0,0,0-697.467,345a5.8,5.8,0,0,0,3.083-.148l5.02-1.251.678,2.723-7.334,1.828A4.935,4.935,0,0,0-697.725,348.854Z" transform="translate(708.965 -172.355)" fill="#fff"/>
    <path id="패스_604" data-name="패스 604" d="M-698.536,304.771a6.417,6.417,0,0,1,1.675,2.335,8.326,8.326,0,0,1,.71,2.808,7.785,7.785,0,0,1-.629,3.716,6.386,6.386,0,0,1-2.367,2.762,7.9,7.9,0,0,1-3.931,1.214,7.736,7.736,0,0,1-3.973-.713,6.582,6.582,0,0,1-2.727-2.449,7.591,7.591,0,0,1-1.122-3.6,8.856,8.856,0,0,1,.333-2.845,4.857,4.857,0,0,1,1.951-2.665l.59.767a4.752,4.752,0,0,0-1.56,1.866,4.54,4.54,0,0,0-.414,2.177,3.631,3.631,0,0,0,.132.815,4.673,4.673,0,0,0,2.109,2.84,7.549,7.549,0,0,0,4.492.82,9.613,9.613,0,0,0,3.456-.781,4.8,4.8,0,0,0,2.055-1.657,3.524,3.524,0,0,0,.583-2.207,6.443,6.443,0,0,0-.622-2.684,1.637,1.637,0,0,0-1.669-.828l-4.222.268.245,3.862-.8.05-.41-6.463,3.763-.238A3.184,3.184,0,0,1-698.536,304.771Z" transform="translate(710.912 -166.685)" fill="#fff"/>
    <path id="패스_605" data-name="패스 605" d="M-695.834,296.8a4.443,4.443,0,0,1-1.972,1.668,6.077,6.077,0,0,1-2.707.476,5.716,5.716,0,0,1-2.592-.693,4.55,4.55,0,0,1-1.8-1.826,5.341,5.341,0,0,1-.592-2.832,5.334,5.334,0,0,1,.811-2.777,4.549,4.549,0,0,1,1.942-1.68,5.734,5.734,0,0,1,2.637-.489,6.094,6.094,0,0,1,2.663.686,4.446,4.446,0,0,1,1.835,1.817,5.379,5.379,0,0,1,.591,2.852A5.381,5.381,0,0,1-695.834,296.8Zm-2.307-.783a4.328,4.328,0,0,0,1.726-.775,1.662,1.662,0,0,0,.691-1.267,1.661,1.661,0,0,0-.59-1.317,4.325,4.325,0,0,0-1.66-.908,8.373,8.373,0,0,0-2.222-.378,8.132,8.132,0,0,0-2.2.2,4.325,4.325,0,0,0-1.715.777,1.659,1.659,0,0,0-.692,1.267,1.659,1.659,0,0,0,.591,1.317,4.331,4.331,0,0,0,1.65.908,8.111,8.111,0,0,0,2.173.375A8.356,8.356,0,0,0-698.142,296.012Z" transform="translate(709.718 -163.303)" fill="#fff"/>
    <path id="패스_606" data-name="패스 606" d="M-694.833,281.861a4.44,4.44,0,0,1-2.115,1.482,6.068,6.068,0,0,1-2.74.227,5.728,5.728,0,0,1-2.518-.925,4.548,4.548,0,0,1-1.631-1.983,5.338,5.338,0,0,1-.331-2.874,5.335,5.335,0,0,1,1.06-2.692,4.556,4.556,0,0,1,2.087-1.5,5.737,5.737,0,0,1,2.67-.247,6.1,6.1,0,0,1,2.589.925,4.44,4.44,0,0,1,1.662,1.977,5.377,5.377,0,0,1,.329,2.894A5.361,5.361,0,0,1-694.833,281.861Zm-2.226-.989a4.331,4.331,0,0,0,1.789-.615,1.663,1.663,0,0,0,.8-1.2,1.662,1.662,0,0,0-.468-1.366,4.336,4.336,0,0,0-1.57-1.055,8.4,8.4,0,0,0-2.179-.579,8.125,8.125,0,0,0-2.2,0,4.346,4.346,0,0,0-1.78.617,1.661,1.661,0,0,0-.8,1.2,1.662,1.662,0,0,0,.468,1.366,4.339,4.339,0,0,0,1.561,1.053,8.08,8.08,0,0,0,2.129.573A8.368,8.368,0,0,0-697.06,280.873Z" transform="translate(709.435 -159.913)" fill="#fff"/>
    <path id="패스_607" data-name="패스 607" d="M-692.361,263.955a4.771,4.771,0,0,1-1.259,2.353,4.6,4.6,0,0,1-2.194,1.239,5.461,5.461,0,0,1-2.575.006,6.473,6.473,0,0,1-2.312-1.074,5.142,5.142,0,0,1-1.683-2.05,4.284,4.284,0,0,1-.213-2.84,8.538,8.538,0,0,1,1.627-3.182l-1.894-.442a5.033,5.033,0,0,0-1.848-.153,3.214,3.214,0,0,0-1.221.425l.856-3.671,11.228,2.619a5.1,5.1,0,0,0,1.867.158,3.009,3.009,0,0,0,1.2-.431l-.857,3.671-.8-.187A7.776,7.776,0,0,1-692.361,263.955Zm-2.327.8a2.792,2.792,0,0,0,1.68-2.079,6.033,6.033,0,0,0-.014-2.412l-7.2-1.681a5.658,5.658,0,0,0-1.33,2.346,2.413,2.413,0,0,0,.777,2.539,6.469,6.469,0,0,0,2.855,1.4A5.232,5.232,0,0,0-694.688,264.751Z" transform="translate(709.812 -155.774)" fill="#fff"/>
    <path id="패스_608" data-name="패스 608" d="M-695.374,230.793a4.984,4.984,0,0,0-1.161.929,4.68,4.68,0,0,0-.976,1.574,3.484,3.484,0,0,0-.243,2.009,1.867,1.867,0,0,0,1.269,1.361,2.092,2.092,0,0,0,1.205.149,2.555,2.555,0,0,0,1.136-.626,9.977,9.977,0,0,0,1.335-1.528,13.636,13.636,0,0,1,1.736-1.908,4.267,4.267,0,0,1,1.849-.976,3.648,3.648,0,0,1,2.224.242,4.024,4.024,0,0,1,2.776,2.991,8,8,0,0,1-.594,4.449,7.383,7.383,0,0,1-4.5,4.376l-.874-1.106a3.594,3.594,0,0,0,2.656-.89,6.159,6.159,0,0,0,1.712-2.414,3.236,3.236,0,0,0,.171-2.286,2.583,2.583,0,0,0-1.23-1.487c-.238-.124-.419-.21-.544-.261a2.177,2.177,0,0,0-1.588-.052,4.48,4.48,0,0,0-1.726,1.425l-.328.387a18.1,18.1,0,0,1-1.714,1.905,4.367,4.367,0,0,1-1.787,1.012,3.431,3.431,0,0,1-2.275-.2,3.275,3.275,0,0,1-2.2-2.5,7.445,7.445,0,0,1,.612-4.118,6.834,6.834,0,0,1,1.418-2.272,11.407,11.407,0,0,1,2.1-1.654l.978,1.169A2.445,2.445,0,0,0-695.374,230.793Z" transform="translate(708.307 -150.196)" fill="#fff"/>
    <path id="패스_609" data-name="패스 609" d="M-678.914,227.852a4.441,4.441,0,0,1-2.494.67,6.084,6.084,0,0,1-2.652-.722,5.711,5.711,0,0,1-2.05-1.732,4.549,4.549,0,0,1-.855-2.42,5.327,5.327,0,0,1,.671-2.815,5.343,5.343,0,0,1,1.916-2.168,4.551,4.551,0,0,1,2.473-.693,5.719,5.719,0,0,1,2.595.682,6.1,6.1,0,0,1,2.116,1.754,4.441,4.441,0,0,1,.886,2.426,5.382,5.382,0,0,1-.68,2.832A5.384,5.384,0,0,1-678.914,227.852Zm-1.754-1.69a4.32,4.32,0,0,0,1.891.034,1.66,1.66,0,0,0,1.165-.851,1.661,1.661,0,0,0,.027-1.444,4.339,4.339,0,0,0-1.116-1.528,8.392,8.392,0,0,0-1.85-1.288,8.078,8.078,0,0,0-2.074-.749,4.347,4.347,0,0,0-1.883-.03,1.664,1.664,0,0,0-1.165.852,1.665,1.665,0,0,0-.026,1.443,4.344,4.344,0,0,0,1.106,1.524,8.124,8.124,0,0,0,1.806,1.265A8.38,8.38,0,0,0-680.668,226.162Z" transform="translate(705.622 -147.686)" fill="#fff"/>
    <path id="패스_610" data-name="패스 610" d="M-671.648,214.779a4.443,4.443,0,0,1-2.546.439,6.1,6.1,0,0,1-2.575-.963,5.723,5.723,0,0,1-1.882-1.912,4.548,4.548,0,0,1-.629-2.49,5.327,5.327,0,0,1,.926-2.74,5.328,5.328,0,0,1,2.107-1.983,4.554,4.554,0,0,1,2.525-.464,5.726,5.726,0,0,1,2.521.916,6.078,6.078,0,0,1,1.947,1.941,4.441,4.441,0,0,1,.66,2.5,5.374,5.374,0,0,1-.936,2.758A5.37,5.37,0,0,1-671.648,214.779Zm-1.592-1.844a4.332,4.332,0,0,0,1.881.207,1.664,1.664,0,0,0,1.239-.742,1.661,1.661,0,0,0,.159-1.435,4.341,4.341,0,0,0-.97-1.624,8.4,8.4,0,0,0-1.724-1.453,8.08,8.08,0,0,0-2-.936,4.321,4.321,0,0,0-1.872-.2,1.66,1.66,0,0,0-1.239.742,1.661,1.661,0,0,0-.159,1.435,4.329,4.329,0,0,0,.962,1.618,8.068,8.068,0,0,0,1.682,1.426A8.331,8.331,0,0,0-673.24,212.935Z" transform="translate(703.922 -144.741)" fill="#fff"/>
    <path id="패스_611" data-name="패스 611" d="M-663.214,202.425a4.444,4.444,0,0,1-2.575.2,6.1,6.1,0,0,1-2.476-1.193,5.728,5.728,0,0,1-1.7-2.076,4.556,4.556,0,0,1-.4-2.536,5.344,5.344,0,0,1,1.173-2.645,5.337,5.337,0,0,1,2.279-1.782,4.55,4.55,0,0,1,2.557-.23,5.731,5.731,0,0,1,2.427,1.142,6.1,6.1,0,0,1,1.76,2.11,4.447,4.447,0,0,1,.429,2.547,5.37,5.37,0,0,1-1.185,2.661A5.384,5.384,0,0,1-663.214,202.425Zm-1.417-1.982a4.336,4.336,0,0,0,1.854.378,1.666,1.666,0,0,0,1.3-.626,1.665,1.665,0,0,0,.289-1.415,4.333,4.333,0,0,0-.819-1.706,8.352,8.352,0,0,0-1.584-1.6,8.116,8.116,0,0,0-1.9-1.115,4.338,4.338,0,0,0-1.845-.371,1.659,1.659,0,0,0-1.3.625,1.661,1.661,0,0,0-.289,1.415,4.32,4.32,0,0,0,.81,1.7,8.123,8.123,0,0,0,1.545,1.574A8.358,8.358,0,0,0-664.631,200.443Z" transform="translate(701.959 -141.964)" fill="#fff"/>
    <path id="패스_612" data-name="패스 612" d="M-650.45,185.86a1.792,1.792,0,0,1-1.307-.561l-6.882-6.813a5.033,5.033,0,0,0-1.494-1.1,3.218,3.218,0,0,0-1.263-.277l2.652-2.678,8.022,7.941a3.259,3.259,0,0,0,1.529,1.006,1.3,1.3,0,0,0,1.168-.453l.612.606-1.735,1.753A1.79,1.79,0,0,1-650.45,185.86Z" transform="translate(699.969 -138.064)" fill="#fff"/>
    <path id="패스_613" data-name="패스 613" d="M-638.351,172.349a5.1,5.1,0,0,0,1.422,1.221,3.156,3.156,0,0,0,1.211.368l-2.829,2.461-1.553-1.785a4.174,4.174,0,0,1,.153,2.206,2.945,2.945,0,0,1-1.059,1.64,3.614,3.614,0,0,1-3.388.887,7.806,7.806,0,0,1-3.31-2.475l-3.159-3.63,2.057-1.79,3.159,3.63A6.916,6.916,0,0,0-643.235,177a1.772,1.772,0,0,0,1.99-.217,1.932,1.932,0,0,0,.309-.348,2.015,2.015,0,0,0,.192-1.749,6.5,6.5,0,0,0-1.514-2.55l-3.159-3.63,2.118-1.843Z" transform="translate(697.641 -136.347)" fill="#fff"/>
    <path id="패스_614" data-name="패스 614" d="M-631.833,159.525a3.313,3.313,0,0,0-1.254,1.726,4.335,4.335,0,0,0-.1,2.232,4.662,4.662,0,0,0,.983,2.059,4.98,4.98,0,0,0,1.765,1.411,4.012,4.012,0,0,0,1.9.4,3,3,0,0,0,1.628-.552,2.91,2.91,0,0,0,1.14-1.73,4.393,4.393,0,0,0-.234-2.546l.636-.456a4.9,4.9,0,0,1,.305,3.384,4.72,4.72,0,0,1-1.823,2.515,5.839,5.839,0,0,1-2.59,1.032,5.61,5.61,0,0,1-2.812-.291,4.754,4.754,0,0,1-2.249-1.742,4.994,4.994,0,0,1-.922-2.558,5.628,5.628,0,0,1,.5-2.8,5.508,5.508,0,0,1,1.851-2.253,6.814,6.814,0,0,1,3.515-1.189l.421.587A4.563,4.563,0,0,0-631.833,159.525Z" transform="translate(694.241 -134.47)" fill="#fff"/>
    <path id="패스_615" data-name="패스 615" d="M-620.5,160.591a5.126,5.126,0,0,0-.689-1.709l-4.309-7.445a5.139,5.139,0,0,0-1.14-1.448,3.345,3.345,0,0,0-1.142-.613l4.077-2.361a3.229,3.229,0,0,0-.051,1.293,5.04,5.04,0,0,0,.684,1.723l4.309,7.444a5.012,5.012,0,0,0,1.153,1.452,3.237,3.237,0,0,0,1.146.6l-4.077,2.36A3.363,3.363,0,0,0-620.5,160.591Zm3.379-12.774,1.475-.854-1.86,6.312,7.728,2.385-3.21,1.858-6.4-2.043Z" transform="translate(692.539 -131.993)" fill="#fff"/>
    <path id="패스_616" data-name="패스 616" d="M-600.352,156.886l-1.675.773a8.244,8.244,0,0,0,.535-1.782,5.833,5.833,0,0,0,.138-1.687l-.046-1.392-8.63-7.5,2.713-1.251,5.79,5.321-.275-7.867.911-.421Z" transform="translate(688.617 -130.693)" fill="#fff"/>
  </g>
</svg>
