<svg xmlns="http://www.w3.org/2000/svg" width="392.142" height="409.676" viewBox="0 0 392.142 409.676">
  <path id="패스_227" data-name="패스 227" d="M677.35,230.137c-14.968-22.618-39.965-37.446-68.288-37.446s-53.317,14.825-68.285,37.436c-14.971-22.611-39.965-37.436-68.285-37.436h0c-28.327,0-53.323,14.831-68.291,37.449a86.431,86.431,0,0,0-9.629-12.077,80.81,80.81,0,0,0-58.63-25.372V584.833c28.3,0,53.287-14.831,68.259-37.446,14.968,22.615,39.965,37.446,68.291,37.446h0c28.32,0,53.313-14.824,68.285-37.436,14.968,22.611,39.961,37.436,68.285,37.436s53.32-14.828,68.288-37.446c14.961,22.615,39.945,37.446,68.268,37.446V192.691C717.295,192.691,692.311,207.522,677.35,230.137Z" transform="translate(584.833 -335.942) rotate(90)" fill="#1f8861"/>
</svg>
