<svg xmlns="http://www.w3.org/2000/svg" width="437.764" height="366.672" viewBox="0 0 437.764 366.672">
  <g id="그룹_786" data-name="그룹 786" transform="translate(-248.849 249.343) rotate(13)">
    <path id="패스_1102" data-name="패스 1102" d="M548.874-206.665l-11.365,51.772a122.106,122.106,0,0,1-25.43,50.279A123.278,123.278,0,0,1,453.07-66.431l-35.322,3.093" transform="translate(7.787 6.424)" fill="none" stroke="#4f4f4f" stroke-linecap="round" stroke-linejoin="round" stroke-width="8.82"/>
    <g id="그룹_785" data-name="그룹 785" transform="translate(275.274 -255.208)">
      <path id="패스_1103" data-name="패스 1103" d="M336.982-116.225,299.469-74.618c-5.841-5.165-13.444-6.592-18.978-3.65a14.21,14.21,0,0,0-6.247,7.132c-2.006,5.391.31,10.408,1.378,12.718,1.465,3.174,5.77,6.828,14.321,14.007,6.128,5.145,9.57,7.691,14.562,9.809a44.543,44.543,0,0,0,5.193,1.831,15.865,15.865,0,0,0,5.54-.205c10.051-2.214,15.149-14.244,17.211-18.771,5.045-11.07,14.349-26.442,32.4-49.065L340.28-118.83Z" transform="translate(-273.454 265.264)" fill="#51bc99" stroke="#292447" stroke-miterlimit="10" stroke-width="13.025"/>
      <path id="패스_1104" data-name="패스 1104" d="M392.247-86.022,375.333-32.615c-7.455-2.283-14.966-.432-18.785,4.537A14.2,14.2,0,0,0,353.817-19c.407,5.738,4.592,9.344,6.52,11.005,2.649,2.283,8.081,3.826,18.837,6.819,7.708,2.145,11.9,3.038,17.316,2.9a44.355,44.355,0,0,0,5.486-.484,15.887,15.887,0,0,0,4.958-2.481c8.231-6.177,7.889-19.238,7.892-24.214.007-12.165,2.109-30.011,9.167-58.077L394.17-89.758Z" transform="translate(-270.131 266.466)" fill="#51bc99" stroke="#292447" stroke-miterlimit="10" stroke-width="13.025"/>
      <path id="패스_1105" data-name="패스 1105" d="M478.431-151.531c27.9-24.4,22.163-62.019,1.732-75.79-18.121-12.213-52.377-8.758-72.47,15.153-6.691-30.507-35.424-49.477-57.143-47.076-24.49,2.706-47.04,33.354-33.665,67.925-34.637,19.239-39.619,60.67-17.8,84.406,17.651,19.2,51.744,25.63,79.717,12.052,18.465,25.015,51.644,35.158,76.194,26.349C485.34-79.4,500.171-118.406,478.431-151.531Z" transform="translate(-272.937 259.449)" fill="#51bc99" stroke="#292447" stroke-linecap="round" stroke-linejoin="round" stroke-width="13.025"/>
      <path id="패스_1106" data-name="패스 1106" d="M412.512-169.77s5.722-2.945,9.87-5.22c.459-7.526-1.955-13.631-6.317-14.706-5.461-1.344-11.892,5.7-14.364,15.738s-.049,19.264,5.413,20.608c4.019.99,8.558-2.573,11.662-8.519Z" transform="translate(-268.19 262.327)" fill="#292447"/>
      <path id="패스_1107" data-name="패스 1107" d="M373-179.5s5.722-2.945,9.87-5.219c.46-7.526-1.955-13.632-6.316-14.706-5.462-1.345-11.892,5.7-14.364,15.738s-.049,19.263,5.412,20.608c4.019.99,8.558-2.573,11.663-8.52Z" transform="translate(-269.824 261.924)" fill="#292447"/>
      <circle id="타원_299" data-name="타원 299" cx="5.642" cy="5.642" r="5.642" transform="translate(112.135 98.126)" fill="#292447"/>
      <line id="선_101" data-name="선 101" x2="14.371" y2="24.516" transform="translate(75.599 30.451)" fill="none" stroke="#29775b" stroke-linecap="round" stroke-miterlimit="10" stroke-width="9.078"/>
      <line id="선_102" data-name="선 102" x2="14.371" y2="24.516" transform="translate(160.827 142.955)" fill="none" stroke="#29775b" stroke-linecap="round" stroke-miterlimit="10" stroke-width="9.078"/>
      <line id="선_103" data-name="선 103" x1="24.113" y2="15.037" transform="translate(43.861 120.085)" fill="none" stroke="#29775b" stroke-linecap="round" stroke-miterlimit="10" stroke-width="9.078"/>
      <line id="선_104" data-name="선 104" x1="24.113" y2="15.037" transform="translate(168.933 53.577)" fill="none" stroke="#29775b" stroke-linecap="round" stroke-miterlimit="10" stroke-width="9.078"/>
    </g>
    <ellipse id="타원_300" data-name="타원 300" cx="66.3" cy="78.043" rx="66.3" ry="78.043" transform="translate(483.072 -362)" fill="#ff6161" stroke="#c12d2d" stroke-linecap="round" stroke-linejoin="round" stroke-width="8.82"/>
    <path id="패스_1108" data-name="패스 1108" d="M534.437-212.03l-19.385,19.321,47.155,3.852-9.356-25.262Z" transform="translate(11.811 6.115)" fill="#ff6161" stroke="#c12d2d" stroke-linecap="round" stroke-linejoin="round" stroke-width="8.82"/>
    <path id="패스_1109" data-name="패스 1109" d="M314.206-150.234c.2-1.754-50.549-7.62-54.81-9.689-2.073-1.007-4.013-2.807-4.179-5.106a6.78,6.78,0,0,1,.966-3.618c2.554-4.758,7.529-8.051,11.9-11.013,1.786-1.21,14.1-9.578,15.567-8.344l-14.839-12.5c-12.5,5.11-27.48,12.3-35.4,23.753-6.273,9.079-5.362,20.131,4.368,26.3,5.019,3.183,10.674,4.122,16.373,5.332,6.126,1.3,12.19,2.9,18.338,4.1,27.852,5.445,37.989,7.634,40.039,3.868.222-.409.07-.374.754-5.974C314.137-150.032,314.158-149.814,314.206-150.234Z" transform="translate(0 6.679)" fill="#43dcff" stroke="#3b99ff" stroke-linecap="round" stroke-linejoin="round" stroke-width="6.051"/>
    <rect id="사각형_348" data-name="사각형 348" width="79.837" height="15.159" transform="translate(314.207 -143.555) rotate(7.332)" fill="#ff80e7" stroke="#ff39a1" stroke-linecap="round" stroke-linejoin="round" stroke-width="6.051"/>
    <path id="패스_1110" data-name="패스 1110" d="M388.8-142.306c-.22.275-3.964,5.135-1.942,10.723a11.377,11.377,0,0,0,11.293,7.221" transform="translate(6.485 9.085)" fill="none" stroke="#292447" stroke-linecap="round" stroke-linejoin="round" stroke-width="9.473"/>
  </g>
</svg>
