<svg xmlns="http://www.w3.org/2000/svg" width="611.294" height="624.827" viewBox="0 0 611.294 624.827">
  <path id="패스_497" data-name="패스 497" d="M-2255.455-1829.042c40.094-32.363,65.638-81.258,65.638-135.972,0-97.446-81.021-176.441-180.966-176.441a182.83,182.83,0,0,0-124.68,48.562,182.833,182.833,0,0,0-124.682-48.562c-99.944,0-180.966,79-180.966,176.441,0,54.714,25.545,103.609,65.638,135.972-40.093,32.363-65.638,81.258-65.638,135.972,0,97.446,81.022,176.441,180.966,176.441a182.831,182.831,0,0,0,124.682-48.562,182.828,182.828,0,0,0,124.68,48.562c99.945,0,180.966-78.995,180.966-176.441C-2189.817-1747.784-2215.361-1796.679-2255.455-1829.042Z" transform="translate(2801.111 2141.456)" fill="#63b79c"/>
</svg>
