<svg xmlns="http://www.w3.org/2000/svg" width="1160.941" height="263.062" viewBox="0 0 1160.941 263.062">
  <g id="그룹_669" data-name="그룹 669" transform="translate(-1064.031 -3365.465)">
    <g id="그룹_352" data-name="그룹 352" transform="translate(1064.031 3385.965)">
      <path id="패스_513" data-name="패스 513" d="M-1283.77,288.624c96.742,0,96.742,65.5,193.484,65.5s96.744-65.5,193.487-65.5,96.745,65.5,193.49,65.5,96.743-65.5,193.487-65.5,96.749,65.5,193.5,65.5,96.748-65.5,193.5-65.5" transform="translate(1283.77 -288.624)" fill="none" stroke="#ffb2e8" stroke-miterlimit="10" stroke-width="41"/>
    </g>
    <g id="그룹_353" data-name="그룹 353" transform="translate(1064.031 3464.246)">
      <path id="패스_513-2" data-name="패스 513" d="M-1283.77,288.624c96.742,0,96.742,65.5,193.484,65.5s96.744-65.5,193.487-65.5,96.745,65.5,193.49,65.5,96.743-65.5,193.487-65.5,96.749,65.5,193.5,65.5,96.748-65.5,193.5-65.5" transform="translate(1283.77 -288.624)" fill="none" stroke="#ffb2e8" stroke-miterlimit="10" stroke-width="41"/>
    </g>
    <g id="그룹_354" data-name="그룹 354" transform="translate(1064.031 3542.527)">
      <path id="패스_513-3" data-name="패스 513" d="M-1283.77,288.624c96.742,0,96.742,65.5,193.484,65.5s96.744-65.5,193.487-65.5,96.745,65.5,193.49,65.5,96.743-65.5,193.487-65.5,96.749,65.5,193.5,65.5,96.748-65.5,193.5-65.5" transform="translate(1283.77 -288.624)" fill="none" stroke="#ffb2e8" stroke-miterlimit="10" stroke-width="41"/>
    </g>
  </g>
</svg>
