<svg xmlns="http://www.w3.org/2000/svg" width="101.307" height="106.44" viewBox="0 0 101.307 106.44">
  <path id="패스_508" data-name="패스 508" d="M2469.3,795.81c0,3.846-33.665,12.975-32.538,16.445,1.168,3.6,33.8-8.818,35.981-5.824,2.2,3.024-19.674,30.228-16.65,32.429,2.994,2.179,22.1-27.007,25.7-25.839,3.47,1.127,1.75,36.009,5.6,36.009s2.125-34.882,5.6-36.009c3.6-1.168,22.7,28.018,25.7,25.839,3.024-2.2-18.851-29.4-16.65-32.429,2.179-2.994,34.813,9.421,35.981,5.824,1.127-3.471-32.537-12.6-32.537-16.446s33.664-12.975,32.538-16.446c-1.168-3.6-33.8,8.818-35.981,5.824-2.2-3.024,19.674-30.228,16.65-32.429-2.994-2.179-22.1,27.007-25.7,25.839-3.471-1.127-1.75-36.009-5.6-36.009s-2.126,34.882-5.6,36.009c-3.6,1.168-22.7-28.018-25.7-25.839-3.024,2.2,18.851,29.4,16.65,32.429-2.179,2.994-34.813-9.421-35.981-5.824C2435.637,782.835,2469.3,791.964,2469.3,795.81Z" transform="translate(-2436.736 -742.59)" fill="#55cbf2"/>
</svg>
