<svg xmlns="http://www.w3.org/2000/svg" width="44.068" height="43.046" viewBox="0 0 44.068 43.046">
  <path id="패스_499" data-name="패스 499" d="M1501.075,2546.595a25.931,25.931,0,0,0-2.726-.481,25.979,25.979,0,0,0,2.248-1.617c4.939-3.938,7.781-8.588,6.348-10.385s-6.6-.061-11.538,3.878a26.041,26.041,0,0,0-2.076,1.831,26.043,26.043,0,0,0,.137-2.765c0-6.317-1.863-11.438-4.162-11.438s-4.162,5.121-4.162,11.438a26.074,26.074,0,0,0,.137,2.762,26.126,26.126,0,0,0-2.074-1.83c-4.939-3.939-10.1-5.676-11.537-3.88s1.408,6.447,6.346,10.387a25.984,25.984,0,0,0,2.248,1.617,26,26,0,0,0-2.727.481c-6.159,1.4-10.738,4.361-10.226,6.6s5.919,2.918,12.078,1.514a26.137,26.137,0,0,0,2.665-.749,26.074,26.074,0,0,0-1.324,2.431c-2.741,5.691-3.285,11.114-1.214,12.111s5.972-2.807,8.714-8.5a26.013,26.013,0,0,0,1.076-2.551,26.043,26.043,0,0,0,1.076,2.551c2.741,5.692,6.641,9.5,8.712,8.5s1.528-6.42-1.212-12.112a26.058,26.058,0,0,0-1.324-2.432,26.084,26.084,0,0,0,2.665.75c6.159,1.406,11.566.729,12.078-1.512S1507.234,2548,1501.075,2546.595Z" transform="translate(-1467.272 -2525.617)" fill="#f8f3ea"/>
</svg>
